<svg height="102" xmlns:xlink="http://www.w3.org/1999/xlink" viewBox="0 0 172 102" width="172" xmlns="http://www.w3.org/2000/svg">
    <defs>
        <linearGradient id="lg1" y1="0%" x1="100%" x2="0%" y2="0%">
            <stop stop-color="#b5b5b5" offset="0"/>
            <stop stop-color="#ffffff" offset="0.03"/>
            <stop stop-color="#ebebeb" offset="0.08"/>
            <stop stop-color="#e7e7e7" offset="0.64"/>
            <stop stop-color="#e2e2e2" offset="0.95"/>
            <stop stop-color="#a8a8a8" offset="1"/>
        </linearGradient>
        <linearGradient id="lg2" y1="0%" x1="0%" x2="0%" y2="100%">
            <stop stop-color="#b5b5b5" offset="0"/>
            <stop stop-color="#ffffff" offset="0.03"/>
            <stop stop-color="#ebebeb" offset="0.08"/>
            <stop stop-color="#e7e7e7" offset="0.64"/>
            <stop stop-color="#e2e2e2" offset="0.95"/>
            <stop stop-color="#a8a8a8" offset="1"/>
        </linearGradient>
        <linearGradient id="lg3" y1="0%" x1="0%" x2="0%" y2="100%">
            <stop stop-color="#c1c2c3" offset="0"/>
            <stop stop-color="#fbfdfe" offset="0.15"/>
            <stop stop-color="#fdfefe" offset="0.25"/>
            <stop stop-color="#dcdede" offset="0.52"/>
            <stop stop-color="#c4c5c6" offset="0.69"/>
            <stop stop-color="#b9babb" offset="0.8"/>
            <stop stop-color="#aeb0b0" offset="0.97"/>
            <stop stop-color="#c8cacb" offset="1"/>
        </linearGradient>
    </defs>
    <g transform="translate(1,1)">
        <path id="shape1" d="M4.1,0L152,0C154.3,0,156.1,1.9,156.1,4.1L156.1,86.8C156.1,89.1,154.3,90.9,152,90.9L4.1,90.9C1.8,90.9,0,89.1,0,86.8L0,4.1C0,1.9,1.8,0,4.1,0z" fill="url(#lg1)" transform="translate(13.88,0)"/>
        <path id="shape2" d="M0,0L45.7,0L45.7,25.2L0,25.2L0,0z" fill="#8e9ea5" transform="translate(28.33,15.73)"/>
        <path id="shape3" d="M0,0L45.7,0L45.7,25.2L0,25.2L0,0z" fill="#8e9ea5" transform="translate(76.87,15.73)"/>
        <path id="shape4" d="M0,0L45.7,0L45.7,25.2L0,25.2L0,0z" fill="#8e9ea5" transform="translate(28.33,43.57)"/>
        <path id="shape5" d="M0,0L45.7,0L45.7,25.2L0,25.2L0,0z" fill="#8e9ea5" transform="translate(76.87,43.57)"/>
        <path stroke="#8e9ea5" id="shape6" d="M0,0L31.9,0L31.9,52.8L0,52.8L0,0z" fill="#e0e9e8" transform="translate(126.35,15.73)"/>
        <path id="shape7" d="M0,0L35.5,0L35.5,9.2L0,9.2L0,0z" fill="url(#lg2)" transform="translate(37.02,90.85)"/>
        <path id="shape8" d="M0,0L35.5,0L35.5,9.2L0,9.2L0,0z" fill="url(#lg2)" transform="translate(112.67,90.85)"/>
        <g transform="translate(-0,20.31)">
            <path id="shape9" d="M14,0L0,0L0,16L14,16L14,0z" fill="url(#lg3)" transform="translate(0,17.16)"/>
            <path id="shape10" d="M4.9,0L0,0L0,6.5L4.9,6.5L4.9,0z" fill="url(#lg3)" transform="translate(9.07,-0)"/>
            <path id="shape11" d="M4.9,0L0,0L0,6.5L4.9,6.5L4.9,0z" fill="url(#lg3)" transform="translate(9.07,43.85)"/>
        </g>
        <path stroke="#000000" id="shape12" d="M0,0L30.9,0L30.9,9.4L0,9.4L0,0z" fill="#3e3938" transform="translate(35.74,23.59)"/>
        <path stroke="#000000" id="shape13" d="M0,0L30.9,0L30.9,9.4L0,9.4L0,0z" fill="#3e3938" transform="translate(84.28,23.59)"/>
        <path stroke="#000000" id="shape14" d="M0,0L30.9,0L30.9,9.4L0,9.4L0,0z" fill="#3e3938" transform="translate(35.74,51.43)"/>
        <path stroke="#000000" id="shape15" d="M0,0L30.9,0L30.9,9.4L0,9.4L0,0z" fill="#3e3938" transform="translate(84.28,51.43)"/>
    </g>
</svg>
