<svg height="154" xmlns:xlink="http://www.w3.org/1999/xlink" viewBox="0 0 154 154" width="154" xmlns="http://www.w3.org/2000/svg">
    <defs>
        <linearGradient id="lg1" y1="0%" x1="100%" x2="0%" y2="0%">
            <stop stop-color="#292525" offset="0"/>
            <stop stop-color="#868584" offset="0.02"/>
            <stop stop-color="#383433" offset="0.02"/>
            <stop stop-color="#373332" offset="0.64"/>
            <stop stop-color="#363130" offset="0.95"/>
            <stop stop-color="#252221" offset="1"/>
        </linearGradient>
    </defs>
    <g transform="translate(1,1)">
        <path id="shape1" d="M9.1,0L142.9,0C147.9,0,152,4.1,152,9.1L152,142.9C152,147.9,147.9,152,142.9,152L9.1,152C4.1,152,0,147.9,0,142.9L0,9.1C0,4.1,4.1,0,9.1,0z" fill="url(#lg1)"/>
        <path id="shape2" d="M0,0L140.9,0L140.9,140.9L0,140.9L0,0z" fill="#dcdcdd" transform="translate(5.57,4.06)"/>
        <path stroke="#000000" id="shape3" d="M0,0L131.3,0L131.3,131.3L0,131.3L0,0z" fill="#000000" transform="translate(10.33,8.14)"/>
        <path stroke="#000000" id="shape4" d="M0,0L75.2,0L75.2,24.8L0,24.8L0,0z" fill="#b4b5b5" transform="translate(38.4,42.16)"/>
        <path id="shape5" d="M0,0L131.1,0L131.1,2.7L0,2.7L0,0z" fill="#dcdcdd" transform="translate(10.45,123.48)"/>
        <g transform="translate(24.45,103.77)">
            <path stroke="#cdcece" id="shape6" d="M4.9,0L12.8,0C15.5,0,17.7,2.2,17.7,4.9C17.7,7.7,15.5,9.9,12.8,9.9L4.9,9.9C2.2,9.9,0,7.7,0,4.9C0,2.2,2.2,0,4.9,0z" fill="#99222a" transform="translate(-0.01,-0.03)"/>
            <path stroke="#cdcece" id="shape7" d="M4.9,0L12.8,0C15.5,0,17.7,2.2,17.7,4.9C17.7,7.7,15.5,9.9,12.8,9.9L4.9,9.9C2.2,9.9,0,7.7,0,4.9C0,2.2,2.2,0,4.9,0z" fill="#99222a" transform="translate(28.45,-0.03)"/>
            <path stroke="#cdcece" id="shape8" d="M4.9,0L12.8,0C15.5,0,17.7,2.2,17.7,4.9C17.7,7.7,15.5,9.9,12.8,9.9L4.9,9.9C2.2,9.9,0,7.7,0,4.9C0,2.2,2.2,0,4.9,0z" fill="#99222a" transform="translate(56.92,-0.03)"/>
            <path stroke="#cdcece" id="shape9" d="M4.9,0L12.8,0C15.5,0,17.7,2.2,17.7,4.9C17.7,7.7,15.5,9.9,12.8,9.9L4.9,9.9C2.2,9.9,0,7.7,0,4.9C0,2.2,2.2,0,4.9,0z" fill="#99222a" transform="translate(85.38,-0.03)"/>
        </g>
        <path id="shape10" d="M0,0L131.1,0L131.1,2.7L0,2.7L0,0z" fill="#dcdcdd" transform="translate(10.45,128.92)"/>
        <path stroke="#ffffff" id="shape11" d="M3.6,9.2L-0,0L1.3,0L3.8,6.7C4,7.2,4.2,7.7,4.3,8.2C4.4,7.7,4.6,7.2,4.8,6.7L7.4,0L8.6,0L4.9,9.2L3.6,9.2z" fill="#ffffff" transform="translate(71.68,73.42)"/>
    </g>
</svg>
