<svg id="图层_1" data-name="图层 1" xmlns="http://www.w3.org/2000/svg" viewBox="0 0 160 72"><defs><style>.cls-1{fill:#00b1ff;}.cls-2{fill:#00dccd;}</style></defs><title>画板 4</title><polygon class="cls-1" points="112.94 11.2 80.52 31.47 50.04 21.52 20.04 48.63 20.04 50.62 50.04 23.51 80.52 33.46 112.94 13.18 140.04 27.64 140.04 25.65 112.94 11.2"/><polygon class="cls-2" points="112.94 27.39 80.75 55.5 50.04 45.19 20.04 59.22 20.04 61.2 50.04 47.17 80.75 57.48 112.94 29.37 140.04 44.07 140.04 42.09 112.94 27.39"/><path class="cls-1" d="M53,22a3,3,0,0,1-4.64,2.56A2.73,2.73,0,0,1,47,22.14h0A3.1,3.1,0,0,1,49.71,19,3,3,0,0,1,53,22"/><path class="cls-1" d="M116,12a3,3,0,0,1-4.64,2.56A2.73,2.73,0,0,1,110,12.14h0A3.1,3.1,0,0,1,112.71,9,3,3,0,0,1,116,12"/><path class="cls-2" d="M116,29a3,3,0,0,1-4.64,2.56A2.73,2.73,0,0,1,110,29.14h0A3.1,3.1,0,0,1,112.71,26,3,3,0,0,1,116,29"/><path class="cls-1" d="M84,32a3,3,0,0,1-4.64,2.56A2.73,2.73,0,0,1,78,32.14h0A3.1,3.1,0,0,1,80.71,29,3,3,0,0,1,84,32"/><path class="cls-2" d="M84,56a3,3,0,0,1-4.64,2.56A2.73,2.73,0,0,1,78,56.14h0A3.1,3.1,0,0,1,80.71,53,3,3,0,0,1,84,56"/><path class="cls-2" d="M54,47a3,3,0,0,1-4.64,2.56A2.73,2.73,0,0,1,48,47.14h0A3.1,3.1,0,0,1,50.71,44,3,3,0,0,1,54,47"/><path class="cls-1" d="M142,26a3,3,0,0,1-4.64,2.56A2.73,2.73,0,0,1,136,26.14h0A3.1,3.1,0,0,1,138.71,23,3,3,0,0,1,142,26"/><path class="cls-2" d="M142,42a3,3,0,0,1-4.64,2.56A2.73,2.73,0,0,1,136,42.14h0A3.1,3.1,0,0,1,138.71,39,3,3,0,0,1,142,42"/><path class="cls-1" d="M24,49a3,3,0,0,1-4.64,2.56A2.73,2.73,0,0,1,18,49.14h0A3.1,3.1,0,0,1,20.71,46,3,3,0,0,1,24,49"/><path class="cls-2" d="M24,60a3,3,0,0,1-4.64,2.56A2.73,2.73,0,0,1,18,60.14h0A3.1,3.1,0,0,1,20.71,57,3,3,0,0,1,24,60"/></svg>