<svg id="图层_1" data-name="图层 1" xmlns="http://www.w3.org/2000/svg" viewBox="0 0 160 72"><defs><style>.cls-1{fill:#00b1ff;}.cls-2{fill:#0af;opacity:0.5;}</style></defs><title>画板 5 副本 6</title><path class="cls-1" d="M36,53.3h1.5v4.83H36Z"/><rect class="cls-1" x="33" y="58.11" width="8" height="2.89"/><rect class="cls-1" x="30" y="32" width="14" height="21.2"/><rect class="cls-2" x="33" y="13" width="8" height="3"/><path class="cls-2" d="M36.25,16h1.5v4h-1.5Z"/><rect class="cls-2" x="30" y="20" width="14" height="12"/><path class="cls-1" d="M64.85,58h1.63v5H64.85Z"/><rect class="cls-1" x="61.67" y="63" width="8" height="3"/><rect class="cls-1" x="58.67" y="26" width="14" height="32"/><rect class="cls-2" x="61.67" y="6" width="8" height="3"/><path class="cls-2" d="M64.92,9h1.5v4h-1.5Z"/><rect class="cls-2" x="58.67" y="13" width="14" height="13"/><path class="cls-1" d="M93.33,48.5h1.5v5h-1.5Z"/><rect class="cls-1" x="90.33" y="53.5" width="8" height="2"/><polygon class="cls-1" points="87.33 31.5 101.33 31.5 101.33 48.5 87.33 48.5 87.33 31.5 87.33 31.5"/><polygon class="cls-2" points="87.33 23.5 101.33 23.5 101.33 31.5 87.33 31.5 87.33 23.5 87.33 23.5"/><rect class="cls-2" x="90.33" y="16.5" width="8" height="3"/><path class="cls-2" d="M93.58,19.5h1.5v4h-1.5Z"/><path class="cls-1" d="M122,57h1.5v5H122Z"/><rect class="cls-1" x="119" y="62" width="8" height="2"/><polygon class="cls-1" points="116 47 130 47 130 57 116 57 116 47 116 47"/><polygon class="cls-2" points="116 35 130 35 130 47 116 47 116 35 116 35"/><rect class="cls-2" x="119" y="28" width="8" height="3"/><path class="cls-2" d="M122.25,31h1.5v4h-1.5Z"/></svg>