<svg id="图层_1" data-name="图层 1" xmlns="http://www.w3.org/2000/svg" viewBox="0 0 160 72"><defs><style>.cls-1{fill:#0af;opacity:0.4;}.cls-2{fill:#00b1ff;}.cls-3{fill:#00dccd;}</style></defs><title>画板 5</title><path class="cls-1" d="M88.16,43.66A11.2,11.2,0,1,1,80,24.8V4a32,32,0,0,0,0,64,31.52,31.52,0,0,0,23.29-10.13Z"/><path class="cls-2" d="M80,4V24.8A11.19,11.19,0,0,1,91.2,36H112A32.09,32.09,0,0,0,80,4Z"/><path class="cls-3" d="M91.2,36a11.2,11.2,0,0,1-4.28,8.8L99.73,61.15A31.89,31.89,0,0,0,112,36Z"/></svg>