<svg id="图层_1" data-name="图层 1" xmlns="http://www.w3.org/2000/svg" viewBox="0 0 160 72"><defs><style>.cls-1{fill:#00dccd;}.cls-2{fill:none;}.cls-3{fill:#00b1ff;}.cls-4{opacity:0.5;}.cls-5{fill:#0af;}</style></defs><title>画板 5 副本 7</title><path class="cls-1" d="M33.76,37.81,30,38.4a1.9,1.9,0,0,0-.9-1.29,2.91,2.91,0,0,0-1.82-.47,3.08,3.08,0,0,0-2.27.82,3.24,3.24,0,0,0-.91,2.59A3.64,3.64,0,0,0,25,42.87a3.67,3.67,0,0,0,2.27.83,3.2,3.2,0,0,0,1.82-.47,3.44,3.44,0,0,0,1.05-1.65l3.79.47a5.54,5.54,0,0,1-2.27,3.06,8.21,8.21,0,0,1-4.54,1.06A8,8,0,0,1,22,44.64a5.55,5.55,0,0,1-2-4.36,5.11,5.11,0,0,1,2-4.35,7.71,7.71,0,0,1,5.14-1.53,8.6,8.6,0,0,1,4.23.94,3.8,3.8,0,0,1,2.42,2.47Zm41,8H71.13V44.17A6,6,0,0,1,69,45.58a7.46,7.46,0,0,1-2.72.47,6.24,6.24,0,0,1-2.58-.47,3.41,3.41,0,0,1-1.66-1.41,5.53,5.53,0,0,1-.45-2.47V34.52h3.78V39.7a12.08,12.08,0,0,0,.15,2.94,1.57,1.57,0,0,0,.76.82,2.46,2.46,0,0,0,1.36.35,3.17,3.17,0,0,0,2.87-1.53,11,11,0,0,0,.3-3.05V34.4h3.79V45.81ZM51,34.17a9,9,0,0,1,5.44,1.64,5.29,5.29,0,0,1,0,8.47,7.8,7.8,0,0,1-5.29,1.65,10.15,10.15,0,0,1-3.78-.7,5.45,5.45,0,0,1-2.72-2.12,5.83,5.83,0,0,1-.91-3.3,5.52,5.52,0,0,1,.91-2.94,5.43,5.43,0,0,1,2.72-2.11A10.56,10.56,0,0,1,51,34.17Zm0,2.47a3.9,3.9,0,0,0-2.57.94,3,3,0,0,0-1.06,2.59,3,3,0,0,0,1.06,2.59A3.67,3.67,0,0,0,51,43.7a4,4,0,0,0,2.57-.94,3.69,3.69,0,0,0,1.06-2.59,3.12,3.12,0,0,0-1.06-2.59A3.64,3.64,0,0,0,51,36.64Zm41-6.47V45.81H88.37V44.17a6.38,6.38,0,0,1-4.54,1.88,5.84,5.84,0,0,1-4.23-1.53,5.43,5.43,0,0,1-1.82-4.35,5.29,5.29,0,0,1,1.82-4.36A6.25,6.25,0,0,1,84,34.28a6.13,6.13,0,0,1,4.24,1.53V30.17Zm-7,6.35a3.35,3.35,0,0,0-2.27.82,3.42,3.42,0,0,0-.9,2.59,4,4,0,0,0,.6,2.59A3,3,0,0,0,85,43.7a3.07,3.07,0,0,0,2.27-.83,3.37,3.37,0,0,0,.91-2.59,3.78,3.78,0,0,0-.91-2.82A2.77,2.77,0,0,0,85,36.52ZM40.42,45.81H36.64V30.17h3.78Z"/><path class="cls-2" d="M83.69,49.75a1.48,1.48,0,0,0-1,.39,1.89,1.89,0,0,0-.38,1.29,2.16,2.16,0,0,0,.38,1.29,1.57,1.57,0,0,0,2.07,0,1.91,1.91,0,0,0,.39-1.29,2.14,2.14,0,0,0-.39-1.29A1.47,1.47,0,0,0,83.69,49.75Z"/><path class="cls-2" d="M64.12,24.63c-.28,0-.43.15-.71.29a1.61,1.61,0,0,0-.28.87,1.69,1.69,0,0,0,.28,1,1.05,1.05,0,0,0,.71.29.71.71,0,0,0,.56-.29,1.68,1.68,0,0,0,.29-1,2.15,2.15,0,0,0-.29-1C64.68,24.63,64.4,24.63,64.12,24.63Z"/><path class="cls-2" d="M86.7,59.78a1.06,1.06,0,0,0-.72.3,1.23,1.23,0,0,0-.29.78h2a2.37,2.37,0,0,0-.28-.93A6.69,6.69,0,0,0,86.7,59.78Z"/><path class="cls-2" d="M90.41,49.75a1.48,1.48,0,0,0-1,.39A1.89,1.89,0,0,0,89,51.43a2.17,2.17,0,0,0,.39,1.29,1.57,1.57,0,0,0,2.07,0,1.91,1.91,0,0,0,.39-1.29,2.14,2.14,0,0,0-.39-1.29A1.47,1.47,0,0,0,90.41,49.75Z"/><path class="cls-2" d="M103.72,49.75a1.48,1.48,0,0,0-1,.39,1.89,1.89,0,0,0-.38,1.29,2.16,2.16,0,0,0,.38,1.29,1.57,1.57,0,0,0,2.07,0,1.91,1.91,0,0,0,.39-1.29,2.14,2.14,0,0,0-.39-1.29A1.47,1.47,0,0,0,103.72,49.75Z"/><path class="cls-2" d="M97,49.62a1.18,1.18,0,0,0-.91.39,1.7,1.7,0,0,0-.39,1.29A2.75,2.75,0,0,0,96,52.59a1.27,1.27,0,0,0,1.94.13,1.91,1.91,0,0,0,.39-1.29A2.28,2.28,0,0,0,97.9,50,2.71,2.71,0,0,0,97,49.62Z"/><path class="cls-2" d="M80.64,27.24a1.08,1.08,0,0,0,.71-.29,2.15,2.15,0,0,0,.28-1,2.79,2.79,0,0,0-.28-1,2.38,2.38,0,0,0-.71-.29,1.07,1.07,0,0,0-.7.29,2,2,0,0,0,0,2A1.07,1.07,0,0,0,80.64,27.24Z"/><path class="cls-2" d="M104,40.13c-.29.23-.29.23-.29.46s0,.45.29.45c.29.22.29.22.57.22a1.27,1.27,0,0,0,.86-.22c.28,0,.28-.23.28-.45v-.91c-.28,0-.57.23-.85.23S104.29,40.13,104,40.13Z"/><path class="cls-2" d="M110.44,49.75a1.48,1.48,0,0,0-1,.39,1.89,1.89,0,0,0-.38,1.29,2.16,2.16,0,0,0,.38,1.29,1.57,1.57,0,0,0,2.07,0,1.91,1.91,0,0,0,.39-1.29,2.14,2.14,0,0,0-.39-1.29A1.72,1.72,0,0,0,110.44,49.75Z"/><path class="cls-2" d="M64.24,18.82A2.32,2.32,0,0,0,66,19.4a2.92,2.92,0,0,0,1.75-.58,2.32,2.32,0,0,0,.72-1.88,2,2,0,0,0-.72-1.77A3.17,3.17,0,0,0,66,14.58a3,3,0,0,0-1.75.59,2.35,2.35,0,0,0-.72,1.88A2,2,0,0,0,64.24,18.82Z"/><path class="cls-2" d="M138,38.1a7.91,7.91,0,0,1-1.14-.22,1.27,1.27,0,0,0-.86.22c-.29.23-.29.45-.29.91h2.58C138.29,38.55,138.29,38.33,138,38.1Z"/><path class="cls-2" d="M111.71,37.88c-.28,0-.85.22-.85.45-.29.22-.29.68-.29,1.13s0,.9.29,1.13A1.65,1.65,0,0,0,112,41c.29,0,.86-.23.86-.45.28-.23.28-.68.28-1.13s0-.91-.28-1.13A1.63,1.63,0,0,0,111.71,37.88Z"/><path class="cls-2" d="M117.16,49.75a1.18,1.18,0,0,0-.91.39,1.55,1.55,0,0,0-.39,1.16,2.3,2.3,0,0,0,.39,1.42,1.25,1.25,0,0,0,1.81,0,1.91,1.91,0,0,0,.39-1.29,1.68,1.68,0,0,0-.39-1.29A1,1,0,0,0,117.16,49.75Z"/><path class="cls-3" d="M63.32,20.7a7.17,7.17,0,0,0,2.67.47A5.69,5.69,0,0,0,69.7,20a4,4,0,0,0,1.44-3A3.81,3.81,0,0,0,69.7,14,5.32,5.32,0,0,0,66,12.82a8,8,0,0,0-2.78.59,3.66,3.66,0,0,0-1.85,1.53,3.5,3.5,0,0,0-.62,2,3.88,3.88,0,0,0,.62,2.35A5.46,5.46,0,0,0,63.32,20.7Zm.92-5.53A3,3,0,0,1,66,14.58a3.17,3.17,0,0,1,1.75.59,2,2,0,0,1,.72,1.77,2.32,2.32,0,0,1-.72,1.88A2.92,2.92,0,0,1,66,19.4a2.32,2.32,0,0,1-1.75-.58,2,2,0,0,1-.72-1.77A2.35,2.35,0,0,1,64.24,15.17Z"/><path class="cls-3" d="M132,37.2c-.29-.23-.57-.23-1.14-.23s-.86,0-1.15.23l-.85.68L128,37.2a2.06,2.06,0,0,0-1.14-.23,3,3,0,0,0-2,.68V37h-1.43v5h2v-2c-.29-.23,0-.68,0-.9l.57-.46c0-.22.29-.22.57-.22h.57c.29,0,.29,0,.29.22v3.62h1.71V39.91c-.28-.45,0-.9,0-1.13l.57-.45c0-.23.29-.23.58-.23s.28,0,.57.23c.28,0,.28.45.28.9v2.71h1.72V39a7.45,7.45,0,0,0-.29-1.13C132.57,37.65,132.29,37.43,132,37.2Z"/><polygon class="cls-3" points="52.51 15.88 54.16 21.05 56.73 21.05 60.02 13.06 57.35 13.06 55.5 18.23 53.75 13.06 51.17 13.06 49.53 18.23 47.57 13.06 45 13.06 48.19 21.05 50.76 21.05 52.51 15.88"/><path class="cls-3" d="M85.87,27.82H87V24.49a.56.56,0,0,0-.14-.44c-.14-.14-.28-.29-.42-.29a1.55,1.55,0,0,0-2,.58v-.58h-1V28h.71v-2c0-.44.14-.73.14-1s.14-.29.28-.43a.8.8,0,0,1,.56-.15.5.5,0,0,1,.43.15.3.3,0,0,1,.28.29v3Z"/><path class="cls-3" d="M137.71,40.81c0,.23-.28.23-.57.23a1.2,1.2,0,0,1-.85-.23c-.29-.22-.29-.45-.29-.9h4a2.62,2.62,0,0,0-.86-2.26,3.78,3.78,0,0,0-2.28-.68,3.9,3.9,0,0,0-2,.46,2.74,2.74,0,0,0-.86,2,1.68,1.68,0,0,0,.86,1.8c.28.68,1.14.91,2.28.91a5,5,0,0,0,1.72-.45,5,5,0,0,0,.85-1.13L138,40.36C138,40.59,138,40.59,137.71,40.81ZM136,38.1a1.27,1.27,0,0,1,.86-.22,7.91,7.91,0,0,0,1.14.22c.29.23.29.45.29.91h-2.58C135.71,38.55,135.71,38.33,136,38.1Z"/><path class="cls-3" d="M76.55,28.11h1.13V24.78a1.45,1.45,0,0,0-.71-.87,1.19,1.19,0,0,0-.7-.15,1.39,1.39,0,0,0-1.28.58V22.17H73.86V28H75v-2a1.78,1.78,0,0,1,.15-.87.3.3,0,0,1,.28-.29.49.49,0,0,1,.42-.15.52.52,0,0,1,.43.15c.14.14.28.14.28.29v3Z"/><path class="cls-3" d="M106.29,41.94H108c0-.22-.29-.45-.29-.68V38.78a1.71,1.71,0,0,0-.28-1.13,1.64,1.64,0,0,0-.86-.45,3.75,3.75,0,0,0-1.71-.23,2.57,2.57,0,0,0-1.43.23,1.25,1.25,0,0,0-.86,1.13l1.43.22c0-.22,0-.22.29-.45,0-.22.28-.22.57-.22s.57.22.85.22.29.23.29.45v.23a12.54,12.54,0,0,1-1.71.23,2.65,2.65,0,0,0-1.43.22c-.29,0-.29.23-.57.45a.73.73,0,0,0-.29.68,1.59,1.59,0,0,0,.57,1.13,2.5,2.5,0,0,0,1.43.45,7.91,7.91,0,0,0,1.14-.22,1.59,1.59,0,0,0,.86-.46v.23C106.29,41.72,106.29,41.72,106.29,41.94Zm-.58-1.35c0,.22,0,.45-.28.45a1.27,1.27,0,0,1-.86.22c-.28,0-.28,0-.57-.22-.29,0-.29-.23-.29-.45s0-.23.29-.46c.29,0,.57-.22.86-.22s.57-.23.85-.23Z"/><path class="cls-3" d="M75.77,18.58a13.52,13.52,0,0,1,.2-2.7,1.25,1.25,0,0,1,.62-.83,2.88,2.88,0,0,1,.93-.23,2.5,2.5,0,0,1,1.23.35l.82-1.88a4.33,4.33,0,0,0-1.74-.35,3.49,3.49,0,0,0-1.14.23,2.87,2.87,0,0,0-1.13,1.06V13.06H73.09v8h2.68Z"/><path class="cls-3" d="M78.81,24.92a2.16,2.16,0,0,0-.28,1,4.51,4.51,0,0,0,.28,1.15,1.76,1.76,0,0,0,.7.73,3.43,3.43,0,0,0,1.13.29,2.13,2.13,0,0,0,1.56-.58,2.22,2.22,0,0,0,.56-1.59,2.25,2.25,0,0,0-.56-1.6,2.13,2.13,0,0,0-1.56-.58.94.94,0,0,0-1.13.44A1.68,1.68,0,0,0,78.81,24.92Zm1.13,0a1.07,1.07,0,0,1,.7-.29,2.38,2.38,0,0,1,.71.29,2.79,2.79,0,0,1,.28,1,2.15,2.15,0,0,1-.28,1,1,1,0,0,1-1.41,0,2,2,0,0,1,0-2Z"/><rect class="cls-3" x="120.29" y="35.17" width="1.71" height="1.13"/><polygon class="cls-3" points="83.28 18.46 84.51 17.41 87.09 21.05 89.97 21.05 86.26 15.99 89.66 13.06 86.47 13.06 83.28 15.88 83.28 10 80.71 10 80.71 21.05 83.28 21.05 83.28 18.46"/><path class="cls-3" d="M81.66,61.32c-.15.15-.15.46-.29.77l-.29-.77-.86-2.47H78.78l2,4.94h1.15l2-4.94h-1.3Z"/><path class="cls-3" d="M88.42,59.62a2.3,2.3,0,0,0-1.72-.77,1.8,1.8,0,0,0-1.73.77,3.44,3.44,0,0,0-.58,1.85,2.38,2.38,0,0,0,.43,1.7,2.43,2.43,0,0,0,1.88.77A1.39,1.39,0,0,0,88,63.63a2.11,2.11,0,0,0,.87-1.08l-1.3-.15a.79.79,0,0,1-.29.46.82.82,0,0,1-.57.15,1.06,1.06,0,0,1-.72-.3,2.23,2.23,0,0,1-.29-.93H89A3.13,3.13,0,0,0,88.42,59.62Zm-2.73,1.24a1.23,1.23,0,0,1,.29-.78,1.06,1.06,0,0,1,.72-.3,6.69,6.69,0,0,1,.72.15,2.37,2.37,0,0,1,.28.93Z"/><path class="cls-3" d="M117.67,48.59a2.06,2.06,0,0,0-1.81,1v-.78h-1.42v7.63H116V53.63a3.66,3.66,0,0,0,.78.64,2.42,2.42,0,0,0,2.58-.64,3.71,3.71,0,0,0,.65-2.2,2.66,2.66,0,0,0-.65-2.07A2.05,2.05,0,0,0,117.67,48.59Zm.39,4.13a1.25,1.25,0,0,1-1.81,0,2.3,2.3,0,0,1-.39-1.42,1.55,1.55,0,0,1,.39-1.16,1.18,1.18,0,0,1,.91-.39,1,1,0,0,1,.9.39,1.68,1.68,0,0,1,.39,1.29A1.91,1.91,0,0,1,118.06,52.72Z"/><path class="cls-3" d="M86.53,51.43a2.93,2.93,0,0,0-.78-2.07,2.69,2.69,0,0,0-2.06-.77c-.52,0-1,.12-1.42.12a4,4,0,0,0-1,1,2.93,2.93,0,0,0-.39,1.42,3.56,3.56,0,0,0,.39,1.68,2,2,0,0,0,1,1,2.56,2.56,0,0,0,1.42.39,2.46,2.46,0,0,0,2.06-.77A2.94,2.94,0,0,0,86.53,51.43Zm-1.81,1.29a1.57,1.57,0,0,1-2.07,0,2.16,2.16,0,0,1-.38-1.29,1.89,1.89,0,0,1,.38-1.29,1.57,1.57,0,0,1,2.07,0,2.14,2.14,0,0,1,.39,1.29A1.91,1.91,0,0,1,84.72,52.72Z"/><path class="cls-3" d="M116,35.84v.91h-.86v1.13H116V41c0,.22.29.22.29.45.28,0,.28.23.57.23a1.24,1.24,0,0,0,.85.22,2.65,2.65,0,0,0,1.43-.22v-.91c0,.23-.28.23-.57.23h-.28c-.29,0-.29-.23-.29-.23V38.1h1.14V37h-1.43v-1.8Z"/><path class="cls-3" d="M90.41,48.59c-.52,0-1,.12-1.43.12a4.07,4.07,0,0,0-1,1,2.59,2.59,0,0,0-.39,1.42A3.56,3.56,0,0,0,88,52.85a2,2,0,0,0,1,1,2.62,2.62,0,0,0,1.43.39,2.46,2.46,0,0,0,2.06-.77,2.94,2.94,0,0,0,.78-2.07,2.46,2.46,0,0,0-.78-2.07A2.69,2.69,0,0,0,90.41,48.59Zm1,4.13a1.57,1.57,0,0,1-2.07,0A2.17,2.17,0,0,1,89,51.43a1.89,1.89,0,0,1,.39-1.29,1.57,1.57,0,0,1,2.07,0,2.14,2.14,0,0,1,.39,1.29A1.91,1.91,0,0,1,91.44,52.72Z"/><path class="cls-3" d="M98.16,49.23a2.26,2.26,0,0,0-1.68-.77,2.07,2.07,0,0,0-1.68.77,3.69,3.69,0,0,0-.65,2.2,2.82,2.82,0,0,0,.65,2.2,2.1,2.1,0,0,0,1.68.77,2.28,2.28,0,0,0,1.81-.9v.77h1.42V46.52H98.16Zm-.26,3.49A1.27,1.27,0,0,1,96,52.59a2.75,2.75,0,0,1-.26-1.29A1.7,1.7,0,0,1,96.09,50a1.18,1.18,0,0,1,.91-.39,2.71,2.71,0,0,1,.9.39,2.28,2.28,0,0,1,.39,1.42A1.91,1.91,0,0,1,97.9,52.72Z"/><g class="cls-4"><path class="cls-5" d="M121.93,25.59V23.11a3.67,3.67,0,0,0-.25-1.86,2.19,2.19,0,0,0-1-.86,5.57,5.57,0,0,0-4.33.12,3.51,3.51,0,0,0-1.12,1.73l1.86.37a2.61,2.61,0,0,1,.5-.74,1.14,1.14,0,0,1,.86-.25,2.15,2.15,0,0,1,1.12.25,1.51,1.51,0,0,1,.24.87V23a13.27,13.27,0,0,1-2.1.49A4.71,4.71,0,0,0,116,24a2.75,2.75,0,0,0-.87.86,2.09,2.09,0,0,0-.37,1.24,2.44,2.44,0,0,0,.74,1.73,3.18,3.18,0,0,0,2,.62,4.23,4.23,0,0,0,1.36-.25,2.9,2.9,0,0,0,1.12-.74c.12.13.12.13.12.25s.13.37.25.62h2.1l-.37-1.12A5.69,5.69,0,0,1,121.93,25.59Zm-1.86-.75a6.68,6.68,0,0,1-.12,1,1.19,1.19,0,0,1-.5.75,2,2,0,0,1-1.11.37,1.16,1.16,0,0,1-.87-.37,1.07,1.07,0,0,1-.37-.75.87.87,0,0,1,.37-.74,2.79,2.79,0,0,1,1.12-.37,8.64,8.64,0,0,0,1.23-.37h.25Z"/><path class="cls-5" d="M110.54,25.34c0,.49.12,1,.12,1.48a1.86,1.86,0,0,0,.25.87,1.17,1.17,0,0,0,.62.49,1.33,1.33,0,0,0,1,.25,3.41,3.41,0,0,0,1.61-.37L114,26.45a2.21,2.21,0,0,1-.87.25.46.46,0,0,1-.37-.12.27.27,0,0,1-.25-.25V22H114V20.26h-1.37v-3l-2.1,1.24v1.61h-1v1.73h1Z"/><path class="cls-5" d="M103.85,28.43a4.29,4.29,0,0,0,1.37-.25,2.87,2.87,0,0,0,1.11-.74c.12.13.12.13.12.25s.13.37.25.62h2.11l-.38-1.12a5.69,5.69,0,0,1-.12-1.6V23.11a3.67,3.67,0,0,0-.25-1.86,2.18,2.18,0,0,0-1-.86A4.49,4.49,0,0,0,105,20a4.14,4.14,0,0,0-2.23.5,3.5,3.5,0,0,0-1.11,1.73l1.85.37a2.84,2.84,0,0,1,.5-.74,1.18,1.18,0,0,1,.87-.25,2.11,2.11,0,0,1,1.11.25,1.5,1.5,0,0,1,.25.87V23a13.75,13.75,0,0,1-2.11.49,4.71,4.71,0,0,0-1.73.5,2.85,2.85,0,0,0-.87.86,2.16,2.16,0,0,0-.37,1.24,2.44,2.44,0,0,0,.74,1.73A3.18,3.18,0,0,0,103.85,28.43Zm0-3.34a2.79,2.79,0,0,1,1.12-.37,9.29,9.29,0,0,0,1.24-.37h.24v.49a6.68,6.68,0,0,1-.12,1,1.18,1.18,0,0,1-.49.75,2.1,2.1,0,0,1-1.12.37,1.16,1.16,0,0,1-.87-.37,1.11,1.11,0,0,1-.37-.75A.9.9,0,0,1,103.85,25.09Z"/><path class="cls-5" d="M97.67,21.13A3.28,3.28,0,0,0,95.31,20,3.07,3.07,0,0,0,93,21.13a4.61,4.61,0,0,0-1,3.09,4.62,4.62,0,0,0,1,3.1,3.06,3.06,0,0,0,2.35,1.11,2.45,2.45,0,0,0,1.36-.37,4.26,4.26,0,0,0,1.12-1v1.11h2v-11h-2.1Zm-.38,4.95a1.51,1.51,0,0,1-1.23.62,1.88,1.88,0,0,1-1.49-.87A3.44,3.44,0,0,1,94.2,24a2.43,2.43,0,0,1,.49-1.74,1.54,1.54,0,0,1,1.24-.62,2.24,2.24,0,0,1,1.36.62,2.89,2.89,0,0,1,.5,2A2.53,2.53,0,0,1,97.29,26.08Z"/></g><path class="cls-3" d="M110.44,48.59c-.52,0-1,.12-1.42.12a4,4,0,0,0-1,1,2.93,2.93,0,0,0-.39,1.42,3.56,3.56,0,0,0,.39,1.68,2,2,0,0,0,1,1,2.56,2.56,0,0,0,1.42.39,2.46,2.46,0,0,0,2.06-.77,2.94,2.94,0,0,0,.78-2.07,2.46,2.46,0,0,0-.78-2.07A2.69,2.69,0,0,0,110.44,48.59Zm1,4.13a1.57,1.57,0,0,1-2.07,0,2.16,2.16,0,0,1-.38-1.29,1.89,1.89,0,0,1,.38-1.29,1.48,1.48,0,0,1,1-.39,1.72,1.72,0,0,1,1,.39,2.14,2.14,0,0,1,.39,1.29A1.91,1.91,0,0,1,111.47,52.72Z"/><path class="cls-3" d="M114.86,41.94V35.17h-1.43v2.71a2.27,2.27,0,0,0-1.72-.68,3,3,0,0,0-2,.68c-.57.22-.85.9-.85,1.8a2.29,2.29,0,0,0,.85,1.81,3,3,0,0,0,2,.68,2.43,2.43,0,0,0,1.72-.91v.68Zm-2-1.35c0,.22-.57.45-.86.45a1.65,1.65,0,0,1-1.14-.45c-.29-.23-.29-.68-.29-1.13s0-.91.29-1.13c0-.23.57-.45.85-.45a1.63,1.63,0,0,1,1.15.45c.28.22.28.68.28,1.13S113.14,40.36,112.86,40.59Z"/><path class="cls-3" d="M103.72,48.59c-.52,0-1,.12-1.42.12a4,4,0,0,0-1,1,2.93,2.93,0,0,0-.39,1.42,3.56,3.56,0,0,0,.39,1.68,2,2,0,0,0,1,1,2.56,2.56,0,0,0,1.42.39,2.46,2.46,0,0,0,2.06-.77,2.94,2.94,0,0,0,.78-2.07,2.46,2.46,0,0,0-.78-2.07A2.69,2.69,0,0,0,103.72,48.59Zm1,4.13a1.57,1.57,0,0,1-2.07,0,2.16,2.16,0,0,1-.38-1.29,1.89,1.89,0,0,1,.38-1.29,1.57,1.57,0,0,1,2.07,0,2.14,2.14,0,0,1,.39,1.29A1.91,1.91,0,0,1,104.75,52.72Z"/><path class="cls-3" d="M79.68,54.27V51c0-.39-.13-.77-.13-1a1.67,1.67,0,0,0-.9-1.17,1.93,1.93,0,0,0-.91-.13,2.09,2.09,0,0,0-1.68.78V46.65H74.51v7.62h1.55v-3a2.78,2.78,0,0,1,.13-1c0-.26.13-.39.39-.52a1,1,0,0,1,.65-.13.77.77,0,0,1,.51.13c.13.13.26.26.26.39a2.81,2.81,0,0,1,.13,1.16v3Z"/><path class="cls-3" d="M65.67,24.2a1.88,1.88,0,0,0-2.12-.44c-.28.15-.42.44-.56.58v-.58H62v5.8h1.13V27.38a2,2,0,0,0,.56.44,1.48,1.48,0,0,0,1.84-.44,1.83,1.83,0,0,0,.57-1.59A2.66,2.66,0,0,0,65.67,24.2Zm-1,2.6a.71.71,0,0,1-.56.29,1.05,1.05,0,0,1-.71-.29,1.69,1.69,0,0,1-.28-1,1.61,1.61,0,0,1,.28-.87c.28-.14.43-.29.71-.29s.56,0,.56.15a2.15,2.15,0,0,1,.29,1A1.68,1.68,0,0,1,64.68,26.8Z"/><path class="cls-3" d="M68.64,26.8l-1-3H66.52l1.41,4.06a1.15,1.15,0,0,1-.28.58.74.74,0,0,1-.57.29h-.42l.28.87a1.56,1.56,0,0,0,1.13,0,.51.51,0,0,0,.43-.15c.14,0,.14-.14.28-.29a1.08,1.08,0,0,0,.28-.58l.28-.72,1.42-4.06H69.63Z"/><rect class="cls-3" x="120.29" y="36.97" width="1.71" height="4.97"/><rect class="cls-3" x="76.76" y="58.85" width="1.3" height="4.93"/><g class="cls-4"><rect class="cls-5" x="40" y="48.24" width="1.41" height="7.65"/><path class="cls-5" d="M47.45,52.47a3,3,0,0,0-.2-1.41c0-.2-.2-.4-.61-.61-.2-.2-.8-.2-1.41-.2a2.42,2.42,0,0,0-2,.61,4.09,4.09,0,0,0-.8,1.21l1.41.2c.2-.2.2-.41.4-.61a.73.73,0,0,1,.6-.2c.4,0,.61,0,.81.2a.75.75,0,0,1,.2.61v.2c-.2.2-.81.2-1.41.4s-1,.2-1.21.4l-.6.61c-.2.2-.2.4-.2.8-.21.41,0,.81.4,1.21a3.75,3.75,0,0,0,1.41.4,2.56,2.56,0,0,0,1.81-.8v.2c.2.2.2.2.2.4h1.41c0-.4-.2-.6-.2-.8Zm-1.21,2-.4.4a1.18,1.18,0,0,1-.81.21.71.71,0,0,1-.6-.21,1,1,0,0,1,0-1.2c.2,0,.6-.21.8-.21s.61-.2.81-.2l.2.81Z"/><path class="cls-5" d="M56.91,51.26a1.79,1.79,0,0,0-1.61-1c-.8-.2-1.41.2-2.21,1a3.56,3.56,0,0,0-.61,2.21,3.22,3.22,0,0,0,.61,1.82,2.1,2.1,0,0,0,1.81,1,2.06,2.06,0,0,0,1.61-1V56.7c0,.2,0,.4-.2.4a1.23,1.23,0,0,1-.81.2.73.73,0,0,1-.6-.2c-.2,0-.2-.2-.2-.4l-1.61-.21v.21a1.43,1.43,0,0,0,.6,1.2,4.2,4.2,0,0,0,2,.41,2.56,2.56,0,0,0,1.21-.2,1.05,1.05,0,0,0,.81-.41,1.52,1.52,0,0,0,.4-.8,3.47,3.47,0,0,0,.2-1.41v-5H56.91Zm-.4,3c-.4.2-.6.4-1,.4a1.52,1.52,0,0,1-.8-.4,2.93,2.93,0,0,1-.41-1.41,1.72,1.72,0,0,1,.41-1.21,1,1,0,0,1,.8-.4,1.1,1.1,0,0,1,1,.6,1.74,1.74,0,0,1,.4,1.21A2.18,2.18,0,0,1,56.51,54.28Z"/><path class="cls-5" d="M51.68,50.05a.75.75,0,0,0-.61.2c-.2.2-.4.61-.6.81v-.81H49.06v5.64h1.41v-2a15.48,15.48,0,0,1,.2-1.81c.2-.21.2-.41.4-.61a.75.75,0,0,1,.61-.2.73.73,0,0,1,.6.2l.4-1.21A1.8,1.8,0,0,0,51.68,50.05Z"/><path class="cls-5" d="M68.39,50.05a.77.77,0,0,0-.61.2c-.2.2-.4.61-.6.81v-.81H65.77v5.64h1.41v-2a15.48,15.48,0,0,1,.2-1.81c.2-.21.2-.41.4-.61a.77.77,0,0,1,.61-.2.73.73,0,0,1,.6.2l.41-1.21A1.85,1.85,0,0,0,68.39,50.05Z"/><path class="cls-5" d="M62,50.25a1.87,1.87,0,0,0-1.82.61,2.75,2.75,0,0,0-.8,2.21,3.44,3.44,0,0,0,.6,2,2.91,2.91,0,0,0,2.22,1,3.82,3.82,0,0,0,1.61-.4c.4-.2.6-.81.8-1.21l-1.41-.2c0,.2-.2.4-.4.6a.71.71,0,0,1-.6.21,1.56,1.56,0,0,1-.81-.41,1.53,1.53,0,0,1-.4-1h3.62a3.42,3.42,0,0,0-.6-2.62A2.56,2.56,0,0,0,62,50.25Zm-1.21,2.42a1.56,1.56,0,0,1,.4-1,1,1,0,0,1,.81-.4c.4,0,.6.2.6.4a1.56,1.56,0,0,1,.4,1Z"/></g><rect class="cls-3" x="76.76" y="57" width="1.3" height="1.23"/><path class="cls-3" d="M71.46,27.09a.56.56,0,0,0,.14.44.32.32,0,0,0,.29.29.84.84,0,0,0,.56.14,1.82,1.82,0,0,0,.85-.14L73.16,27a.52.52,0,0,1-.43.14h-.14a.14.14,0,0,1-.14-.14V24.63h.71v-.87h-.71V22.17l-1.13.58v.87H70.9v.87h.56Z"/><path class="cls-3" d="M74.74,58.85a1.73,1.73,0,0,0-.86-.15,2.2,2.2,0,0,0-1.58.77V57H71v6.79h1.15V61.32a2,2,0,0,1,.15-.93l.43-.46a.82.82,0,0,1,.57-.15.53.53,0,0,1,.44.15.31.31,0,0,1,.28.31,2,2,0,0,1,.15.92v2.63h1.44V59.93c-.15-.31-.15-.46-.29-.62S74.89,59,74.74,58.85Z"/></svg>