<svg id="图层_1" data-name="图层 1" xmlns="http://www.w3.org/2000/svg" viewBox="0 0 160 72"><defs><style>.cls-1{fill:#00b1ff;}.cls-2{fill:#0af;opacity:0.3;}</style></defs><title>画板 1</title><path class="cls-1" d="M30,41H44V58H30Z"/><path class="cls-2" d="M30,24H44V41H30Z"/><path class="cls-2" d="M51.5,6h14V20h-14Z"/><path class="cls-1" d="M51.5,20h14V58h-14Z"/><path class="cls-1" d="M73,26H87V58H73Z"/><path class="cls-2" d="M73,12H87V26H73Z"/><path class="cls-1" d="M94.5,46h14V58h-14Z"/><path class="cls-2" d="M94.5,32h14V46h-14Z"/><path class="cls-1" d="M116,39h14V58H116Z"/><path class="cls-2" d="M116,19h14V39H116Z"/><rect class="cls-2" x="20" y="64" width="120" height="2"/><rect class="cls-2" x="24.5" y="64" width="1" height="1" transform="translate(-39.5 89.5) rotate(-90)"/><rect class="cls-2" x="34.5" y="64" width="1" height="1" transform="translate(-29.5 99.5) rotate(-90)"/><rect class="cls-2" x="44.5" y="64" width="1" height="1" transform="translate(-19.5 109.5) rotate(-90)"/><rect class="cls-2" x="54.5" y="64" width="1" height="1" transform="translate(-9.5 119.5) rotate(-90)"/><rect class="cls-2" x="64.5" y="64" width="1" height="1" transform="translate(0.5 129.5) rotate(-90)"/><rect class="cls-2" x="74.5" y="64" width="1" height="1" transform="translate(10.5 139.5) rotate(-90)"/><rect class="cls-2" x="84.5" y="64" width="1" height="1" transform="translate(20.5 149.5) rotate(-90)"/><rect class="cls-2" x="94.5" y="64" width="1" height="1" transform="translate(30.5 159.5) rotate(-90)"/><rect class="cls-2" x="104.5" y="64" width="1" height="1" transform="translate(40.5 169.5) rotate(-90)"/><rect class="cls-2" x="114.5" y="64" width="1" height="1" transform="translate(50.5 179.5) rotate(-90)"/><rect class="cls-2" x="124.5" y="64" width="1" height="1" transform="translate(60.5 189.5) rotate(-90)"/><rect class="cls-2" x="134.5" y="64" width="1" height="1" transform="translate(70.5 199.5) rotate(-90)"/></svg>