<svg id="图层_1" data-name="图层 1" xmlns="http://www.w3.org/2000/svg" viewBox="0 0 160 72"><defs><style>.cls-1{fill:#0af;}.cls-1,.cls-4{opacity:0.3;}.cls-2{fill:#00b1ff;}.cls-3,.cls-4{fill:#00dccd;}</style></defs><title>画板 3</title><polygon class="cls-1" points="92.55 33.42 53.31 21.62 20 46.1 20 55.19 55.13 44.26 88.44 55.62 140 36.83 140 10.91 92.55 33.42"/><polygon class="cls-2" points="92.55 31.24 53.31 19.44 20 43.92 20 46.1 53.31 21.62 92.55 33.42 140 10.91 140 8.73 92.55 31.24"/><polygon class="cls-3" points="55.13 42.08 20 53 20 55.19 55.13 44.26 88.44 55.62 140 36.83 140 34.64 88.44 53.44 55.13 42.08"/><polygon class="cls-4" points="88.44 55.62 55.13 44.26 20 55.19 20 62.18 20 63.27 140 63.27 140 61.48 140 36.83 88.44 55.62"/><path class="cls-3" d="M24,53a3,3,0,0,1-4.64,2.56A2.73,2.73,0,0,1,18,53.14h0A3.1,3.1,0,0,1,20.71,50,3,3,0,0,1,24,53"/><path class="cls-2" d="M24.16,43.9a3,3,0,0,1-4.64,2.56A2.73,2.73,0,0,1,18.16,44h0a3.08,3.08,0,0,1,2.71-3.12,3,3,0,0,1,3.29,3"/><path class="cls-2" d="M56,21a3,3,0,0,1-4.64,2.56A2.73,2.73,0,0,1,50,21.14h0A3.1,3.1,0,0,1,52.71,18,3,3,0,0,1,56,21"/><path class="cls-2" d="M96,32a3,3,0,0,1-4.64,2.56A2.73,2.73,0,0,1,90,32.14h0A3.1,3.1,0,0,1,92.71,29,3,3,0,0,1,96,32"/><path class="cls-2" d="M143,10a3,3,0,0,1-4.64,2.56A2.73,2.73,0,0,1,137,10.14h0A3.1,3.1,0,0,1,139.71,7,3,3,0,0,1,143,10"/><path class="cls-3" d="M91,54a3,3,0,0,1-4.64,2.56A2.73,2.73,0,0,1,85,54.14h0A3.1,3.1,0,0,1,87.71,51,3,3,0,0,1,91,54"/><path class="cls-3" d="M58,43a3,3,0,0,1-4.64,2.56A2.73,2.73,0,0,1,52,43.14h0A3.1,3.1,0,0,1,54.71,40,3,3,0,0,1,58,43"/><path class="cls-3" d="M142.8,36.14a3,3,0,0,1-4.63,2.56,2.73,2.73,0,0,1-1.37-2.42h0a3.1,3.1,0,0,1,2.72-3.13,3,3,0,0,1,3.28,3"/></svg>