<svg id="图层_1" data-name="图层 1" xmlns="http://www.w3.org/2000/svg" viewBox="0 0 160 72"><defs><style>.cls-1{fill:#00b1ff;}.cls-2{fill:#587af4;}.cls-3{fill:#41d0cf;}.cls-4{fill:#0d85ff;}.cls-5{fill:#41d098;}.cls-6{fill:#fda557;}.cls-7{fill:#7dbffb;}</style></defs><title>画板 5 副本 17</title><path class="cls-1" d="M33.26,42A12.64,12.64,0,1,0,45.9,29.35,12.55,12.55,0,0,0,33.26,42Z"/><path class="cls-2" d="M75.54,16.52A8.27,8.27,0,0,0,84,24.94a8.64,8.64,0,0,0,8.43-8.42A8.28,8.28,0,0,0,84,8.09,8.45,8.45,0,0,0,75.54,16.52Z"/><path class="cls-1" d="M98,57a9,9,0,1,0,9-9,8.77,8.77,0,0,0-9,9Z"/><path class="cls-3" d="M25,62a4,4,0,1,0,4-4A4,4,0,0,0,25,62Z"/><path class="cls-4" d="M127,31a4,4,0,0,0,4,4h0a4,4,0,0,0,4-4v0a4,4,0,0,0-4-4h0a4,4,0,0,0-4,4Z"/><path class="cls-5" d="M112,28.52A2.5,2.5,0,1,0,114.5,26C113,25.78,112,27,112,28.52Z"/><path class="cls-5" d="M57,9a3,3,0,0,0,6,0,3,3,0,0,0-3-3A2.77,2.77,0,0,0,57,9Z"/><path class="cls-4" d="M94,33a2.89,2.89,0,0,0,3,3,3,3,0,0,0,3-3,3,3,0,0,0-6,0Z"/><path class="cls-4" d="M68,33.5A3.5,3.5,0,1,0,71.5,30,3.37,3.37,0,0,0,68,33.5Z"/><path class="cls-6" d="M54,22a2.07,2.07,0,0,0,2,2,1.94,1.94,0,0,0,2-2,2,2,0,0,0-4,0Z"/><path class="cls-7" d="M82,46.5A2.48,2.48,0,0,0,84.48,49h0A2.48,2.48,0,0,0,87,46.52v0A2.49,2.49,0,0,0,84.52,44h0A2.49,2.49,0,0,0,82,46.48Z"/></svg>