<svg id="图层_1" data-name="图层 1" xmlns="http://www.w3.org/2000/svg" viewBox="0 0 160 72"><defs><style>.cls-1,.cls-2{fill:#0af;}.cls-2{opacity:0.2;}.cls-3{fill:#00b1ff;}.cls-4{fill:#41d0cf;}.cls-5{fill:#0d85ff;}.cls-6{fill:#41d098;}.cls-7{fill:#7dbffb;}</style></defs><title>画板 31</title><path class="cls-1" d="M103.76,29.75H95a2.5,2.5,0,0,0-2.49,2.49V66h13.75V32.25A2.5,2.5,0,0,0,103.76,29.75Zm-2.75,30H97.73a.23.23,0,0,1-.23-.24V56.23a.23.23,0,0,1,.23-.23H101a.23.23,0,0,1,.24.23v3.28A.24.24,0,0,1,101,59.75ZM97.73,51a.23.23,0,0,1-.23-.23V47.48a.23.23,0,0,1,.23-.23H101a.24.24,0,0,1,.24.23v3.29A.24.24,0,0,1,101,51ZM101,41H97.73a.23.23,0,0,1-.23-.24V37.48a.23.23,0,0,1,.23-.23H101a.23.23,0,0,1,.24.23v3.28A.24.24,0,0,1,101,41ZM88.75,39.75H82.49A2.5,2.5,0,0,0,80,42.25V66H91.25V42.25A2.51,2.51,0,0,0,88.75,39.75Zm-1.49,20H84a.23.23,0,0,1-.23-.24V56.23A.23.23,0,0,1,84,56h3.28a.23.23,0,0,1,.24.23v3.28A.24.24,0,0,1,87.26,59.75Zm0-8.75H84a.23.23,0,0,1-.23-.23V47.48a.23.23,0,0,1,.23-.23h3.28a.24.24,0,0,1,.24.23v3.29A.24.24,0,0,1,87.26,51Zm-11-31.25H75V16a2.51,2.51,0,0,0-2.51-2.51H68.13V7.88a1.88,1.88,0,1,0-3.75,0V13.5H60A2.51,2.51,0,0,0,57.5,16v3.74H56.24a2.51,2.51,0,0,0-2.49,2.5V66h25V22.25A2.49,2.49,0,0,0,76.26,19.75Zm-12.75,40H60.23a.23.23,0,0,1-.23-.24V56.23a.23.23,0,0,1,.23-.23h3.28a.23.23,0,0,1,.24.23v3.28A.24.24,0,0,1,63.51,59.75Zm0-8.75H60.23a.23.23,0,0,1-.23-.23V47.48a.23.23,0,0,1,.23-.23h3.28a.24.24,0,0,1,.24.23v3.29A.24.24,0,0,1,63.51,51Zm0-10H60.23a.23.23,0,0,1-.23-.24V37.48a.23.23,0,0,1,.23-.23h3.28a.23.23,0,0,1,.24.23v3.28A.24.24,0,0,1,63.51,41ZM60.23,31a.23.23,0,0,1-.23-.23V27.49a.23.23,0,0,1,.23-.24h3.28a.24.24,0,0,1,.24.24v3.28a.23.23,0,0,1-.24.23Zm12,28.75H69a.23.23,0,0,1-.23-.24V56.23A.23.23,0,0,1,69,56h3.28a.23.23,0,0,1,.24.23v3.28A.24.24,0,0,1,72.26,59.75Zm0-8.75H69a.23.23,0,0,1-.23-.23V47.48a.23.23,0,0,1,.23-.23h3.28a.24.24,0,0,1,.24.23v3.29A.24.24,0,0,1,72.26,51Zm0-10H69a.23.23,0,0,1-.23-.24V37.48a.23.23,0,0,1,.23-.23h3.28a.23.23,0,0,1,.24.23v3.28A.24.24,0,0,1,72.26,41Zm0-10H69a.23.23,0,0,1-.23-.23V27.49a.23.23,0,0,1,.23-.24h3.28a.24.24,0,0,1,.24.24v3.28A.23.23,0,0,1,72.26,31Z"/><ellipse class="cls-2" cx="80" cy="61.5" rx="62" ry="7.5"/><path class="cls-3" d="M117.93,52.68a5,5,0,1,0,5-5A5,5,0,0,0,117.93,52.68Z"/><path class="cls-3" d="M23.38,51.82a2.5,2.5,0,1,0,2.5-2.5,2.43,2.43,0,0,0-2.5,2.5Z"/><path class="cls-4" d="M8.66,54.55a2.07,2.07,0,1,0,2.07-2.07A2.06,2.06,0,0,0,8.66,54.55Z"/><path class="cls-5" d="M117.36,30.53a2.07,2.07,0,0,0,2,2.07h0a2.06,2.06,0,0,0,2.07-2.05v0a2.06,2.06,0,0,0-2-2.06h0a2.06,2.06,0,0,0-2.07,2.05Z"/><path class="cls-6" d="M111.61,40.25a1.3,1.3,0,1,0,1.3-1.28A1.16,1.16,0,0,0,111.61,40.25Z"/><path class="cls-5" d="M44.31,39.57a1.5,1.5,0,0,0,1.55,1.55,1.57,1.57,0,0,0,1.55-1.55,1.55,1.55,0,0,0-3.1,0Z"/><path class="cls-7" d="M38.11,46.54a1.28,1.28,0,0,0,1.28,1.29h0a1.28,1.28,0,0,0,1.29-1.28h0a1.28,1.28,0,0,0-1.28-1.29h0a1.3,1.3,0,0,0-1.3,1.28Z"/></svg>