<svg id="图层_1" data-name="图层 1" xmlns="http://www.w3.org/2000/svg" viewBox="0 0 160 72"><defs><style>.cls-1{fill:#0af;opacity:0.3;}.cls-2{fill:#00b1ff;}.cls-3{fill:#00dccd;}</style></defs><title>画板 5 副本 16</title><path class="cls-1" d="M140,56h0a4.13,4.13,0,0,0-4.24-4H115v8h20.76A4.13,4.13,0,0,0,140,56Z"/><path class="cls-2" d="M119,56h0a4,4,0,0,0-4-4H34a4,4,0,0,0-4,4h0a4,4,0,0,0,4,4h81A4,4,0,0,0,119,56Z"/><path class="cls-1" d="M140,42.67h0a4.23,4.23,0,0,0-4.42-4H89v8h46.59A4.22,4.22,0,0,0,140,42.67Z"/><path class="cls-2" d="M93,42.67h0a4,4,0,0,0-4-4H34a4,4,0,0,0-4,4h0a4,4,0,0,0,4,4H89A4,4,0,0,0,93,42.67Z"/><path class="cls-1" d="M140,29.33h0a4.12,4.12,0,0,0-4.23-4H104v8h31.77A4.12,4.12,0,0,0,140,29.33Z"/><path class="cls-3" d="M108,29.33h0a4,4,0,0,0-4-4H34a4,4,0,0,0-4,4h0a4,4,0,0,0,4,4h70A4,4,0,0,0,108,29.33Z"/><path class="cls-1" d="M140,16h0a4.14,4.14,0,0,0-4.28-4H56v8h79.72A4.14,4.14,0,0,0,140,16Z"/><path class="cls-2" d="M69,16h0c0-2.21-2.1-4-4.69-4H34.69C32.1,12,30,13.79,30,16h0c0,2.21,2.1,4,4.69,4H64.31C66.9,20,69,18.21,69,16Z"/><rect class="cls-1" x="20" y="6" width="2" height="60"/><rect class="cls-1" x="21" y="10.5" width="1" height="1"/><rect class="cls-1" x="21" y="20.5" width="1" height="1"/><rect class="cls-1" x="21" y="30.5" width="1" height="1"/><rect class="cls-1" x="21" y="40.5" width="1" height="1"/><rect class="cls-1" x="21" y="50.5" width="1" height="1"/><rect class="cls-1" x="21" y="60.5" width="1" height="1"/></svg>