<svg id="图层_1" data-name="图层 1" xmlns="http://www.w3.org/2000/svg" viewBox="0 0 160 72"><defs><style>.cls-1{fill:#00b1ff;}.cls-2{fill:#0af;opacity:0.3;}</style></defs><title>画板 2</title><path class="cls-1" d="M74,60V51H30v9Z"/><path class="cls-2" d="M110,60V51H74v9Z"/><path class="cls-2" d="M140,47V38H102v9Z"/><path class="cls-1" d="M102,47V38H30v9Z"/><path class="cls-1" d="M70,34V25H30v9Z"/><path class="cls-2" d="M108,34V25H70v9Z"/><path class="cls-1" d="M82,21V12H30v9Z"/><path class="cls-2" d="M122,21V12H82v9Z"/><rect class="cls-2" x="20" y="6" width="2" height="60"/><rect class="cls-2" x="21" y="10.5" width="1" height="1"/><rect class="cls-2" x="21" y="20.5" width="1" height="1"/><rect class="cls-2" x="21" y="30.5" width="1" height="1"/><rect class="cls-2" x="21" y="40.5" width="1" height="1"/><rect class="cls-2" x="21" y="50.5" width="1" height="1"/><rect class="cls-2" x="21" y="60.5" width="1" height="1"/></svg>