<?xml version="1.0" encoding="UTF-8"?>
<!DOCTYPE svg PUBLIC "-//W3C//DTD SVG 1.1//EN" "http://www.w3.org/Graphics/SVG/1.1/DTD/svg11.dtd">
<svg xmlns="http://www.w3.org/2000/svg" version="1.1" width="330px" height="253px" style="shape-rendering:geometricPrecision; text-rendering:geometricPrecision; image-rendering:optimizeQuality; fill-rule:evenodd; clip-rule:evenodd" xmlns:xlink="http://www.w3.org/1999/xlink">
<g><path style="opacity:1" fill="#1d2126" d="M -0.5,-0.5 C 109.5,-0.5 219.5,-0.5 329.5,-0.5C 329.5,83.8333 329.5,168.167 329.5,252.5C 219.5,252.5 109.5,252.5 -0.5,252.5C -0.5,168.167 -0.5,83.8333 -0.5,-0.5 Z"/></g>
<g><path style="opacity:1" fill="#183444" d="M 226.5,62.5 C 185.167,62.5 143.833,62.5 102.5,62.5C 102.5,101.167 102.5,139.833 102.5,178.5C 143.833,178.5 185.167,178.5 226.5,178.5C 185.003,179.499 143.337,179.832 101.5,179.5C 101.5,140.167 101.5,100.833 101.5,61.5C 143.337,61.168 185.003,61.5014 226.5,62.5 Z"/></g>
<g><path style="opacity:1" fill="#173c51" d="M 226.5,62.5 C 226.5,101.167 226.5,139.833 226.5,178.5C 185.167,178.5 143.833,178.5 102.5,178.5C 102.5,139.833 102.5,101.167 102.5,62.5C 143.833,62.5 185.167,62.5 226.5,62.5 Z"/></g>
<g><path style="opacity:1" fill="#f0f2f4" d="M 156.5,88.5 C 175.161,86.4026 187.661,94.0693 194,111.5C 196.273,129.802 188.773,141.969 171.5,148C 154.156,151.079 141.989,144.579 135,128.5C 130.403,108.687 137.57,95.3541 156.5,88.5 Z"/></g>
<g><path style="opacity:1" fill="#1a3e53" d="M 160.5,93.5 C 180.499,94.3284 189.666,104.662 188,124.5C 180.335,142.912 167.501,147.746 149.5,139C 138.183,127.963 136.683,115.796 145,102.5C 149.274,97.7854 154.441,94.7854 160.5,93.5 Z"/></g>
<g><path style="opacity:1" fill="#edf0f1" d="M 149.5,109.5 C 154.123,108.408 155.956,110.075 155,114.5C 149.42,116.752 147.587,115.085 149.5,109.5 Z"/></g>
<g><path style="opacity:1" fill="#edf0f1" d="M 173.5,109.5 C 178.123,108.408 179.956,110.075 179,114.5C 173.42,116.752 171.587,115.085 173.5,109.5 Z"/></g>
<g><path style="opacity:1" fill="#8b9da8" d="M 157.5,120.5 C 156.167,120.5 154.833,120.5 153.5,120.5C 153.5,121.5 153.5,122.5 153.5,123.5C 152.566,122.432 152.232,121.099 152.5,119.5C 154.415,119.216 156.081,119.549 157.5,120.5 Z"/></g>
<g><path style="opacity:1" fill="#ebeef0" d="M 157.5,120.5 C 161.735,128.367 166.069,128.367 170.5,120.5C 171.833,120.5 173.167,120.5 174.5,120.5C 174.5,121.5 174.5,122.5 174.5,123.5C 170.681,131.078 165.014,132.911 157.5,129C 155.536,127.549 154.203,125.716 153.5,123.5C 153.5,122.5 153.5,121.5 153.5,120.5C 154.833,120.5 156.167,120.5 157.5,120.5 Z"/></g>
<g><path style="opacity:1" fill="#8b9da8" d="M 170.5,120.5 C 171.919,119.549 173.585,119.216 175.5,119.5C 175.768,121.099 175.434,122.432 174.5,123.5C 174.5,122.5 174.5,121.5 174.5,120.5C 173.167,120.5 171.833,120.5 170.5,120.5 Z"/></g>
</svg>
