<svg id="图层_1" data-name="图层 1" xmlns="http://www.w3.org/2000/svg" viewBox="0 0 160 72"><defs><style>.cls-1,.cls-3{fill:#0af;}.cls-1{opacity:0.2;}.cls-2{fill:#00dccd;}.cls-3{opacity:0.3;}.cls-4{fill:#00b1ff;}</style></defs><title>画板 5 副本 14</title><rect class="cls-1" x="25" y="8" width="110" height="56"/><circle class="cls-2" cx="64.69" cy="21.21" r="3.83"/><path class="cls-3" d="M68.85,42.67l-5.3-7.46a3.08,3.08,0,0,0-4-.79l-.86.79-7.3,10.66a2.66,2.66,0,0,0,1,3.73,2.87,2.87,0,0,0,1.43.4H68.14A2.78,2.78,0,0,0,71,47.34a3.51,3.51,0,0,0-.29-1.2Z"/><path class="cls-4" d="M87.78,23.14a3,3,0,0,1,1.38-.89,4.34,4.34,0,0,1,4.66,1.14l14.83,22.94a2.78,2.78,0,0,1,.35,1.14c0,1.39-1.55,2.53-3.45,2.53h-35a4.17,4.17,0,0,1-2.07-.51A2.19,2.19,0,0,1,67.59,46L71.39,42Z"/></svg>