<svg id="图层_1" data-name="图层 1" xmlns="http://www.w3.org/2000/svg" viewBox="0 0 160 72"><defs><style>.cls-1{fill:#0af;opacity:0.3;}.cls-2{fill:#00b1ff;}.cls-3{fill:#41d0cf;}.cls-4{fill:#0d85ff;}.cls-5{fill:#41d098;}.cls-6{fill:#fda557;}.cls-7{fill:#7dbffb;}</style></defs><title>画板 5 副本 18</title><rect class="cls-1" x="20" y="6" width="2" height="60"/><rect class="cls-1" x="21" y="10.5" width="1" height="1"/><rect class="cls-1" x="21" y="20.5" width="1" height="1"/><rect class="cls-1" x="21" y="30.5" width="1" height="1"/><rect class="cls-1" x="21" y="40.5" width="1" height="1"/><rect class="cls-1" x="21" y="50.5" width="1" height="1"/><rect class="cls-1" x="21" y="60.5" width="1" height="1"/><rect class="cls-1" x="20" y="63.95" width="120" height="2"/><rect class="cls-1" x="24.5" y="63.95" width="1" height="1" transform="translate(-39.45 89.45) rotate(-90)"/><rect class="cls-1" x="34.5" y="63.95" width="1" height="1" transform="translate(-29.45 99.45) rotate(-90)"/><rect class="cls-1" x="44.5" y="63.95" width="1" height="1" transform="translate(-19.45 109.45) rotate(-90)"/><rect class="cls-1" x="54.5" y="63.95" width="1" height="1" transform="translate(-9.45 119.45) rotate(-90)"/><rect class="cls-1" x="64.5" y="63.95" width="1" height="1" transform="translate(0.55 129.45) rotate(-90)"/><rect class="cls-1" x="74.5" y="63.95" width="1" height="1" transform="translate(10.55 139.45) rotate(-90)"/><rect class="cls-1" x="84.5" y="63.95" width="1" height="1" transform="translate(20.55 149.45) rotate(-90)"/><rect class="cls-1" x="94.5" y="63.95" width="1" height="1" transform="translate(30.55 159.45) rotate(-90)"/><rect class="cls-1" x="104.5" y="63.95" width="1" height="1" transform="translate(40.55 169.45) rotate(-90)"/><rect class="cls-1" x="114.5" y="63.95" width="1" height="1" transform="translate(50.55 179.45) rotate(-90)"/><rect class="cls-1" x="124.5" y="63.95" width="1" height="1" transform="translate(60.55 189.45) rotate(-90)"/><rect class="cls-1" x="134.5" y="63.95" width="1" height="1" transform="translate(70.55 199.45) rotate(-90)"/><path class="cls-2" d="M124.62,19c.39.12.67.63,1.06.75a2.66,2.66,0,0,1-.27,3.77l-1.54.83c-5.82.83-11.8.75-17.51,1.19a12.47,12.47,0,0,0-6.53,3.19c-3.15,3.35-6.42,7.09-9.68,10.83a18.24,18.24,0,0,1-4.45,3.39,18.28,18.28,0,0,1-14.29.44c-1.57-.48-3.3-1.85-4.76-2.72a19.57,19.57,0,0,0-2.4-2c-4.41-3.9-11-3.31-15.31,1a44.88,44.88,0,0,0-4.64,5.47c-.12.39-.63.67-1.15.94a3.13,3.13,0,0,1-4-2.47,1.83,1.83,0,0,1,.59-2c1.37-1.73,3.26-3.74,4.64-5.48a18.45,18.45,0,0,1,4.45-3.38,16.5,16.5,0,0,1,14.4-.83c2,.58,3.31,1.84,5,3.22a20.48,20.48,0,0,0,2.4,2A12.51,12.51,0,0,0,74,39a11.13,11.13,0,0,0,9.09-.28,22.76,22.76,0,0,0,3.31-2.45c3.15-3.34,6.41-7.08,9.68-10.82a17.45,17.45,0,0,1,7.39-4.65c.91-.16,2.33-.59,3.23-.75l17.12-1.31.79.24"/><path class="cls-2" d="M29.26,33.85a1.5,1.5,0,1,0,1.5-1.5A1.49,1.49,0,0,0,29.26,33.85Z"/><path class="cls-2" d="M75.54,19.09a3.92,3.92,0,0,0,4,4,4.11,4.11,0,0,0,4-4,3.93,3.93,0,0,0-4-4A4,4,0,0,0,75.54,19.09Z"/><path class="cls-2" d="M98,51.5a2.5,2.5,0,1,0,2.5-2.5A2.44,2.44,0,0,0,98,51.5Z"/><path class="cls-3" d="M32,52a3,3,0,1,0,3-3A3,3,0,0,0,32,52Z"/><path class="cls-4" d="M126,12a4,4,0,0,0,4,4h0a4,4,0,0,0,4-4v0a4,4,0,0,0-4-4h0a4,4,0,0,0-4,4Z"/><path class="cls-5" d="M112,30.52A2.5,2.5,0,1,0,114.5,28C113,27.78,112,29,112,30.52Z"/><path class="cls-5" d="M57,18a3,3,0,1,0,3-3A2.77,2.77,0,0,0,57,18Z"/><path class="cls-4" d="M96.5,37a3.37,3.37,0,0,0,3.5,3.5,3.55,3.55,0,0,0,3.5-3.5,3.5,3.5,0,0,0-7,0Z"/><path class="cls-4" d="M68,29a2,2,0,1,0,2-2A1.92,1.92,0,0,0,68,29Z"/><path class="cls-6" d="M48,27a2.07,2.07,0,0,0,2,2,1.94,1.94,0,0,0,2-2,2,2,0,0,0-4,0Z"/><path class="cls-7" d="M82,51.5A2.48,2.48,0,0,0,84.48,54h0A2.48,2.48,0,0,0,87,51.52v0A2.49,2.49,0,0,0,84.52,49h0A2.49,2.49,0,0,0,82,51.48Z"/></svg>