<svg id="图层_1" data-name="图层 1" xmlns="http://www.w3.org/2000/svg" viewBox="0 0 160 72"><defs><style>.cls-1,.cls-3{fill:#0af;}.cls-1{opacity:0.2;}.cls-2{fill:#00b1ff;}.cls-3{opacity:0.3;}</style></defs><title>画板 5 副本 4</title><rect class="cls-1" x="25" y="8" width="110" height="56"/><path class="cls-2" d="M46,39.62a7.09,7.09,0,0,0-.53-1.07A19.72,19.72,0,0,0,48.34,32H45.89v-.89h2.45V27.34h.91v3.74h2.21V32H49.25v3l.49-.43c.7.7,1.4,1.46,2.11,2.27l-.69.64C50.63,36.8,50,36,49.25,35.21v9.5h-.91V34.13A20,20,0,0,1,46,39.62Zm7.54-2.82.9.37c-.75,1.71-1.65,3.56-2.72,5.55a6.56,6.56,0,0,0-.86-.53A45.79,45.79,0,0,0,53.57,36.8Zm-1.72-3H62.26v.88H57.48V42.4a1.75,1.75,0,0,1-1.94,2.07l-.89,0h-1a9.68,9.68,0,0,0-.2-1.05c.65,0,1.28.05,1.88.05a1.2,1.2,0,0,0,1-.28,1.39,1.39,0,0,0,.27-1V34.69h-4.7Zm.8-5.09H61.4v.9H52.65Zm6.48,8.51L60,36.8c.76,1.54,1.61,3.35,2.53,5.43l-.92.47Q60.45,39.94,59.13,37.23Z"/><path class="cls-2" d="M63.41,35.86H71v.81H68.12V39h2.72v.79H68.12v2.95a9.7,9.7,0,0,0,2.91.46c1.28.06,2.7.08,4.28.08s3.2,0,4.84-.09a7.19,7.19,0,0,0-.36,1H77.54q-4.76,0-6.65-.07-4.35,0-5.72-2.85a10.61,10.61,0,0,1-1.28,3.36,4.91,4.91,0,0,0-.67-.64,11.15,11.15,0,0,0,1.42-6h.85c0,.72-.07,1.37-.13,2a5.67,5.67,0,0,0,1.9,2.45V36.67H63.41Zm1.1-7.8h5.67v6.15H64.51Zm.87.8v1.89h3.93V28.86Zm0,2.67v1.89h3.93V31.53Zm13.43,10.7q-1.56-1.47-3.44-3.1c-.52,1.35-1.81,2.49-3.89,3.41-.1-.17-.28-.43-.52-.77a7.3,7.3,0,0,0,3.25-2.31A6.6,6.6,0,0,0,75,35.67v-2.3h.86v2.34a11.12,11.12,0,0,1-.26,2.59c1.13.92,2.41,2,3.82,3.21ZM71.45,28.17h8.22V29H75.79l-.42,2.42h3.46v7.28H78V32.21H73v6.48h-.86V31.41h2.39L74.89,29H71.45Z"/><path class="cls-2" d="M88.15,27.25l1,.41a19.08,19.08,0,0,1-1.4,1.62h8.36v1a24.43,24.43,0,0,1-9.36,6.62H96v7.81h-1V43.57H85.49v1.18h-.95V37.82c-.93.35-1.92.71-3,1.08A7.25,7.25,0,0,0,81,38q9-2.43,13.85-7.72H86.82c-.34.33-.68.64-1,.95.47.42,1.19,1.1,2.17,2l.48.46-.81.71c-1-1.11-1.86-2-2.53-2.62-.91.74-2,1.52-3.17,2.32a5,5,0,0,0-.62-.83A21.82,21.82,0,0,0,88.15,27.25ZM85.49,37.88v4.74h9.59V37.88Z"/><path class="cls-2" d="M98.86,32.71h2.86V29.58c-.64.08-1.5.15-2.57.24A6.55,6.55,0,0,0,99,29c2-.13,3.91-.35,5.86-.67l.21.9-.25,0c-.94.13-1.67.22-2.17.27v3.23h2.1v.85h-2.1v2.07l.41-.4c.76.67,1.47,1.34,2.14,2l-.62.63c-.89-.94-1.54-1.6-1.93-2v8.83h-.89v-9.3A20.3,20.3,0,0,1,99.14,41c-.11-.26-.27-.59-.48-1a20.48,20.48,0,0,0,3-6.45H98.86ZM107,35.14l.88.29c-.76,2.19-1.55,4.29-2.37,6.32l-.93-.41A48,48,0,0,0,107,35.14ZM105.76,34a4.93,4.93,0,0,0-.75-.6,26.32,26.32,0,0,0,3-6.19l.93.27c-.39.95-.73,1.76-1,2.43H115v1l-1.23,2.87a7.11,7.11,0,0,0-.87-.37l1.17-2.57h-6.62C107,31.82,106.46,32.88,105.76,34Zm3.79-1.87h.92V42.42a1.68,1.68,0,0,1-1.93,2H107a7.44,7.44,0,0,0-.2-1q.72.06,1.62.06c.8.05,1.17-.32,1.13-1.11Zm2.34,3.26.81-.37q1.18,2.43,2.8,6.1l-.91.46C113.72,39.48,112.81,37.42,111.89,35.43Z"/><rect class="cls-3" x="27" y="60" width="1" height="1" transform="translate(-33 88) rotate(-90)"/><rect class="cls-3" x="37" y="60" width="1" height="1" transform="translate(-23 98) rotate(-90)"/><rect class="cls-3" x="47" y="60" width="1" height="1" transform="translate(-13 108) rotate(-90)"/><rect class="cls-3" x="57" y="60" width="1" height="1" transform="translate(-3 118) rotate(-90)"/><rect class="cls-3" x="67" y="60" width="1" height="1" transform="translate(7 128) rotate(-90)"/><rect class="cls-3" x="77" y="60" width="1" height="1" transform="translate(17 138) rotate(-90)"/><rect class="cls-3" x="87" y="60" width="1" height="1" transform="translate(27 148) rotate(-90)"/><rect class="cls-3" x="97" y="60" width="1" height="1" transform="translate(37 158) rotate(-90)"/><rect class="cls-3" x="107" y="60" width="1" height="1" transform="translate(47 168) rotate(-90)"/><rect class="cls-3" x="117" y="60" width="1" height="1" transform="translate(57 178) rotate(-90)"/><rect class="cls-3" x="127" y="60" width="1" height="1" transform="translate(67 188) rotate(-90)"/><rect class="cls-3" x="32" y="57" width="1" height="1" transform="translate(-25 90) rotate(-90)"/><rect class="cls-3" x="42" y="57" width="1" height="1" transform="translate(-15 100) rotate(-90)"/><rect class="cls-3" x="52" y="57" width="1" height="1" transform="translate(-5 110) rotate(-90)"/><rect class="cls-3" x="62" y="57" width="1" height="1" transform="translate(5 120) rotate(-90)"/><rect class="cls-3" x="72" y="57" width="1" height="1" transform="translate(15 130) rotate(-90)"/><rect class="cls-3" x="82" y="57" width="1" height="1" transform="translate(25 140) rotate(-90)"/><rect class="cls-3" x="92" y="57" width="1" height="1" transform="translate(35 150) rotate(-90)"/><rect class="cls-3" x="102" y="57" width="1" height="1" transform="translate(45 160) rotate(-90)"/><rect class="cls-3" x="112" y="57" width="1" height="1" transform="translate(55 170) rotate(-90)"/><rect class="cls-3" x="122" y="57" width="1" height="1" transform="translate(65 180) rotate(-90)"/><rect class="cls-3" x="132" y="57" width="1" height="1" transform="translate(75 190) rotate(-90)"/><rect class="cls-3" x="32" y="50" width="1" height="1" transform="translate(-18 83) rotate(-90)"/><rect class="cls-3" x="42" y="50" width="1" height="1" transform="translate(-8 93) rotate(-90)"/><rect class="cls-3" x="52" y="50" width="1" height="1" transform="translate(2 103) rotate(-90)"/><rect class="cls-3" x="62" y="50" width="1" height="1" transform="translate(12 113) rotate(-90)"/><rect class="cls-3" x="72" y="50" width="1" height="1" transform="translate(22 123) rotate(-90)"/><rect class="cls-3" x="82" y="50" width="1" height="1" transform="translate(32 133) rotate(-90)"/><rect class="cls-3" x="92" y="50" width="1" height="1" transform="translate(42 143) rotate(-90)"/><rect class="cls-3" x="102" y="50" width="1" height="1" transform="translate(52 153) rotate(-90)"/><rect class="cls-3" x="112" y="50" width="1" height="1" transform="translate(62 163) rotate(-90)"/><rect class="cls-3" x="122" y="50" width="1" height="1" transform="translate(72 173) rotate(-90)"/><rect class="cls-3" x="132" y="50" width="1" height="1" transform="translate(82 183) rotate(-90)"/><rect class="cls-3" x="32" y="42" width="1" height="1" transform="translate(-10 75) rotate(-90)"/><rect class="cls-3" x="42" y="42" width="1" height="1" transform="translate(0 85) rotate(-90)"/><rect class="cls-3" x="112" y="42" width="1" height="1" transform="translate(70 155) rotate(-90)"/><rect class="cls-3" x="122" y="42" width="1" height="1" transform="translate(80 165) rotate(-90)"/><rect class="cls-3" x="132" y="42" width="1" height="1" transform="translate(90 175) rotate(-90)"/><rect class="cls-3" x="32" y="34" width="1" height="1" transform="translate(-2 67) rotate(-90)"/><rect class="cls-3" x="42" y="34" width="1" height="1" transform="translate(8 77) rotate(-90)"/><rect class="cls-3" x="122" y="34" width="1" height="1" transform="translate(88 157) rotate(-90)"/><rect class="cls-3" x="132" y="34" width="1" height="1" transform="translate(98 167) rotate(-90)"/><rect class="cls-3" x="32" y="26" width="1" height="1" transform="translate(6 59) rotate(-90)"/><rect class="cls-3" x="42" y="26" width="1" height="1" transform="translate(16 69) rotate(-90)"/><rect class="cls-3" x="122" y="26" width="1" height="1" transform="translate(96 149) rotate(-90)"/><rect class="cls-3" x="132" y="26" width="1" height="1" transform="translate(106 159) rotate(-90)"/><rect class="cls-3" x="32" y="18" width="1" height="1" transform="translate(14 51) rotate(-90)"/><rect class="cls-3" x="42" y="18" width="1" height="1" transform="translate(24 61) rotate(-90)"/><rect class="cls-3" x="52" y="18" width="1" height="1" transform="translate(34 71) rotate(-90)"/><rect class="cls-3" x="62" y="18" width="1" height="1" transform="translate(44 81) rotate(-90)"/><rect class="cls-3" x="72" y="18" width="1" height="1" transform="translate(54 91) rotate(-90)"/><rect class="cls-3" x="82" y="18" width="1" height="1" transform="translate(64 101) rotate(-90)"/><rect class="cls-3" x="92" y="18" width="1" height="1" transform="translate(74 111) rotate(-90)"/><rect class="cls-3" x="102" y="18" width="1" height="1" transform="translate(84 121) rotate(-90)"/><rect class="cls-3" x="112" y="18" width="1" height="1" transform="translate(94 131) rotate(-90)"/><rect class="cls-3" x="122" y="18" width="1" height="1" transform="translate(104 141) rotate(-90)"/><rect class="cls-3" x="132" y="18" width="1" height="1" transform="translate(114 151) rotate(-90)"/><rect class="cls-3" x="32" y="11" width="1" height="1" transform="translate(21 44) rotate(-90)"/><rect class="cls-3" x="42" y="11" width="1" height="1" transform="translate(31 54) rotate(-90)"/><rect class="cls-3" x="52" y="11" width="1" height="1" transform="translate(41 64) rotate(-90)"/><rect class="cls-3" x="62" y="11" width="1" height="1" transform="translate(51 74) rotate(-90)"/><rect class="cls-3" x="72" y="11" width="1" height="1" transform="translate(61 84) rotate(-90)"/><rect class="cls-3" x="82" y="11" width="1" height="1" transform="translate(71 94) rotate(-90)"/><rect class="cls-3" x="92" y="11" width="1" height="1" transform="translate(81 104) rotate(-90)"/><rect class="cls-3" x="102" y="11" width="1" height="1" transform="translate(91 114) rotate(-90)"/><rect class="cls-3" x="112" y="11" width="1" height="1" transform="translate(101 124) rotate(-90)"/><rect class="cls-3" x="122" y="11" width="1" height="1" transform="translate(111 134) rotate(-90)"/><rect class="cls-3" x="132" y="11" width="1" height="1" transform="translate(121 144) rotate(-90)"/><rect class="cls-3" x="27" y="54" width="1" height="1" transform="translate(-27 82) rotate(-90)"/><rect class="cls-3" x="37" y="54" width="1" height="1" transform="translate(-17 92) rotate(-90)"/><rect class="cls-3" x="47" y="54" width="1" height="1" transform="translate(-7 102) rotate(-90)"/><rect class="cls-3" x="57" y="54" width="1" height="1" transform="translate(3 112) rotate(-90)"/><rect class="cls-3" x="67" y="54" width="1" height="1" transform="translate(13 122) rotate(-90)"/><rect class="cls-3" x="77" y="54" width="1" height="1" transform="translate(23 132) rotate(-90)"/><rect class="cls-3" x="87" y="54" width="1" height="1" transform="translate(33 142) rotate(-90)"/><rect class="cls-3" x="97" y="54" width="1" height="1" transform="translate(43 152) rotate(-90)"/><rect class="cls-3" x="107" y="54" width="1" height="1" transform="translate(53 162) rotate(-90)"/><rect class="cls-3" x="117" y="54" width="1" height="1" transform="translate(63 172) rotate(-90)"/><rect class="cls-3" x="127" y="54" width="1" height="1" transform="translate(73 182) rotate(-90)"/><rect class="cls-3" x="27" y="46" width="1" height="1" transform="translate(-19 74) rotate(-90)"/><rect class="cls-3" x="37" y="46" width="1" height="1" transform="translate(-9 84) rotate(-90)"/><rect class="cls-3" x="127" y="46" width="1" height="1" transform="translate(81 174) rotate(-90)"/><rect class="cls-3" x="27" y="38" width="1" height="1" transform="translate(-11 66) rotate(-90)"/><rect class="cls-3" x="37" y="38" width="1" height="1" transform="translate(-1 76) rotate(-90)"/><rect class="cls-3" x="127" y="38" width="1" height="1" transform="translate(89 166) rotate(-90)"/><rect class="cls-3" x="27" y="30" width="1" height="1" transform="translate(-3 58) rotate(-90)"/><rect class="cls-3" x="37" y="30" width="1" height="1" transform="translate(7 68) rotate(-90)"/><rect class="cls-3" x="127" y="30" width="1" height="1" transform="translate(97 158) rotate(-90)"/><rect class="cls-3" x="27" y="22" width="1" height="1" transform="translate(5 50) rotate(-90)"/><rect class="cls-3" x="37" y="22" width="1" height="1" transform="translate(15 60) rotate(-90)"/><rect class="cls-3" x="47" y="22" width="1" height="1" transform="translate(25 70) rotate(-90)"/><rect class="cls-3" x="57" y="22" width="1" height="1" transform="translate(35 80) rotate(-90)"/><rect class="cls-3" x="67" y="22" width="1" height="1" transform="translate(45 90) rotate(-90)"/><rect class="cls-3" x="77" y="22" width="1" height="1" transform="translate(55 100) rotate(-90)"/><rect class="cls-3" x="87" y="22" width="1" height="1" transform="translate(65 110) rotate(-90)"/><rect class="cls-3" x="97" y="22" width="1" height="1" transform="translate(75 120) rotate(-90)"/><rect class="cls-3" x="107" y="22" width="1" height="1" transform="translate(85 130) rotate(-90)"/><rect class="cls-3" x="117" y="22" width="1" height="1" transform="translate(95 140) rotate(-90)"/><rect class="cls-3" x="127" y="22" width="1" height="1" transform="translate(105 150) rotate(-90)"/><rect class="cls-3" x="27" y="14" width="1" height="1" transform="translate(13 42) rotate(-90)"/><rect class="cls-3" x="37" y="14" width="1" height="1" transform="translate(23 52) rotate(-90)"/><rect class="cls-3" x="47" y="14" width="1" height="1" transform="translate(33 62) rotate(-90)"/><rect class="cls-3" x="57" y="14" width="1" height="1" transform="translate(43 72) rotate(-90)"/><rect class="cls-3" x="67" y="14" width="1" height="1" transform="translate(53 82) rotate(-90)"/><rect class="cls-3" x="77" y="14" width="1" height="1" transform="translate(63 92) rotate(-90)"/><rect class="cls-3" x="87" y="14" width="1" height="1" transform="translate(73 102) rotate(-90)"/><rect class="cls-3" x="97" y="14" width="1" height="1" transform="translate(83 112) rotate(-90)"/><rect class="cls-3" x="107" y="14" width="1" height="1" transform="translate(93 122) rotate(-90)"/><rect class="cls-3" x="117" y="14" width="1" height="1" transform="translate(103 132) rotate(-90)"/><rect class="cls-3" x="127" y="14" width="1" height="1" transform="translate(113 142) rotate(-90)"/></svg>