<svg id="图层_1" data-name="图层 1" xmlns="http://www.w3.org/2000/svg" viewBox="0 0 160 72"><defs><style>.cls-1{opacity:0.2;}.cls-2{fill:#00b1ff;}.cls-3,.cls-4{fill:#0af;}.cls-3{opacity:0.3;}.cls-5{font-size:20px;fill:#fff;font-family:ZoomlaYasong-A001;}</style></defs><title>画板 5 副本 22</title><g class="cls-1"><rect class="cls-2" x="26" y="9" width="108" height="54"/><path class="cls-2" d="M133,10V62H27V10H133m2-2H25V64H135V8Z"/></g><rect class="cls-3" x="29.5" y="60.05" width="1" height="0.91" transform="translate(-30.5 90.5) rotate(-90)"/><rect class="cls-3" x="38.59" y="60.05" width="1" height="0.91" transform="translate(-21.41 99.59) rotate(-90)"/><rect class="cls-3" x="47.68" y="60.05" width="1" height="0.91" transform="translate(-12.32 108.68) rotate(-90)"/><rect class="cls-3" x="56.77" y="60.05" width="1" height="0.91" transform="translate(-3.23 117.77) rotate(-90)"/><rect class="cls-3" x="65.86" y="60.05" width="1" height="0.91" transform="translate(5.86 126.86) rotate(-90)"/><rect class="cls-3" x="74.95" y="60.05" width="1" height="0.91" transform="translate(14.95 135.95) rotate(-90)"/><rect class="cls-3" x="84.05" y="60.05" width="1" height="0.91" transform="translate(24.05 145.05) rotate(-90)"/><rect class="cls-3" x="93.14" y="60.05" width="1" height="0.91" transform="translate(33.14 154.14) rotate(-90)"/><rect class="cls-3" x="102.23" y="60.05" width="1" height="0.91" transform="translate(42.23 163.23) rotate(-90)"/><rect class="cls-3" x="111.32" y="60.05" width="1" height="0.91" transform="translate(51.32 172.32) rotate(-90)"/><rect class="cls-3" x="120.41" y="60.05" width="1" height="0.91" transform="translate(60.41 181.41) rotate(-90)"/><rect class="cls-3" x="129.5" y="60.05" width="1" height="0.91" transform="translate(69.5 190.5) rotate(-90)"/><rect class="cls-3" x="24.95" y="57.05" width="1" height="0.91" transform="translate(-32.05 82.95) rotate(-90)"/><rect class="cls-3" x="34.05" y="57.05" width="1" height="0.91" transform="translate(-22.95 92.05) rotate(-90)"/><rect class="cls-3" x="43.14" y="57.05" width="1" height="0.91" transform="translate(-13.86 101.14) rotate(-90)"/><rect class="cls-3" x="52.23" y="57.05" width="1" height="0.91" transform="translate(-4.77 110.23) rotate(-90)"/><rect class="cls-3" x="61.32" y="57.05" width="1" height="0.91" transform="translate(4.32 119.32) rotate(-90)"/><rect class="cls-3" x="70.41" y="57.05" width="1" height="0.91" transform="translate(13.41 128.41) rotate(-90)"/><rect class="cls-3" x="79.5" y="57.05" width="1" height="0.91" transform="translate(22.5 137.5) rotate(-90)"/><rect class="cls-3" x="88.59" y="57.05" width="1" height="0.91" transform="translate(31.59 146.59) rotate(-90)"/><rect class="cls-3" x="97.68" y="57.05" width="1" height="0.91" transform="translate(40.68 155.68) rotate(-90)"/><rect class="cls-3" x="106.77" y="57.05" width="1" height="0.91" transform="translate(49.77 164.77) rotate(-90)"/><rect class="cls-3" x="115.86" y="57.05" width="1" height="0.91" transform="translate(58.86 173.86) rotate(-90)"/><rect class="cls-3" x="124.95" y="57.05" width="1" height="0.91" transform="translate(67.95 182.95) rotate(-90)"/><rect class="cls-3" x="134.05" y="57.05" width="1" height="0.91" transform="translate(77.05 192.05) rotate(-90)"/><rect class="cls-3" x="24.95" y="50.05" width="1" height="0.91" transform="translate(-25.05 75.95) rotate(-90)"/><rect class="cls-3" x="34.05" y="50.05" width="1" height="0.91" transform="translate(-15.95 85.05) rotate(-90)"/><rect class="cls-3" x="43.14" y="50.05" width="1" height="0.91" transform="translate(-6.86 94.14) rotate(-90)"/><rect class="cls-3" x="52.23" y="50.05" width="1" height="0.91" transform="translate(2.23 103.23) rotate(-90)"/><rect class="cls-3" x="61.32" y="50.05" width="1" height="0.91" transform="translate(11.32 112.32) rotate(-90)"/><rect class="cls-3" x="70.41" y="50.05" width="1" height="0.91" transform="translate(20.41 121.41) rotate(-90)"/><rect class="cls-3" x="79.5" y="50.05" width="1" height="0.91" transform="translate(29.5 130.5) rotate(-90)"/><rect class="cls-3" x="88.59" y="50.05" width="1" height="0.91" transform="translate(38.59 139.59) rotate(-90)"/><rect class="cls-3" x="97.68" y="50.05" width="1" height="0.91" transform="translate(47.68 148.68) rotate(-90)"/><rect class="cls-3" x="106.77" y="50.05" width="1" height="0.91" transform="translate(56.77 157.77) rotate(-90)"/><rect class="cls-3" x="115.86" y="50.05" width="1" height="0.91" transform="translate(65.86 166.86) rotate(-90)"/><rect class="cls-3" x="124.95" y="50.05" width="1" height="0.91" transform="translate(74.95 175.95) rotate(-90)"/><rect class="cls-3" x="134.05" y="50.05" width="1" height="0.91" transform="translate(84.05 185.05) rotate(-90)"/><rect class="cls-3" x="24.95" y="18.05" width="1" height="0.91" transform="translate(6.95 43.95) rotate(-90)"/><rect class="cls-3" x="34.05" y="18.05" width="1" height="0.91" transform="translate(16.05 53.05) rotate(-90)"/><rect class="cls-3" x="43.14" y="18.05" width="1" height="0.91" transform="translate(25.14 62.14) rotate(-90)"/><rect class="cls-3" x="52.23" y="18.05" width="1" height="0.91" transform="translate(34.23 71.23) rotate(-90)"/><rect class="cls-3" x="61.32" y="18.05" width="1" height="0.91" transform="translate(43.32 80.32) rotate(-90)"/><rect class="cls-3" x="70.41" y="18.05" width="1" height="0.91" transform="translate(52.41 89.41) rotate(-90)"/><rect class="cls-3" x="79.5" y="18.05" width="1" height="0.91" transform="translate(61.5 98.5) rotate(-90)"/><rect class="cls-3" x="88.59" y="18.05" width="1" height="0.91" transform="translate(70.59 107.59) rotate(-90)"/><rect class="cls-3" x="97.68" y="18.05" width="1" height="0.91" transform="translate(79.68 116.68) rotate(-90)"/><rect class="cls-3" x="106.77" y="18.05" width="1" height="0.91" transform="translate(88.77 125.77) rotate(-90)"/><rect class="cls-3" x="115.86" y="18.05" width="1" height="0.91" transform="translate(97.86 134.86) rotate(-90)"/><rect class="cls-3" x="124.95" y="18.05" width="1" height="0.91" transform="translate(106.95 143.95) rotate(-90)"/><rect class="cls-3" x="134.05" y="18.05" width="1" height="0.91" transform="translate(116.05 153.05) rotate(-90)"/><rect class="cls-3" x="24.95" y="26.05" width="1" height="0.91" transform="translate(-1.05 51.95) rotate(-90)"/><rect class="cls-3" x="34.05" y="26.05" width="1" height="0.91" transform="translate(8.05 61.05) rotate(-90)"/><rect class="cls-3" x="43.14" y="26.05" width="1" height="0.91" transform="translate(17.14 70.14) rotate(-90)"/><rect class="cls-3" x="52.23" y="26.05" width="1" height="0.91" transform="translate(26.23 79.23) rotate(-90)"/><rect class="cls-3" x="61.32" y="26.05" width="1" height="0.91" transform="translate(35.32 88.32) rotate(-90)"/><rect class="cls-3" x="70.41" y="26.05" width="1" height="0.91" transform="translate(44.41 97.41) rotate(-90)"/><rect class="cls-3" x="79.5" y="26.05" width="1" height="0.91" transform="translate(53.5 106.5) rotate(-90)"/><rect class="cls-3" x="88.59" y="26.05" width="1" height="0.91" transform="translate(62.59 115.59) rotate(-90)"/><rect class="cls-3" x="97.68" y="26.05" width="1" height="0.91" transform="translate(71.68 124.68) rotate(-90)"/><rect class="cls-3" x="106.77" y="26.05" width="1" height="0.91" transform="translate(80.77 133.77) rotate(-90)"/><rect class="cls-3" x="115.86" y="26.05" width="1" height="0.91" transform="translate(89.86 142.86) rotate(-90)"/><rect class="cls-3" x="124.95" y="26.05" width="1" height="0.91" transform="translate(98.95 151.95) rotate(-90)"/><rect class="cls-3" x="134.05" y="26.05" width="1" height="0.91" transform="translate(108.05 161.05) rotate(-90)"/><rect class="cls-3" x="24.95" y="34.05" width="1" height="0.91" transform="translate(-9.05 59.95) rotate(-90)"/><rect class="cls-3" x="34.05" y="34.05" width="1" height="0.91" transform="translate(0.05 69.05) rotate(-90)"/><rect class="cls-3" x="43.14" y="34.05" width="1" height="0.91" transform="translate(9.14 78.14) rotate(-90)"/><rect class="cls-3" x="52.23" y="34.05" width="1" height="0.91" transform="translate(18.23 87.23) rotate(-90)"/><rect class="cls-3" x="61.32" y="34.05" width="1" height="0.91" transform="translate(27.32 96.32) rotate(-90)"/><rect class="cls-3" x="70.41" y="34.05" width="1" height="0.91" transform="translate(36.41 105.41) rotate(-90)"/><rect class="cls-3" x="79.5" y="34.05" width="1" height="0.91" transform="translate(45.5 114.5) rotate(-90)"/><rect class="cls-3" x="88.59" y="34.05" width="1" height="0.91" transform="translate(54.59 123.59) rotate(-90)"/><rect class="cls-3" x="97.68" y="34.05" width="1" height="0.91" transform="translate(63.68 132.68) rotate(-90)"/><rect class="cls-3" x="106.77" y="34.05" width="1" height="0.91" transform="translate(72.77 141.77) rotate(-90)"/><rect class="cls-3" x="115.86" y="34.05" width="1" height="0.91" transform="translate(81.86 150.86) rotate(-90)"/><rect class="cls-3" x="124.95" y="34.05" width="1" height="0.91" transform="translate(90.95 159.95) rotate(-90)"/><rect class="cls-3" x="134.05" y="34.05" width="1" height="0.91" transform="translate(100.05 169.05) rotate(-90)"/><rect class="cls-3" x="24.95" y="42.05" width="1" height="0.91" transform="translate(-17.05 67.95) rotate(-90)"/><rect class="cls-3" x="34.05" y="42.05" width="1" height="0.91" transform="translate(-7.95 77.05) rotate(-90)"/><rect class="cls-3" x="43.14" y="42.05" width="1" height="0.91" transform="translate(1.14 86.14) rotate(-90)"/><rect class="cls-3" x="52.23" y="42.05" width="1" height="0.91" transform="translate(10.23 95.23) rotate(-90)"/><rect class="cls-3" x="61.32" y="42.05" width="1" height="0.91" transform="translate(19.32 104.32) rotate(-90)"/><rect class="cls-3" x="70.41" y="42.05" width="1" height="0.91" transform="translate(28.41 113.41) rotate(-90)"/><rect class="cls-3" x="79.5" y="42.05" width="1" height="0.91" transform="translate(37.5 122.5) rotate(-90)"/><rect class="cls-3" x="88.59" y="42.05" width="1" height="0.91" transform="translate(46.59 131.59) rotate(-90)"/><rect class="cls-3" x="97.68" y="42.05" width="1" height="0.91" transform="translate(55.68 140.68) rotate(-90)"/><rect class="cls-3" x="106.77" y="42.05" width="1" height="0.91" transform="translate(64.77 149.77) rotate(-90)"/><rect class="cls-3" x="115.86" y="42.05" width="1" height="0.91" transform="translate(73.86 158.86) rotate(-90)"/><rect class="cls-3" x="124.95" y="42.05" width="1" height="0.91" transform="translate(82.95 167.95) rotate(-90)"/><rect class="cls-3" x="134.05" y="42.05" width="1" height="0.91" transform="translate(92.05 177.05) rotate(-90)"/><rect class="cls-3" x="24.95" y="11.05" width="1" height="0.91" transform="translate(13.95 36.95) rotate(-90)"/><rect class="cls-3" x="34.05" y="11.05" width="1" height="0.91" transform="translate(23.05 46.05) rotate(-90)"/><rect class="cls-3" x="43.14" y="11.05" width="1" height="0.91" transform="translate(32.14 55.14) rotate(-90)"/><rect class="cls-3" x="52.23" y="11.05" width="1" height="0.91" transform="translate(41.23 64.23) rotate(-90)"/><rect class="cls-3" x="61.32" y="11.05" width="1" height="0.91" transform="translate(50.32 73.32) rotate(-90)"/><rect class="cls-3" x="70.41" y="11.05" width="1" height="0.91" transform="translate(59.41 82.41) rotate(-90)"/><rect class="cls-3" x="79.5" y="11.05" width="1" height="0.91" transform="translate(68.5 91.5) rotate(-90)"/><rect class="cls-3" x="88.59" y="11.05" width="1" height="0.91" transform="translate(77.59 100.59) rotate(-90)"/><rect class="cls-3" x="97.68" y="11.05" width="1" height="0.91" transform="translate(86.68 109.68) rotate(-90)"/><rect class="cls-3" x="106.77" y="11.05" width="1" height="0.91" transform="translate(95.77 118.77) rotate(-90)"/><rect class="cls-3" x="115.86" y="11.05" width="1" height="0.91" transform="translate(104.86 127.86) rotate(-90)"/><rect class="cls-3" x="124.95" y="11.05" width="1" height="0.91" transform="translate(113.95 136.95) rotate(-90)"/><rect class="cls-3" x="134.05" y="11.05" width="1" height="0.91" transform="translate(123.05 146.05) rotate(-90)"/><rect class="cls-3" x="29.5" y="54.05" width="1" height="0.91" transform="translate(-24.5 84.5) rotate(-90)"/><rect class="cls-3" x="38.59" y="54.05" width="1" height="0.91" transform="translate(-15.41 93.59) rotate(-90)"/><rect class="cls-3" x="47.68" y="54.05" width="1" height="0.91" transform="translate(-6.32 102.68) rotate(-90)"/><rect class="cls-3" x="56.77" y="54.05" width="1" height="0.91" transform="translate(2.77 111.77) rotate(-90)"/><rect class="cls-3" x="65.86" y="54.05" width="1" height="0.91" transform="translate(11.86 120.86) rotate(-90)"/><rect class="cls-3" x="74.95" y="54.05" width="1" height="0.91" transform="translate(20.95 129.95) rotate(-90)"/><rect class="cls-3" x="84.05" y="54.05" width="1" height="0.91" transform="translate(30.05 139.05) rotate(-90)"/><rect class="cls-3" x="93.14" y="54.05" width="1" height="0.91" transform="translate(39.14 148.14) rotate(-90)"/><rect class="cls-3" x="102.23" y="54.05" width="1" height="0.91" transform="translate(48.23 157.23) rotate(-90)"/><rect class="cls-3" x="111.32" y="54.05" width="1" height="0.91" transform="translate(57.32 166.32) rotate(-90)"/><rect class="cls-3" x="120.41" y="54.05" width="1" height="0.91" transform="translate(66.41 175.41) rotate(-90)"/><rect class="cls-3" x="129.5" y="54.05" width="1" height="0.91" transform="translate(75.5 184.5) rotate(-90)"/><rect class="cls-3" x="29.5" y="22.05" width="1" height="0.91" transform="translate(7.5 52.5) rotate(-90)"/><rect class="cls-3" x="38.59" y="22.05" width="1" height="0.91" transform="translate(16.59 61.59) rotate(-90)"/><rect class="cls-3" x="47.68" y="22.05" width="1" height="0.91" transform="translate(25.68 70.68) rotate(-90)"/><rect class="cls-3" x="56.77" y="22.05" width="1" height="0.91" transform="translate(34.77 79.77) rotate(-90)"/><rect class="cls-3" x="65.86" y="22.05" width="1" height="0.91" transform="translate(43.86 88.86) rotate(-90)"/><rect class="cls-3" x="74.95" y="22.05" width="1" height="0.91" transform="translate(52.95 97.95) rotate(-90)"/><rect class="cls-3" x="84.05" y="22.05" width="1" height="0.91" transform="translate(62.05 107.05) rotate(-90)"/><rect class="cls-3" x="93.14" y="22.05" width="1" height="0.91" transform="translate(71.14 116.14) rotate(-90)"/><rect class="cls-3" x="102.23" y="22.05" width="1" height="0.91" transform="translate(80.23 125.23) rotate(-90)"/><rect class="cls-3" x="111.32" y="22.05" width="1" height="0.91" transform="translate(89.32 134.32) rotate(-90)"/><rect class="cls-3" x="120.41" y="22.05" width="1" height="0.91" transform="translate(98.41 143.41) rotate(-90)"/><rect class="cls-3" x="129.5" y="22.05" width="1" height="0.91" transform="translate(107.5 152.5) rotate(-90)"/><rect class="cls-3" x="29.5" y="30.05" width="1" height="0.91" transform="translate(-0.5 60.5) rotate(-90)"/><rect class="cls-3" x="38.59" y="30.05" width="1" height="0.91" transform="translate(8.59 69.59) rotate(-90)"/><rect class="cls-3" x="47.68" y="30.05" width="1" height="0.91" transform="translate(17.68 78.68) rotate(-90)"/><rect class="cls-3" x="56.77" y="30.05" width="1" height="0.91" transform="translate(26.77 87.77) rotate(-90)"/><rect class="cls-3" x="65.86" y="30.05" width="1" height="0.91" transform="translate(35.86 96.86) rotate(-90)"/><rect class="cls-3" x="74.95" y="30.05" width="1" height="0.91" transform="translate(44.95 105.95) rotate(-90)"/><rect class="cls-3" x="84.05" y="30.05" width="1" height="0.91" transform="translate(54.05 115.05) rotate(-90)"/><rect class="cls-3" x="93.14" y="30.05" width="1" height="0.91" transform="translate(63.14 124.14) rotate(-90)"/><rect class="cls-3" x="102.23" y="30.05" width="1" height="0.91" transform="translate(72.23 133.23) rotate(-90)"/><rect class="cls-3" x="111.32" y="30.05" width="1" height="0.91" transform="translate(81.32 142.32) rotate(-90)"/><rect class="cls-3" x="120.41" y="30.05" width="1" height="0.91" transform="translate(90.41 151.41) rotate(-90)"/><rect class="cls-3" x="129.5" y="30.05" width="1" height="0.91" transform="translate(99.5 160.5) rotate(-90)"/><rect class="cls-3" x="29.5" y="38.05" width="1" height="0.91" transform="translate(-8.5 68.5) rotate(-90)"/><rect class="cls-3" x="38.59" y="38.05" width="1" height="0.91" transform="translate(0.59 77.59) rotate(-90)"/><rect class="cls-3" x="47.68" y="38.05" width="1" height="0.91" transform="translate(9.68 86.68) rotate(-90)"/><rect class="cls-3" x="56.77" y="38.05" width="1" height="0.91" transform="translate(18.77 95.77) rotate(-90)"/><rect class="cls-3" x="65.86" y="38.05" width="1" height="0.91" transform="translate(27.86 104.86) rotate(-90)"/><rect class="cls-3" x="74.95" y="38.05" width="1" height="0.91" transform="translate(36.95 113.95) rotate(-90)"/><rect class="cls-3" x="84.05" y="38.05" width="1" height="0.91" transform="translate(46.05 123.05) rotate(-90)"/><rect class="cls-3" x="93.14" y="38.05" width="1" height="0.91" transform="translate(55.14 132.14) rotate(-90)"/><rect class="cls-3" x="102.23" y="38.05" width="1" height="0.91" transform="translate(64.23 141.23) rotate(-90)"/><rect class="cls-3" x="111.32" y="38.05" width="1" height="0.91" transform="translate(73.32 150.32) rotate(-90)"/><rect class="cls-3" x="120.41" y="38.05" width="1" height="0.91" transform="translate(82.41 159.41) rotate(-90)"/><rect class="cls-3" x="129.5" y="38.05" width="1" height="0.91" transform="translate(91.5 168.5) rotate(-90)"/><rect class="cls-3" x="29.5" y="46.05" width="1" height="0.91" transform="translate(-16.5 76.5) rotate(-90)"/><rect class="cls-3" x="38.59" y="46.05" width="1" height="0.91" transform="translate(-7.41 85.59) rotate(-90)"/><rect class="cls-3" x="47.68" y="46.05" width="1" height="0.91" transform="translate(1.68 94.68) rotate(-90)"/><rect class="cls-3" x="56.77" y="46.05" width="1" height="0.91" transform="translate(10.77 103.77) rotate(-90)"/><rect class="cls-3" x="65.86" y="46.05" width="1" height="0.91" transform="translate(19.86 112.86) rotate(-90)"/><rect class="cls-3" x="74.95" y="46.05" width="1" height="0.91" transform="translate(28.95 121.95) rotate(-90)"/><rect class="cls-3" x="84.05" y="46.05" width="1" height="0.91" transform="translate(38.05 131.05) rotate(-90)"/><rect class="cls-3" x="93.14" y="46.05" width="1" height="0.91" transform="translate(47.14 140.14) rotate(-90)"/><rect class="cls-3" x="102.23" y="46.05" width="1" height="0.91" transform="translate(56.23 149.23) rotate(-90)"/><rect class="cls-3" x="111.32" y="46.05" width="1" height="0.91" transform="translate(65.32 158.32) rotate(-90)"/><rect class="cls-3" x="120.41" y="46.05" width="1" height="0.91" transform="translate(74.41 167.41) rotate(-90)"/><rect class="cls-3" x="129.5" y="46.05" width="1" height="0.91" transform="translate(83.5 176.5) rotate(-90)"/><rect class="cls-3" x="29.5" y="14.05" width="1" height="0.91" transform="translate(15.5 44.5) rotate(-90)"/><rect class="cls-3" x="38.59" y="14.05" width="1" height="0.91" transform="translate(24.59 53.59) rotate(-90)"/><rect class="cls-3" x="47.68" y="14.05" width="1" height="0.91" transform="translate(33.68 62.68) rotate(-90)"/><rect class="cls-3" x="56.77" y="14.05" width="1" height="0.91" transform="translate(42.77 71.77) rotate(-90)"/><rect class="cls-3" x="65.86" y="14.05" width="1" height="0.91" transform="translate(51.86 80.86) rotate(-90)"/><rect class="cls-3" x="74.95" y="14.05" width="1" height="0.91" transform="translate(60.95 89.95) rotate(-90)"/><rect class="cls-3" x="84.05" y="14.05" width="1" height="0.91" transform="translate(70.05 99.05) rotate(-90)"/><rect class="cls-3" x="93.14" y="14.05" width="1" height="0.91" transform="translate(79.14 108.14) rotate(-90)"/><rect class="cls-3" x="102.23" y="14.05" width="1" height="0.91" transform="translate(88.23 117.23) rotate(-90)"/><rect class="cls-3" x="111.32" y="14.05" width="1" height="0.91" transform="translate(97.32 126.32) rotate(-90)"/><rect class="cls-3" x="120.41" y="14.05" width="1" height="0.91" transform="translate(106.41 135.41) rotate(-90)"/><rect class="cls-3" x="129.5" y="14.05" width="1" height="0.91" transform="translate(115.5 144.5) rotate(-90)"/><rect class="cls-4" x="35" y="21" width="40" height="30" rx="4"/><text class="cls-5" transform="translate(37.28 42.37)">15</text><path class="cls-4" d="M89,21h31.07A4.93,4.93,0,0,1,125,25.93V46.07A4.93,4.93,0,0,1,120.07,51H89.93A4.93,4.93,0,0,1,85,46.07V25A4,4,0,0,1,89,21Z"/><text class="cls-5" transform="translate(90.55 42.37)">30</text><rect class="cls-2" x="78.5" y="29.5" width="3" height="3"/><rect class="cls-2" x="78.5" y="39.5" width="3" height="3"/></svg>