<?xml version="1.0" encoding="utf-8"?>
<!-- Generator: Adobe Illustrator 15.0.0, SVG Export Plug-In . SVG Version: 6.00 Build 0)  -->
<!DOCTYPE svg PUBLIC "-//W3C//DTD SVG 1.0//EN" "http://www.w3.org/TR/2001/REC-SVG-20010904/DTD/svg10.dtd">
<svg version="1.0" id="_x33_7" xmlns="http://www.w3.org/2000/svg" xmlns:xlink="http://www.w3.org/1999/xlink" x="0px" y="0px"
	 width="159.333px" height="74.938px" viewBox="0 0 159.333 74.938" enable-background="new 0 0 159.333 74.938"
	 xml:space="preserve">
<g>
	<g>
		<linearGradient id="SVGID_1_" gradientUnits="userSpaceOnUse" x1="11.5" y1="0" x2="11.5" y2="73.2495">
			<stop  offset="0" style="stop-color:#2E6060"/>
			<stop  offset="0.0989" style="stop-color:#326464"/>
			<stop  offset="0.2067" style="stop-color:#3F7070"/>
			<stop  offset="0.25" style="stop-color:#467677"/>
			<stop  offset="0.5" style="stop-color:#8EBABA"/>
			<stop  offset="0.75" style="stop-color:#467677"/>
			<stop  offset="0.8021" style="stop-color:#3D6E6E"/>
			<stop  offset="0.8993" style="stop-color:#326363"/>
			<stop  offset="1" style="stop-color:#2E6060"/>
		</linearGradient>
		<path fill="url(#SVGID_1_)" d="M23,0H11.339C5.076,0,0,5.077,0,11.338v50.823C0,68.424,5.076,73.5,11.339,73.5H23V0z"/>
		<linearGradient id="SVGID_2_" gradientUnits="userSpaceOnUse" x1="82.082" y1="76.0522" x2="50.5817" y2="23.5517">
			<stop  offset="0" style="stop-color:#467677"/>
			<stop  offset="0.087" style="stop-color:#3D6E6E"/>
			<stop  offset="0.2493" style="stop-color:#326363"/>
			<stop  offset="0.4176" style="stop-color:#2E6060"/>
			<stop  offset="0.8736" style="stop-color:#173F3F"/>
		</linearGradient>
		<rect x="23" fill="url(#SVGID_2_)" width="71" height="73.5"/>
		<linearGradient id="SVGID_3_" gradientUnits="userSpaceOnUse" x1="126.667" y1="28.9258" x2="126.667" y2="45.5">
			<stop  offset="0" style="stop-color:#467677"/>
			<stop  offset="0.5" style="stop-color:#8EBABA"/>
			<stop  offset="1" style="stop-color:#467677"/>
		</linearGradient>
		<rect x="124.376" y="28.926" fill="url(#SVGID_3_)" width="4.581" height="16.408"/>
		<linearGradient id="SVGID_4_" gradientUnits="userSpaceOnUse" x1="144.1455" y1="33.75" x2="144.1455" y2="40">
			<stop  offset="0" style="stop-color:#467677"/>
			<stop  offset="0.5" style="stop-color:#8EBABA"/>
			<stop  offset="1" style="stop-color:#467677"/>
		</linearGradient>
		<rect x="128.957" y="33.667" fill="url(#SVGID_4_)" width="30.376" height="6.926"/>
		<linearGradient id="SVGID_5_" gradientUnits="userSpaceOnUse" x1="110.4375" y1="2.75" x2="110.4375" y2="69.9995">
			<stop  offset="0" style="stop-color:#2E6060"/>
			<stop  offset="0.0989" style="stop-color:#326464"/>
			<stop  offset="0.2067" style="stop-color:#3F7070"/>
			<stop  offset="0.25" style="stop-color:#467677"/>
			<stop  offset="0.5" style="stop-color:#8EBABA"/>
			<stop  offset="0.75" style="stop-color:#467677"/>
			<stop  offset="0.8021" style="stop-color:#3D6E6E"/>
			<stop  offset="0.8993" style="stop-color:#326363"/>
			<stop  offset="1" style="stop-color:#2E6060"/>
		</linearGradient>
		<path fill="url(#SVGID_5_)" d="M94,2.5V71c18.156,0,32.875-15.334,32.875-34.25S112.156,2.5,94,2.5z"/>
		<g>
			<g>
				<rect x="23.001" fill="#BBD3D2" width="75.999" height="1.674"/>
				<rect x="23.001" y="1.674" fill="#333333" width="75.999" height="1.076"/>
			</g>
			<g>
				<rect x="23.001" y="6.35" fill="#BBD3D2" width="75.999" height="1.674"/>
				<rect x="23.001" y="8.024" fill="#333333" width="75.999" height="1.076"/>
			</g>
			<g>
				<rect x="23.001" y="12.7" fill="#BBD3D2" width="75.999" height="1.674"/>
				<rect x="23.001" y="14.374" fill="#333333" width="75.999" height="1.076"/>
			</g>
			<g>
				<rect x="23.001" y="19.05" fill="#BBD3D2" width="75.999" height="1.674"/>
				<rect x="23.001" y="20.724" fill="#333333" width="75.999" height="1.076"/>
			</g>
			<g>
				<rect x="23.001" y="25.4" fill="#BBD3D2" width="75.999" height="1.674"/>
				<rect x="23.001" y="27.074" fill="#333333" width="75.999" height="1.076"/>
			</g>
			<g>
				<rect x="23.001" y="31.75" fill="#BBD3D2" width="75.999" height="1.674"/>
				<rect x="23.001" y="33.424" fill="#333333" width="75.999" height="1.076"/>
			</g>
			<g>
				<rect x="23.001" y="38.1" fill="#BBD3D2" width="75.999" height="1.674"/>
				<rect x="23.001" y="39.773" fill="#333333" width="75.999" height="1.076"/>
			</g>
			<g>
				<rect x="23.001" y="44.45" fill="#BBD3D2" width="75.999" height="1.674"/>
				<rect x="23.001" y="46.124" fill="#333333" width="75.999" height="1.076"/>
			</g>
			<g>
				<rect x="23.001" y="50.8" fill="#BBD3D2" width="75.999" height="1.674"/>
				<rect x="23.001" y="52.474" fill="#333333" width="75.999" height="1.076"/>
			</g>
			<g>
				<rect x="23.001" y="57.15" fill="#BBD3D2" width="75.999" height="1.674"/>
				<rect x="23.001" y="58.824" fill="#333333" width="75.999" height="1.076"/>
			</g>
			<g>
				<rect x="23.001" y="63.5" fill="#BBD3D2" width="75.999" height="1.674"/>
				<rect x="23.001" y="65.174" fill="#333333" width="75.999" height="1.076"/>
			</g>
		</g>
		<g>
			<linearGradient id="SVGID_6_" gradientUnits="userSpaceOnUse" x1="77.0947" y1="73.9067" x2="-1.6553" y2="-4.8433">
				<stop  offset="0" style="stop-color:#467677"/>
				<stop  offset="0.5" style="stop-color:#8EBABA"/>
				<stop  offset="1" style="stop-color:#D3E2E2"/>
			</linearGradient>
			<rect x="33.625" y="23.688" fill="url(#SVGID_6_)" width="37.75" height="51.25"/>
			<linearGradient id="SVGID_7_" gradientUnits="userSpaceOnUse" x1="77.0947" y1="73.9067" x2="-1.6554" y2="-4.8434">
				<stop  offset="0.5" style="stop-color:#8EBABA"/>
				<stop  offset="1" style="stop-color:#D3E2E2"/>
			</linearGradient>
			<rect x="38.125" y="27.063" fill="url(#SVGID_7_)" width="28.75" height="44.5"/>
			<line fill="none" stroke="#FFFFFF" stroke-width="0.5" x1="38.125" y1="27.063" x2="38.125" y2="71.563"/>
			<line fill="none" stroke="#FFFFFF" stroke-width="0.5" x1="38.125" y1="27.063" x2="66.875" y2="27.063"/>
		</g>
		<linearGradient id="SVGID_8_" gradientUnits="userSpaceOnUse" x1="128.9775" y1="40.79" x2="125.9031" y2="35.6659">
			<stop  offset="0" style="stop-color:#467677"/>
			<stop  offset="0.087" style="stop-color:#3D6E6E"/>
			<stop  offset="0.2493" style="stop-color:#326363"/>
			<stop  offset="0.4176" style="stop-color:#2E6060"/>
			<stop  offset="0.8736" style="stop-color:#173F3F"/>
		</linearGradient>
		<rect x="126.476" y="31.407" fill="url(#SVGID_8_)" width="0.399" height="11.093"/>
	</g>
</g>
</svg>
