<?xml version="1.0" encoding="utf-8"?>
<!-- Generator: Adobe Illustrator 15.0.0, SVG Export Plug-In . SVG Version: 6.00 Build 0)  -->
<!DOCTYPE svg PUBLIC "-//W3C//DTD SVG 1.0//EN" "http://www.w3.org/TR/2001/REC-SVG-20010904/DTD/svg10.dtd">
<svg version="1.0" id="_x33_7" xmlns="http://www.w3.org/2000/svg" xmlns:xlink="http://www.w3.org/1999/xlink" x="0px" y="0px"
	 width="123.501px" height="90.691px" viewBox="0 0 123.501 90.691" enable-background="new 0 0 123.501 90.691"
	 xml:space="preserve">
<g>
	<g>
		<g>
			<path fill="#A3A389" stroke="#A3A389" stroke-width="2" d="M48,7.001C48.02,3.844,49.45,1.084,51.751,1l0,0
				c2.301,0.084,3.729,2.844,3.751,6.001l0,0c-0.022,3.153-1.45,5.915-3.751,5.999l0,0C49.45,12.917,48.02,10.155,48,7.001L48,7.001
				z M53.617,10.636c0.533-0.9,0.885-2.197,0.883-3.635l0,0c0.002-1.439-0.35-2.736-0.883-3.636l0,0
				C53.078,2.458,52.4,1.996,51.751,2l0,0c-0.651-0.004-1.329,0.458-1.869,1.366l0,0C49.35,4.265,49,5.562,49,7.001l0,0
				c0,1.438,0.35,2.734,0.882,3.635l0,0c0.54,0.908,1.218,1.37,1.869,1.365l0,0C52.4,12.006,53.078,11.544,53.617,10.636
				L53.617,10.636z"/>
			<polygon fill="#A3A389" stroke="#A3A389" stroke-width="2" points="51.25,14.999 51.25,12.5 52.251,12.5 52.251,14.999 
				51.25,14.999 			"/>
		</g>
		<g>
			<path fill="#1A1A1A" stroke="#1A1A1A" stroke-width="0.5" d="M48,7.001C48.02,3.844,49.45,1.084,51.751,1l0,0
				c2.301,0.084,3.729,2.844,3.751,6.001l0,0c-0.022,3.153-1.45,5.915-3.751,5.999l0,0C49.45,12.917,48.02,10.155,48,7.001L48,7.001
				z M53.617,10.636c0.533-0.9,0.885-2.197,0.883-3.635l0,0c0.002-1.439-0.35-2.736-0.883-3.636l0,0
				C53.078,2.458,52.4,1.996,51.751,2l0,0c-0.651-0.004-1.329,0.458-1.869,1.366l0,0C49.35,4.265,49,5.562,49,7.001l0,0
				c0,1.438,0.35,2.734,0.882,3.635l0,0c0.54,0.908,1.218,1.37,1.869,1.365l0,0C52.4,12.006,53.078,11.544,53.617,10.636
				L53.617,10.636z"/>
			<polygon fill="#1A1A1A" stroke="#1A1A1A" stroke-width="0.5" points="51.25,14.999 51.25,12.5 52.251,12.5 52.251,14.999 
				51.25,14.999 			"/>
		</g>
		<linearGradient id="SVGID_1_" gradientUnits="userSpaceOnUse" x1="6.75" y1="79.1685" x2="6.75" y2="20.1685">
			<stop  offset="0.1648" style="stop-color:#2B2A1D"/>
			<stop  offset="0.5165" style="stop-color:#8C8B6E"/>
			<stop  offset="0.6754" style="stop-color:#BAB6A3"/>
			<stop  offset="0.8462" style="stop-color:#E8E6DF"/>
			<stop  offset="0.9134" style="stop-color:#DAD8CD"/>
			<stop  offset="1" style="stop-color:#CBCAB9"/>
		</linearGradient>
		<path fill="url(#SVGID_1_)" d="M13.5,79.667c0,1.565-1.27,2.835-2.835,2.835h-7.83C1.27,82.501,0,81.232,0,79.667v-64.33
			c0-1.565,1.27-2.835,2.835-2.835h7.83c1.565,0,2.835,1.27,2.835,2.835V79.667z"/>
		<linearGradient id="SVGID_2_" gradientUnits="userSpaceOnUse" x1="55.917" y1="79.1685" x2="55.917" y2="20.1685">
			<stop  offset="0.2912" style="stop-color:#2B2A1D"/>
			<stop  offset="0.6099" style="stop-color:#8C8B6E"/>
			<stop  offset="0.9396" style="stop-color:#B9B8A2"/>
		</linearGradient>
		<rect x="13.5" y="19.835" fill="url(#SVGID_2_)" width="84.834" height="59"/>
		<linearGradient id="SVGID_3_" gradientUnits="userSpaceOnUse" x1="31.333" y1="81.752" x2="80.3331" y2="81.752">
			<stop  offset="0" style="stop-color:#8C8B6E"/>
			<stop  offset="0.0635" style="stop-color:#8F8E72"/>
			<stop  offset="0.1329" style="stop-color:#9A987D"/>
			<stop  offset="0.2048" style="stop-color:#ABA991"/>
			<stop  offset="0.25" style="stop-color:#B9B8A2"/>
			<stop  offset="0.5" style="stop-color:#E8E6DF"/>
			<stop  offset="0.75" style="stop-color:#B9B8A2"/>
			<stop  offset="0.7915" style="stop-color:#A8A68D"/>
			<stop  offset="0.8415" style="stop-color:#98967B"/>
			<stop  offset="0.8924" style="stop-color:#8F8D71"/>
			<stop  offset="0.9451" style="stop-color:#8C8B6E"/>
		</linearGradient>
		<rect x="32.5" y="78.835" fill="url(#SVGID_3_)" width="46.834" height="5.833"/>
		<linearGradient id="SVGID_4_" gradientUnits="userSpaceOnUse" x1="31.333" y1="87.6797" x2="80.333" y2="87.6797">
			<stop  offset="0" style="stop-color:#8C8B6E"/>
			<stop  offset="0.0635" style="stop-color:#8F8E72"/>
			<stop  offset="0.1329" style="stop-color:#9A987D"/>
			<stop  offset="0.2048" style="stop-color:#ABA991"/>
			<stop  offset="0.25" style="stop-color:#B9B8A2"/>
			<stop  offset="0.5" style="stop-color:#E8E6DF"/>
			<stop  offset="0.75" style="stop-color:#B9B8A2"/>
			<stop  offset="0.7915" style="stop-color:#A8A68D"/>
			<stop  offset="0.8415" style="stop-color:#98967B"/>
			<stop  offset="0.8924" style="stop-color:#8F8D71"/>
			<stop  offset="0.9451" style="stop-color:#8C8B6E"/>
		</linearGradient>
		<polygon fill="url(#SVGID_4_)" points="87.501,90.691 24.333,90.691 26.333,84.668 85.501,84.668 		"/>
		<linearGradient id="SVGID_5_" gradientUnits="userSpaceOnUse" x1="101.834" y1="59.7515" x2="101.834" y2="29.7514">
			<stop  offset="0.2033" style="stop-color:#2B2A1D"/>
			<stop  offset="0.6099" style="stop-color:#8C8B6E"/>
			<stop  offset="0.9396" style="stop-color:#B9B8A2"/>
		</linearGradient>
		<rect x="98.334" y="19.835" fill="url(#SVGID_5_)" width="7" height="59"/>
		<linearGradient id="SVGID_6_" gradientUnits="userSpaceOnUse" x1="114.4175" y1="51.0015" x2="114.4175" y2="45.1694">
			<stop  offset="0" style="stop-color:#8C8B6E"/>
			<stop  offset="0.0635" style="stop-color:#8F8E72"/>
			<stop  offset="0.1329" style="stop-color:#9A987D"/>
			<stop  offset="0.2048" style="stop-color:#ABA991"/>
			<stop  offset="0.25" style="stop-color:#B9B8A2"/>
			<stop  offset="0.3132" style="stop-color:#D3D2C4"/>
		</linearGradient>
		<rect x="105.334" y="45.169" fill="url(#SVGID_6_)" width="18.167" height="5.832"/>
		<linearGradient id="SVGID_7_" gradientUnits="userSpaceOnUse" x1="114.4175" y1="56.8335" x2="114.4175" y2="51.0015">
			<stop  offset="0" style="stop-color:#727265"/>
			<stop  offset="0.0155" style="stop-color:#767668"/>
			<stop  offset="0.075" style="stop-color:#81806E"/>
			<stop  offset="0.1424" style="stop-color:#878670"/>
			<stop  offset="0.2185" style="stop-color:#8A8970"/>
			<stop  offset="0.3074" style="stop-color:#8C8A70"/>
			<stop  offset="0.4174" style="stop-color:#8C8B6F"/>
			<stop  offset="0.5717" style="stop-color:#8C8B6F"/>
			<stop  offset="1" style="stop-color:#8C8B6E"/>
		</linearGradient>
		<rect x="105.334" y="51.001" fill="url(#SVGID_7_)" width="18.167" height="5.832"/>
		<linearGradient id="SVGID_8_" gradientUnits="userSpaceOnUse" x1="60.501" y1="14.9995" x2="60.501" y2="22.0407">
			<stop  offset="0" style="stop-color:#E8E6DF"/>
			<stop  offset="0.0807" style="stop-color:#DFDDD3"/>
			<stop  offset="0.3614" style="stop-color:#C3C2AF"/>
			<stop  offset="0.511" style="stop-color:#B9B8A2"/>
			<stop  offset="0.5483" style="stop-color:#B8B6A2"/>
			<stop  offset="0.6106" style="stop-color:#B1B09F"/>
			<stop  offset="0.6903" style="stop-color:#A2A296"/>
			<stop  offset="0.7841" style="stop-color:#85847F"/>
			<stop  offset="0.8886" style="stop-color:#504E4D"/>
			<stop  offset="0.9505" style="stop-color:#000000"/>
		</linearGradient>
		<polygon fill="url(#SVGID_8_)" points="80.001,22.481 41.001,22.481 41.001,15 73.62,15 		"/>
		<linearGradient id="SVGID_9_" gradientUnits="userSpaceOnUse" x1="52.6675" y1="14.9995" x2="52.6675" y2="23.3155">
			<stop  offset="0" style="stop-color:#E8E6DF"/>
			<stop  offset="0.0944" style="stop-color:#D8D6CA"/>
			<stop  offset="0.2551" style="stop-color:#C1C0AD"/>
			<stop  offset="0.3462" style="stop-color:#B9B8A2"/>
			<stop  offset="0.4847" style="stop-color:#B9B8A2"/>
			<stop  offset="0.5671" style="stop-color:#B7B6A2"/>
			<stop  offset="0.6348" style="stop-color:#B4B3A1"/>
			<stop  offset="0.6946" style="stop-color:#AEAD9E"/>
			<stop  offset="0.7491" style="stop-color:#A4A498"/>
			<stop  offset="0.7999" style="stop-color:#96968D"/>
			<stop  offset="0.8477" style="stop-color:#80807B"/>
			<stop  offset="0.8931" style="stop-color:#62615F"/>
			<stop  offset="0.9352" style="stop-color:#312D2C"/>
			<stop  offset="0.9505" style="stop-color:#000000"/>
		</linearGradient>
		<polygon fill="url(#SVGID_9_)" points="74.132,15 64.619,15 40.717,15 31.203,15 24.667,23.835 40.717,23.835 64.619,23.835 
			80.668,23.835 		"/>
		<linearGradient id="SVGID_10_" gradientUnits="userSpaceOnUse" x1="52.6675" y1="20.3325" x2="52.6675" y2="28.6485">
			<stop  offset="0" style="stop-color:#E8E6DF"/>
			<stop  offset="0.0944" style="stop-color:#D8D6CA"/>
			<stop  offset="0.2551" style="stop-color:#C1C0AD"/>
			<stop  offset="0.3462" style="stop-color:#B9B8A2"/>
			<stop  offset="0.4847" style="stop-color:#B9B8A2"/>
			<stop  offset="0.5671" style="stop-color:#B7B6A2"/>
			<stop  offset="0.6348" style="stop-color:#B4B3A1"/>
			<stop  offset="0.6946" style="stop-color:#AEAD9E"/>
			<stop  offset="0.7491" style="stop-color:#A4A498"/>
			<stop  offset="0.7999" style="stop-color:#96968D"/>
			<stop  offset="0.8477" style="stop-color:#80807B"/>
			<stop  offset="0.8931" style="stop-color:#62615F"/>
			<stop  offset="0.9352" style="stop-color:#312D2C"/>
			<stop  offset="0.9505" style="stop-color:#000000"/>
		</linearGradient>
		<polygon fill="url(#SVGID_10_)" points="74.132,20.333 64.619,20.333 40.717,20.333 31.203,20.333 24.667,29.168 40.717,29.168 
			64.619,29.168 80.668,29.168 		"/>
		<linearGradient id="SVGID_11_" gradientUnits="userSpaceOnUse" x1="52.6675" y1="26.4995" x2="52.6675" y2="34.8155">
			<stop  offset="0" style="stop-color:#E8E6DF"/>
			<stop  offset="0.0944" style="stop-color:#D8D6CA"/>
			<stop  offset="0.2551" style="stop-color:#C1C0AD"/>
			<stop  offset="0.3462" style="stop-color:#B9B8A2"/>
			<stop  offset="0.4847" style="stop-color:#B9B8A2"/>
			<stop  offset="0.5671" style="stop-color:#B7B6A2"/>
			<stop  offset="0.6348" style="stop-color:#B4B3A1"/>
			<stop  offset="0.6946" style="stop-color:#AEAD9E"/>
			<stop  offset="0.7491" style="stop-color:#A4A498"/>
			<stop  offset="0.7999" style="stop-color:#96968D"/>
			<stop  offset="0.8477" style="stop-color:#80807B"/>
			<stop  offset="0.8931" style="stop-color:#62615F"/>
			<stop  offset="0.9352" style="stop-color:#312D2C"/>
			<stop  offset="0.9505" style="stop-color:#000000"/>
		</linearGradient>
		<polygon fill="url(#SVGID_11_)" points="74.132,26.5 64.619,26.5 40.717,26.5 31.203,26.5 24.667,35.335 40.717,35.335 
			64.619,35.335 80.668,35.335 		"/>
		<linearGradient id="SVGID_12_" gradientUnits="userSpaceOnUse" x1="52.6675" y1="30.1655" x2="52.6675" y2="38.4815">
			<stop  offset="0" style="stop-color:#E8E6DF"/>
			<stop  offset="0.0944" style="stop-color:#D8D6CA"/>
			<stop  offset="0.2551" style="stop-color:#C1C0AD"/>
			<stop  offset="0.3462" style="stop-color:#B9B8A2"/>
			<stop  offset="0.4847" style="stop-color:#B9B8A2"/>
			<stop  offset="0.5671" style="stop-color:#B7B6A2"/>
			<stop  offset="0.6348" style="stop-color:#B4B3A1"/>
			<stop  offset="0.6946" style="stop-color:#AEAD9E"/>
			<stop  offset="0.7491" style="stop-color:#A4A498"/>
			<stop  offset="0.7999" style="stop-color:#96968D"/>
			<stop  offset="0.8477" style="stop-color:#80807B"/>
			<stop  offset="0.8931" style="stop-color:#62615F"/>
			<stop  offset="0.9352" style="stop-color:#312D2C"/>
			<stop  offset="0.9505" style="stop-color:#000000"/>
		</linearGradient>
		<polygon fill="url(#SVGID_12_)" points="74.132,30.166 64.619,30.166 40.717,30.166 31.203,30.166 24.667,39.001 40.717,39.001 
			64.619,39.001 80.668,39.001 		"/>
		<linearGradient id="SVGID_13_" gradientUnits="userSpaceOnUse" x1="66.0361" y1="87.0039" x2="28.3692" y2="66.6709">
			<stop  offset="0" style="stop-color:#8C8B6E"/>
			<stop  offset="0.5659" style="stop-color:#B9B8A2"/>
			<stop  offset="1" style="stop-color:#E8E6DF"/>
		</linearGradient>
		<rect x="46" y="77.334" fill="url(#SVGID_13_)" width="17.834" height="7.334"/>
		<g>
			<linearGradient id="SVGID_14_" gradientUnits="userSpaceOnUse" x1="71.9985" y1="77.958" x2="41.0117" y2="46.9712">
				<stop  offset="0" style="stop-color:#8C8B6E"/>
				<stop  offset="0.5659" style="stop-color:#B9B8A2"/>
				<stop  offset="1" style="stop-color:#E8E6DF"/>
			</linearGradient>
			<rect x="46.453" y="45.127" fill="url(#SVGID_14_)" stroke="#8C8B6E" stroke-width="0.5" width="16.802" height="31.372"/>
			<linearGradient id="SVGID_15_" gradientUnits="userSpaceOnUse" x1="90.001" y1="60.875" x2="63.0625" y2="60.875">
				<stop  offset="0.75" style="stop-color:#B9B8A2"/>
				<stop  offset="0.9451" style="stop-color:#8C8B6E"/>
			</linearGradient>
			<path fill="url(#SVGID_15_)" d="M68.095,59.825v2.101c0,7.852-3.403,12.994-4.84,14.621V45.204
				C64.691,46.83,68.095,51.974,68.095,59.825z"/>
			
				<linearGradient id="SVGID_16_" gradientUnits="userSpaceOnUse" x1="1918.4248" y1="60.876" x2="1891.4863" y2="60.876" gradientTransform="matrix(-1 0 0 1 1938.1328 0)">
				<stop  offset="0.75" style="stop-color:#B9B8A2"/>
				<stop  offset="0.9451" style="stop-color:#8C8B6E"/>
			</linearGradient>
			<path fill="url(#SVGID_16_)" d="M41.613,59.825v2.101c0,7.852,3.403,12.994,4.84,14.621V45.204
				C45.017,46.83,41.613,51.974,41.613,59.825z"/>
			<g>
				<line fill="none" stroke="#1A1A1A" x1="63.063" y1="61.925" x2="69.729" y2="61.925"/>
				<line fill="none" stroke="#1A1A1A" x1="69.583" y1="57.28" x2="69.583" y2="66.573"/>
				<line fill="none" stroke="#1A1A1A" x1="65.375" y1="57.814" x2="65.375" y2="66.039"/>
			</g>
			<g>
				<line fill="none" stroke="#1A1A1A" x1="46.453" y1="61.925" x2="39.787" y2="61.925"/>
				<line fill="none" stroke="#1A1A1A" x1="39.933" y1="57.28" x2="39.933" y2="66.573"/>
				<line fill="none" stroke="#1A1A1A" x1="44.141" y1="57.814" x2="44.141" y2="66.039"/>
			</g>
		</g>
		<ellipse fill="#E6E6E6" cx="91.563" cy="40.939" rx="5.813" ry="8.188"/>
		<rect x="85.984" y="38.647" fill="#090304" width="10.391" height="4.979"/>
		<line fill="none" stroke="#1A1A1A" x1="89.25" y1="37.376" x2="92.625" y2="37.376"/>
		<line fill="none" stroke="#FFFFFF" x1="86.667" y1="40.835" x2="92.625" y2="40.835"/>
		<ellipse fill="#E6E6E6" cx="6.75" cy="34.251" rx="6.75" ry="9.417"/>
		<g>
			<path fill="#D8211D" d="M2.333,33.847v0.815c0,3.051,2.311,5.049,3.286,5.681V28.167C4.644,28.798,2.333,30.796,2.333,33.847z"/>
			<path fill="#D8211D" d="M12.369,33.847v0.815c0,3.051-2.311,5.049-3.286,5.681V28.167C10.059,28.798,12.369,30.796,12.369,33.847
				z"/>
			<rect x="11.25" y="30.854" fill="#D8211D" width="2.25" height="6.803"/>
		</g>
	</g>
</g>
</svg>
