<?xml version="1.0" encoding="UTF-8"?>
<svg width="213px" height="213px" viewBox="0 0 213 213" version="1.1" xmlns="http://www.w3.org/2000/svg" xmlns:xlink="http://www.w3.org/1999/xlink">
    <!-- Generator: Sketch 61 (89581) - https://sketch.com -->
    <title>编组 11</title>
    <desc>Created with Sketch.</desc>
    <defs>
        <rect id="path-1" x="0" y="0" width="213" height="213"></rect>
        <rect id="path-3" x="0" y="0" width="210" height="120"></rect>
        <linearGradient x1="50%" y1="0%" x2="50%" y2="99.2266681%" id="linearGradient-5">
            <stop stop-color="#A0A2FF" offset="0%"></stop>
            <stop stop-color="#0080FF" offset="100%"></stop>
        </linearGradient>
        <linearGradient x1="50%" y1="0%" x2="50%" y2="99.2266681%" id="linearGradient-6">
            <stop stop-color="#686CF4" offset="0.469805743%"></stop>
            <stop stop-color="#044CF1" offset="100%"></stop>
        </linearGradient>
        <linearGradient x1="97.2188291%" y1="59.5480386%" x2="13.8656416%" y2="40.5002778%" id="linearGradient-7">
            <stop stop-color="#0408CF" offset="0%"></stop>
            <stop stop-color="#4B00FF" offset="100%"></stop>
        </linearGradient>
        <linearGradient x1="100%" y1="40.0216527%" x2="0%" y2="59.6559553%" id="linearGradient-8">
            <stop stop-color="#122AF8" offset="0%"></stop>
            <stop stop-color="#0073FF" offset="100%"></stop>
        </linearGradient>
        <polygon id="path-9" points="0.515865574 44.8945643 0.515865574 67.1657311 90.6870311 16.8367869 81.7468725 0"></polygon>
        <filter x="-135.8%" y="-135.8%" width="371.6%" height="371.6%" filterUnits="objectBoundingBox" id="filter-11">
            <feGaussianBlur stdDeviation="38.912" in="SourceGraphic"></feGaussianBlur>
        </filter>
        <linearGradient x1="97.2188291%" y1="52.7452784%" x2="13.8656416%" y2="47.2686136%" id="linearGradient-12">
            <stop stop-color="#0408CF" offset="0%"></stop>
            <stop stop-color="#4B00FF" offset="100%"></stop>
        </linearGradient>
        <filter x="-40.9%" y="-103.8%" width="181.8%" height="307.7%" filterUnits="objectBoundingBox" id="filter-13">
            <feGaussianBlur stdDeviation="9" in="SourceGraphic"></feGaussianBlur>
        </filter>
        <linearGradient x1="93.3790496%" y1="49.3053886%" x2="50%" y2="56.354495%" id="linearGradient-14">
            <stop stop-color="#186DF6" offset="0%"></stop>
            <stop stop-color="#5D86EA" offset="100%"></stop>
        </linearGradient>
        <linearGradient x1="50%" y1="11.5529962%" x2="52.5852071%" y2="93.5216599%" id="linearGradient-15">
            <stop stop-color="#9168FF" offset="0%"></stop>
            <stop stop-color="#1315D8" offset="100%"></stop>
        </linearGradient>
        <linearGradient x1="50%" y1="0%" x2="50%" y2="100%" id="linearGradient-16">
            <stop stop-color="#1116D7" offset="0%"></stop>
            <stop stop-color="#4E83EA" offset="100%"></stop>
        </linearGradient>
        <linearGradient x1="10.6064957%" y1="10.6316966%" x2="93.3790496%" y2="78.9352598%" id="linearGradient-17">
            <stop stop-color="#1A8EF7" offset="0%"></stop>
            <stop stop-color="#B6C8FF" offset="100%"></stop>
        </linearGradient>
        <linearGradient x1="35.6558509%" y1="0%" x2="35.6558509%" y2="100%" id="linearGradient-18">
            <stop stop-color="#2940DE" offset="0%"></stop>
            <stop stop-color="#188BF6" offset="100%"></stop>
        </linearGradient>
        <linearGradient x1="50.7380979%" y1="44.5344875%" x2="50%" y2="100%" id="linearGradient-19">
            <stop stop-color="#1848F2" offset="0%"></stop>
            <stop stop-color="#5D86EA" offset="100%"></stop>
        </linearGradient>
    </defs>
    <g id="页面-1" stroke="none" stroke-width="1" fill="none" fill-rule="evenodd">
        <g id="0403科技感机械边框立体3d后台数据可视化首页" transform="translate(-1016.000000, -400.000000)">
            <g id="编组-14" transform="translate(369.000000, 400.000000)">
                <g id="编组-11" transform="translate(647.000000, 0.000000)">
                    <mask id="mask-2" fill="white">
                        <use xlink:href="#path-1"></use>
                    </mask>
                    <use id="蒙版" fill-opacity="0.01" fill="#020D48" xlink:href="#path-1"></use>
                    <g mask="url(#mask-2)">
                        <g transform="translate(2.000000, 3.000000)">
                            <g id="编组-10备份-5" transform="translate(0.000000, 87.000000)">
                                <mask id="mask-4" fill="white">
                                    <use xlink:href="#path-3"></use>
                                </mask>
                                <use id="蒙版" fill-opacity="0.01" fill="#020D48" xlink:href="#path-3"></use>
                                <g id="编组-10备份-3" mask="url(#mask-4)">
                                    <g transform="translate(0.000000, 1.000000)">
                                        <polygon id="路径-4" stroke="#475EFF" stroke-width="3.648" fill="none" stroke-linejoin="round" points="102.101702 5.51311653 -1.27897692e-13 59.1600837 102.101702 118.219061 209.076654 59.1600837"></polygon>
                                        <polygon id="路径-5" stroke="none" fill="#2C34E8" fill-rule="evenodd" points="102.101702 5.51311653 13.6154934 51.7395559 102.101702 102.0685 192.272867 51.7395559"></polygon>
                                        <polygon id="路径-6" stroke="none" fill="url(#linearGradient-5)" fill-rule="evenodd" opacity="0.885602679" points="99.6322623 4.55888444e-14 22.6631567 37.3282717 101.585836 80.440174 183.332709 34.902769"></polygon>
                                        <polygon id="路径-6" stroke="none" fill="url(#linearGradient-6)" fill-rule="evenodd" points="99.6322623 5.51311653 34.2088061 37.0601894 101.585836 73.106769 169.894568 34.902769"></polygon>
                                        <polygon id="路径-7" stroke="none" fill="url(#linearGradient-7)" fill-rule="evenodd" opacity="0.697567894" points="22.0809627 37.0601894 13.6154934 51.7395559 102.101702 102.0685 102.101702 80.3545787"></polygon>
                                        <g id="椭圆形" stroke="none" stroke-width="1" fill="none" fill-rule="evenodd" transform="translate(101.585836, 34.902769)">
                                            <mask id="mask-10" fill="white">
                                                <use xlink:href="#path-9"></use>
                                            </mask>
                                            <use id="蒙版" fill="url(#linearGradient-8)" opacity="0.697567894" xlink:href="#path-9"></use>
                                            <circle fill="#2ACFF6" filter="url(#filter-11)" mask="url(#mask-10)" cx="-1.95357377" cy="38.204" r="42.978623"></circle>
                                        </g>
                                        <ellipse id="椭圆形" stroke="none" fill="url(#linearGradient-12)" fill-rule="evenodd" filter="url(#filter-13)" cx="105" cy="37" rx="33" ry="13"></ellipse>
                                    </g>
                                </g>
                            </g>
                            <g id="编组-8" transform="translate(23.000000, 0.000000)">
                                <g id="编组" transform="translate(33.627119, 3.152542)" fill-rule="nonzero">
                                    <g>
                                        <g id="XMLID_1_-link" fill="url(#linearGradient-14)">
                                            <path d="M32.9236983,17.9808137 C33.5650691,17.6578051 34.0995447,17.442466 34.7409155,17.1194574 C34.7409155,17.1194574 34.7409155,17.1194574 34.7409155,17.1194574 L57.9371575,3.55309493 C57.4026818,3.87610356 56.7613111,4.19911219 56.1199403,4.52212082 C55.9061501,4.62979036 55.6923598,4.7374599 55.4785696,4.7374599 C55.0509891,4.95279899 54.6234086,5.06046853 54.1958281,5.27580762 C53.6613525,5.4911467 53.1268769,5.59881625 52.6992964,5.81415533 C52.5924012,5.81415533 52.5924012,5.81415533 52.4855061,5.92182488 C51.9510305,6.02949442 51.3096597,6.24483351 50.668289,6.35250305 C49.9200231,6.46017259 49.0648621,6.56784214 48.2097011,6.67551168 C47.9959109,6.67551168 47.6752255,6.67551168 47.4614353,6.78318122 C46.9269596,6.78318122 46.4993791,6.89085077 45.9649035,6.89085077 C45.6442181,6.89085077 45.3235328,6.89085077 45.0028474,6.89085077 C44.5752669,6.89085077 44.2545815,6.89085077 43.827001,6.89085077 C43.5063157,6.89085077 43.1856303,6.89085077 42.7580498,6.78318122 C42.4373644,6.78318122 42.0097839,6.67551168 41.6890985,6.67551168 C41.3684132,6.67551168 40.9408327,6.56784214 40.5132522,6.56784214 C40.1925668,6.56784214 39.8718814,6.46017259 39.5511961,6.35250305 C39.1236156,6.24483351 38.6960351,6.24483351 38.3753497,6.13716396 C38.0546643,6.02949442 37.7339789,6.02949442 37.5201887,5.92182488 C37.0926082,5.81415533 36.6650277,5.70648579 36.2374472,5.59881625 C36.0236569,5.4911467 35.7029716,5.4911467 35.4891813,5.38347716 C34.9547057,5.27580762 34.4202301,5.06046853 33.8857545,4.84512945 C33.6719642,4.7374599 33.5650691,4.7374599 33.3512788,4.62979036 C32.603013,4.41445127 31.9616422,4.09144264 31.2133763,3.76843401 C30.9995861,3.66076447 30.892691,3.66076447 30.6789007,3.55309493 C30.1444251,3.33775584 29.6099495,3.12241675 29.0754739,2.79940812 C28.8616836,2.69173858 28.5409982,2.58406904 28.327208,2.47639949 C27.8996275,2.26106041 27.3651519,2.04572132 26.8306762,1.72271269 C26.616886,1.61504315 26.2962006,1.39970406 26.0824104,1.29203452 C25.4410396,0.969025889 24.6927738,0.538347716 24.051403,0.215339086 L0.855160996,13.7817015 C1.38963662,14.1047102 1.81721712,14.3200492 2.35169274,14.6430579 C2.56548299,14.7507274 2.67237811,14.858397 2.88616836,14.858397 C3.09995861,14.9660665 3.42064398,15.1814056 3.63443423,15.2890751 C3.84822448,15.3967447 4.06201473,15.5044142 4.27580498,15.6120838 C4.59649035,15.7197533 4.8102806,15.8274229 5.02407085,16.0427619 C5.2378611,16.1504315 5.55854647,16.258101 5.77233672,16.3657706 C5.87923185,16.4734401 5.98612697,16.4734401 6.09302209,16.5811097 C6.52060259,16.7964487 6.94818309,16.9041183 7.37576359,17.1194574 C7.58955384,17.2271269 7.69644896,17.2271269 7.91023921,17.3347965 C7.91023921,17.3347965 8.01713434,17.3347965 8.01713434,17.442466 C8.65850508,17.6578051 9.29987583,17.9808137 9.94124658,18.1961528 C9.94124658,18.1961528 10.0481417,18.1961528 10.0481417,18.1961528 C10.2619319,18.3038223 10.3688271,18.3038223 10.5826173,18.4114919 C11.0101978,18.5191614 11.4377783,18.7345005 11.9722539,18.8421701 C12.0791491,18.8421701 12.1860442,18.8421701 12.2929393,18.9498396 C12.5067296,19.0575092 12.8274149,19.0575092 13.0412052,19.1651787 C13.3618906,19.2728482 13.6825759,19.3805178 13.8963662,19.3805178 C14.0032613,19.3805178 14.2170516,19.4881873 14.3239467,19.4881873 C14.6446321,19.5958569 14.9653174,19.5958569 15.1791077,19.7035264 C15.3928979,19.7035264 15.6066882,19.811196 15.8204784,19.811196 C16.0342687,19.811196 16.1411638,19.9188655 16.354954,19.9188655 C16.6756394,20.026535 16.9963248,20.026535 17.3170102,20.1342046 C17.5308004,20.1342046 17.7445907,20.2418741 17.8514858,20.2418741 C18.065276,20.2418741 18.1721712,20.2418741 18.3859614,20.3495437 C18.7066468,20.3495437 19.1342273,20.4572132 19.4549127,20.4572132 C19.6687029,20.4572132 19.775598,20.4572132 19.9893883,20.5648828 C20.2031785,20.5648828 20.3100736,20.5648828 20.5238639,20.5648828 C20.9514444,20.5648828 21.3790249,20.5648828 21.6997103,20.5648828 C21.9135005,20.5648828 22.0203956,20.5648828 22.2341859,20.5648828 C22.341081,20.5648828 22.4479761,20.5648828 22.6617664,20.5648828 C23.196242,20.5648828 23.6238225,20.5648828 24.1582981,20.4572132 C24.3720884,20.4572132 24.4789835,20.4572132 24.6927738,20.4572132 C24.7996689,20.4572132 24.7996689,20.4572132 24.906564,20.4572132 C25.761725,20.3495437 26.5099909,20.2418741 27.3651519,20.1342046 C27.3651519,20.1342046 27.472047,20.1342046 27.472047,20.1342046 C28.0065226,20.026535 28.6478934,19.9188655 29.182369,19.7035264 C29.2892641,19.7035264 29.2892641,19.7035264 29.3961592,19.5958569 C29.8237397,19.4881873 30.3582153,19.2728482 30.7857958,19.1651787 C30.7857958,19.1651787 30.892691,19.1651787 30.892691,19.1651787 C31.3202715,19.0575092 31.747852,18.8421701 32.1754325,18.626831 C32.4961178,18.1961528 32.7099081,18.0884833 32.9236983,17.9808137 Z" id="XMLID_1_"></path>
                                        </g>
                                        <path d="M42.0097839,13.0280147 C42.0097839,13.0280147 18.0133009,20.3545289 7.9651592,9.80291363 L16.8723487,4.37670993 L18.7066468,5.4911467 C30.4651105,9.79792843 34.4202301,9.36725026 44.2545815,9.04424163 L50.8820792,7.75220711 L42.0097839,13.0280147 L50.9889744,7.75220711 L42.0097839,13.0280147 L50.9889744,7.75220711" id="路径" fill="#8EADFF"></path>
                                    </g>
                                    <path d="M34.7409155,17.1194574 C43.6132108,32.7315411 55.799255,45.5442168 68.4128797,52.9734153 L68.3059845,97.3332671 C68.3059845,107.992552 62.5336478,114.237385 53.8751427,113.05302 L34.313335,110.253612 L14.9653174,90.3347468 C6.30681234,81.5058442 0.641370747,68.6931686 0.748265871,58.0338838 L0.855160996,13.674032 C13.5756808,20.9955609 25.761725,22.2875954 34.7409155,17.1194574 Z" id="路径" fill="url(#linearGradient-15)"></path>
                                    <g transform="translate(34.206440, 3.230086)" id="路径">
                                        <path d="M56.9751013,35.8539579 C56.3337306,35.4232797 55.6923598,35.1002711 54.944094,34.6695929 C54.3027232,34.2389147 53.5544574,33.8082366 52.9130866,33.3775584 C52.2717159,32.9468802 51.52345,32.4085325 50.8820792,31.8701848 C50.1338134,31.3318371 49.4924426,30.7934894 48.7441768,30.2551416 C47.9959109,29.7167939 47.3545401,29.0707767 46.6062743,28.532429 C45.8580084,27.8864117 45.2166377,27.2403944 44.4683718,26.5943772 C43.7201059,25.9483599 43.0787352,25.3023427 42.3304693,24.6563254 C41.6890985,24.0103081 40.9408327,23.3642909 40.2994619,22.6106041 C39.6580912,21.9645868 39.0167204,21.2109 38.3753497,20.5648828 C37.7339789,19.9188655 37.0926082,19.1651787 36.5581326,18.5191614 C35.9167618,17.7654746 35.3822862,17.1194574 34.7409155,16.3657706 C34.0995447,15.6120838 33.458174,14.858397 32.9236983,14.1047102 C32.2823276,13.2433538 31.5340617,12.3819975 30.892691,11.5206411 C29.9306349,10.2286066 29.0754739,8.93657209 28.1134177,7.64453757 C26.7237811,5.4911467 25.3341445,3.33775584 23.9445079,1.07669543 C23.8376128,0.861356346 23.7307176,0.753686803 23.6238225,0.538347716 L0.427580498,14.1047102 C0.534475622,14.3200492 0.641370747,14.4277188 0.748265871,14.6430579 C2.03100736,16.9041183 3.42064398,19.1651787 4.91717573,21.2109 C5.77233672,22.5029345 6.73439284,23.7949691 7.69644896,25.0870036 C8.33781971,25.9483599 8.97919046,26.8097163 9.72745633,27.6710726 C10.3688271,28.4247594 10.9033027,29.1784462 11.5446734,29.932133 C12.1860442,30.6858198 12.7205198,31.3318371 13.3618906,32.0855239 C14.0032613,32.8392107 14.6446321,33.4852279 15.1791077,34.1312452 C15.8204784,34.884932 16.4618492,35.5309493 17.1032199,36.1769665 C17.7445907,36.8229838 18.4928565,37.5766706 19.1342273,38.2226878 C19.8824932,38.8687051 20.5238639,39.5147224 21.2721298,40.1607396 C22.0203956,40.8067569 22.6617664,41.4527741 23.4100323,42.0987914 C24.1582981,42.7448087 24.7996689,43.2831564 25.5479347,43.8215041 C26.2962006,44.3598518 26.9375714,44.8981995 27.6858372,45.4365472 C28.327208,45.974895 29.0754739,46.4055731 29.7168446,46.9439208 C30.3582153,47.374599 31.1064812,47.8052772 31.747852,48.2359554 C32.3892227,48.6666335 33.0305935,49.0973117 33.7788593,49.4203203 C33.8857545,49.5279899 34.0995447,49.6356594 34.2064398,49.6356594 L57.4026818,36.069297 C57.1888916,36.069297 57.0819965,35.9616274 56.9751013,35.8539579 Z" fill="url(#linearGradient-16)"></path>
                                        <path d="M41.4753083,45.5442168 C40.8339375,45.1135386 33.2443837,39.1917137 32.603013,38.7610356 C31.9616422,38.3303574 31.3202715,37.7920097 30.6789007,37.3613315 C30.03753,36.8229838 29.3961592,36.2846361 28.7547885,35.7462884 C28.1134177,35.2079406 27.472047,34.6695929 26.8306762,34.0235757 C26.1893055,33.4852279 25.5479347,32.8392107 24.906564,32.1931934 C24.2651933,31.5471762 23.6238225,31.0088284 23.0893469,30.3628112 C22.4479761,29.7167939 21.9135005,29.0707767 21.2721298,28.4247594 C20.7376541,27.7787422 20.0962834,27.1327249 19.5618078,26.4867076 C19.0273322,25.8406904 18.3859614,25.1946731 17.8514858,24.5486559 C17.3170102,23.7949691 16.6756394,23.1489518 16.1411638,22.395265 C15.499793,21.6415782 14.8584223,20.7802218 14.3239467,19.9188655 C13.5756808,18.8421701 12.7205198,17.7654746 7.91023921,9.69025889 L16.8894297,4.41445127 C21.1652346,11.5206411 21.2721298,11.7359802 21.3790249,11.9513193 C22.341081,13.3510234 23.3031371,14.7507274 24.2651933,16.1504315 C25.0134591,17.1194574 25.6548299,18.0884833 26.4030957,18.9498396 C27.0444665,19.811196 27.6858372,20.5648828 28.4341031,21.4262391 C29.0754739,22.1799259 29.7168446,22.9336127 30.3582153,23.6872995 C30.9995861,24.4409863 31.747852,25.1946731 32.3892227,25.9483599 C33.1374886,26.7020467 33.7788593,27.4557335 34.5271252,28.2094203 C35.2753911,28.9631071 36.0236569,29.7167939 36.7719228,30.4704807 C37.5201887,31.2241675 38.2684546,31.9778543 39.1236156,32.6238716 C39.8718814,33.3775584 40.7270424,34.0235757 41.4753083,34.6695929 C41.7959937,34.884932 49.0648621,40.5914178 49.3855475,40.9144264 C49.2786524,40.9144264 41.4753083,45.5442168 41.4753083,45.5442168 Z" fill="url(#linearGradient-17)" style="mix-blend-mode: hard-light;"></path>
                                    </g>
                                    <path d="M68.4128797,52.8657457 L68.3059845,97.2255975 C68.3059845,98.0869539 68.3059845,98.8406407 68.1990894,99.5943275 C68.1990894,99.701997 68.1990894,99.701997 68.1990894,99.8096666 C68.0921943,100.563353 67.9852992,101.209371 67.878404,101.855388 C67.878404,101.963057 67.878404,102.070727 67.7715089,102.178397 C67.6646138,102.824414 67.4508235,103.470431 67.3439284,104.008779 C67.3439284,104.116448 67.2370333,104.224118 67.2370333,104.331787 C67.023243,104.870135 66.9163479,105.408483 66.7025577,105.839161 C66.7025577,105.946831 66.5956625,106.0545 66.5956625,106.16217 C66.3818723,106.700517 66.0611869,107.238865 65.7405015,107.777213 C65.7405015,107.777213 65.6336064,107.884882 65.6336064,107.884882 C65.3129211,108.31556 65.0991308,108.746239 64.7784454,109.069247 C64.6715503,109.176917 64.5646552,109.284586 64.4577601,109.392256 C64.1370747,109.715265 63.9232844,109.930604 63.6025991,110.253612 C63.4957039,110.361282 63.3888088,110.468951 63.2819137,110.576621 C62.8543332,110.89963 62.4267527,111.222638 61.9991722,111.437977 L85.1954142,97.8716148 C85.6229947,97.6562757 86.0505752,97.3332671 86.4781557,97.0102584 C86.5850508,96.9025889 86.6919459,96.7949194 86.7988411,96.6872498 C87.1195264,96.4719107 87.3333167,96.1489021 87.6540021,95.8258935 C87.7608972,95.7182239 87.8677923,95.6105544 87.9746874,95.5028848 C88.2953728,95.0722067 88.6160582,94.749198 88.8298484,94.3185199 C88.8298484,94.3185199 88.9367436,94.2108503 88.9367436,94.2108503 C88.9367436,94.2108503 88.9367436,94.2108503 88.9367436,94.2108503 C89.2574289,93.7801721 89.4712192,93.2418244 89.7919046,92.7034767 C89.7919046,92.7034767 89.7919046,92.5958072 89.7919046,92.5958072 C89.7919046,92.4881376 89.8987997,92.3804681 89.8987997,92.2727985 C90.0056948,91.9497899 90.1125899,91.6267813 90.3263802,91.4114422 C90.4332753,91.1961031 90.4332753,90.980764 90.5401704,90.7654249 C90.5401704,90.6577554 90.6470656,90.5500859 90.6470656,90.4424163 C90.6470656,90.3347468 90.7539607,90.2270772 90.7539607,90.2270772 C90.8608558,89.9040686 90.9677509,89.4733904 91.074646,89.0427122 C91.074646,88.9350427 91.1815412,88.7197036 91.1815412,88.6120341 C91.1815412,88.5043645 91.1815412,88.396695 91.2884363,88.2890254 C91.2884363,88.1813559 91.2884363,88.0736864 91.3953314,87.8583473 C91.5022265,87.5353386 91.5022265,87.1046605 91.5022265,86.7816518 C91.5022265,86.5663128 91.5022265,86.3509737 91.6091217,86.1356346 C91.6091217,86.027965 91.6091217,86.027965 91.6091217,85.9202955 C91.6091217,85.812626 91.6091217,85.812626 91.6091217,85.7049564 C91.6091217,85.3819478 91.6091217,85.0589391 91.7160168,84.628261 C91.7160168,84.3052523 91.7160168,83.8745742 91.7160168,83.5515655 C91.7160168,83.5515655 91.7160168,83.5515655 91.7160168,83.443896 L91.8229119,39.0840442 L68.4128797,52.8657457 Z" id="路径" fill="url(#linearGradient-18)"></path>
                                    <path d="M75.6817481,48.7743031 L83.3781971,44.0368432 L83.271302,91.4114422 C83.271302,91.7344508 83.271302,92.0574595 83.271302,92.3804681 C83.271302,92.7034767 83.271302,92.9188158 83.271302,93.2418244 L83.1644068,94.1031808 C83.1644068,94.3185199 83.0575117,94.6415285 83.0575117,94.8568676 L82.9506166,95.7182239 C82.9506166,95.933563 82.8437215,96.1489021 82.8437215,96.3642412 L82.6299312,97.2255975 C82.6299312,97.4409366 82.5230361,97.5486062 82.5230361,97.6562757 L82.3092458,98.1946234 C82.2023507,98.302293 82.2023507,98.4099625 82.0954556,98.6253016 C82.0954556,98.7329711 81.9885605,98.7329711 81.9885605,98.8406407 C81.8816653,99.0559798 81.7747702,99.2713189 81.6678751,99.3789884 L81.56098,99.4866579 C81.4540848,99.5943275 81.4540848,99.701997 81.3471897,99.701997 L81.2402946,99.8096666 C81.1333995,99.9173361 81.0265043,100.025006 81.0265043,100.025006 L75.6817481,103.039753 L75.6817481,48.7743031 Z" id="路径" fill="url(#linearGradient-19)" style="mix-blend-mode: hard-light;"></path>
                                </g>
                                <path d="M41.4120428,31.4866346 C25.8846673,34.8434267 14.8829129,42.1027512 8.40677966,53.264608 C8.40677966,77.0364414 41.3404099,96.3073199 81.9661017,96.3073199 C122.591793,96.3073199 155.525424,77.0364414 155.525424,53.264608 C155.525424,53.264608 150.748241,31.5139957 110.68845,27.4878854" id="路径" stroke="#8F6BFF" stroke-width="4.5056" stroke-linecap="round" stroke-linejoin="round" stroke-dasharray="2,8" transform="translate(81.966102, 61.897603) rotate(-24.000000) translate(-81.966102, -61.897603) "></path>
                            </g>
                        </g>
                    </g>
                </g>
            </g>
        </g>
    </g>
</svg>