<?xml version="1.0" encoding="UTF-8"?>
<svg width="64px" height="49px" viewBox="0 0 64 49" version="1.1" xmlns="http://www.w3.org/2000/svg" xmlns:xlink="http://www.w3.org/1999/xlink">
    <!-- Generator: Sketch 61 (89581) - https://sketch.com -->
    <title>web/icon-餐饮</title>
    <desc>Created with Sketch.</desc>
    <defs>
        <rect id="path-1" x="0" y="0" width="62.4" height="62.4"></rect>
        <filter x="-19.8%" y="-53.6%" width="139.5%" height="207.1%" filterUnits="objectBoundingBox" id="filter-3">
            <feGaussianBlur stdDeviation="3.46666667" in="SourceGraphic"></feGaussianBlur>
        </filter>
        <linearGradient x1="38.0819075%" y1="38.8136966%" x2="0%" y2="74.9526277%" id="linearGradient-4">
            <stop stop-color="#12FEE0" offset="0%"></stop>
            <stop stop-color="#026DB2" offset="100%"></stop>
        </linearGradient>
        <linearGradient x1="82.7764549%" y1="17.9613117%" x2="0%" y2="177.920632%" id="linearGradient-5">
            <stop stop-color="#12FEE0" offset="0%"></stop>
            <stop stop-color="#026DB2" offset="100%"></stop>
        </linearGradient>
        <linearGradient x1="61.1580882%" y1="124.853516%" x2="61.1580882%" y2="-19.21875%" id="linearGradient-6">
            <stop stop-color="#12FEE0" offset="0%"></stop>
            <stop stop-color="#026DB2" offset="100%"></stop>
        </linearGradient>
        <linearGradient x1="68%" y1="50%" x2="32%" y2="141.733605%" id="linearGradient-7">
            <stop stop-color="#12FEE0" offset="0%"></stop>
            <stop stop-color="#026DB2" offset="100%"></stop>
        </linearGradient>
        <linearGradient x1="61.1580882%" y1="124.853516%" x2="61.1580882%" y2="-19.21875%" id="linearGradient-8">
            <stop stop-color="#12FEE0" offset="0%"></stop>
            <stop stop-color="#026DB2" offset="100%"></stop>
        </linearGradient>
    </defs>
    <g id="页面-1" stroke="none" stroke-width="1" fill="none" fill-rule="evenodd">
        <g id="大数据可视化科技智慧智能统计后台监管中心" transform="translate(-403.000000, -209.000000)">
            <g id="原创-center" transform="translate(375.000000, 122.000000)">
                <g id="编组-52">
                    <g id="web/icon-车辆" transform="translate(29.000000, 76.000000)">
                        <g id="编组-17" transform="translate(-0.201923, -0.201923)">
                            <mask id="mask-2" fill="white">
                                <use xlink:href="#path-1"></use>
                            </mask>
                            <g id="蒙版"></g>
                            <g mask="url(#mask-2)">
                                <g transform="translate(1.953333, 11.786667)">
                                    <ellipse id="椭圆形" fill="#000000" opacity="0.200000003" filter="url(#filter-3)" cx="27.1883333" cy="29.8133333" rx="26.325" ry="9.70666667"></ellipse>
                                    <g id="web/icon-车辆" stroke-width="1" fill="none" transform="translate(2.900000, 0.000000)">
                                        <g id="编组-19" fill-rule="nonzero">
                                            <g id="编组-4">
                                                <path d="M42.1289199,16.0827446 C46.9346017,16.0827446 51.221163,17.9832404 54.0114358,20.9437738" id="路径" fill="#AEBCC3"></path>
                                                <path d="M0,26.3339833 C0.65121226,27.6290478 1.93051682,28.5053748 3.40634105,28.5053748 L50.6481299,28.5053748 C52.805993,28.5053748 54.5515501,26.6404819 54.5515501,24.3395839 L54.5515501,23.165392 L52.3474471,23.165392 C51.8268192,23.1774821 51.394968,22.7168093 51.380262,22.1336573 L51.380262,17.2901159 C48.6843651,15.3463826 45.5463083,14.312393 42.3403569,14.3114674 L42.4366901,14.3114674 L39.1228289,14.2941999 C35.8937409,6.52381267 29.6397912,0.0787081399 21.4090847,0.0787081399 C13.1899383,0.0787081399 6.29633629,6.13097643 4.41976605,14.289883 L3.40634105,14.289883 C1.2715979,14.289883 0.0269732889,16.1375084 0.0269732889,18.416822" id="路径" fill="url(#linearGradient-4)"></path>
                                                <path d="M0,24.723972 L0.828475055,24.723972 C1.45397194,24.7377702 2.05958318,24.5140216 2.51199681,24.1019796 C2.96441044,23.6899376 3.22654097,23.1233782 3.24068615,22.5270171 L3.24068615,21.5167118 C3.24068615,20.3043454 2.16174189,19.3234307 0.828475055,19.3234307 L0.0231202341,19.3234307" id="路径" fill="#00A5C6"></path>
                                                <path d="M5.94125793,26.3449174 C5.94125793,29.6261835 8.72215843,32.2861753 12.152573,32.2861753 C15.5829877,32.2861753 18.3638882,29.6261835 18.3638882,26.3449174 C18.3638882,23.0636512 15.5829877,20.4036594 12.152573,20.4036594 C8.72215843,20.4036594 5.94125793,23.0636512 5.94125793,26.3449174 Z" id="路径" fill="url(#linearGradient-5)"></path>
                                                <path d="M9.18194408,26.6149746 C9.18194408,27.9573107 10.3910313,29.0454892 11.8825159,29.0454892 C13.3740005,29.0454892 14.5830877,27.9573107 14.5830877,26.6149746 C14.5830877,25.2726384 13.3740005,24.1844599 11.8825159,24.1844599 C10.3910313,24.1844599 9.18194408,25.2726384 9.18194408,26.6149746 L9.18194408,26.6149746 Z" id="路径" fill="url(#linearGradient-6)"></path>
                                                <path d="M35.1074332,26.3449174 C35.1074332,29.6261835 37.8883337,32.2861753 41.3187484,32.2861753 C44.749163,32.2861753 47.5300635,29.6261835 47.5300635,26.3449174 C47.5300635,23.0636512 44.749163,20.4036594 41.3187484,20.4036594 C37.8883337,20.4036594 35.1074332,23.0636512 35.1074332,26.3449174 Z" id="路径" fill="url(#linearGradient-5)"></path>
                                                <path d="M38.8882337,26.6149746 C38.8882337,27.9573107 40.0973209,29.0454892 41.5888055,29.0454892 C43.0802901,29.0454892 44.2893773,27.9573107 44.2893773,26.6149746 C44.2893773,25.2726384 43.0802901,24.1844599 41.5888055,24.1844599 C40.0973209,24.1844599 38.8882337,25.2726384 38.8882337,26.6149746 L38.8882337,26.6149746 Z" id="路径" fill="url(#linearGradient-6)"></path>
                                                <path d="M54.2759146,20.735427 L54.2759146,20.7235214 C53.3912039,19.7784299 52.3955148,18.9455177 51.310864,18.243202 L51.310864,22.6958714 C51.310864,23.2197149 51.7558184,23.6443456 52.2992142,23.6443456 L54.5515501,23.6443456 L54.5515501,21.0211598 L54.2759146,20.735427 L54.2759146,20.735427 Z" id="路径" fill="url(#linearGradient-7)"></path>
                                                <path d="M20.8,2.08 C14.0858296,2.59434994 8.55554899,8.31454477 6.93333333,15.9466667 L20.8,15.9466667 L20.8,2.08 Z M22.88,15.9466667 L36.7466667,15.9466667 C34.108518,8.86459415 29.250064,2.93068373 22.88,2.08 L22.88,15.9466667 Z" id="形状" fill="url(#linearGradient-8)"></path>
                                            </g>
                                        </g>
                                    </g>
                                </g>
                            </g>
                        </g>
                    </g>
                </g>
            </g>
        </g>
    </g>
</svg>