<?xml version="1.0" encoding="UTF-8"?>
<svg width="58px" height="56px" viewBox="0 0 58 56" version="1.1" xmlns="http://www.w3.org/2000/svg" xmlns:xlink="http://www.w3.org/1999/xlink">
    <!-- Generator: Sketch 61 (89581) - https://sketch.com -->
    <title>web/icon-餐饮</title>
    <desc>Created with Sketch.</desc>
    <defs>
        <rect id="path-1" x="0" y="0" width="62.4" height="62.4"></rect>
        <filter x="-24.6%" y="-45.0%" width="149.2%" height="190.1%" filterUnits="objectBoundingBox" id="filter-3">
            <feGaussianBlur stdDeviation="3.46666667" in="SourceGraphic"></feGaussianBlur>
        </filter>
        <linearGradient x1="40.3010553%" y1="90.6392893%" x2="100%" y2="9.36071072%" id="linearGradient-4">
            <stop stop-color="#12FEE0" offset="0%"></stop>
            <stop stop-color="#026DB2" offset="100%"></stop>
        </linearGradient>
        <linearGradient x1="68.2493921%" y1="26.4497653%" x2="17.3459729%" y2="141.89219%" id="linearGradient-5">
            <stop stop-color="#12FEE0" offset="0%"></stop>
            <stop stop-color="#026DB2" offset="100%"></stop>
        </linearGradient>
    </defs>
    <g id="页面-1" stroke="none" stroke-width="1" fill="none" fill-rule="evenodd">
        <g id="大数据可视化科技智慧智能统计后台监管中心" transform="translate(-1188.000000, -205.000000)">
            <g id="原创-center" transform="translate(375.000000, 122.000000)">
                <g id="编组-52">
                    <g id="web/icon-访客" transform="translate(813.000000, 76.000000)">
                        <g id="编组-13" transform="translate(-0.201923, -0.201923)">
                            <mask id="mask-2" fill="white">
                                <use xlink:href="#path-1"></use>
                            </mask>
                            <g id="蒙版"></g>
                            <g mask="url(#mask-2)">
                                <g transform="translate(8.320000, 7.626667)">
                                    <g id="椭圆形" stroke-width="1" fill="none" fill-rule="evenodd" transform="translate(0.000000, 25.653333)" opacity="0.200000003">
                                        <ellipse fill="#000000" filter="url(#filter-3)" cx="21.1466667" cy="12.1099099" rx="21.1466667" ry="11.5477477"></ellipse>
                                    </g>
                                    <path d="M14.4088361,0.346666667 L42.060666,0.346666667 L42.060666,0.346666667 L45.1882076,0.346666667 L45.1882076,27.3694343 C45.1882064,31.5111514 41.8306814,34.8686764 37.6889644,34.8686764 C37.0894118,34.8686764 36.4920225,34.7967774 35.9095914,34.6545194 C32.8880001,33.9164994 29.9135574,33.3684071 26.9862634,33.0102423 C21.1090066,32.2911391 15.04172,32.2911391 8.78440369,33.0102423 L8.78440369,5.9710991 C8.78440369,2.86481084 11.3025479,0.346666667 14.4088361,0.346666667 Z" id="矩形" fill="url(#linearGradient-4)" fill-rule="nonzero"></path>
                                    <path d="M8.39776577,0.693333333 L36.0495956,0.693333333 L36.0495956,0.693333333 L39.1771372,0.693333333 L39.1771372,37.9382718 C39.1771334,43.1154168 34.9802282,47.312322 29.8030832,47.312322 C28.9292941,47.312322 28.0597962,47.1901514 27.2198404,46.949358 C25.114982,46.3459501 23.0334329,45.8714194 20.975193,45.5257658 C15.0979362,44.5387598 9.03064964,44.5387598 2.77333333,45.5257658 L2.77333333,6.31776577 C2.77333333,3.21147751 5.29147751,0.693333333 8.39776577,0.693333333 Z" id="矩形" fill="url(#linearGradient-5)" fill-rule="nonzero"></path>
                                    <path d="M28.9160698,27.8615039 L24.8658671,26.2781911 C24.8658671,26.2781911 24.1016779,25.9729742 23.7960023,25.6868333 C23.604955,25.4960727 23.6240597,25.0573234 23.7960023,24.4850417 C23.9679448,23.9127599 26.0503604,21.5854809 26.0503604,19.4871145 C26.0503604,16.2251086 23.9106306,13.5926126 21.2741779,13.5926126 C18.6377252,13.5926126 16.4979955,16.2251086 16.4979955,19.4871145 C16.4979955,21.5091766 18.3511543,23.9127599 18.580411,24.3515093 C18.8096678,24.7902586 18.7523536,25.4579206 18.580411,25.6486812 C18.3129448,25.9538981 17.3194989,26.259115 17.3194989,26.259115 L13.6704955,27.88058 C12.8107827,28.1857969 12.1421171,28.9869913 12.1421171,29.9026421 L12.1421171,31.0853577 C12.1421171,32.0773127 12.9445158,31.9247042 13.9379617,31.9247042 L28.6868131,31.9247042 C29.680259,31.9247042 30.4826577,32.0773127 30.4826577,31.0853577 L30.4826577,29.9026421 C30.4444482,29.0060674 29.7757827,28.1667208 28.9160698,27.8615039 L28.9160698,27.8615039 Z" id="形状-copy" fill="#058AA7" fill-rule="nonzero"></path>
                                </g>
                            </g>
                        </g>
                    </g>
                </g>
            </g>
        </g>
    </g>
</svg>