<?xml version="1.0" encoding="UTF-8"?>
<svg width="60px" height="56px" viewBox="0 0 60 56" version="1.1" xmlns="http://www.w3.org/2000/svg" xmlns:xlink="http://www.w3.org/1999/xlink">
    <!-- Generator: Sketch 61 (89581) - https://sketch.com -->
    <title>web/icon-餐饮</title>
    <desc>Created with Sketch.</desc>
    <defs>
        <rect id="path-1" x="0" y="0" width="58.5" height="58.5"></rect>
        <filter x="-36.9%" y="-70.6%" width="173.8%" height="241.2%" filterUnits="objectBoundingBox" id="filter-3">
            <feGaussianBlur stdDeviation="5.2" in="SourceGraphic"></feGaussianBlur>
        </filter>
        <linearGradient x1="50%" y1="-17.185207%" x2="50%" y2="62.3690377%" id="linearGradient-4">
            <stop stop-color="#0EA696" offset="0%"></stop>
            <stop stop-color="#11F6DD" offset="100%"></stop>
        </linearGradient>
        <linearGradient x1="100%" y1="15.3394537%" x2="0%" y2="165.548826%" id="linearGradient-5">
            <stop stop-color="#12FEE0" offset="0%"></stop>
            <stop stop-color="#026DB2" offset="100%"></stop>
        </linearGradient>
    </defs>
    <g id="页面-1" stroke="none" stroke-width="1" fill="none" fill-rule="evenodd">
        <g id="大数据可视化科技智慧智能统计后台监管中心" transform="translate(-536.000000, -203.000000)">
            <g id="原创-center" transform="translate(375.000000, 122.000000)">
                <g id="编组-52">
                    <g id="web/icon-会议" transform="translate(160.000000, 76.000000)">
                        <g id="编组-16" transform="translate(1.764957, 1.764957)">
                            <mask id="mask-2" fill="white">
                                <use xlink:href="#path-1"></use>
                            </mask>
                            <g id="蒙版"></g>
                            <g mask="url(#mask-2)">
                                <g transform="translate(4.550000, 3.250000)">
                                    <ellipse id="椭圆形" fill="#000000" opacity="0.300000012" filter="url(#filter-3)" cx="25.025" cy="37.05" rx="21.125" ry="11.05"></ellipse>
                                    <g id="web/icon-会议备份" stroke-width="1" fill="none">
                                        <g id="编组-2" fill-rule="nonzero">
                                            <g id="编组" transform="translate(0.325000, 0.000000)">
                                                <path d="M0,33.5102404 L24.375,48.3986486 L48.75,34.8978531 L48.75,28.8973428 L0,28.1612651" id="路径-38" fill="#05B3AC"></path>
                                                <polygon id="路径-21" fill="url(#linearGradient-4)" points="25.3035714 15.5657895 0 28.2152855 24.375 42.2288961 48.75 28.8973428"></polygon>
                                                <path d="M39.975,8.125 C41.2314398,8.125 42.25,9.27375206 42.25,10.6907895 L42.25,17.2906815 C42.25,17.9717306 42.0110425,18.6251083 41.585309,19.1081024 L36.0982934,25.3332288 C35.6671864,25.8194047 35.4249933,26.4788239 35.425,27.1664052 L35.425,31.19706 C35.425,31.9166437 34.9077574,32.5 34.2697266,32.5 L32.0302734,32.5 C31.3922426,32.5 30.875,31.9166437 30.875,31.19706 L30.875,24.5763209 C30.875,23.8957559 31.1147096,23.2430642 31.5413973,22.7618267 L34.7517066,19.141177 C35.1828091,18.6549813 35.4250005,17.9955522 35.425,17.3079605 L35.425,10.6907895 C35.425,9.27375206 36.4435602,8.125 37.7,8.125 L39.975,8.125 Z M11.05,8.125 C12.3064398,8.125 13.325,9.27375206 13.325,10.6907895 L13.325,17.3079605 C13.3249995,17.9955522 13.5671909,18.6549813 13.9982934,19.141177 L17.2086027,22.7618267 C17.6352838,23.2430692 17.875,23.8957577 17.875,24.5763209 L17.875,31.19706 C17.875,31.9166437 17.3577574,32.5 16.7197266,32.5 L14.4802734,32.5 C13.8422426,32.5 13.325,31.9166437 13.325,31.19706 L13.325,27.1664052 C13.3250005,26.4788135 13.0828091,25.8193844 12.6517066,25.3331887 L7.16227383,19.1053361 C6.73809249,18.6240979 6.5,17.9730999 6.5,17.2945302 L6.5,10.6907895 C6.5,9.27375206 7.51856016,8.125 8.775,8.125 L11.05,8.125 Z M21.9603262,21.1254877 C22.4028848,21.1443671 22.75,21.726509 22.75,22.4151736 L22.75,31.2098264 C22.75,31.898491 22.4028848,32.4806329 21.9603262,32.4995123 C21.5011621,32.5191027 21.125,31.9459265 21.125,31.2360917 L21.125,22.3888293 C21.125,21.6790735 21.5011875,21.1058973 21.9603262,21.1254877 Z M26.8353262,21.1254877 C27.2778848,21.1443671 27.625,21.726509 27.625,22.4151736 L27.625,31.2098264 C27.625,31.898491 27.2778848,32.4806329 26.8353262,32.4995123 C26.3761621,32.5191027 26,31.9459265 26,31.2360917 L26,22.3888293 C26,21.6790735 26.3761621,21.1058973 26.8353262,21.1254877 Z M25.2646237,0.00071438019 C27.4366553,0.0410006785 29.2089979,1.8133439 29.2492842,3.98537628 C29.271736,5.19604046 28.7644622,6.28865952 27.9437258,7.04698873 C28.4931711,7.49339341 28.8437434,8.17450941 28.8437434,8.9375 L28.8437434,13.8125 L31.281239,13.8125 C31.9657182,13.8125 32.5184204,14.3767813 32.4995298,15.0654893 C32.4812866,15.7293271 31.919939,16.25 31.2558357,16.25 L19.1190881,16.25 C18.4550229,16.25 17.8936753,15.7293271 17.8754702,15.0654893 C17.8565796,14.3767432 18.4092818,13.8125 19.093761,13.8125 L21.5312566,13.8125 L21.5312566,8.9375 C21.5312566,8.17268408 21.8835083,7.49013495 22.4346236,7.04324102 C21.6482357,6.31596949 21.146904,5.28318696 21.1257158,4.13962372 C21.0829751,1.83492584 22.9598843,-0.0419840179 25.2646237,0.00071438019 Z M38.2646237,0.00071438019 C40.4366553,0.0410006785 42.2089979,1.8133439 42.2492842,3.98537628 C42.2920249,6.29007416 40.4150734,8.16698402 38.1103763,8.12428562 C35.9383447,8.08404164 34.1659597,6.3116561 34.1257158,4.13962372 C34.0829751,1.83492584 35.9598843,-0.0419840179 38.2646237,0.00071438019 Z M10.6396237,0.00071438019 C12.8116553,0.0410006785 14.5839979,1.8133439 14.6242842,3.98537628 C14.6670249,6.29007416 12.7901157,8.16698402 10.4853763,8.12428562 C8.31334467,8.08404164 6.54095975,6.3116561 6.50071578,4.13962372 C6.45797508,1.83492584 8.33488429,-0.0419840179 10.6396237,0.00071438019 Z" id="形状结合" fill="url(#linearGradient-5)"></path>
                                            </g>
                                        </g>
                                    </g>
                                </g>
                            </g>
                        </g>
                    </g>
                </g>
            </g>
        </g>
    </g>
</svg>