<?xml version="1.0" encoding="UTF-8"?>
<svg width="81px" height="73px" viewBox="0 0 81 73" version="1.1" xmlns="http://www.w3.org/2000/svg" xmlns:xlink="http://www.w3.org/1999/xlink">
    <!-- Generator: Sketch 61 (89581) - https://sketch.com -->
    <title>编组 39</title>
    <desc>Created with Sketch.</desc>
    <defs>
        <filter x="-36.4%" y="-54.8%" width="172.7%" height="209.5%" filterUnits="objectBoundingBox" id="filter-1">
            <feOffset dx="0" dy="4" in="SourceAlpha" result="shadowOffsetOuter1"></feOffset>
            <feGaussianBlur stdDeviation="4" in="shadowOffsetOuter1" result="shadowBlurOuter1"></feGaussianBlur>
            <feColorMatrix values="0 0 0 0 0.780716086   0 0 0 0 0.288786101   0 0 0 0 0.907297328  0 0 0 0.100251311 0" type="matrix" in="shadowBlurOuter1" result="shadowMatrixOuter1"></feColorMatrix>
            <feMerge>
                <feMergeNode in="shadowMatrixOuter1"></feMergeNode>
                <feMergeNode in="SourceGraphic"></feMergeNode>
            </feMerge>
        </filter>
        <linearGradient x1="50%" y1="0%" x2="50%" y2="99.2266681%" id="linearGradient-2">
            <stop stop-color="#A0A2FF" offset="0%"></stop>
            <stop stop-color="#0080FF" offset="100%"></stop>
        </linearGradient>
        <linearGradient x1="50%" y1="0%" x2="50%" y2="99.2266681%" id="linearGradient-3">
            <stop stop-color="#686CF4" offset="0.469805743%"></stop>
            <stop stop-color="#044CF1" offset="100%"></stop>
        </linearGradient>
        <linearGradient x1="91.8905188%" y1="67.6899895%" x2="17.9431479%" y2="32.399528%" id="linearGradient-4">
            <stop stop-color="#0408CF" offset="0%"></stop>
            <stop stop-color="#4B00FF" offset="100%"></stop>
        </linearGradient>
        <linearGradient x1="96.8093455%" y1="32.015495%" x2="3.1906545%" y2="67.4034408%" id="linearGradient-5">
            <stop stop-color="#122AF8" offset="0%"></stop>
            <stop stop-color="#0073FF" offset="100%"></stop>
        </linearGradient>
        <polygon id="path-6" points="19.4098488 0 0.165515273 9.60153368 0.165515273 29.9011527 29.0968995 15.8584785"></polygon>
        <filter x="-118.1%" y="-135.8%" width="336.2%" height="371.6%" filterUnits="objectBoundingBox" id="filter-8">
            <feGaussianBlur stdDeviation="10.8571429" in="SourceGraphic"></feGaussianBlur>
        </filter>
        <linearGradient x1="50%" y1="17.5660418%" x2="50%" y2="100%" id="linearGradient-9">
            <stop stop-color="#FEED7E" offset="0%"></stop>
            <stop stop-color="#FE7800" offset="100%"></stop>
        </linearGradient>
    </defs>
    <g id="页面-1" stroke="none" stroke-width="1" fill="none" fill-rule="evenodd">
        <g id="3大数据可视化蓝色科技智慧车辆大屏后台统计" transform="translate(-602.000000, -914.000000)">
            <g id="原创-icon" transform="translate(574.000000, 901.000000)">
                <g id="编组-39" transform="translate(35.714286, 13.392857)">
                    <rect id="矩形备份-7" fill-opacity="0.01" fill="#0B083D" x="0" y="0" width="66.9642857" height="66.9642857"></rect>
                    <g id="编组-7" transform="translate(0.000000, 6.696429)">
                        <g id="编组-2" filter="url(#filter-1)" transform="translate(0.000000, 12.276786)">
                            <polygon id="路径-4" stroke="#475EFF" stroke-width="1.01785714" stroke-linejoin="round" points="32.1566975 10.0446429 0 24.9193483 32.1566975 41.2946429 65.8482143 24.9193483"></polygon>
                            <polygon id="路径-5" fill="#2C34E8" points="32.6564222 10.0446429 4.54125616 22.868456 32.6564222 36.8303571 61.3069581 22.868456"></polygon>
                            <polygon id="路径-6" fill="url(#linearGradient-2)" opacity="0.885602679" points="32.2535829 0 14.7590825 7.11491266 32.2535829 16.7410714 51.0891318 7.11491266"></polygon>
                            <polygon id="路径-6" fill="url(#linearGradient-3)" points="32.9679171 2.23214286 19.3003387 7.92407299 32.9679171 15.625 47.6831897 7.92407299"></polygon>
                            <polygon id="路径-7" fill="url(#linearGradient-4)" opacity="0.697567894" points="15.05491 6.69642857 4.54125616 22.6783629 32.9241071 36.8303571 32.9241071 16.3727087"></polygon>
                            <g id="椭圆形" transform="translate(31.788793, 7.812500)">
                                <mask id="mask-7" fill="white">
                                    <use xlink:href="#path-6"></use>
                                </mask>
                                <use id="蒙版" fill="url(#linearGradient-5)" opacity="0.697567894" xlink:href="#path-6"></use>
                                <ellipse fill="#2ACFF6" filter="url(#filter-8)" mask="url(#mask-7)" cx="-0.626803402" cy="21.8203125" rx="13.7896748" ry="11.9918033"></ellipse>
                            </g>
                        </g>
                        <path d="M38.8986485,4.14206463 C38.6948044,3.14767096 37.8004159,2.43963666 36.7740127,2.45988542 C34.124607,2.34601414 31.4624989,2.25750985 28.8130176,2.23214286 C27.9474219,2.26571509 27.0885785,2.39728267 26.2533229,2.62426654 C25.8683928,2.70215773 25.531521,2.93017559 25.3189368,3.25672288 C24.6022314,4.78711107 24.0646456,6.36815854 23.4375,8.06296521 C28.9567497,9.21710684 34.6593217,9.21710684 40.1785714,8.06296521 C39.7049894,6.65896368 39.2313695,5.4069026 38.8986485,4.14206463 L38.8986485,4.14206463 Z M42.4960187,11.1907291 C41.0615676,11.5006494 39.6607085,11.8873694 38.3049515,12.3477118 C37.690276,12.5607756 37.9138056,13.1493986 38.6123306,13.2609663 C39.2370636,13.329095 39.8668855,13.3697853 40.4983644,13.3828155 L40.4983644,13.3928571 C41.2340388,13.3547567 41.9662342,13.2870185 42.691571,13.189955 C43.7393997,13.0174477 43.5159113,12.3983699 43.4878515,11.8605549 C43.459998,11.3226799 43.0687283,11.0689698 42.4960187,11.1907291 L42.4960187,11.1907291 Z M27.3567105,12.2281331 C26.2107365,11.8478419 25.0347849,11.5146398 23.8347014,11.2301834 C23.2429839,11.090428 22.5668364,11.1204072 22.4260642,11.7091722 C22.144187,12.577448 22.4260642,13.0564957 23.3416451,13.1961921 C24.0601533,13.2960343 24.7504487,13.3159025 25.5393638,13.3658973 L25.4689569,13.385736 C25.9730102,13.4050743 26.4785369,13.3849964 26.9763801,13.3258661 C27.3656767,13.26227 27.6985198,13.0845281 27.8920026,12.8369137 C27.9624927,12.6871653 27.6384629,12.3179822 27.3567105,12.2281331 L27.3567105,12.2281331 Z M45.7105483,9.82916315 L44.2520199,10.2184513 C44.3423782,10.7166241 44.4021807,11.2196701 44.4311049,11.7248753 L44.4311049,18.6799238 C44.4146452,19.1004746 44.2622889,19.5049871 43.9960707,19.8349577 C42.6459631,20.090515 41.261086,20.1159794 39.9021694,19.9102344 C38.9553503,19.3202579 39.5439615,18.3284224 39.2368074,17.5249641 L26.8014129,17.5249641 C26.5581989,18.3785945 26.4175837,19.8097419 26.1361266,19.9102344 C24.7479224,20.1489695 23.3279817,20.1489695 21.9397775,19.9102344 C21.6451393,19.5264102 21.4837077,19.0599816 21.4791976,18.5794684 C21.4024469,17.5752104 21.4024469,16.6210132 21.4024469,15.6418227 C21.4024469,13.8214243 21.4024469,12.001063 21.4791976,10.168205 L20.1230413,9.81674064 C20.0780339,9.61406696 20.0780339,9.40425901 20.1230413,9.20158533 C20.5069083,8.19721608 21.0186176,7.41886236 22.3363041,7.53185158 C22.4897678,7.53185158 22.7840734,7.23052227 22.8736726,7.00446966 C23.3627876,5.88551371 23.7898673,4.74141661 24.1530404,3.57719169 C24.6450991,1.85732291 26.1766371,0.620040857 27.9911437,0.47638472 C28.6947866,0.350750493 29.4240508,0.262902948 30.1277314,0.149876643 L30.1661257,0.200159999 C31.9855271,-0.0667199998 33.8352517,-0.0667199998 35.6546532,0.200159999 C36.934021,0.451243042 38.2133132,0.652116892 39.4160058,0.978513722 C40.3108359,1.20220483 41.0258759,1.86118865 41.309455,2.72352418 C41.8286189,4.16021146 42.3745944,5.58743334 42.9471063,7.00446966 C43.0494406,7.24309311 43.3564057,7.59459453 43.5355663,7.56945285 C44.5503312,7.40124835 45.516234,8.05912226 45.7105483,9.05080943 C45.7750553,9.30639982 45.7750553,9.57357276 45.7105483,9.82916315 L45.7105483,9.82916315 Z" id="形状" fill="url(#linearGradient-9)" fill-rule="nonzero"></path>
                    </g>
                </g>
            </g>
        </g>
    </g>
</svg>