<?xml version="1.0" encoding="UTF-8"?>
<svg width="82px" height="76px" viewBox="0 0 82 76" version="1.1" xmlns="http://www.w3.org/2000/svg" xmlns:xlink="http://www.w3.org/1999/xlink">
    <!-- Generator: Sketch 61 (89581) - https://sketch.com -->
    <title>编组 28</title>
    <desc>Created with Sketch.</desc>
    <defs>
        <filter x="-36.4%" y="-54.8%" width="172.7%" height="209.5%" filterUnits="objectBoundingBox" id="filter-1">
            <feOffset dx="0" dy="4" in="SourceAlpha" result="shadowOffsetOuter1"></feOffset>
            <feGaussianBlur stdDeviation="4" in="shadowOffsetOuter1" result="shadowBlurOuter1"></feGaussianBlur>
            <feColorMatrix values="0 0 0 0 0.780716086   0 0 0 0 0.288786101   0 0 0 0 0.907297328  0 0 0 0.100251311 0" type="matrix" in="shadowBlurOuter1" result="shadowMatrixOuter1"></feColorMatrix>
            <feMerge>
                <feMergeNode in="shadowMatrixOuter1"></feMergeNode>
                <feMergeNode in="SourceGraphic"></feMergeNode>
            </feMerge>
        </filter>
        <linearGradient x1="50%" y1="15.0072752%" x2="50%" y2="100%" id="linearGradient-2">
            <stop stop-color="#FFAC74" offset="0%"></stop>
            <stop stop-color="#FEDB65" offset="100%"></stop>
        </linearGradient>
        <linearGradient x1="50%" y1="17.5660418%" x2="50%" y2="100%" id="linearGradient-3">
            <stop stop-color="#FE7800" offset="0%"></stop>
            <stop stop-color="#FEED7E" offset="100%"></stop>
        </linearGradient>
        <linearGradient x1="50%" y1="17.5660418%" x2="50%" y2="100%" id="linearGradient-4">
            <stop stop-color="#FE7800" offset="0%"></stop>
            <stop stop-color="#FEED7E" offset="100%"></stop>
        </linearGradient>
        <polygon id="path-5" points="19.4098488 0 -1.26882631e-13 9.74327438 0.0479904161 30.1339286 29.1153403 16.0712609"></polygon>
        <filter x="-118.1%" y="-135.8%" width="336.2%" height="371.6%" filterUnits="objectBoundingBox" id="filter-7">
            <feGaussianBlur stdDeviation="10.8571429" in="SourceGraphic"></feGaussianBlur>
        </filter>
        <linearGradient x1="50%" y1="17.5660418%" x2="50%" y2="100%" id="linearGradient-8">
            <stop stop-color="#FEED7E" offset="0%"></stop>
            <stop stop-color="#FE7800" offset="100%"></stop>
        </linearGradient>
    </defs>
    <g id="页面-1" stroke="none" stroke-width="1" fill="none" fill-rule="evenodd">
        <g id="3大数据可视化蓝色科技智慧车辆大屏后台统计" transform="translate(-1078.000000, -914.000000)">
            <g id="原创-icon" transform="translate(574.000000, 901.000000)">
                <g id="编组-28" transform="translate(511.160714, 13.392857)">
                    <rect id="矩形" fill-opacity="0.01" fill="#0B083D" x="0" y="0" width="66.9642857" height="66.9642857"></rect>
                    <g id="编组-2备份-4" filter="url(#filter-1)" transform="translate(1.000000, 22.000000)">
                        <polygon id="路径-4" stroke="#FECC5B" stroke-width="1.01785714" stroke-linejoin="round" points="32.1566975 10.0446429 0 24.9193483 32.1566975 41.2946429 65.8482143 24.9193483"></polygon>
                        <polygon id="路径-6" fill="url(#linearGradient-2)" fill-rule="nonzero" points="32.2535829 0 13.7670166 7.11491266 32.2535829 16.7410714 51.0891318 7.11491266"></polygon>
                        <polygon id="路径-6" fill="#FB7C20" fill-rule="nonzero" points="31.5247213 1.11607143 17.8571429 6.80800156 31.5247213 14.5089286 46.2399938 6.80800156"></polygon>
                        <polygon id="路径-7" fill="url(#linearGradient-3)" fill-rule="nonzero" points="13.9388386 6.69642857 3.42518473 22.6783629 31.8080357 36.8303571 31.8080357 16.3727087"></polygon>
                        <g id="椭圆形" transform="translate(31.788793, 6.696429)">
                            <mask id="mask-6" fill="white">
                                <use xlink:href="#path-5"></use>
                            </mask>
                            <use id="蒙版" fill="url(#linearGradient-4)" fill-rule="nonzero" xlink:href="#path-5"></use>
                            <ellipse fill="#E02020" filter="url(#filter-7)" mask="url(#mask-6)" cx="-0.626803402" cy="22.9363839" rx="13.7896748" ry="11.9918033"></ellipse>
                        </g>
                    </g>
                    <g id="编组-31" transform="translate(19.116071, 5.580357)" fill-rule="nonzero">
                        <g id="数据统计" transform="translate(0.973214, 0.000000)">
                            <rect id="矩形" fill="#FFFFFF" opacity="0" x="0" y="0" width="28.2574568" height="28.2574568"></rect>
                            <polygon id="路径" fill="url(#linearGradient-8)" points="21.1954817 1.76609105 7.06516055 1.76609105 0 14.1287284 7.06516055 26.4913658 21.1954817 26.4913658 28.2574568 14.1287284"></polygon>
                            <g transform="translate(7.064364, 8.241758)" fill="#01030B" id="形状">
                                <path d="M1.84132097,9.22624349 C1.58881009,9.22624349 1.34944158,9.17819572 1.12308146,9.08206738 C0.896721346,8.98602101 0.700837258,8.85496583 0.535430808,8.68890346 C0.370022731,8.52292307 0.23943387,8.32634028 0.143664243,8.09915676 C0.0478929887,7.87198964 0,7.6317655 0,7.37835487 C0,7.12502621 0.0478929727,6.88689874 0.143664243,6.66415443 C0.239435497,6.44132816 0.370024358,6.24692564 0.535430808,6.08092721 C0.700838885,5.91493042 0.896721362,5.78387523 1.12308146,5.68776328 C1.34944158,5.59165134 1.58881174,5.54358717 1.84132097,5.54358717 C1.89354084,5.54358717 1.94143381,5.54583137 1.98498522,5.55018862 C2.02847127,5.55452947 2.07202267,5.5567081 2.11557408,5.5567081 L4.66206081,2.46379685 C4.61850942,2.37644858 4.59018785,2.28033663 4.57711247,2.17552496 C4.56411876,2.0706313 4.55754104,1.961464 4.55754104,1.84788862 C4.55754104,1.59447799 4.60543402,1.35425387 4.70120529,1.12708673 C4.79697654,0.899919607 4.9275654,0.70333682 5.09297185,0.537340038 C5.2583783,0.371343256 5.45426241,0.24028806 5.68062251,0.144176115 C5.90698262,0.0480641692 6.14641812,0 6.39886202,0 C6.65130756,0 6.89074142,0.0480641692 7.11710153,0.144176115 C7.34346165,0.24028806 7.53934573,0.37134324 7.70475218,0.537340038 C7.87016026,0.70333682 8.00074912,0.899919607 8.09651875,1.12708673 C8.19229,1.35425386 8.24018299,1.59454357 8.24018299,1.84788862 C8.24018299,2.05759233 8.20753618,2.25633734 8.14224094,2.4441548 C8.0769457,2.63203784 7.98767211,2.808913 7.8744839,2.97497535 L10.0815105,7.92881584 L11.3481762,5.66160013 C11.2524049,5.51306512 11.1741012,5.34924697 11.1131492,5.170144 C11.0521809,4.99102465 11.0217048,4.80096298 11.0217048,4.60003934 C11.0217048,4.34662871 11.0695978,4.10640459 11.1653691,3.87923745 C11.2611403,3.65207032 11.3917292,3.45548754 11.5571356,3.28949075 C11.7225437,3.12349397 11.9184262,2.99243878 12.1447863,2.89632683 C12.3711464,2.80021488 12.6105819,2.75215072 12.8630258,2.75215072 C13.1154713,2.75215072 13.3549052,2.80021488 13.5812653,2.89632683 C13.8076254,2.99243878 14.0056803,3.12349396 14.1754137,3.28949075 C14.3452287,3.45548754 14.4779883,3.65207032 14.5737596,3.87923745 C14.6695308,4.10640457 14.7174238,4.34669428 14.7174238,4.60003934 C14.7174238,4.86214971 14.6695308,5.10677863 14.5737596,5.33396215 C14.4779883,5.5610637 14.3452287,5.75989069 14.1754137,5.93022833 C14.0056803,6.10056761 13.8076254,6.23386536 13.5812653,6.32991337 C13.3548399,6.4260417 13.1154697,6.47408948 12.8630258,6.47408948 L12.5496283,6.47408948 L11.3090317,8.74138716 C11.5005726,8.91608369 11.6529706,9.12143015 11.7660935,9.35729539 C11.8792654,9.5932426 11.9358269,9.85093014 11.9358269,10.1305023 C11.9358269,10.3839129 11.8879502,10.6242026 11.7921626,10.8513042 C11.6964567,11.0784877 11.5636317,11.2772327 11.3938984,11.4476523 C11.2241651,11.6179916 11.028281,11.7512238 10.8062477,11.8473374 C10.5842129,11.9434493 10.3426883,11.9915135 10.0815106,11.9915135 C9.82033285,11.9915135 9.57872656,11.9434493 9.3566917,11.8473374 C9.1347385,11.7512254 8.9410105,11.6179916 8.77561875,11.4476523 C8.61014533,11.2772311 8.47955647,11.0784877 8.38385218,10.8513042 C8.28806459,10.6242026 8.24018794,10.3839129 8.24018794,10.1305023 C8.24018794,9.85093014 8.2945786,9.5932426 8.40342359,9.35729539 C8.51220489,9.12143015 8.66243051,8.91608206 8.85390769,8.74138716 L6.60782481,3.6957756 C6.52072202,3.71323902 6.45108518,3.72193713 6.39886532,3.72193713 C6.25954267,3.72193713 6.12678301,3.70447371 6.00060109,3.66953211 C5.87433749,3.63458888 5.75458788,3.59088359 5.64148133,3.53847693 L3.40839049,6.36927945 C3.49542794,6.51779807 3.56504844,6.67727537 3.61734997,6.84761302 C3.66956984,7.0179523 3.69563893,7.19489139 3.69563893,7.37835161 C3.69563893,7.63176223 3.64776229,7.87205193 3.55205636,8.0991535 C3.45626877,8.32633702 3.32352546,8.5229198 3.15371045,8.68890019 C2.98397711,8.85496254 2.78809303,8.98601774 2.5660598,9.08206411 C2.3441066,9.17819409 2.10250032,9.22624349 1.84132097,9.22624349 L1.84132097,9.22624349 Z"></path>
                            </g>
                            <polygon id="路径" stroke-opacity="0.85" stroke="#000000" stroke-width="0.588697017" points="20.459262 3.5321821 8.38961271 3.5321821 2.35478807 14.1287284 8.38961271 24.7252747 20.459262 24.7252747 26.4913658 14.1287284"></polygon>
                        </g>
                    </g>
                </g>
            </g>
        </g>
    </g>
</svg>