<?xml version="1.0" encoding="UTF-8"?>
<svg width="171px" height="191px" viewBox="0 0 171 191" version="1.1" xmlns="http://www.w3.org/2000/svg" xmlns:xlink="http://www.w3.org/1999/xlink">
    <!-- Generator: Sketch 61 (89581) - https://sketch.com -->
    <title>编组 46</title>
    <desc>Created with Sketch.</desc>
    <defs>
        <linearGradient x1="100%" y1="50.8921694%" x2="0%" y2="50%" id="linearGradient-1">
            <stop stop-color="#0BE18B" offset="0%"></stop>
            <stop stop-color="#66FFFF" stop-opacity="0.147744655" offset="21.2862906%"></stop>
            <stop stop-color="#66FFFF" stop-opacity="0" offset="49.2482844%"></stop>
            <stop stop-color="#66FFFF" stop-opacity="0.149273929" offset="77.6864088%"></stop>
            <stop stop-color="#0BE18B" offset="100%"></stop>
        </linearGradient>
        <linearGradient x1="50%" y1="0%" x2="50%" y2="100%" id="linearGradient-2">
            <stop stop-color="#07E8F5" stop-opacity="0.5" offset="0%"></stop>
            <stop stop-color="#03CCE7" offset="100%"></stop>
        </linearGradient>
        <linearGradient x1="50%" y1="0%" x2="50%" y2="50%" id="linearGradient-3">
            <stop stop-color="#07E8F5" stop-opacity="0.5" offset="0%"></stop>
            <stop stop-color="#0BE18B" offset="100%"></stop>
        </linearGradient>
        <linearGradient x1="50%" y1="0%" x2="50%" y2="50%" id="linearGradient-4">
            <stop stop-color="#07E8F5" stop-opacity="0.5" offset="0%"></stop>
            <stop stop-color="#0BE18B" offset="100%"></stop>
        </linearGradient>
        <filter x="-50.0%" y="-50.0%" width="200.0%" height="200.0%" filterUnits="objectBoundingBox" id="filter-5">
            <feGaussianBlur stdDeviation="1" in="SourceGraphic"></feGaussianBlur>
        </filter>
        <filter x="-50.0%" y="-50.0%" width="200.0%" height="200.0%" filterUnits="objectBoundingBox" id="filter-6">
            <feGaussianBlur stdDeviation="1" in="SourceGraphic"></feGaussianBlur>
        </filter>
        <filter x="-50.0%" y="-50.0%" width="200.0%" height="200.0%" filterUnits="objectBoundingBox" id="filter-7">
            <feGaussianBlur stdDeviation="1" in="SourceGraphic"></feGaussianBlur>
        </filter>
        <filter x="-50.0%" y="-50.0%" width="200.0%" height="200.0%" filterUnits="objectBoundingBox" id="filter-8">
            <feGaussianBlur stdDeviation="1" in="SourceGraphic"></feGaussianBlur>
        </filter>
        <filter x="-50.0%" y="-50.0%" width="200.0%" height="200.0%" filterUnits="objectBoundingBox" id="filter-9">
            <feGaussianBlur stdDeviation="1" in="SourceGraphic"></feGaussianBlur>
        </filter>
        <filter x="-50.0%" y="-50.0%" width="200.0%" height="200.0%" filterUnits="objectBoundingBox" id="filter-10">
            <feGaussianBlur stdDeviation="1" in="SourceGraphic"></feGaussianBlur>
        </filter>
        <filter x="-50.0%" y="-50.0%" width="200.0%" height="200.0%" filterUnits="objectBoundingBox" id="filter-11">
            <feGaussianBlur stdDeviation="1" in="SourceGraphic"></feGaussianBlur>
        </filter>
        <filter x="-50.0%" y="-50.0%" width="200.0%" height="200.0%" filterUnits="objectBoundingBox" id="filter-12">
            <feGaussianBlur stdDeviation="1" in="SourceGraphic"></feGaussianBlur>
        </filter>
        <filter x="-50.0%" y="-50.0%" width="200.0%" height="200.0%" filterUnits="objectBoundingBox" id="filter-13">
            <feGaussianBlur stdDeviation="1" in="SourceGraphic"></feGaussianBlur>
        </filter>
        <filter x="-50.0%" y="-50.0%" width="200.0%" height="200.0%" filterUnits="objectBoundingBox" id="filter-14">
            <feGaussianBlur stdDeviation="1" in="SourceGraphic"></feGaussianBlur>
        </filter>
        <filter x="-50.0%" y="-50.0%" width="200.0%" height="200.0%" filterUnits="objectBoundingBox" id="filter-15">
            <feGaussianBlur stdDeviation="1" in="SourceGraphic"></feGaussianBlur>
        </filter>
        <filter x="-50.0%" y="-50.0%" width="200.0%" height="200.0%" filterUnits="objectBoundingBox" id="filter-16">
            <feGaussianBlur stdDeviation="1" in="SourceGraphic"></feGaussianBlur>
        </filter>
        <filter x="-50.0%" y="-50.0%" width="200.0%" height="200.0%" filterUnits="objectBoundingBox" id="filter-17">
            <feGaussianBlur stdDeviation="1" in="SourceGraphic"></feGaussianBlur>
        </filter>
        <filter x="-50.0%" y="-50.0%" width="200.0%" height="200.0%" filterUnits="objectBoundingBox" id="filter-18">
            <feGaussianBlur stdDeviation="1" in="SourceGraphic"></feGaussianBlur>
        </filter>
        <filter x="-50.0%" y="-50.0%" width="200.0%" height="200.0%" filterUnits="objectBoundingBox" id="filter-19">
            <feGaussianBlur stdDeviation="1" in="SourceGraphic"></feGaussianBlur>
        </filter>
        <filter x="-50.0%" y="-50.0%" width="200.0%" height="200.0%" filterUnits="objectBoundingBox" id="filter-20">
            <feGaussianBlur stdDeviation="1" in="SourceGraphic"></feGaussianBlur>
        </filter>
        <filter x="-50.0%" y="-50.0%" width="200.0%" height="200.0%" filterUnits="objectBoundingBox" id="filter-21">
            <feGaussianBlur stdDeviation="1" in="SourceGraphic"></feGaussianBlur>
        </filter>
        <filter x="-50.0%" y="-50.0%" width="200.0%" height="200.0%" filterUnits="objectBoundingBox" id="filter-22">
            <feGaussianBlur stdDeviation="1" in="SourceGraphic"></feGaussianBlur>
        </filter>
        <filter x="-50.0%" y="-50.0%" width="200.0%" height="200.0%" filterUnits="objectBoundingBox" id="filter-23">
            <feGaussianBlur stdDeviation="1" in="SourceGraphic"></feGaussianBlur>
        </filter>
        <filter x="-50.0%" y="-50.0%" width="200.0%" height="200.0%" filterUnits="objectBoundingBox" id="filter-24">
            <feGaussianBlur stdDeviation="1" in="SourceGraphic"></feGaussianBlur>
        </filter>
        <filter x="-50.0%" y="-50.0%" width="200.0%" height="200.0%" filterUnits="objectBoundingBox" id="filter-25">
            <feGaussianBlur stdDeviation="1" in="SourceGraphic"></feGaussianBlur>
        </filter>
        <filter x="-50.0%" y="-50.0%" width="200.0%" height="200.0%" filterUnits="objectBoundingBox" id="filter-26">
            <feGaussianBlur stdDeviation="1" in="SourceGraphic"></feGaussianBlur>
        </filter>
        <filter x="-50.0%" y="-50.0%" width="200.0%" height="200.0%" filterUnits="objectBoundingBox" id="filter-27">
            <feGaussianBlur stdDeviation="1" in="SourceGraphic"></feGaussianBlur>
        </filter>
        <filter x="-50.0%" y="-50.0%" width="200.0%" height="200.0%" filterUnits="objectBoundingBox" id="filter-28">
            <feGaussianBlur stdDeviation="1" in="SourceGraphic"></feGaussianBlur>
        </filter>
        <filter x="-38.2%" y="-83.0%" width="176.3%" height="266.1%" filterUnits="objectBoundingBox" id="filter-29">
            <feGaussianBlur stdDeviation="9.41176471" in="SourceGraphic"></feGaussianBlur>
        </filter>
        <linearGradient x1="14.5304102%" y1="66.7495028%" x2="100%" y2="9.36071072%" id="linearGradient-30">
            <stop stop-color="#14E292" offset="0%"></stop>
            <stop stop-color="#05755B" offset="100%"></stop>
        </linearGradient>
        <linearGradient x1="26.8355011%" y1="70.6075243%" x2="82.6540271%" y2="0%" id="linearGradient-31">
            <stop stop-color="#14E292" offset="0%"></stop>
            <stop stop-color="#00B38A" offset="100%"></stop>
        </linearGradient>
        <linearGradient x1="14.5304102%" y1="70.6075243%" x2="100%" y2="0%" id="linearGradient-32">
            <stop stop-color="#0C6E48" offset="0%"></stop>
            <stop stop-color="#05755B" offset="100%"></stop>
        </linearGradient>
    </defs>
    <g id="页面-1" stroke="none" stroke-width="1" fill="none" fill-rule="evenodd">
        <g id="0103科技感可视化大数据智慧税务统计大屏展示平台" transform="translate(-778.000000, -147.000000)">
            <g id="编组-68" transform="translate(586.000000, 147.000000)">
                <g id="编组-65" transform="translate(192.000000, 0.000000)">
                    <g id="编组-46">
                        <g id="编组-57备份-3">
                            <g id="编组-55">
                                <ellipse id="椭圆形" stroke="url(#linearGradient-1)" stroke-width="3" cx="85.5" cy="157" rx="84" ry="32.5"></ellipse>
                                <ellipse id="椭圆形" fill="#047145" cx="85.5" cy="152" rx="73.5" ry="29"></ellipse>
                                <ellipse id="椭圆形" fill="url(#linearGradient-2)" cx="86" cy="150" rx="65" ry="23"></ellipse>
                                <path d="M151,34 L151,151 L150.939597,151.000588 C149.459139,163.238929 120.951055,173 86,173 C51.0489453,173 22.540861,163.238929 21.0604034,151.000588 L21,151 L21,34 L151,34 Z" id="形状结合" fill="url(#linearGradient-3)" opacity="0.699999988"></path>
                                <ellipse id="椭圆形" fill="url(#linearGradient-4)" cx="86" cy="34" rx="65" ry="23"></ellipse>
                                <ellipse id="椭圆形" stroke="#5EFFBF" stroke-width="6" cx="86" cy="23" rx="62" ry="20"></ellipse>
                            </g>
                            <g id="编组-56" transform="translate(39.000000, 63.000000)" fill="#28DAEF">
                                <circle id="椭圆形" filter="url(#filter-5)" cx="53" cy="6" r="3"></circle>
                                <circle id="椭圆形备份-4" filter="url(#filter-6)" cx="3" cy="3" r="3"></circle>
                                <circle id="椭圆形备份-5" filter="url(#filter-7)" cx="19" cy="20" r="3"></circle>
                                <circle id="椭圆形备份-6" filter="url(#filter-8)" cx="40" cy="20" r="3"></circle>
                                <circle id="椭圆形备份-7" filter="url(#filter-9)" cx="59" cy="39" r="3"></circle>
                                <circle id="椭圆形备份-8" filter="url(#filter-10)" cx="84" cy="23" r="3"></circle>
                                <circle id="椭圆形备份-9" filter="url(#filter-11)" cx="94" cy="3" r="3"></circle>
                                <circle id="椭圆形备份-10" filter="url(#filter-12)" cx="13" cy="45" r="3"></circle>
                                <circle id="椭圆形备份-11" filter="url(#filter-13)" cx="6" cy="57" r="3"></circle>
                                <circle id="椭圆形备份-12" filter="url(#filter-14)" cx="3" cy="79" r="3"></circle>
                                <circle id="椭圆形备份-13" filter="url(#filter-15)" cx="16" cy="89" r="3"></circle>
                                <circle id="椭圆形备份-14" filter="url(#filter-16)" cx="19" cy="79" r="3"></circle>
                                <circle id="椭圆形备份-15" filter="url(#filter-17)" cx="25" cy="60" r="3"></circle>
                                <circle id="椭圆形备份-16" filter="url(#filter-18)" cx="37" cy="42" r="3"></circle>
                                <circle id="椭圆形备份-17" filter="url(#filter-19)" cx="67" cy="57" r="3"></circle>
                                <circle id="椭圆形备份-18" filter="url(#filter-20)" cx="78" cy="42" r="3"></circle>
                                <circle id="椭圆形备份-19" filter="url(#filter-21)" cx="94" cy="54" r="3"></circle>
                                <circle id="椭圆形备份-20" filter="url(#filter-22)" cx="84" cy="79" r="3"></circle>
                                <circle id="椭圆形备份-21" filter="url(#filter-23)" cx="65" cy="72" r="3"></circle>
                                <circle id="椭圆形备份-22" filter="url(#filter-24)" cx="46" cy="73" r="3"></circle>
                                <circle id="椭圆形备份-23" filter="url(#filter-25)" cx="75" cy="86" r="3"></circle>
                                <circle id="椭圆形备份-24" filter="url(#filter-26)" cx="46" cy="86" r="3"></circle>
                                <circle id="椭圆形备份-25" filter="url(#filter-27)" cx="102" cy="85" r="3"></circle>
                                <circle id="椭圆形备份-26" filter="url(#filter-28)" cx="3" cy="29" r="3"></circle>
                            </g>
                        </g>
                        <g id="web/icon/访客" transform="translate(26.000000, 60.000000)">
                            <g id="编组-59">
                                <rect id="矩形备份-4" fill-opacity="0.01" fill="#FFFFFF" x="0" y="0" width="120" height="120"></rect>
                                <g id="编组-21" transform="translate(23.000000, 26.000000)">
                                    <ellipse id="椭圆形" fill="#1D2121" opacity="0.300000012" filter="url(#filter-29)" cx="37" cy="51" rx="37" ry="17"></ellipse>
                                    <g id="编组-11" transform="translate(4.375000, 0.000000)">
                                        <path d="M16.8369471,1.98951966e-13 L57.544548,1.98951966e-13 L57.544548,1.98951966e-13 L62.1487539,1.98951966e-13 L62.1487539,39.781528 C62.1487522,45.8787507 57.2059766,50.8215263 51.1087539,50.8215263 C50.2261234,50.8215263 49.3466776,50.7156803 48.4892526,50.5062553 C44.0410213,49.4197803 39.6621999,48.612907 35.3527883,48.0856352 C26.7005932,47.0270085 17.7686461,47.0270085 8.55694707,48.0856352 L8.55694707,8.28 C8.55694707,3.70708227 12.2640293,2.01568354e-13 16.8369471,1.98951966e-13 Z" id="矩形" fill="url(#linearGradient-30)"></path>
                                        <path d="M8.28,0.375 L48.987601,0.375 L48.987601,0.375 L53.5918068,0.375 L53.5918068,55.2050747 C53.5918081,62.8266049 47.4133371,69.0050759 39.7918068,69.0050759 C38.505459,69.0050759 37.2254284,68.8252225 35.988888,68.4707387 C32.8902244,67.582433 29.8258755,66.8838534 26.7958412,66.375 C18.1436461,64.9219806 9.21169907,64.9219806 3.18678417e-12,66.375 L3.18678417e-12,8.655 C3.18622415e-12,4.08208227 3.70708227,0.375 8.28,0.375 Z" id="矩形" fill="url(#linearGradient-31)"></path>
                                        <path d="M38.19375,40.5059275 L32.23125,38.1750559 C32.23125,38.1750559 31.10625,37.7257312 30.65625,37.3044894 C30.375,37.0236615 30.403125,36.3777573 30.65625,35.5352735 C30.909375,34.6927898 33.975,31.2666893 33.975,28.1775824 C33.975,23.3754251 30.825,19.5 26.94375,19.5 C23.0625,19.5 19.9125,23.3754251 19.9125,28.1775824 C19.9125,31.1543582 22.640625,34.6927898 22.978125,35.338694 C23.315625,35.9845982 23.23125,36.9674959 22.978125,37.2483238 C22.584375,37.6976484 21.121875,38.1469731 21.121875,38.1469731 L15.75,40.5340103 C14.484375,40.983335 13.5,42.1628122 13.5,43.5107861 L13.5,45.2519192 C13.5,46.7122243 14.68125,46.4875619 16.14375,46.4875619 L37.85625,46.4875619 C39.31875,46.4875619 40.5,46.7122243 40.5,45.2519192 L40.5,43.5107861 C40.44375,42.190895 39.459375,40.9552522 38.19375,40.5059275 L38.19375,40.5059275 Z" id="形状-copy" fill="url(#linearGradient-32)"></path>
                                    </g>
                                </g>
                            </g>
                        </g>
                    </g>
                </g>
            </g>
        </g>
    </g>
</svg>