<svg id="图层_1" data-name="图层 1" xmlns="http://www.w3.org/2000/svg" viewBox="0 0 160 72"><defs><style>.cls-1{opacity:0.4;}.cls-2{fill:#0af;}.cls-3{fill:#00b1ff;}.cls-4{fill:#41d0cf;}.cls-5{fill:#0d85ff;}.cls-6{fill:#41d098;}.cls-7{fill:#7dbffb;}</style></defs><title>画板 5 副本 19</title><g class="cls-1"><path class="cls-2" d="M116.05,17.08V10.83h-.48l-1.68,1.92a.87.87,0,0,1-.72.25h-.72c-.24,0-.72-.25-.72-.49l-1.2-1c-.24-.25-.49-.49-.72-.49h-1.45a1.82,1.82,0,0,1-1-.48l-2.64-3.85c-.24-.24-.49-.49-.72-.49L102.36,6h-.49L99.23,7V8.41l-.48,3.13a.79.79,0,0,1-.25.47L98,12.5a.9.9,0,0,1-.72.24h-.49c-.48,0-1,.24-1,.72l-.49,1.2a1.07,1.07,0,0,0,1,1.45h1.2l1-.72.72.49a1.05,1.05,0,0,1-.49,1.68l-2.16.72v1.45H94.39l-.48,1.44L92,20.93a1.24,1.24,0,0,0-1,.49l-.48.72.71.71L89.33,25a.89.89,0,0,1-.72.24H85.73a.84.84,0,0,0-.72.25l-.72.72a.89.89,0,0,1-.72.24H81.43a.86.86,0,0,1-.72-.24L79.26,25c-.24,0-.24-.24-.49-.24l-5.29-.25c-.24,0-.49-.24-.72-.48L69.88,20.2c-.25-.24-.49-.48-.72-.48h-.24a1,1,0,0,1-1-1V17.08l-.24-1.44c0-.25-.24-.49-.49-.72H65.54a.52.52,0,0,1-.48-.49L64.58,13h-1.2l-.72,1H61.45v1.2h-2.4c-.25,0-.72.24-.72.49l-.95,1.44a1.26,1.26,0,0,1-1,.49h-1.2a1,1,0,0,0-1,1V20c0,.24,0,.49-.24.49l-.72,1.2c-.25.24-.25.49-.72.49l-2.64.72H45.84c-.25,0-.49.24-.72.24l-.72,1c-.49.72-.49,1-.49,1.2v1.21h1v3.85c0,.24.24.48.47.71L47,32.5c.24.25.24.25.24.49l.49,1.68V37.8h-1v1.92c0,.24.24.49.24.72l2.17,1.92h1.2l5.05,5,4.09,1.68.72-1h1.45a1.21,1.21,0,0,1,1,.49l.72,1.44a1.23,1.23,0,0,0,1,.48h1.21c.24,0,.24,0,.48-.24l2.41-1.45a.73.73,0,0,1,1,0l2.17,1v-1h1.2l.49,1.45v2.16a.86.86,0,0,1-.24.72l-1.23,1.17v1.21l1,.24a.77.77,0,0,1,.72.72l.24.72v1.69l2.41,1.68a.78.78,0,0,0,.49.24h.49a1,1,0,0,0,1-1,1,1,0,0,1,1-1h2.39a.88.88,0,0,0,.72-.24l.71-.49a1.14,1.14,0,0,1,1.45.24L86,60.37c.24.24.48.48.72.48h2.88l.25,1.21L88.16,64v1.21l1.2.71a1.15,1.15,0,0,0,1.45-.48L92,63.74a.87.87,0,0,0,.25-.72L92,61.34c0-.49.25-1.2.72-1.2l1.68-.49h.49l1,.24,1.21-.48.24-1.21a.77.77,0,0,1,.72-.72L99.48,57c.24,0,.24,0,.48-.25l4.57-4.09c.24-.24.24-.24.24-.48l.72-3.61c0-.24.24-.48.48-.71l1.21-.72a1.83,1.83,0,0,0,.47-1l-.47-4.34c0-.24-.24-.48-.49-.72l-1-.71c-.24-.25-.49-.49-.49-.72l-.24-1c0-.25-.24-.48-.48-.72l-1.68-1.45c-.49-.24-.49-1-.25-1.45l1-1.68c0-.24.25-.24.49-.48l1.92-.72V31H104a1.9,1.9,0,0,0-1,.48l-.72,1-.72.72L101.4,32l-1.68-.48,4.09-5.3.48.72v1.47c0,.24,0,.72.25.72l.24.24a1.5,1.5,0,0,0,1.45,0L109.6,26c.24-.24.24-.48.24-1l-.24-1,2.16-.24c.25,0,.49-.25.72-.25l1.93-1.92a1.06,1.06,0,0,0,.24-1.2l-1.21-2.65,1-1h1.68v.24ZM104.27,56.76c0,.25-.24.25-.24.49v1.92a.86.86,0,0,0,.24.72l1,1.45.72-1c0-.24.25-.24.25-.49l.48-5h-1.2l-1.21,1.92Z"/></g><path class="cls-3" d="M58.26,40.62a1,1,0,1,0,1-1A1,1,0,0,0,58.26,40.62Z"/><path class="cls-3" d="M91,33a4.91,4.91,0,0,0,5,5,5.12,5.12,0,0,0,5-5,4.91,4.91,0,0,0-5-5A5,5,0,0,0,91,33Z"/><path class="cls-3" d="M104,55.47a1.81,1.81,0,1,0,1.81-1.81A1.76,1.76,0,0,0,104,55.47Z"/><path class="cls-4" d="M64.24,47.16a2.5,2.5,0,1,0,2.5-2.5A2.49,2.49,0,0,0,64.24,47.16Z"/><path class="cls-5" d="M105.21,24.91a2.89,2.89,0,0,0,2.87,2.89h0A2.89,2.89,0,0,0,111,24.93v0a2.88,2.88,0,0,0-2.87-2.9h0a2.9,2.9,0,0,0-2.9,2.87Z"/><path class="cls-6" d="M92.09,44.49a2,2,0,1,0,2-2C92.89,42.3,92.09,43.3,92.09,44.49Z"/><path class="cls-5" d="M99.88,44a3.37,3.37,0,0,0,3.5,3.5,3.55,3.55,0,0,0,3.5-3.5,3.5,3.5,0,1,0-7,0Z"/><path class="cls-5" d="M86.27,37.25a1.5,1.5,0,1,0,1.5-1.5A1.44,1.44,0,0,0,86.27,37.25Z"/><path class="cls-7" d="M93.4,54.66a2,2,0,0,0,2,2h0a2,2,0,0,0,2-2v0a2,2,0,0,0-2-2h0a2,2,0,0,0-2,2Z"/></svg>