<svg id="图层_1" data-name="图层 1" xmlns="http://www.w3.org/2000/svg" viewBox="0 0 160 72"><defs><style>.cls-1{fill:#00b1ff;}.cls-2{fill:#0af;opacity:0.4;}</style></defs><title>画板 5 副本 2</title><path class="cls-1" d="M80,69a1,1,0,0,1-.59-.16L51.86,53a1.09,1.09,0,0,1-.59-1V20.05a1.13,1.13,0,0,1,.59-1L79.41,3.15a1.24,1.24,0,0,1,1.18,0L108.15,19a1.1,1.1,0,0,1,.58,1V51.9a1.14,1.14,0,0,1-.58,1L80.59,68.84A1,1,0,0,1,80,69ZM53.61,51.24,80,66.46l26.39-15.22V20.79L80,5.57,53.61,20.79Z"/><path class="cls-2" d="M79.77,10.33,101.43,23.8l-7,19.9L79.77,46.91,57.55,49,61,25.55Z"/><path class="cls-1" d="M79.77,20.28l14,8.16,6.44,18.78L79.77,55.38,65.71,43.7,67.47,29l12.3-8.75Z"/></svg>