<svg id="图层_1" data-name="图层 1" xmlns="http://www.w3.org/2000/svg" viewBox="0 0 160 72"><defs><style>.cls-1{fill:#00b1ff;}.cls-2{fill:#00dccd;}</style></defs><title>画板 5 副本 9</title><path class="cls-1" d="M110.41,26.52a33.67,33.67,0,0,0-7.07-10.68,32.6,32.6,0,0,0-46.68,0,34,34,0,0,0,2.12,49.49l.12.11a2.38,2.38,0,0,0,1.52.56H99.59a2.33,2.33,0,0,0,1.51-.56l.13-.11A33.79,33.79,0,0,0,113,39.6,34.13,34.13,0,0,0,110.41,26.52Zm-12,33.78H61.63a28.25,28.25,0,0,1-1-40.43,27,27,0,0,1,38.74,0,28.25,28.25,0,0,1-1,40.43Z"/><path class="cls-1" d="M88.21,29.21a.59.59,0,0,0-.83,0l-6.22,6.34a4.06,4.06,0,0,0-4,1.09,4.25,4.25,0,0,0,0,5.93h0a4.07,4.07,0,0,0,5.83,0h0a4.24,4.24,0,0,0,1.07-4.06l6.23-6.34a.63.63,0,0,0,0-.85l-2.09-2.12Z"/><path class="cls-2" d="M78.38,21.6h3.24a.59.59,0,0,0,.59-.6V15a.59.59,0,0,0-.59-.6H78.38a.59.59,0,0,0-.59.6v6A.6.6,0,0,0,78.38,21.6ZM97.53,38v3.3a.6.6,0,0,0,.59.6H104a.59.59,0,0,0,.59-.6V38a.59.59,0,0,0-.59-.6H98.12A.6.6,0,0,0,97.53,38Zm.94-14.79-2.29-2.33a.6.6,0,0,0-.84,0l-4.17,4.24a.63.63,0,0,0,0,.85l2.29,2.33a.58.58,0,0,0,.84,0L98.47,24A.61.61,0,0,0,98.47,23.16ZM64.69,20.83a.58.58,0,0,0-.84,0l-2.29,2.33a.61.61,0,0,0,0,.85l4.17,4.24a.57.57,0,0,0,.83,0l2.29-2.33a.61.61,0,0,0,0-.85l-4.16-4.24ZM61.58,37.35H55.69a.61.61,0,0,0-.59.6v3.3a.6.6,0,0,0,.59.6h5.89a.59.59,0,0,0,.59-.6V38A.59.59,0,0,0,61.58,37.35Z"/></svg>