<svg id="图层_1" data-name="图层 1" xmlns="http://www.w3.org/2000/svg" viewBox="0 0 160 72"><defs><style>.cls-1{fill:#00b1ff;}.cls-2{fill:#495fa9;}.cls-3{fill:#0af;}.cls-4{fill:#00dccd;}.cls-5{fill:#41d098;}.cls-6{fill:#7dbffb;}.cls-7{fill:#fda557;}.cls-8{fill:#41d0cf;}.cls-9{fill:#64d7ff;}.cls-10{fill:#8ae6ff;}</style></defs><title>画板 5 副本 25</title><path class="cls-1" d="M96.63,57a1.75,1.75,0,0,0-2.47-.22,30.56,30.56,0,0,1-4.86,3.26,1.77,1.77,0,0,0,1.63,3.14,30.49,30.49,0,0,0,5.48-3.67A1.76,1.76,0,0,0,96.63,57s0,0,0,0Z"/><path class="cls-2" d="M99.37,33.36a.73.73,0,0,0-.75.71.73.73,0,0,0,.7.75.73.73,0,0,0,.75-.71A.66.66,0,0,0,99.37,33.36Z"/><circle class="cls-3" cx="105.2" cy="59.07" r="1.46"/><path class="cls-4" d="M66.64,68a.93.93,0,1,0,.88.93.93.93,0,0,0-.84-.93Z"/><path class="cls-5" d="M81.26,68.48a1.08,1.08,0,0,0,0,2.16,1.06,1.06,0,0,0,1.06-1.1A1.14,1.14,0,0,0,81.26,68.48Z"/><path class="cls-2" d="M108.07,17.77a.71.71,0,1,0,.7.71.67.67,0,0,0-.7-.71Z"/><path class="cls-6" d="M70.57,3.46A1.08,1.08,0,0,0,71.68,2.4a1.15,1.15,0,0,0-1.11-1.1,1.08,1.08,0,1,0,0,2.16Z"/><path class="cls-7" d="M29.67,23.91a.64.64,0,0,1-.64-.65,1.18,1.18,0,0,0-1-1.18,1.14,1.14,0,0,0-1.24,1.12v.06a.65.65,0,0,1-.64.65,1.17,1.17,0,0,0-1.19,1,1.14,1.14,0,0,0,1.13,1.24h.06a.64.64,0,0,1,.64.64,1.17,1.17,0,0,0,1,1.18A1.13,1.13,0,0,0,29,26.86V26.8a.64.64,0,0,1,.64-.64h.06a1.14,1.14,0,0,0,1.13-1.24A1.17,1.17,0,0,0,29.67,23.91Z"/><path class="cls-8" d="M128.44,7.52a.86.86,0,0,1-.86-.87,1.59,1.59,0,0,0-1.38-1.6,1.53,1.53,0,0,0-1.67,1.52v.08a.86.86,0,0,1-.87.87,1.58,1.58,0,0,0-1.6,1.37,1.54,1.54,0,0,0,1.52,1.68h.08a.86.86,0,0,1,.87.87A1.59,1.59,0,0,0,125.9,13a1.54,1.54,0,0,0,1.68-1.52v-.08a.86.86,0,0,1,.86-.87h.09a1.54,1.54,0,0,0,1.52-1.68A1.6,1.6,0,0,0,128.44,7.52Z"/><path class="cls-1" d="M49.88,60.78a.64.64,0,0,1-.65-.65,1.19,1.19,0,0,0-1-1.2,1.15,1.15,0,0,0-1.26,1.14v.06a.65.65,0,0,1-.65.65,1.19,1.19,0,0,0-1.2,1,1.15,1.15,0,0,0,1.14,1.26h.06a.65.65,0,0,1,.65.65,1.18,1.18,0,0,0,1,1.2,1.15,1.15,0,0,0,1.26-1.14v-.06a.64.64,0,0,1,.65-.65h.06a1.15,1.15,0,0,0,1.14-1.26A1.2,1.2,0,0,0,49.88,60.78Z"/><path class="cls-1" d="M110,36A30,30,0,1,0,76.27,65.72a14.64,14.64,0,0,0,3.06.28c.34,0,.67,0,1,0A30,30,0,0,0,110,36Zm-4.29.42a29.79,29.79,0,0,0-.58-4.38c0-.51,0-1,0-1.44a26,26,0,0,1,.56,5.4ZM54.29,36a26.39,26.39,0,0,1,.54-5.3c1.11,1.18,3.73,1.16,4.37-.62,1.14.68,2.68.81,2.68,2.17,0,4.49.16,9.3,4.24,9.37a5.87,5.87,0,0,1,3.3,3.49c.36.92,1.76,0,3.3,0,.77,0,0,1.3,0,4.1s6,7.09,6,7.09a31.13,31.13,0,0,0,.2,4.54,10.41,10.41,0,0,0-3.41.46A25.69,25.69,0,0,1,54.29,36Zm32,24.9c-.13-.65-.72-1-1.78-.73.85-3.61,1.26-5.64,3-7.17,2.57-2.23.31-4.7-1.64-4.41-1.54.23-.57-1.9-1.94-2s-3.17-2.85-5.14-3.78c-1-.5-2.08-1.83-3.69-1.89-1.44-.06-3.53,1.21-3.53.23a62.62,62.62,0,0,0-.38-6.28c-.05-.72-.47-.24,1.46-.2,1.06,0,.54-2.11,1.58-2.2s3.47,1,4.09.55,4.25,9.62,4.25,1.65c0-.94-.49-2.59,0-3.48,1.93-3.54,3.75-6.43,3.58-6.85-.09-.24-2-.43-3.49.07-.51.17.16,1-.57,1.14-2.75.64-5.17-.74-4.32-2s4-.58,4.29-3.23c.16-1.52.3-3.29.38-4.59,3.7.57,3.29-4.8-2.2-5.38a25.73,25.73,0,0,1,24,17.28,1,1,0,0,0-.61-.28c-1.66-4.15-5.7-1.15-4.33,2.51-7.33,5.63-5.45,9.56-3,11.81a22.69,22.69,0,0,1,3.26,4.24c-.86,2.5,3.15,1.5,5.13-2.74A25.71,25.71,0,0,1,86.33,60.88Z"/><path class="cls-9" d="M118.91,30.31c-.37-2.08-1.76-3.85-4.15-5.28a1.51,1.51,0,0,0-1.55,2.6c1.6,1,2.51,2,2.72,3.2.4,2.28-1.86,5.14-6.24,8-1,.66-2.14,1.31-3.37,2-6,3.13-14.5,6-24.72,7.84a89.82,89.82,0,0,1-25.08,1.19c-.63-.07-1.24-.15-1.84-.25s-1.35-.22-2-.35c-5.53-1.14-9-3.15-9.43-5.54-.34-2,1.38-4,2.88-5.42A1.52,1.52,0,1,0,44.08,36,13.78,13.78,0,0,0,41,39.87a6.77,6.77,0,0,0-.73,4.29c.39,2.22,1.94,4.08,4.61,5.54a29,29,0,0,0,9.33,2.83l.55.08c1.33.19,2.72.33,4.18.44,1.69.12,3.44.18,5.26.18a104.44,104.44,0,0,0,17.91-1.66,96,96,0,0,0,23.07-6.89c1.22-.56,2.39-1.15,3.48-1.75l.28-.16a28.37,28.37,0,0,0,7.52-5.69c2-2.28,2.82-4.56,2.44-6.77Z"/><path class="cls-10" d="M82,26.35a6.53,6.53,0,1,0,3.45,8.57A6.53,6.53,0,0,0,82,26.35Zm1,7.54A3.92,3.92,0,1,1,81,28.75,3.92,3.92,0,0,1,83,33.89Z"/><path class="cls-8" d="M94.61,15.18a4.24,4.24,0,1,0,2.24,5.57A4.25,4.25,0,0,0,94.61,15.18Zm-.16,4.55a1.63,1.63,0,1,1-.86-2.15A1.64,1.64,0,0,1,94.45,19.73Z"/><path class="cls-10" d="M99.05,34.08a2.93,2.93,0,1,0,1.55,3.85A2.93,2.93,0,0,0,99.05,34.08Zm-1.28,3a.33.33,0,1,1,.43-.17A.33.33,0,0,1,97.77,37.08Z"/></svg>