<svg id="图层_1" data-name="图层 1" xmlns="http://www.w3.org/2000/svg" viewBox="0 0 160 72"><defs><style>.cls-1{fill:#50d6ff;}.cls-2{fill:#0af;opacity:0.2;}.cls-3{fill:#00b1ff;}.cls-4{fill:#fda557;}.cls-5{fill:#41d0cf;}.cls-6{fill:#7dbffb;}.cls-7{fill:#00dccd;}.cls-8{fill:#8ae6ff;}</style></defs><title>画板 5 副本 24</title><path class="cls-1" d="M80,6a30,30,0,1,0,30,30A30,30,0,0,0,80,6Zm2.56,2.13S84.44,7,85.1,7.69s2.94-.11,8.82,3.38c0,0-1.29,1.38-1.58,1.3.17.3.68,1.21,1,1.78s.54.73.54.73l-.43.66.43.11c-.43-.11-.65,1.19-1.28,1.41s.19,1.42,0,1.64.1,2.18,0,3.33-.55.16-1.09,0-1.42-.5-1.5-.83a3.91,3.91,0,0,1,0-1.85c.22-.54-.65-1.09-1.09-1.49s-2.18.07-2.51,0-.54-1-.54-1.89,1.52.11,2.38,0,1-2.28,1-2.28l0-1.85c-.35-.14-.41-.32.16-.55,0,0-1.86-.44-2.29.54s-.66.89-.77,1.86-1.81.12-2.21,0-1.49-1.42-1.49-1.42c.33-.77.54-1.31.54-1.31l-.57-1.31V8.13ZM65.37,18.26c.18-.25,1.41-2.4,2.94-1.74a2.12,2.12,0,0,0,2.51-.77s2.24-2.28,2.37-2l.13.33c-.13-.33,1.86-.87,2.07.22A2.72,2.72,0,0,0,76.92,16a3.91,3.91,0,0,0-.54,2.28c.21,1,1,1.2.54,2.07s-1.31,1.2-1.53,1.64-2-1.42-2.2-2.07a1.78,1.78,0,0,0-2-1.09c-.83.21-3,.76-3.44.54S64.86,18.94,65.37,18.26ZM94.58,50.31c-.87,2.28-3,6.21-4,7.3s-2.39,3.16-3.37,3.92-1,2.18-2.18,2.07-2.62-3.49-2.29-4.36-6-2.4-6-2.4-2.72-.32-3.27-5.55c-.09-.93-.16-1.6-.19-2-.82-.37-4-1.7-6-1.22-2.29.54-2.83-.73-4.79-1l-3.38-3.13s-5.56-6.43-4.91-7.52.66-4,.76-4.68-.87-4.8-.81-5.34a11.66,11.66,0,0,0-.82-2.62s2.07-4.36,2.4-4.36,1.52,3.71,2.72,3.82,4.47-.11,5-.66.93-1.2,1.47-1.2.55-.32,1.53.11a6.43,6.43,0,0,1,2.51,1.75c.43.65-.33,2,2,2s2.29-.55,2.61,1,.72,4.9-.24,5.12-3.79,3.54-3.57,4.6a6.94,6.94,0,0,1-.22,3.68c-.44,1-.76,1.31-2.4,1.2s-3-1-3.47.33-1.32,4.26.2,4c0,0,2.4-.73,3.27,0a61.09,61.09,0,0,0,6.43,3.13,11.28,11.28,0,0,1,12.86-2L87.6,47l2.18-.48s2.84-.83,3.82-.61l1,.21v-.43a7.12,7.12,0,0,1,0,4.58Zm12.75-12.43a4.2,4.2,0,0,1-.65-2c0-1-.77-.93-.77-2.24s-1-.87-1.63-1.74-1,.32-1.53.43-.43,1-1,2-2,1.69-2.4,1.49a9.33,9.33,0,0,1-2.18-2c-.11-.33-2.29-2.18-2.22-2.62a16.67,16.67,0,0,0-1-3.81c-.43-1.09,0-5.39,0-5.39-.65-.37,6-3.11,5.13-3.44s-1.31-3.93-1.31-3.93l3.17,1.64c3.17,1.63,7.18,14.6,7.18,14.6v3.71l-.76,3.27Z"/><ellipse class="cls-2" cx="80" cy="60.5" rx="62" ry="7.5"/><path class="cls-3" d="M119.31,31.28c-.36-2.07-1.75-3.85-4.14-5.27a1.51,1.51,0,1,0-1.55,2.6,5.08,5.08,0,0,1,2.72,3.19c.4,2.28-1.87,5.14-6.24,8a38.33,38.33,0,0,1-3.38,2c-6,3.13-14.49,6-24.71,7.83a89.55,89.55,0,0,1-25.09,1.2c-.62-.08-1.23-.15-1.83-.25s-1.36-.23-2-.36c-5.53-1.13-9-3.15-9.43-5.53-.35-2,1.37-4,2.87-5.42a1.52,1.52,0,0,0-2-2.24,14.16,14.16,0,0,0-3.08,3.88,6.86,6.86,0,0,0-.72,4.3c.38,2.21,1.94,4.08,4.61,5.54a28.89,28.89,0,0,0,9.33,2.82l.54.09c1.34.19,2.73.33,4.18.44,1.69.12,3.45.18,5.26.18a104.46,104.46,0,0,0,17.92-1.66,95.82,95.82,0,0,0,23.07-6.9c1.22-.56,2.39-1.14,3.48-1.75l.28-.16a28.34,28.34,0,0,0,7.51-5.68c2-2.29,2.83-4.57,2.44-6.78Z"/><path class="cls-4" d="M121.67,8.91a.64.64,0,0,1-.64-.65,1.18,1.18,0,0,0-1-1.18,1.14,1.14,0,0,0-1.24,1.12v.06a.65.65,0,0,1-.64.65,1.17,1.17,0,0,0-1.19,1,1.14,1.14,0,0,0,1.13,1.24h.06a.64.64,0,0,1,.64.64,1.17,1.17,0,0,0,1,1.18A1.13,1.13,0,0,0,121,11.86V11.8a.64.64,0,0,1,.64-.64h.06a1.14,1.14,0,0,0,1.13-1.24A1.17,1.17,0,0,0,121.67,8.91Z"/><path class="cls-5" d="M35.44,33.52a.86.86,0,0,1-.86-.87,1.59,1.59,0,0,0-1.38-1.6,1.53,1.53,0,0,0-1.67,1.52v.08a.86.86,0,0,1-.87.87,1.58,1.58,0,0,0-1.6,1.37,1.54,1.54,0,0,0,1.52,1.68h.08a.86.86,0,0,1,.87.87A1.59,1.59,0,0,0,32.9,39a1.54,1.54,0,0,0,1.68-1.52v-.08a.86.86,0,0,1,.86-.87h.09a1.54,1.54,0,0,0,1.52-1.68A1.6,1.6,0,0,0,35.44,33.52Z"/><path class="cls-3" d="M118.88,51.78a.64.64,0,0,1-.65-.65,1.19,1.19,0,0,0-1-1.2,1.15,1.15,0,0,0-1.26,1.14v.06a.65.65,0,0,1-.65.65,1.19,1.19,0,0,0-1.2,1,1.15,1.15,0,0,0,1.14,1.26h.06a.65.65,0,0,1,.65.65,1.18,1.18,0,0,0,1,1.2,1.15,1.15,0,0,0,1.26-1.14v-.06a.64.64,0,0,1,.65-.65h.06a1.15,1.15,0,0,0,1.14-1.26A1.2,1.2,0,0,0,118.88,51.78Z"/><path class="cls-6" d="M50.35,14.05A1.08,1.08,0,0,0,51.45,13a1.15,1.15,0,0,0-1.1-1.11,1.09,1.09,0,1,0,0,2.17Z"/><path class="cls-7" d="M54.12,12.05A.87.87,0,0,0,55,11.2a.91.91,0,0,0-.88-.87.85.85,0,0,0-.87.84A.87.87,0,0,0,54.12,12.05Z"/><path class="cls-3" d="M95.78,32.75H93.6L92.15,11.44H97Z"/><path class="cls-8" d="M95.3,30.36a2.93,2.93,0,1,0,1.55,3.85A2.94,2.94,0,0,0,95.3,30.36Zm-1.28,3a.33.33,0,0,1,.25-.6.33.33,0,0,1,.18.43A.32.32,0,0,1,94,33.36Z"/><path class="cls-3" d="M95.41,32.15l-1.93-1.21L105.59,8.3l4.11,2.42Z"/><path class="cls-3" d="M96.26,31.67,94.45,33,85,23.43l3.75-3Z"/><path class="cls-3" d="M94.81,33l-1.09-1.94,18.53-12.71,2.54,4.11Z"/><path class="cls-3" d="M94.69,33.12l-.12-2.3,16.22-2.66.37,4.84Z"/></svg>