<svg id="图层_1" data-name="图层 1" xmlns="http://www.w3.org/2000/svg" viewBox="0 0 160 72"><defs><style>.cls-1,.cls-2{fill:#0af;}.cls-1{opacity:0.4;}.cls-2{opacity:0.3;}.cls-3{fill:#00b1ff;}.cls-4{fill:#fff;}.cls-5{fill:#0d85ff;}</style></defs><title>画板 5 副本 20</title><path class="cls-1" d="M31,28H87V65H31Z"/><polygon class="cls-2" points="87 54 87 65 61 54 87 54"/><path class="cls-3" d="M62.68,19h64.23V52.86H62.68Z"/><path class="cls-4" d="M110.59,51.73,97.64,42H79.3l-8-6,7.42-5.46,3.2,2.4h19.5l22.27,13.1-2,1.53L100.26,35.14H80.61l-1.89-1.42L75.52,36l5.09,3.82H98.8L112.63,50.2Z"/><path class="cls-4" d="M102.31,52.33,96,47.57h-19L63,37l2.12-1.59L78.26,45.3h18.9l7.26,5.45ZM68.13,33.84,63,30l2.12-1.7,3,2.27,3.17-2.38L63,21.81l2.12-1.58,10.59,7.94Zm55.5,7.26L104.12,30.21H83.7L69.79,19.77l2.12-1.59,13.15,9.76h20.27l20.42,11.57ZM105,19.74l2.14-1.6,18.57,10.19-2.14,1.6Z"/><path class="cls-3" d="M129,54H61V18h68ZM64.16,51.65h61.68V20.35H64.16v31.3Z"/><path class="cls-5" d="M94.25,6A11.69,11.69,0,0,0,82.54,17.61c0,10,9.95,11.32,10.83,21.48a.88.88,0,0,0,1.75,0C96,28.93,106,27.57,106,17.61A11.76,11.76,0,0,0,94.25,6Z"/><path class="cls-4" d="M98,17.71A3.71,3.71,0,1,1,94.25,14,3.64,3.64,0,0,1,98,17.71Z"/></svg>