<svg id="图层_1" data-name="图层 1" xmlns="http://www.w3.org/2000/svg" viewBox="0 0 160 72"><defs><style>.cls-1,.cls-5,.cls-9{fill:#0af;}.cls-1{opacity:0.2;}.cls-2{fill:#fda557;}.cls-3{fill:#41d0cf;}.cls-4{fill:#00b1ff;}.cls-5{opacity:0.3;}.cls-6{fill:#e5f1f9;}.cls-7{fill:#ffdba0;}.cls-8{fill:#282f63;}.cls-9{opacity:0.5;}.cls-10{fill:#fff;}.cls-11{fill:#0d85ff;}.cls-12{fill:#45cfff;}</style></defs><title>画板 5 副本 23</title><ellipse class="cls-1" cx="80" cy="60" rx="62" ry="7.5"/><path class="cls-2" d="M37.2,7.66A.64.64,0,0,1,36.56,7a1.18,1.18,0,0,0-1-1.19A1.14,1.14,0,0,0,34.3,7V7a.64.64,0,0,1-.64.64,1.17,1.17,0,0,0-1.18,1A1.13,1.13,0,0,0,33.6,9.91h.06a.64.64,0,0,1,.64.64,1.18,1.18,0,0,0,1,1.19,1.14,1.14,0,0,0,1.24-1.13v-.06a.64.64,0,0,1,.64-.64h.06a1.13,1.13,0,0,0,1.12-1.24A1.17,1.17,0,0,0,37.2,7.66Z"/><path class="cls-3" d="M131,18.27a.86.86,0,0,1-.87-.86,1.6,1.6,0,0,0-1.37-1.61,1.54,1.54,0,0,0-1.68,1.52v.09a.86.86,0,0,1-.87.86,1.6,1.6,0,0,0-1.6,1.38,1.53,1.53,0,0,0,1.52,1.67h.08a.86.86,0,0,1,.87.87,1.58,1.58,0,0,0,1.38,1.6,1.53,1.53,0,0,0,1.67-1.52v-.08a.86.86,0,0,1,.87-.87h.08a1.53,1.53,0,0,0,1.52-1.67A1.59,1.59,0,0,0,131,18.27Z"/><path class="cls-4" d="M109.4,59.53a.65.65,0,0,1-.65-.65,1.19,1.19,0,0,0-1-1.2,1.16,1.16,0,0,0-1.26,1.14v.06a.64.64,0,0,1-.65.65,1.2,1.2,0,0,0-1.2,1,1.15,1.15,0,0,0,1.14,1.25h.06a.65.65,0,0,1,.65.65,1.19,1.19,0,0,0,1,1.2,1.14,1.14,0,0,0,1.25-1.14v-.06a.66.66,0,0,1,.65-.65h.06a1.14,1.14,0,0,0,1.14-1.25A1.19,1.19,0,0,0,109.4,59.53Z"/><path class="cls-5" d="M92.62,58.12a1.06,1.06,0,0,1-.51-.14,1,1,0,0,1-.51-.89V43.53a1,1,0,0,1,.52-.89L104,35.88a1,1,0,0,1,1,0,1,1,0,0,1,.51.88V50.22a1,1,0,0,1-.51.89L93.15,58a1.13,1.13,0,0,1-.53.14Z"/><path class="cls-4" d="M104.52,36.77V50.23l-11.9,6.86V43.53l11.9-6.76m0-2.06a2,2,0,0,0-1,.27L91.61,41.74a2,2,0,0,0-1,1.78V57.08a2.06,2.06,0,0,0,1,1.78,2.09,2.09,0,0,0,1,.27,2.11,2.11,0,0,0,1-.27L105.55,52a2,2,0,0,0,1-1.78V36.77a2.07,2.07,0,0,0-2.07-2.06Z"/><path class="cls-6" d="M92.62,44.56a1,1,0,0,1-.51-.14,1,1,0,0,1-.52-.88V29.77a1,1,0,0,1,.52-.9L104,22.12a1,1,0,0,1,.52-.14,1,1,0,0,1,.52.14,1,1,0,0,1,.51.88V36.76a1,1,0,0,1-.52.9l-11.9,6.76a.91.91,0,0,1-.51.14Z"/><path class="cls-4" d="M104.52,23V36.77l-11.9,6.76V29.77L104.52,23m0-2.06a2.13,2.13,0,0,0-1,.27L91.61,28a2.07,2.07,0,0,0-1,1.79V43.53a2.07,2.07,0,0,0,1,1.78,2.08,2.08,0,0,0,2,0l11.89-6.76a2.07,2.07,0,0,0,1-1.79V23a2.07,2.07,0,0,0-1-1.78A2.1,2.1,0,0,0,104.52,21Z"/><path class="cls-7" d="M91.07,31.14a1,1,0,0,1-.51-.13l-.3-.18a1,1,0,0,1-.52-.89,1,1,0,0,1,.52-.9l.3-.17a1,1,0,0,1,.51-.14,1,1,0,0,1,.52.14,1,1,0,0,1,.52.88v.35a1,1,0,0,1-.52.88A.84.84,0,0,1,91.07,31.14Z"/><path class="cls-8" d="M91.07,29.77v.34l-.3-.17.3-.17m0-2.06a2,2,0,0,0-1,.27l-.31.18a2,2,0,0,0-1,1.78,2.07,2.07,0,0,0,1,1.79l.31.18a2.11,2.11,0,0,0,1,.26,2,2,0,0,0,1-.28,2.07,2.07,0,0,0,1-1.78v-.34a2.06,2.06,0,0,0-2.06-2.06Z"/><path class="cls-7" d="M79.22,51.3a1.1,1.1,0,0,1-.52-.14,1,1,0,0,1-.51-.89V50a1,1,0,0,1,.51-.88,1.07,1.07,0,0,1,.52-.14,1,1,0,0,1,.51.14l.29.16a1,1,0,0,1,.51.89A1,1,0,0,1,80,51l-.29.16A1.13,1.13,0,0,1,79.22,51.3Z"/><path class="cls-8" d="M79.22,50l.28.16-.28.16V50m0-2.05a2,2,0,0,0-1,.28,2.07,2.07,0,0,0-1,1.78v.32a2,2,0,0,0,1,1.78,2.13,2.13,0,0,0,1,.28,2.18,2.18,0,0,0,1-.26l.28-.16a2.06,2.06,0,0,0,0-3.58l-.28-.16A1.89,1.89,0,0,0,79.22,47.9Z"/><path class="cls-5" d="M67.34,58.11a1.06,1.06,0,0,1-.51-.14L55,51.11a1,1,0,0,1-.51-.89V36.45a1,1,0,0,1,1-1,1,1,0,0,1,.51.13l11.86,6.75a1,1,0,0,1,.52.89V57.08a1,1,0,0,1-.51.89,1.07,1.07,0,0,1-.52.14Z"/><path class="cls-4" d="M55.47,36.45,67.34,43.2V57.08L55.47,50.22V36.45m0-2.05a2,2,0,0,0-1,.28,2.06,2.06,0,0,0-1,1.78V50.24a2,2,0,0,0,1,1.78l11.87,6.85a2,2,0,0,0,1,.28,2.07,2.07,0,0,0,2.06-2.06V43.2a2.06,2.06,0,0,0-1-1.79L56.5,34.66a2.13,2.13,0,0,0-1-.26Z"/><path class="cls-5" d="M57.52,38.51l9.82,5.58V43.2L55.47,36.45V50.22l2.05,1.19Z"/><path class="cls-6" d="M80.76,65a1,1,0,0,1-.51-.14,1,1,0,0,1-.51-.89V50.27a1,1,0,0,1,.52-.89l11.85-6.74a1,1,0,0,1,1,0,1,1,0,0,1,.52.88V57.08a1,1,0,0,1-.52.89L81.29,64.82A1,1,0,0,1,80.76,65Z"/><path class="cls-4" d="M92.62,43.53V57.09L80.77,63.93V50.27l.28-.16,11.57-6.58m0-2.05a2.11,2.11,0,0,0-1,.26L80,48.33l-.28.16a2,2,0,0,0-1,1.78V63.94a2.06,2.06,0,0,0,1,1.78,2.09,2.09,0,0,0,1,.27,2.11,2.11,0,0,0,1-.27l11.86-6.85a2.05,2.05,0,0,0,1-1.78V43.53a2.06,2.06,0,0,0-1-1.78,2.12,2.12,0,0,0-1-.27Z"/><path class="cls-6" d="M81.05,51.15a1.1,1.1,0,0,1-.52-.14l-.28-.16a1,1,0,0,1-.52-.9V36.51a1,1,0,0,1,.52-.89l11.56-6.57a1,1,0,0,1,.51-.14,1.06,1.06,0,0,1,.51.14l.31.18a1,1,0,0,1,.52.89V43.54a1,1,0,0,1-.52.89L81.56,51a1.17,1.17,0,0,1-.51.13Z"/><path class="cls-4" d="M92.32,29.94l.3.18V43.54L81.05,50.12,80.76,50V36.51l11.56-6.57m0-2.05a2.08,2.08,0,0,0-1,.27L79.75,34.72a2.07,2.07,0,0,0-1,1.79V50a2.07,2.07,0,0,0,1,1.79l.28.16a2,2,0,0,0,1,.27,2,2,0,0,0,1-.27l11.58-6.58a2.07,2.07,0,0,0,1-1.79V30.11a2.07,2.07,0,0,0-1-1.79l-.3-.17a2.07,2.07,0,0,0-1-.26Z"/><path class="cls-9" d="M67.34,44.23a1,1,0,0,1-.51-.13L55,37.34a1,1,0,0,1-.52-.89V23a1,1,0,0,1,.51-.89,1.09,1.09,0,0,1,1,0l11.87,6.75a1,1,0,0,1,.52.89V43.2a1,1,0,0,1-.51.89A1.07,1.07,0,0,1,67.34,44.23Z"/><path class="cls-4" d="M55.47,23l11.87,6.75V43.2L55.47,36.45V23m0-2.06a2,2,0,0,0-1,.29,2,2,0,0,0-1,1.78V36.46a2.07,2.07,0,0,0,1,1.79L66.33,45a2.12,2.12,0,0,0,1,.27,2.08,2.08,0,0,0,2.06-2.07V29.75a2,2,0,0,0-1-1.78L56.48,21.21a2.11,2.11,0,0,0-1-.26Z"/><path class="cls-10" d="M57.52,24.55l9.82,5.58v-.37L55.47,23V36.45l2.05,1.17Z"/><path class="cls-6" d="M79.22,65a1,1,0,0,1-.51-.14L66.83,58a1,1,0,0,1-.52-.89V43.2a1,1,0,0,1,.52-.88.94.94,0,0,1,.51-.14,1,1,0,0,1,.52.14l11.87,6.75a1,1,0,0,1,.52.89V64a1,1,0,0,1-.51.89,1.2,1.2,0,0,1-.52.12Z"/><path class="cls-4" d="M67.34,43.2,79.22,50v14L67.34,57.08V43.2m0-2.05a2,2,0,0,0-1,.28,2.07,2.07,0,0,0-1,1.78V57.09a2.06,2.06,0,0,0,1,1.78L78.2,65.73a2.09,2.09,0,0,0,1,.27,2.11,2.11,0,0,0,1-.27,2.08,2.08,0,0,0,1-1.78V50a2,2,0,0,0-1-1.78L68.38,41.41A2.14,2.14,0,0,0,67.34,41.15Z"/><path class="cls-6" d="M79.22,51a1,1,0,0,1-.51-.13L66.83,44.1a1,1,0,0,1-.52-.9V29.76a1,1,0,0,1,1-1,1.06,1.06,0,0,1,.52.13l11.87,6.76a1,1,0,0,1,.52.89V50a1,1,0,0,1-.51.89,1.08,1.08,0,0,1-.52.13Z"/><path class="cls-4" d="M67.34,29.76l11.88,6.75V50L67.34,43.2V29.76m0-2.05a2,2,0,0,0-1,.28,2,2,0,0,0-1,1.78V43.21a2.07,2.07,0,0,0,1,1.79l11.88,6.75a2.12,2.12,0,0,0,1,.27,2,2,0,0,0,1-.29,2,2,0,0,0,1-1.78V36.51a2.07,2.07,0,0,0-1-1.79L68.36,28a2,2,0,0,0-1-.26Z"/><path class="cls-9" d="M79.61,23a.94.94,0,0,1-.51-.14L67.28,16.14a1,1,0,0,1-.52-.89,1,1,0,0,1,.51-.89l12.46-7.2a1,1,0,0,1,1,0L92.59,14a1,1,0,0,1,0,1.78L80.11,22.87a1,1,0,0,1-.5.13Z"/><path class="cls-4" d="M80.25,8.05l11.83,6.83L79.61,22,67.79,15.26,80.25,8.05m0-2.05a2.11,2.11,0,0,0-1,.27l-12.46,7.2a2.06,2.06,0,0,0-1,1.79,2,2,0,0,0,1,1.78l11.83,6.72a2.11,2.11,0,0,0,1,.26,2.15,2.15,0,0,0,1-.26l12.47-7.09a2.06,2.06,0,0,0,0-3.57L81.27,6.27a2,2,0,0,0-1-.27Z"/><path class="cls-10" d="M69.84,16.28,82.17,9.16,80.25,8.05,67.79,15.26,79.61,22l.12-.08Z"/><path class="cls-6" d="M68.05,29.58a1.06,1.06,0,0,1-.51-.14L56,22.87a1,1,0,0,1-.52-.89v-.21a1,1,0,0,1,.51-.89l11.29-6.52a1.07,1.07,0,0,1,1,0l11.82,6.72a1,1,0,0,1,.52.9,1,1,0,0,1-.52.89L68.56,29.44A1,1,0,0,1,68.05,29.58Z"/><path class="cls-4" d="M67.79,15.26,79.61,22,68.05,28.55,56.5,22v-.21l11.29-6.51m0-2.07a2.1,2.1,0,0,0-1,.28L55.48,20a2.06,2.06,0,0,0-1,1.78V22a2.06,2.06,0,0,0,1,1.79L67,30.33a2.11,2.11,0,0,0,2,0l11.56-6.57a2.07,2.07,0,0,0,0-3.58L68.8,13.46A2.12,2.12,0,0,0,67.79,13.19Z"/><path class="cls-10" d="M58.24,22.79l11.28-6.51-1.73-1L56.5,21.77V22l1.74,1Z"/><path class="cls-5" d="M91.81,29.94a1,1,0,0,1-.51-.14L79.1,22.86a1,1,0,0,1,0-1.78L91.57,14a1.06,1.06,0,0,1,.51-.14,1,1,0,0,1,.51.14l11.93,6.88a1,1,0,0,1,.51.89V22a1,1,0,0,1-.52.89L92.31,29.8A.93.93,0,0,1,91.81,29.94Z"/><path class="cls-4" d="M92.07,14.88,104,21.77V22L92.11,28.74l-.31.17L79.61,22l12.46-7.1m0-2.05a2,2,0,0,0-1,.27L78.59,20.18a2.06,2.06,0,0,0,0,3.58l12.19,6.93a2.06,2.06,0,0,0,2,0l.3-.17L105,23.76a2.07,2.07,0,0,0,1-1.79v-.2A2.06,2.06,0,0,0,105,20L93.1,13.11a2,2,0,0,0-1-.28Z"/><path class="cls-11" d="M80.25,36.51a1,1,0,0,1-.51-.14l-12.2-6.93a1,1,0,0,1-.52-.89,1,1,0,0,1,.52-.9L79.1,21.08a1.07,1.07,0,0,1,1,0L92.32,28a1,1,0,0,1,.52.89,1,1,0,0,1-.52.9L80.76,36.37A.94.94,0,0,1,80.25,36.51Z"/><path class="cls-4" d="M79.61,22l12.2,6.93L80.25,35.48,68.38,28.73v0l-.33-.18L79.61,22m0-2.06a2.18,2.18,0,0,0-1,.26L67,26.75a2.06,2.06,0,0,0,0,3.58l.32.18,11.88,6.75a2,2,0,0,0,1,.27,2.08,2.08,0,0,0,1-.27l11.55-6.57a2.05,2.05,0,0,0,0-3.57L80.63,20.18A2.18,2.18,0,0,0,79.61,19.92Z"/><path class="cls-12" d="M117.74,20.78c-.82-1.94-2.58-3.35-5.23-4.2a1.51,1.51,0,1,0-.92,2.88A5.07,5.07,0,0,1,115,22c.9,2.13-.66,5.42-4.28,9.17-.84.87-1.8,1.76-2.85,2.67A88.14,88.14,0,0,1,85.51,47a90.16,90.16,0,0,1-24.17,6.82c-.62.06-1.23.13-1.84.17s-1.37.08-2,.1c-5.65.14-9.48-1-10.43-3.27-.79-1.85.42-4.25,1.57-5.93a1.51,1.51,0,1,0-2.5-1.71A13.85,13.85,0,0,0,44,47.65,6.8,6.8,0,0,0,44.26,52c.87,2.07,2.81,3.53,5.74,4.35a28.76,28.76,0,0,0,9.72.66l.55,0c1.35-.11,2.74-.29,4.18-.51,1.67-.26,3.4-.6,5.16-1A104.66,104.66,0,0,0,86.7,49.79a96.74,96.74,0,0,0,20.92-11.92c1.06-.82,2.07-1.65,3-2.49l.24-.22a28.3,28.3,0,0,0,6-7.23c1.44-2.68,1.73-5.08.85-7.15Z"/></svg>