<svg id="图层_1" data-name="图层 1" xmlns="http://www.w3.org/2000/svg" viewBox="0 0 160 72"><defs><style>.cls-1{fill:#00b1ff;}.cls-2{fill:#0af;opacity:0.5;}.cls-3{fill:#00dccd;}</style></defs><title>画板 5 副本 13</title><rect class="cls-1" x="-11" y="34.8" width="12" height="0.4"/><polygon class="cls-1" points="37.62 33.38 31 31 37.62 28.61 40 22 42.38 28.61 49 31 42.38 33.38 40 40 37.62 33.38"/><polygon class="cls-2" points="74.41 18.59 70 17 74.41 15.41 76 11 77.59 15.41 82 17 77.59 18.59 76 23 74.41 18.59"/><polygon class="cls-2" points="114.31 25.69 111 24.5 114.31 23.31 115.5 20 116.69 23.31 120 24.5 116.69 25.69 115.5 29 114.31 25.69"/><polygon class="cls-3" points="62.41 49.59 58 48 62.41 46.41 64 42 65.59 46.41 70 48 65.59 49.59 64 54 62.41 49.59"/><path class="cls-1" d="M90.92,23.81a2.71,2.71,0,0,1,3.38-.39l.24.17L121,44.71l.17.15a2.72,2.72,0,0,1,.3,3.61l-.19.22-11,11.56-.14.13a2.71,2.71,0,0,1-3.62-.15l-.2-.21L84.62,33.72a2.71,2.71,0,0,1-.06-3.38l.21-.24Zm11.25,11.65-5.62,5.61,12,14.49L116.62,47ZM93,28.14l-3.87,4,4.53,5.49,5-5Z"/></svg>