<svg id="图层_1" data-name="图层 1" xmlns="http://www.w3.org/2000/svg" viewBox="0 0 160 72"><defs><style>.cls-1,.cls-2{fill:#0af;}.cls-1{opacity:0.3;}.cls-2{opacity:0.2;}.cls-3{font-size:16.23px;fill:#00dccd;font-family:FZLTCHK--GBK1-0, FZLanTingHei-B-GBK;}.cls-4{fill:#00b1ff;}</style></defs><title>画板 5 副本 5</title><rect class="cls-1" x="24.5" y="60" width="1" height="1" transform="translate(-35.5 85.5) rotate(-90)"/><rect class="cls-1" x="34.5" y="60" width="1" height="1" transform="translate(-25.5 95.5) rotate(-90)"/><rect class="cls-1" x="44.5" y="60" width="1" height="1" transform="translate(-15.5 105.5) rotate(-90)"/><rect class="cls-1" x="54.5" y="60" width="1" height="1" transform="translate(-5.5 115.5) rotate(-90)"/><rect class="cls-1" x="64.5" y="60" width="1" height="1" transform="translate(4.5 125.5) rotate(-90)"/><rect class="cls-1" x="74.5" y="60" width="1" height="1" transform="translate(14.5 135.5) rotate(-90)"/><rect class="cls-1" x="84.5" y="60" width="1" height="1" transform="translate(24.5 145.5) rotate(-90)"/><rect class="cls-1" x="94.5" y="60" width="1" height="1" transform="translate(34.5 155.5) rotate(-90)"/><rect class="cls-1" x="104.5" y="60" width="1" height="1" transform="translate(44.5 165.5) rotate(-90)"/><rect class="cls-1" x="114.5" y="60" width="1" height="1" transform="translate(54.5 175.5) rotate(-90)"/><rect class="cls-1" x="124.5" y="60" width="1" height="1" transform="translate(64.5 185.5) rotate(-90)"/><rect class="cls-1" x="134.5" y="60" width="1" height="1" transform="translate(74.5 195.5) rotate(-90)"/><rect class="cls-1" x="29.5" y="57" width="1" height="1" transform="translate(-27.5 87.5) rotate(-90)"/><rect class="cls-1" x="39.5" y="57" width="1" height="1" transform="translate(-17.5 97.5) rotate(-90)"/><rect class="cls-1" x="49.5" y="57" width="1" height="1" transform="translate(-7.5 107.5) rotate(-90)"/><rect class="cls-1" x="59.5" y="57" width="1" height="1" transform="translate(2.5 117.5) rotate(-90)"/><rect class="cls-1" x="69.5" y="57" width="1" height="1" transform="translate(12.5 127.5) rotate(-90)"/><rect class="cls-1" x="79.5" y="57" width="1" height="1" transform="translate(22.5 137.5) rotate(-90)"/><rect class="cls-1" x="89.5" y="57" width="1" height="1" transform="translate(32.5 147.5) rotate(-90)"/><rect class="cls-1" x="99.5" y="57" width="1" height="1" transform="translate(42.5 157.5) rotate(-90)"/><rect class="cls-1" x="109.5" y="57" width="1" height="1" transform="translate(52.5 167.5) rotate(-90)"/><rect class="cls-1" x="119.5" y="57" width="1" height="1" transform="translate(62.5 177.5) rotate(-90)"/><rect class="cls-1" x="129.5" y="57" width="1" height="1" transform="translate(72.5 187.5) rotate(-90)"/><rect class="cls-1" x="29.5" y="50" width="1" height="1" transform="translate(-20.5 80.5) rotate(-90)"/><rect class="cls-1" x="39.5" y="50" width="1" height="1" transform="translate(-10.5 90.5) rotate(-90)"/><rect class="cls-1" x="49.5" y="50" width="1" height="1" transform="translate(-0.5 100.5) rotate(-90)"/><rect class="cls-1" x="59.5" y="50" width="1" height="1" transform="translate(9.5 110.5) rotate(-90)"/><rect class="cls-1" x="69.5" y="50" width="1" height="1" transform="translate(19.5 120.5) rotate(-90)"/><rect class="cls-1" x="79.5" y="50" width="1" height="1" transform="translate(29.5 130.5) rotate(-90)"/><rect class="cls-1" x="89.5" y="50" width="1" height="1" transform="translate(39.5 140.5) rotate(-90)"/><rect class="cls-1" x="99.5" y="50" width="1" height="1" transform="translate(49.5 150.5) rotate(-90)"/><rect class="cls-1" x="109.5" y="50" width="1" height="1" transform="translate(59.5 160.5) rotate(-90)"/><rect class="cls-1" x="119.5" y="50" width="1" height="1" transform="translate(69.5 170.5) rotate(-90)"/><rect class="cls-1" x="129.5" y="50" width="1" height="1" transform="translate(79.5 180.5) rotate(-90)"/><rect class="cls-1" x="29.5" y="42" width="1" height="1" transform="translate(-12.5 72.5) rotate(-90)"/><rect class="cls-1" x="39.5" y="42" width="1" height="1" transform="translate(-2.5 82.5) rotate(-90)"/><rect class="cls-1" x="49.5" y="42" width="1" height="1" transform="translate(7.5 92.5) rotate(-90)"/><rect class="cls-1" x="59.5" y="42" width="1" height="1" transform="translate(17.5 102.5) rotate(-90)"/><rect class="cls-1" x="69.5" y="42" width="1" height="1" transform="translate(27.5 112.5) rotate(-90)"/><rect class="cls-1" x="79.5" y="42" width="1" height="1" transform="translate(37.5 122.5) rotate(-90)"/><rect class="cls-1" x="89.5" y="42" width="1" height="1" transform="translate(47.5 132.5) rotate(-90)"/><rect class="cls-1" x="99.5" y="42" width="1" height="1" transform="translate(57.5 142.5) rotate(-90)"/><rect class="cls-1" x="109.5" y="42" width="1" height="1" transform="translate(67.5 152.5) rotate(-90)"/><rect class="cls-1" x="119.5" y="42" width="1" height="1" transform="translate(77.5 162.5) rotate(-90)"/><rect class="cls-1" x="129.5" y="42" width="1" height="1" transform="translate(87.5 172.5) rotate(-90)"/><rect class="cls-1" x="29.5" y="34" width="1" height="1" transform="translate(-4.5 64.5) rotate(-90)"/><rect class="cls-1" x="39.5" y="34" width="1" height="1" transform="translate(5.5 74.5) rotate(-90)"/><rect class="cls-1" x="49.5" y="34" width="1" height="1" transform="translate(15.5 84.5) rotate(-90)"/><rect class="cls-1" x="59.5" y="34" width="1" height="1" transform="translate(25.5 94.5) rotate(-90)"/><rect class="cls-1" x="69.5" y="34" width="1" height="1" transform="translate(35.5 104.5) rotate(-90)"/><rect class="cls-1" x="79.5" y="34" width="1" height="1" transform="translate(45.5 114.5) rotate(-90)"/><rect class="cls-1" x="89.5" y="34" width="1" height="1" transform="translate(55.5 124.5) rotate(-90)"/><rect class="cls-1" x="99.5" y="34" width="1" height="1" transform="translate(65.5 134.5) rotate(-90)"/><rect class="cls-1" x="109.5" y="34" width="1" height="1" transform="translate(75.5 144.5) rotate(-90)"/><rect class="cls-1" x="119.5" y="34" width="1" height="1" transform="translate(85.5 154.5) rotate(-90)"/><rect class="cls-1" x="129.5" y="34" width="1" height="1" transform="translate(95.5 164.5) rotate(-90)"/><rect class="cls-1" x="29.5" y="26" width="1" height="1" transform="translate(3.5 56.5) rotate(-90)"/><rect class="cls-1" x="39.5" y="26" width="1" height="1" transform="translate(13.5 66.5) rotate(-90)"/><rect class="cls-1" x="49.5" y="26" width="1" height="1" transform="translate(23.5 76.5) rotate(-90)"/><rect class="cls-1" x="59.5" y="26" width="1" height="1" transform="translate(33.5 86.5) rotate(-90)"/><rect class="cls-1" x="69.5" y="26" width="1" height="1" transform="translate(43.5 96.5) rotate(-90)"/><rect class="cls-1" x="79.5" y="26" width="1" height="1" transform="translate(53.5 106.5) rotate(-90)"/><rect class="cls-1" x="89.5" y="26" width="1" height="1" transform="translate(63.5 116.5) rotate(-90)"/><rect class="cls-1" x="99.5" y="26" width="1" height="1" transform="translate(73.5 126.5) rotate(-90)"/><rect class="cls-1" x="29.5" y="18.52" width="1" height="0.99" transform="translate(10.98 49.01) rotate(-90)"/><rect class="cls-1" x="39.4" y="18.52" width="1" height="0.99" transform="translate(20.88 58.91) rotate(-90)"/><rect class="cls-1" x="49.3" y="18.52" width="1" height="0.99" transform="translate(30.78 68.81) rotate(-90)"/><rect class="cls-1" x="59.2" y="18.52" width="1" height="0.99" transform="translate(40.69 78.72) rotate(-90)"/><rect class="cls-1" x="69.1" y="18.52" width="1" height="0.99" transform="translate(50.59 88.62) rotate(-90)"/><rect class="cls-1" x="79" y="18.52" width="1" height="0.99" transform="translate(60.49 98.52) rotate(-90)"/><rect class="cls-1" x="89" y="18.52" width="1" height="0.99" transform="translate(70.49 108.52) rotate(-90)"/><rect class="cls-1" x="99" y="18.52" width="1" height="0.99" transform="translate(80.49 118.52) rotate(-90)"/><rect class="cls-1" x="29.5" y="11" width="1" height="1" transform="translate(18.5 41.5) rotate(-90)"/><rect class="cls-1" x="39.5" y="11" width="1" height="1" transform="translate(28.5 51.5) rotate(-90)"/><rect class="cls-1" x="49.5" y="11" width="1" height="1" transform="translate(38.5 61.5) rotate(-90)"/><rect class="cls-1" x="59.5" y="11" width="1" height="1" transform="translate(48.5 71.5) rotate(-90)"/><rect class="cls-1" x="69.5" y="11" width="1" height="1" transform="translate(58.5 81.5) rotate(-90)"/><rect class="cls-1" x="79.5" y="11" width="1" height="1" transform="translate(68.5 91.5) rotate(-90)"/><rect class="cls-1" x="89.5" y="11" width="1" height="1" transform="translate(78.5 101.5) rotate(-90)"/><rect class="cls-1" x="99.5" y="11" width="1" height="1" transform="translate(88.5 111.5) rotate(-90)"/><rect class="cls-1" x="24.5" y="54" width="1" height="1" transform="translate(-29.5 79.5) rotate(-90)"/><rect class="cls-1" x="34.5" y="54" width="1" height="1" transform="translate(-19.5 89.5) rotate(-90)"/><rect class="cls-1" x="44.5" y="54" width="1" height="1" transform="translate(-9.5 99.5) rotate(-90)"/><rect class="cls-1" x="54.5" y="54" width="1" height="1" transform="translate(0.5 109.5) rotate(-90)"/><rect class="cls-1" x="64.5" y="54" width="1" height="1" transform="translate(10.5 119.5) rotate(-90)"/><rect class="cls-1" x="74.5" y="54" width="1" height="1" transform="translate(20.5 129.5) rotate(-90)"/><rect class="cls-1" x="84.5" y="54" width="1" height="1" transform="translate(30.5 139.5) rotate(-90)"/><rect class="cls-1" x="94.5" y="54" width="1" height="1" transform="translate(40.5 149.5) rotate(-90)"/><rect class="cls-1" x="104.5" y="54" width="1" height="1" transform="translate(50.5 159.5) rotate(-90)"/><rect class="cls-1" x="114.5" y="54" width="1" height="1" transform="translate(60.5 169.5) rotate(-90)"/><rect class="cls-1" x="124.5" y="54" width="1" height="1" transform="translate(70.5 179.5) rotate(-90)"/><rect class="cls-1" x="134.5" y="54" width="1" height="1" transform="translate(80.5 189.5) rotate(-90)"/><rect class="cls-1" x="24.5" y="46" width="1" height="1" transform="translate(-21.5 71.5) rotate(-90)"/><rect class="cls-1" x="34.5" y="46" width="1" height="1" transform="translate(-11.5 81.5) rotate(-90)"/><rect class="cls-1" x="44.5" y="46" width="1" height="1" transform="translate(-1.5 91.5) rotate(-90)"/><rect class="cls-1" x="54.5" y="46" width="1" height="1" transform="translate(8.5 101.5) rotate(-90)"/><rect class="cls-1" x="64.5" y="46" width="1" height="1" transform="translate(18.5 111.5) rotate(-90)"/><rect class="cls-1" x="74.5" y="46" width="1" height="1" transform="translate(28.5 121.5) rotate(-90)"/><rect class="cls-1" x="84.5" y="46" width="1" height="1" transform="translate(38.5 131.5) rotate(-90)"/><rect class="cls-1" x="94.5" y="46" width="1" height="1" transform="translate(48.5 141.5) rotate(-90)"/><rect class="cls-1" x="104.5" y="46" width="1" height="1" transform="translate(58.5 151.5) rotate(-90)"/><rect class="cls-1" x="114.5" y="46" width="1" height="1" transform="translate(68.5 161.5) rotate(-90)"/><rect class="cls-1" x="124.5" y="46" width="1" height="1" transform="translate(78.5 171.5) rotate(-90)"/><rect class="cls-1" x="134.5" y="46" width="1" height="1" transform="translate(88.5 181.5) rotate(-90)"/><rect class="cls-1" x="24.5" y="38" width="1" height="1" transform="translate(-13.5 63.5) rotate(-90)"/><rect class="cls-1" x="34.5" y="38" width="1" height="1" transform="translate(-3.5 73.5) rotate(-90)"/><rect class="cls-1" x="44.5" y="38" width="1" height="1" transform="translate(6.5 83.5) rotate(-90)"/><rect class="cls-1" x="54.5" y="38" width="1" height="1" transform="translate(16.5 93.5) rotate(-90)"/><rect class="cls-1" x="64.5" y="38" width="1" height="1" transform="translate(26.5 103.5) rotate(-90)"/><rect class="cls-1" x="74.5" y="38" width="1" height="1" transform="translate(36.5 113.5) rotate(-90)"/><rect class="cls-1" x="84.5" y="38" width="1" height="1" transform="translate(46.5 123.5) rotate(-90)"/><rect class="cls-1" x="94.5" y="38" width="1" height="1" transform="translate(56.5 133.5) rotate(-90)"/><rect class="cls-1" x="104.5" y="38" width="1" height="1" transform="translate(66.5 143.5) rotate(-90)"/><rect class="cls-1" x="114.5" y="38" width="1" height="1" transform="translate(76.5 153.5) rotate(-90)"/><rect class="cls-1" x="124.5" y="38" width="1" height="1" transform="translate(86.5 163.5) rotate(-90)"/><rect class="cls-1" x="134.5" y="38" width="1" height="1" transform="translate(96.5 173.5) rotate(-90)"/><rect class="cls-1" x="24.5" y="22" width="1" height="1" transform="translate(2.5 47.5) rotate(-90)"/><rect class="cls-1" x="34.5" y="22" width="1" height="1" transform="translate(12.5 57.5) rotate(-90)"/><rect class="cls-1" x="44.5" y="22" width="1" height="1" transform="translate(22.5 67.5) rotate(-90)"/><rect class="cls-1" x="54.5" y="22" width="1" height="1" transform="translate(32.5 77.5) rotate(-90)"/><rect class="cls-1" x="64.5" y="22" width="1" height="1" transform="translate(42.5 87.5) rotate(-90)"/><rect class="cls-1" x="74.5" y="22" width="1" height="1" transform="translate(52.5 97.5) rotate(-90)"/><rect class="cls-1" x="84.5" y="22" width="1" height="1" transform="translate(62.5 107.5) rotate(-90)"/><rect class="cls-1" x="94.5" y="22" width="1" height="1" transform="translate(72.5 117.5) rotate(-90)"/><rect class="cls-1" x="104.5" y="22" width="1" height="1" transform="translate(82.5 127.5) rotate(-90)"/><rect class="cls-1" x="74.5" y="22" width="1" height="1" transform="translate(52.5 97.5) rotate(-90)"/><rect class="cls-1" x="84.5" y="22" width="1" height="1" transform="translate(62.5 107.5) rotate(-90)"/><rect class="cls-1" x="133.66" y="45.63" width="1" height="1.74" transform="translate(87.66 180.66) rotate(-90)"/><rect class="cls-1" x="24.5" y="14" width="1" height="1" transform="translate(10.5 39.5) rotate(-90)"/><rect class="cls-1" x="34.5" y="14" width="1" height="1" transform="translate(20.5 49.5) rotate(-90)"/><rect class="cls-1" x="44.5" y="14" width="1" height="1" transform="translate(30.5 59.5) rotate(-90)"/><rect class="cls-1" x="54.5" y="14" width="1" height="1" transform="translate(40.5 69.5) rotate(-90)"/><rect class="cls-1" x="64.5" y="14" width="1" height="1" transform="translate(50.5 79.5) rotate(-90)"/><rect class="cls-1" x="74.5" y="14" width="1" height="1" transform="translate(60.5 89.5) rotate(-90)"/><rect class="cls-1" x="84.5" y="14" width="1" height="1" transform="translate(70.5 99.5) rotate(-90)"/><rect class="cls-1" x="94.5" y="14" width="1" height="1" transform="translate(80.5 109.5) rotate(-90)"/><rect class="cls-1" x="104.5" y="14" width="1" height="1" transform="translate(90.5 119.5) rotate(-90)"/><rect class="cls-2" x="20" y="9" width="89" height="20"/><rect class="cls-2" x="20" y="33" width="120" height="30"/><text class="cls-3" transform="translate(24 52.94) scale(1.04 1)">123,456,789</text><path class="cls-4" d="M24.06,19.71h2.08c.2-.35.4-.71.59-1.07l1,.31c-.14.26-.29.51-.43.76h3.35v.88A6.46,6.46,0,0,1,29.05,23l1.54.71L30,24.6c-.56-.32-1.15-.64-1.76-1a12.13,12.13,0,0,1-3.9,1.75l-.46-.95a11.52,11.52,0,0,0,3.38-1.3l-2.46-1.23c.29-.42.57-.86.84-1.3H24.06ZM24.21,15h3.15V11.94h1V15H31v.9H28.37v.84l.41-.47c.85.62,1.56,1.17,2.13,1.64l-.65.77c-.5-.47-1.13-1-1.89-1.6v1.56h-1V16.72A13.76,13.76,0,0,1,24.46,19c-.17-.27-.37-.54-.59-.84A15,15,0,0,0,27,15.9H24.21Zm.36-2.12.78-.53c.41.5.83,1,1.27,1.61l-.85.6Q25.17,13.68,24.57,12.88Zm1.55,8.71,2,.92a5.92,5.92,0,0,0,1.48-1.9H26.74C26.53,20.94,26.33,21.27,26.12,21.59Zm4.26-9.31.85.56c-.5.66-1,1.26-1.51,1.82-.21-.18-.45-.37-.73-.57C29.46,13.53,29.92,12.93,30.38,12.28Zm2.49-.46L34,12a22.85,22.85,0,0,1-.67,2.48h4.19v.92h-.86a15.19,15.19,0,0,1-1.75,6.39,8.69,8.69,0,0,0,2.81,2.46c-.29.4-.54.76-.74,1.08a10.67,10.67,0,0,1-2.77-2.57,13.21,13.21,0,0,1-3,2.71,7.22,7.22,0,0,0-.78-.86,12.13,12.13,0,0,0,3.11-2.86A12,12,0,0,1,32,17.31c-.2.34-.4.65-.61,1a10.11,10.11,0,0,0-.68-.88A13.41,13.41,0,0,0,32.87,11.82Zm2.65,3.56H33a2.17,2.17,0,0,1-.15.35,12.61,12.61,0,0,0,1.37,5A13,13,0,0,0,35.52,15.38Z"/><path class="cls-4" d="M38,19.86h6.41V19l2.7-1.69H40.5v-1h8.28v1.11l-3.24,2.08v.37h6v1h-6v2.51a1.53,1.53,0,0,1-1.73,1.74l-2,0c0-.34-.09-.75-.16-1.21a14,14,0,0,0,1.91.15c.6,0,.9-.33.9-1V20.87H38Zm.52-6h6.29c-.34-.48-.74-1-1.22-1.58l.92-.61a17.12,17.12,0,0,1,1.42,1.75l-.65.44h5.76V16.6H50V14.82H39.62V16.6H38.53Z"/><path class="cls-4" d="M51.93,19.09l1.94-.47V15.44H52.05v-1h1.82V11.8h1v2.66h1.77v1H54.89v2.9c.49-.13,1-.26,1.41-.4A9.11,9.11,0,0,0,56.4,19l-1.51.42v4.12q0,1.51-1.35,1.53c-.34,0-.78,0-1.33,0A8.08,8.08,0,0,0,52,24a11,11,0,0,0,1.21.1c.41,0,.62-.23.62-.69V19.73l-1.81.54Zm5.26-7.31h1v2.1a62,62,0,0,0,6.49-1.59l.37,1a58.41,58.41,0,0,1-6.86,1.58v.45a.89.89,0,0,0,1,1H63a1.07,1.07,0,0,0,1.19-.88q.12-.51.24-1.38a10.41,10.41,0,0,0,1,.37q-.15.88-.3,1.44a1.76,1.76,0,0,1-2,1.38H58.93c-1.16,0-1.74-.62-1.74-1.85Zm.14,6.57h7.22v6.86h-1v-.83H58.37v.83h-1Zm6.18.93H58.37v1.66h5.14Zm-5.14,4.17h5.14V21.81H58.37Z"/><path class="cls-4" d="M65.9,20.33A14.86,14.86,0,0,0,68,15.44H66v-.93h2.07V11.83h1v2.68h1.86v.93H69v2.42l.59-.62c.58.51,1.1,1,1.54,1.45l-.72.76c-.44-.5-.91-1-1.41-1.51v7.22h-1v-7.4a13.62,13.62,0,0,1-1.72,3.78C66.22,21.15,66.07,20.74,65.9,20.33Zm6.25-1.43,1,.41C72.43,21,71.68,22.46,71,23.75a10.51,10.51,0,0,0-1-.48A32.1,32.1,0,0,0,72.15,18.9Zm-1.27-2.26h8.53v1H75.63v5.71c0,1.14-.52,1.71-1.57,1.71-.49,0-1.1,0-1.82,0,0-.33-.11-.71-.19-1.13a15.73,15.73,0,0,0,1.73.1c.54,0,.82-.33.82-1V17.6H70.88Zm.63-4h7.27v.95H71.51Zm5,6.72,1-.46q1.29,2.49,2.16,4.36l-1.1.48Q77.69,21.63,76.54,19.36Z"/><path class="cls-4" d="M79.9,20.33A14.86,14.86,0,0,0,82,15.44H80v-.93h2.07V11.83h1v2.68h1.86v.93H83v2.42l.59-.62c.58.51,1.1,1,1.54,1.45l-.72.76c-.44-.5-.91-1-1.41-1.51v7.22h-1v-7.4a13.62,13.62,0,0,1-1.72,3.78C80.22,21.15,80.07,20.74,79.9,20.33Zm6.25-1.43,1,.41C86.43,21,85.68,22.46,85,23.75a10.51,10.51,0,0,0-1-.48A32.1,32.1,0,0,0,86.15,18.9Zm-1.27-2.26h8.53v1H89.63v5.71c0,1.14-.52,1.71-1.57,1.71-.49,0-1.1,0-1.82,0,0-.33-.11-.71-.19-1.13a15.73,15.73,0,0,0,1.73.1c.54,0,.82-.33.82-1V17.6H84.88Zm.63-4h7.27v.95H85.51Zm5,6.72,1-.46q1.29,2.49,2.16,4.36l-1.1.48Q91.69,21.63,90.54,19.36Z"/><path class="cls-4" d="M93.93,24.05A7.51,7.51,0,0,0,95,19.87H96c0,.56-.07,1.1-.14,1.61A4.43,4.43,0,0,0,97.1,23V19.23H94v-.89h6.31v.89H98v1.45h2.2v.88H98v1.89a5.89,5.89,0,0,0,2.09.4c1.61.1,4.08.08,7.43-.07q-.15.45-.39,1.08-4.89.12-7-.06a5.29,5.29,0,0,1-4.49-2.14,8.89,8.89,0,0,1-1.07,2.68Q94.26,24.7,93.93,24.05Zm.95-11.66H99.7v5.26h-.91v-.42h-3v.42h-.91Zm3.91.82h-3V14.4h3Zm-3,3.2h3v-1.2h-3Zm7.45,0h.9v1.71a8.59,8.59,0,0,1-.27,2.3c1.4,1,2.44,1.8,3.1,2.37l-.74.73a32.51,32.51,0,0,0-2.69-2.23l-.16.29a5.54,5.54,0,0,1-2.79,2.08,7.77,7.77,0,0,0-.74-.81,5.07,5.07,0,0,0,2.65-1.68,5.34,5.34,0,0,0,.74-3.09Zm-2.37-1.48h2c.09-.53.16-1,.23-1.55h-2.72v-.89h6.86v.89H104.1c-.08.53-.17,1-.27,1.55h2.68v5.8h-.91V15.82h-3.82v4.91h-.91Z"/></svg>