<?xml version="1.0" encoding="utf-8"?>
<!-- Generator: Adobe Illustrator 23.0.2, SVG Export Plug-In . SVG Version: 6.00 Build 0)  -->
<svg version="1.1" id="图层_1" xmlns="http://www.w3.org/2000/svg" xmlns:xlink="http://www.w3.org/1999/xlink" x="0px" y="0px"
	 viewBox="0 0 800 800" style="enable-background:new 0 0 800 800;" xml:space="preserve">
<style type="text/css">
	.st0{fill:url(#SVGID_1_);}
	.st1{fill:url(#SVGID_2_);}
	.st2{fill:url(#SVGID_3_);}
	.st3{fill:url(#SVGID_4_);}
	.st4{fill:url(#SVGID_5_);}
	.st5{fill:url(#SVGID_6_);}
	.st6{fill:url(#SVGID_7_);}
	.st7{fill:url(#SVGID_8_);}
	.st8{fill:url(#SVGID_9_);}
	.st9{fill:url(#SVGID_10_);}
	.st10{fill:url(#SVGID_11_);}
	.st11{fill:url(#SVGID_12_);}
	.st12{fill:url(#SVGID_13_);}
	.st13{fill:url(#SVGID_14_);}
	.st14{fill:url(#SVGID_15_);}
	.st15{fill:url(#SVGID_16_);}
	.st16{fill:#F2F4F7;}
	.st17{fill:url(#SVGID_17_);}
	.st18{fill:url(#SVGID_18_);}
	.st19{fill:url(#SVGID_19_);}
	.st20{fill:url(#SVGID_20_);}
	.st21{fill:url(#SVGID_21_);}
	.st22{fill:url(#SVGID_22_);}
	.st23{fill:none;stroke:#B2BBC9;stroke-width:2;stroke-miterlimit:10;stroke-dasharray:12;}
</style>
<g>
	<linearGradient id="SVGID_1_" gradientUnits="userSpaceOnUse" x1="400" y1="885" x2="400" y2="139">
		<stop  offset="0.4171" style="stop-color:#F8FAFC;stop-opacity:0"/>
		<stop  offset="1" style="stop-color:#ECEFF4"/>
	</linearGradient>
	<ellipse class="st0" cx="400" cy="512" rx="400" ry="373"/>
	<g>
		
			<linearGradient id="SVGID_2_" gradientUnits="userSpaceOnUse" x1="8844.9473" y1="1138.8359" x2="8844.9473" y2="962.0061" gradientTransform="matrix(-0.9998 2.173200e-02 -2.173200e-02 -0.9998 9267.8174 1161.7496)">
			<stop  offset="0" style="stop-color:#DFE2E5;stop-opacity:0"/>
			<stop  offset="0.3185" style="stop-color:#DADEE3;stop-opacity:0.2229"/>
			<stop  offset="1" style="stop-color:#D7DCE2;stop-opacity:0.7"/>
		</linearGradient>
		<polygon class="st1" points="372.7,216 427.8,216 407.6,392.1 393.6,392.1 		"/>
		
			<linearGradient id="SVGID_3_" gradientUnits="userSpaceOnUse" x1="8065.9321" y1="3475.575" x2="8065.9321" y2="3298.7451" gradientTransform="matrix(-0.855 0.5187 -0.5187 -0.855 9010.6787 -973.4024)">
			<stop  offset="0" style="stop-color:#DFE2E5;stop-opacity:0"/>
			<stop  offset="0.3185" style="stop-color:#DADEE3;stop-opacity:0.2229"/>
			<stop  offset="1" style="stop-color:#D7DCE2;stop-opacity:0.7"/>
		</linearGradient>
		<polygon class="st2" points="288.3,253.3 336.1,225.7 406.6,388.3 394.5,395.3 		"/>
		
			<linearGradient id="SVGID_4_" gradientUnits="userSpaceOnUse" x1="6222.9155" y1="5109.7427" x2="6222.9155" y2="4932.9126" gradientTransform="matrix(-0.4811 0.8767 -0.8767 -0.4811 7720.4146 -2693.9292)">
			<stop  offset="0" style="stop-color:#DFE2E5;stop-opacity:0"/>
			<stop  offset="0.3185" style="stop-color:#DADEE3;stop-opacity:0.2229"/>
			<stop  offset="1" style="stop-color:#D7DCE2;stop-opacity:0.7"/>
		</linearGradient>
		<polygon class="st3" points="233.9,327.7 261.5,279.9 403.9,385.5 396.9,397.6 		"/>
		
			<linearGradient id="SVGID_5_" gradientUnits="userSpaceOnUse" x1="3809.7329" y1="5603.4648" x2="3809.7329" y2="5426.6353" gradientTransform="matrix(2.173200e-02 0.9998 -0.9998 2.173200e-02 5742.7495 -3538.8169)">
			<stop  offset="0" style="stop-color:#DFE2E5;stop-opacity:0"/>
			<stop  offset="0.3185" style="stop-color:#DADEE3;stop-opacity:0.2229"/>
			<stop  offset="1" style="stop-color:#D7DCE2;stop-opacity:0.7"/>
		</linearGradient>
		<polygon class="st4" points="224,419.3 224,364.2 400.1,384.4 400.1,398.4 		"/>
		
			<linearGradient id="SVGID_6_" gradientUnits="userSpaceOnUse" x1="1472.9939" y1="4824.4497" x2="1472.9939" y2="4647.6201" gradientTransform="matrix(0.5187 0.855 -0.855 0.5187 3607.5977 -3281.6787)">
			<stop  offset="0" style="stop-color:#DFE2E5;stop-opacity:0"/>
			<stop  offset="0.3185" style="stop-color:#DADEE3;stop-opacity:0.2229"/>
			<stop  offset="1" style="stop-color:#D7DCE2;stop-opacity:0.7"/>
		</linearGradient>
		<polygon class="st5" points="261.3,503.7 233.7,455.9 396.3,385.4 403.3,397.5 		"/>
		
			<linearGradient id="SVGID_7_" gradientUnits="userSpaceOnUse" x1="-161.1738" y1="2981.4333" x2="-161.1738" y2="2804.6035" gradientTransform="matrix(0.8767 0.4811 -0.4811 0.8767 1887.0708 -1991.4147)">
			<stop  offset="0" style="stop-color:#DFE2E5;stop-opacity:0"/>
			<stop  offset="0.3185" style="stop-color:#DADEE3;stop-opacity:0.2229"/>
			<stop  offset="1" style="stop-color:#D7DCE2;stop-opacity:0.7"/>
		</linearGradient>
		<polygon class="st6" points="335.7,558.1 287.9,530.5 393.5,388.1 405.6,395.1 		"/>
		
			<linearGradient id="SVGID_8_" gradientUnits="userSpaceOnUse" x1="-654.8963" y1="568.2505" x2="-654.8963" y2="391.4207" gradientTransform="matrix(0.9998 -2.173200e-02 2.173200e-02 0.9998 1042.183 -13.7496)">
			<stop  offset="0" style="stop-color:#DFE2E5;stop-opacity:0"/>
			<stop  offset="0.3185" style="stop-color:#DADEE3;stop-opacity:0.2229"/>
			<stop  offset="1" style="stop-color:#D7DCE2;stop-opacity:0.7"/>
		</linearGradient>
		<polygon class="st7" points="427.3,568 372.2,568 392.4,391.9 406.4,391.9 		"/>
		
			<linearGradient id="SVGID_9_" gradientUnits="userSpaceOnUse" x1="124.1189" y1="-1768.4884" x2="124.1189" y2="-1945.3181" gradientTransform="matrix(0.855 -0.5187 0.5187 0.855 1299.3212 2121.4023)">
			<stop  offset="0" style="stop-color:#DFE2E5;stop-opacity:0"/>
			<stop  offset="0.3185" style="stop-color:#DADEE3;stop-opacity:0.2229"/>
			<stop  offset="1" style="stop-color:#D7DCE2;stop-opacity:0.7"/>
		</linearGradient>
		<polygon class="st8" points="511.7,530.7 463.9,558.3 393.4,395.7 405.5,388.7 		"/>
		
			<linearGradient id="SVGID_10_" gradientUnits="userSpaceOnUse" x1="1967.1354" y1="-3402.656" x2="1967.1354" y2="-3579.4858" gradientTransform="matrix(0.4811 -0.8767 0.8767 0.4811 2589.5854 3841.9292)">
			<stop  offset="0" style="stop-color:#DFE2E5;stop-opacity:0"/>
			<stop  offset="0.3185" style="stop-color:#DADEE3;stop-opacity:0.2229"/>
			<stop  offset="1" style="stop-color:#D7DCE2;stop-opacity:0.7"/>
		</linearGradient>
		<polygon class="st9" points="566.1,456.3 538.5,504.1 396.1,398.5 403.1,386.4 		"/>
		
			<linearGradient id="SVGID_11_" gradientUnits="userSpaceOnUse" x1="4380.3184" y1="-3896.3787" x2="4380.3184" y2="-4073.2083" gradientTransform="matrix(-2.173200e-02 -0.9998 0.9998 -2.173200e-02 4567.2505 4686.8169)">
			<stop  offset="0" style="stop-color:#DFE2E5;stop-opacity:0"/>
			<stop  offset="0.3185" style="stop-color:#DADEE3;stop-opacity:0.2229"/>
			<stop  offset="1" style="stop-color:#D7DCE2;stop-opacity:0.7"/>
		</linearGradient>
		<polygon class="st10" points="576,364.7 576,419.8 399.9,399.6 399.9,385.6 		"/>
		
			<linearGradient id="SVGID_12_" gradientUnits="userSpaceOnUse" x1="6717.0571" y1="-3117.3633" x2="6717.0571" y2="-3294.1931" gradientTransform="matrix(-0.5187 -0.855 0.855 -0.5187 6702.4023 4429.6787)">
			<stop  offset="0" style="stop-color:#DFE2E5;stop-opacity:0"/>
			<stop  offset="0.3185" style="stop-color:#DADEE3;stop-opacity:0.2229"/>
			<stop  offset="1" style="stop-color:#D7DCE2;stop-opacity:0.7"/>
		</linearGradient>
		<polygon class="st11" points="538.7,280.3 566.3,328.1 403.7,398.6 396.7,386.5 		"/>
		
			<linearGradient id="SVGID_13_" gradientUnits="userSpaceOnUse" x1="8351.2246" y1="-1274.3469" x2="8351.2246" y2="-1451.1768" gradientTransform="matrix(-0.8767 -0.4811 0.4811 -0.8767 8422.9287 3139.4146)">
			<stop  offset="0" style="stop-color:#DFE2E5;stop-opacity:0"/>
			<stop  offset="0.3185" style="stop-color:#DADEE3;stop-opacity:0.2229"/>
			<stop  offset="1" style="stop-color:#D7DCE2;stop-opacity:0.7"/>
		</linearGradient>
		<polygon class="st12" points="464.3,225.9 512.1,253.5 406.5,395.9 394.4,388.9 		"/>
	</g>
	<linearGradient id="SVGID_14_" gradientUnits="userSpaceOnUse" x1="496.1115" y1="486.0964" x2="301.9186" y2="291.9036">
		<stop  offset="0" style="stop-color:#A7B1C1"/>
		<stop  offset="1" style="stop-color:#C6D0E0"/>
	</linearGradient>
	<path class="st13" d="M399,527.8c-14.1,0-25.2-18-37.9-22.1c-13.2-4.3-32.7,3.6-43.7-4.4c-11.1-8.1-9.6-29.1-17.7-40.2
		c-8-10.9-28.5-16-32.8-29.2c-4.1-12.7,9.4-28.8,9.4-42.9s-13.5-30.2-9.4-42.9c4.3-13.2,24.8-18.2,32.8-29.2
		c8.1-11.1,6.6-32.1,17.7-40.2c11-8,30.5-0.1,43.7-4.4c12.7-4.1,23.8-22.1,37.9-22.1c14.1,0,25.2,18,37.9,22.1
		c13.2,4.3,32.7-3.6,43.7,4.4c11.1,8.1,9.6,29.1,17.7,40.2c8,11,28.5,16,32.8,29.2c4.1,12.7-9.4,28.8-9.4,42.9
		c0,14.1,13.5,30.2,9.4,42.9c-4.3,13.2-24.8,18.2-32.8,29.2c-8.1,11.1-6.6,32.1-17.7,40.2c-11,8-30.5,0.1-43.7,4.4
		C424.2,509.9,413.1,527.8,399,527.8L399,527.8z"/>
	<radialGradient id="SVGID_15_" cx="390" cy="395" r="135.8654" gradientUnits="userSpaceOnUse">
		<stop  offset="0" style="stop-color:#EFF2F6"/>
		<stop  offset="0.35" style="stop-color:#EFF2F6"/>
		<stop  offset="1" style="stop-color:#C6D0E0"/>
	</radialGradient>
	<path class="st14" d="M390,533.8c-14.1,0-25.2-18-37.9-22.1c-13.2-4.3-32.7,3.6-43.7-4.4c-11.1-8.1-9.6-29.1-17.7-40.2
		c-8-10.9-28.5-16-32.8-29.2c-4.1-12.7,9.4-28.8,9.4-42.9s-13.5-30.2-9.4-42.9c4.3-13.2,24.8-18.2,32.8-29.2
		c8.1-11.1,6.6-32.1,17.7-40.2c11-8,30.5-0.1,43.7-4.4c12.7-4.1,23.8-22.1,37.9-22.1c14.1,0,25.2,18,37.9,22.1
		c13.2,4.3,32.7-3.6,43.7,4.4c11.1,8.1,9.6,29.1,17.7,40.2c8,11,28.5,16,32.8,29.2c4.1,12.7-9.4,28.8-9.4,42.9
		c0,14.1,13.5,30.2,9.4,42.9c-4.3,13.2-24.8,18.2-32.8,29.2c-8.1,11.1-6.6,32.1-17.7,40.2c-11,8-30.5,0.1-43.7,4.4
		C415.2,515.9,404.1,533.8,390,533.8L390,533.8z"/>
	<radialGradient id="SVGID_16_" cx="400" cy="392" r="138.0022" gradientUnits="userSpaceOnUse">
		<stop  offset="0" style="stop-color:#EFF2F6"/>
		<stop  offset="1" style="stop-color:#C6D0E0"/>
	</radialGradient>
	<path class="st15" d="M307.9,392c0,50.8,41.2,92.1,92.1,92.1s92.1-41.2,92.1-92.1s-41.2-92.1-92.1-92.1S307.9,341.2,307.9,392z"/>
	<path class="st16" d="M461.5,323.6c7.8,13.5,12.3,29.2,12.3,46c0,50.8-41.2,92.1-92.1,92.1c-23.7,0-45.2-8.9-61.5-23.6
		c15.9,27.5,45.7,46.1,79.7,46.1c50.8,0,92.1-41.2,92.1-92.1C492.1,364.8,480.3,340.4,461.5,323.6L461.5,323.6z"/>
	<linearGradient id="SVGID_17_" gradientUnits="userSpaceOnUse" x1="400" y1="489.2218" x2="400" y2="294.7782">
		<stop  offset="0" style="stop-color:#E7ECF2"/>
		<stop  offset="1" style="stop-color:#F0F4F7"/>
	</linearGradient>
	<path class="st17" d="M400,489.2c-53.6,0-97.2-43.6-97.2-97.2c0-53.6,43.6-97.2,97.2-97.2c53.6,0,97.2,43.6,97.2,97.2
		S453.6,489.2,400,489.2z M400,305.1c-47.9,0-86.9,39-86.9,86.9s39,86.9,86.9,86.9s86.9-39,86.9-86.9S447.9,305.1,400,305.1z"/>
	<g>
		<linearGradient id="SVGID_18_" gradientUnits="userSpaceOnUse" x1="400" y1="440" x2="400" y2="559">
			<stop  offset="0" style="stop-color:#B2BED1"/>
			<stop  offset="1" style="stop-color:#FFFFFF"/>
		</linearGradient>
		<path class="st18" d="M680,559c-118,0-463,0-560,0c73-16.3,88-79.6,136-55.4s67-111.4,123-45.2s90-4.8,160,48.4S658,520.1,680,559
			z"/>
		
			<linearGradient id="SVGID_19_" gradientUnits="userSpaceOnUse" x1="8665" y1="439" x2="8665" y2="560" gradientTransform="matrix(-1 0 0 1 9126 0)">
			<stop  offset="0" style="stop-color:#DCE2EA"/>
			<stop  offset="1" style="stop-color:#FFFFFF"/>
		</linearGradient>
		<path class="st19" d="M182,560c117.6,0,461.3,0,558,0c-72.7-15-103.7-122-140-85.7c-35,35-24-107.8-133,16.6
			c-54.4,62-74.8-28.1-144.5,21S203.9,524.2,182,560z"/>
		<linearGradient id="SVGID_20_" gradientUnits="userSpaceOnUse" x1="400" y1="568" x2="400" y2="449">
			<stop  offset="0" style="stop-color:#FFFFFF"/>
			<stop  offset="1" style="stop-color:#C6D0E0"/>
		</linearGradient>
		<path class="st20" d="M680,568c-118,0-463,0-560,0c73-16.3,88-79.6,136-55.4s67-111.4,123-45.2s90-4.8,160,48.4S658,529.1,680,568
			z"/>
	</g>
	<linearGradient id="SVGID_21_" gradientUnits="userSpaceOnUse" x1="197.3767" y1="474" x2="197.3767" y2="398">
		<stop  offset="0" style="stop-color:#DFE2E5;stop-opacity:0"/>
		<stop  offset="1" style="stop-color:#C6D0E0;stop-opacity:0.7"/>
	</linearGradient>
	<circle class="st21" cx="197.4" cy="436" r="38"/>
	<linearGradient id="SVGID_22_" gradientUnits="userSpaceOnUse" x1="560.6232" y1="277" x2="560.6232" y2="231">
		<stop  offset="0" style="stop-color:#DFE2E5;stop-opacity:0"/>
		<stop  offset="1" style="stop-color:#C6D0E0;stop-opacity:0.7"/>
	</linearGradient>
	<circle class="st22" cx="560.6" cy="254" r="23"/>
	<line class="st23" x1="120" y1="565.5" x2="680" y2="565.5"/>
</g>
</svg>
