<?xml version="1.0" encoding="utf-8"?>
<!-- Generator: Adobe Illustrator 23.0.2, SVG Export Plug-In . SVG Version: 6.00 Build 0)  -->
<svg version="1.1" id="图层_1" xmlns="http://www.w3.org/2000/svg" xmlns:xlink="http://www.w3.org/1999/xlink" x="0px" y="0px"
	 viewBox="0 0 800 800" style="enable-background:new 0 0 800 800;" xml:space="preserve">
<style type="text/css">
	.st0{fill:url(#SVGID_1_);}
	.st1{fill:url(#SVGID_2_);}
	.st2{fill:url(#SVGID_3_);}
	.st3{fill:url(#SVGID_4_);}
	.st4{fill:url(#SVGID_5_);}
	.st5{fill:url(#SVGID_6_);}
	.st6{fill:url(#SVGID_7_);}
	.st7{fill:url(#SVGID_8_);}
	.st8{fill:url(#SVGID_9_);}
	.st9{fill:url(#SVGID_10_);}
	.st10{fill:url(#SVGID_11_);}
	.st11{fill:url(#SVGID_12_);}
	.st12{fill:url(#SVGID_13_);}
	.st13{fill:url(#SVGID_14_);}
	.st14{fill:url(#SVGID_15_);}
	.st15{fill:url(#SVGID_16_);}
	.st16{fill:url(#SVGID_17_);}
	.st17{fill:url(#SVGID_18_);}
	.st18{fill:url(#SVGID_19_);}
	.st19{fill:#8996A3;}
	.st20{fill:url(#SVGID_20_);}
	.st21{fill:url(#SVGID_21_);}
	.st22{fill:url(#SVGID_22_);}
	.st23{fill:url(#SVGID_23_);}
	.st24{fill:url(#SVGID_24_);}
	.st25{fill:url(#SVGID_25_);}
	.st26{fill:url(#SVGID_26_);}
	.st27{fill:url(#SVGID_27_);}
	.st28{fill:url(#SVGID_28_);}
	.st29{fill:url(#SVGID_29_);}
</style>
<g>
	<linearGradient id="SVGID_1_" gradientUnits="userSpaceOnUse" x1="400" y1="885" x2="400" y2="139">
		<stop  offset="0.4171" style="stop-color:#F8FAFC;stop-opacity:0"/>
		<stop  offset="1" style="stop-color:#ECEFF4"/>
	</linearGradient>
	<ellipse class="st0" cx="400" cy="512" rx="400" ry="373"/>
	<linearGradient id="SVGID_2_" gradientUnits="userSpaceOnUse" x1="388" y1="475.5" x2="388" y2="437.5">
		<stop  offset="0" style="stop-color:#DFE2E5;stop-opacity:0"/>
		<stop  offset="1" style="stop-color:#D7DCE2"/>
	</linearGradient>
	<line class="st1" x1="381.5" y1="437.5" x2="394.5" y2="475.5"/>
	
		<linearGradient id="SVGID_3_" gradientUnits="userSpaceOnUse" x1="2701.5" y1="475.5" x2="2701.5" y2="437.5" gradientTransform="matrix(-1 0 0 1 3126 0)">
		<stop  offset="0" style="stop-color:#DFE2E5;stop-opacity:0"/>
		<stop  offset="1" style="stop-color:#D7DCE2"/>
	</linearGradient>
	<line class="st2" x1="431.5" y1="437.5" x2="417.5" y2="475.5"/>
	<linearGradient id="SVGID_4_" gradientUnits="userSpaceOnUse" x1="406.5" y1="485" x2="406.5" y2="437">
		<stop  offset="0" style="stop-color:#DFE2E5;stop-opacity:0"/>
		<stop  offset="1" style="stop-color:#D7DCE2"/>
	</linearGradient>
	<line class="st3" x1="406.5" y1="437" x2="406.5" y2="485"/>
	<linearGradient id="SVGID_5_" gradientUnits="userSpaceOnUse" x1="407" y1="643.5654" x2="407" y2="443.4346">
		<stop  offset="0" style="stop-color:#DFE2E5;stop-opacity:0"/>
		<stop  offset="1" style="stop-color:#D7DCE2;stop-opacity:0.5"/>
	</linearGradient>
	<ellipse class="st4" cx="407" cy="543.5" rx="258" ry="100.1"/>
	<linearGradient id="SVGID_6_" gradientUnits="userSpaceOnUse" x1="407" y1="621" x2="407" y2="438">
		<stop  offset="0" style="stop-color:#DFE2E5;stop-opacity:0"/>
		<stop  offset="1" style="stop-color:#D7DCE2;stop-opacity:0.7"/>
	</linearGradient>
	<polygon class="st5" points="522,621 292,621 348,438 463,438 	"/>
	<linearGradient id="SVGID_7_" gradientUnits="userSpaceOnUse" x1="310" y1="623" x2="310" y2="455">
		<stop  offset="0" style="stop-color:#DFE2E5;stop-opacity:0"/>
		<stop  offset="1" style="stop-color:#D7DCE2;stop-opacity:0.5"/>
	</linearGradient>
	<polygon class="st6" points="420,623 227,623 200,507 319,455 	"/>
	<g>
		<g>
			
				<linearGradient id="SVGID_8_" gradientUnits="userSpaceOnUse" x1="315.0165" y1="382.4637" x2="205.924" y2="273.3712" gradientTransform="matrix(0.9943 -0.1063 0.1063 0.9943 -49.7802 153.2327)">
				<stop  offset="0" style="stop-color:#A7B1C1"/>
				<stop  offset="1" style="stop-color:#D7DDE2"/>
			</linearGradient>
			<path class="st7" d="M304.9,464.6l-13.6,5.6l24.2,15.8l-13.9,9.5l-35.4,14.5l-10.3-25.3L198.7,508l-14.1-34.4l20-96l13.9-9.5
				l27.9-7.6l32.2,78.7l13.6-5.6L304.9,464.6z M243.2,453.7l-16.7-40.8l-1.2,0.5l-8.7,49.8l0.5,1.2L243.2,453.7z"/>
		</g>
		<g>
			
				<linearGradient id="SVGID_9_" gradientUnits="userSpaceOnUse" x1="326.397" y1="371.0832" x2="220.7187" y2="265.4049" gradientTransform="matrix(0.9943 -0.1063 0.1063 0.9943 -49.7802 153.2327)">
				<stop  offset="0" style="stop-color:#C6D0E0"/>
				<stop  offset="1" style="stop-color:#EFF2F6"/>
			</linearGradient>
			<path class="st8" d="M318.7,455.1l-13.6,5.6l10.3,25.3l-35.4,14.5l-10.3-25.3l-57.2,23.4l-14.1-34.4l20-96l41.8-17.1l32.2,78.7
				l13.6-5.6L318.7,455.1z M257.1,444.3l-16.7-40.8l-1.2,0.5l-8.7,49.8l0.5,1.2L257.1,444.3z"/>
		</g>
	</g>
	<g>
		<linearGradient id="SVGID_10_" gradientUnits="userSpaceOnUse" x1="544" y1="635" x2="544" y2="452">
			<stop  offset="0" style="stop-color:#DFE2E5;stop-opacity:0"/>
			<stop  offset="1" style="stop-color:#D7DCE2;stop-opacity:0.5"/>
		</linearGradient>
		<polygon class="st9" points="652,623 436,635 492,452 613,482 		"/>
		<g>
			<g>
				<linearGradient id="SVGID_11_" gradientUnits="userSpaceOnUse" x1="632.623" y1="471.5108" x2="549.014" y2="387.9018">
					<stop  offset="0" style="stop-color:#A7B1C1"/>
					<stop  offset="1" style="stop-color:#D7DDE2"/>
				</linearGradient>
				<path class="st10" d="M614.9,489.2l-15.4,0l-7.3,20.7h-15.8l-19.9-12.5l8.9-25.5l-57.7-20.2l12.2-34.7l62-58h15.8l42.2,14.8
					l-27.9,79.5l13.7,4.8L614.9,489.2z M576.4,440.7l14.4-41.2l-1.2-0.4l-39.1,31.2l-0.4,1.2L576.4,440.7z"/>
			</g>
			<g>
				<linearGradient id="SVGID_12_" gradientUnits="userSpaceOnUse" x1="558.0849" y1="509.9381" x2="558.0849" y2="359">
					<stop  offset="0" style="stop-color:#B3BECE"/>
					<stop  offset="1" style="stop-color:#EFF2F6"/>
				</linearGradient>
				<path class="st11" d="M599.5,489.2l-14.1-4.8l-8.9,25.5l-35.7-12.5l8.9-25.5L492,451.7l12.2-34.7l77.8-58l42.2,14.8l-27.9,79.5
					l13.7,4.8L599.5,489.2z M560.6,440.7l14.4-41.2l-1.2-0.4l-39.1,31.2l-0.4,1.2L560.6,440.7z"/>
			</g>
		</g>
	</g>
	<linearGradient id="SVGID_13_" gradientUnits="userSpaceOnUse" x1="407" y1="568" x2="407" y2="513">
		<stop  offset="0" style="stop-color:#DFE2E5;stop-opacity:0.5"/>
		<stop  offset="1" style="stop-color:#D7DCE2"/>
	</linearGradient>
	<ellipse class="st12" cx="407" cy="540.5" rx="70.9" ry="27.5"/>
	<g>
		<g>
			<linearGradient id="SVGID_14_" gradientUnits="userSpaceOnUse" x1="406" y1="481.2758" x2="406" y2="237">
				<stop  offset="0" style="stop-color:#A7B1C1"/>
				<stop  offset="1" style="stop-color:#D7DDE2"/>
			</linearGradient>
			<path class="st13" d="M520.5,342.3c0,26.2-10.4,50.2-27.7,68.7c-10.8,11.5-22.4,27.1-33.3,40.9c-8.9,11.3-15.9,29.3-15.9,29.3
				h-75.1c0,0-6.5-18.5-15.9-29.3c-10.7-12.3-22.6-29.4-33.5-41.1c-17.2-18.4-27.5-42.4-27.5-68.5c0-58.2,51.2-105.3,114.5-105.3
				S520.5,284.2,520.5,342.3z"/>
			<linearGradient id="SVGID_15_" gradientUnits="userSpaceOnUse" x1="355.8503" y1="481.0546" x2="355.8503" y2="237">
				<stop  offset="0" style="stop-color:#C6D0E0"/>
				<stop  offset="1" style="stop-color:#EFF2F6"/>
			</linearGradient>
			<path class="st14" d="M406,237c0,0-173.9,46.5-63.7,188.5c0,0,31.4,35.4,31,55.5h7.5c0,0,0-27.7-29.2-68.8
				C351.6,412.2,270.6,296.7,406,237z"/>
			
				<linearGradient id="SVGID_16_" gradientUnits="userSpaceOnUse" x1="2781.7029" y1="481.2758" x2="2781.7029" y2="237.2213" gradientTransform="matrix(-1 0 0 1 3238.4497 0)">
				<stop  offset="0" style="stop-color:#C6D0E0"/>
				<stop  offset="1" style="stop-color:#EFF2F6"/>
			</linearGradient>
			<path class="st15" d="M406.6,237.2c0,0,173.9,46.5,63.7,188.5c0,0-31.4,35.4-31,55.5h-7.5c0,0,0-27.7,29.2-68.8
				C461,412.5,542,297,406.6,237.2z"/>
			<g>
				<linearGradient id="SVGID_17_" gradientUnits="userSpaceOnUse" x1="379.4782" y1="481.2758" x2="379.4782" y2="237">
					<stop  offset="0" style="stop-color:#C6D0E0"/>
					<stop  offset="1" style="stop-color:#EFF2F6"/>
				</linearGradient>
				<path class="st16" d="M368.5,399c17.3,33.2,23.9,62.4,23.9,82.3c0,0,4.1,0,9.3,0c4-31.9-13.3-78.2-13.3-136.7
					S405.6,237,405.6,237S319.3,304.7,368.5,399z"/>
				<linearGradient id="SVGID_18_" gradientUnits="userSpaceOnUse" x1="432.1457" y1="481.2758" x2="432.1457" y2="237">
					<stop  offset="0" style="stop-color:#C6D0E0"/>
					<stop  offset="1" style="stop-color:#EFF2F6"/>
				</linearGradient>
				<path class="st17" d="M405.6,237c0,0,19,42.4,21.2,107.5c1.9,54.4-14.6,98.2-13.3,136.7c2.6,0,4.9,0,6.6,0
					c1.3-21.2,3.2-42.8,25.2-86.3C490.6,306,405.6,237,405.6,237z"/>
			</g>
			<linearGradient id="SVGID_19_" gradientUnits="userSpaceOnUse" x1="407.3276" y1="481.2758" x2="407.3276" y2="237">
				<stop  offset="0" style="stop-color:#A7B1C1"/>
				<stop  offset="0.3486" style="stop-color:#BEC6D1"/>
				<stop  offset="0.73" style="stop-color:#D0D7DD"/>
				<stop  offset="1" style="stop-color:#D7DDE2"/>
			</linearGradient>
			<path class="st18" d="M426.5,344.5c-2.2-65.2-21.2-107.5-21.2-107.5S388,286,388,344.5s17.3,104.9,13.3,136.7c3.8,0,8.1,0,11.9,0
				C411.9,442.8,428.4,398.9,426.5,344.5z"/>
		</g>
		<g>
			
				<rect x="381.4" y="480.5" transform="matrix(0.9462 -0.3237 0.3237 0.9462 -143.5918 150.9859)" class="st19" width="1.3" height="53.3"/>
			
				<rect x="403.7" y="506.5" transform="matrix(0.346 -0.9382 0.9382 0.346 -194.2465 735.6669)" class="st19" width="53.8" height="1.3"/>
			<g>
				<linearGradient id="SVGID_20_" gradientUnits="userSpaceOnUse" x1="406" y1="518.1376" x2="406" y2="545">
					<stop  offset="0" style="stop-color:#A7B1C1"/>
					<stop  offset="1" style="stop-color:#86949B"/>
				</linearGradient>
				<path class="st20" d="M425,526c0,10.5-8.5,19-19,19s-19-8.5-19-19S425,515.5,425,526z"/>
				<linearGradient id="SVGID_21_" gradientUnits="userSpaceOnUse" x1="406" y1="542.9793" x2="406" y2="519.35">
					<stop  offset="0" style="stop-color:#A7B1C1"/>
					<stop  offset="1" style="stop-color:#A4B1BA"/>
				</linearGradient>
				<path class="st21" d="M423.8,526.3c0,9.2-8,16.7-17.8,16.7s-17.8-7.5-17.8-16.7S423.8,517,423.8,526.3z"/>
				<linearGradient id="SVGID_22_" gradientUnits="userSpaceOnUse" x1="406" y1="519.35" x2="406" y2="532.2825">
					<stop  offset="0" style="stop-color:#C6D0E0"/>
					<stop  offset="1" style="stop-color:#EFF2F6"/>
				</linearGradient>
				<ellipse class="st22" cx="406" cy="525.8" rx="17.8" ry="6.5"/>
			</g>
			<rect x="406" y="481.3" class="st19" width="1.3" height="63.7"/>
		</g>
		<linearGradient id="SVGID_23_" gradientUnits="userSpaceOnUse" x1="406" y1="494.5517" x2="406" y2="481.2758">
			<stop  offset="0" style="stop-color:#A7B1C1"/>
			<stop  offset="1" style="stop-color:#86949B"/>
		</linearGradient>
		<path class="st23" d="M368.8,481.3h74.3l0.9,8.9c0.2,2.3-1.6,4.4-4,4.4h-68.2c-2.4,0-4.2-2-4-4.4L368.8,481.3z"/>
	</g>
	<g>
		<g>
			<linearGradient id="SVGID_24_" gradientUnits="userSpaceOnUse" x1="443.2574" y1="433.9188" x2="368.927" y2="305.1747">
				<stop  offset="0" style="stop-color:#A7B1C1"/>
				<stop  offset="1" style="stop-color:#86949B"/>
			</linearGradient>
			<path class="st24" d="M406.1,444.2c-8.5,0-16.2-1.1-23.1-3.2c-6.9-2.2-12.8-6.1-17.6-11.7c-4.8-5.6-8.5-13.3-11.1-23
				c-2.6-9.7-3.9-22-3.9-36.9c0-14.9,1.3-27.2,3.9-36.8c2.6-9.6,6.3-17.2,11.1-22.8c4.8-5.6,10.7-9.4,17.6-11.6
				c6.9-2.2,14.6-3.2,23.1-3.2c8.5,0,16.2,1.1,23.1,3.2c6.9,2.2,12.7,6,17.5,11.6c4.7,5.6,8.4,13.2,11,22.8
				c2.6,9.6,3.9,21.9,3.9,36.8c0,14.9-1.3,27.2-3.9,36.9c-2.6,9.7-6.2,17.4-11,23c-4.7,5.6-10.6,9.6-17.5,11.7
				C422.3,443.1,414.6,444.2,406.1,444.2z M406.1,410.3c3.3,0,6.1-0.6,8.3-1.7c2.2-1.1,3.9-3.2,5.1-6.2c1.3-3,2.2-7.1,2.7-12.4
				c0.6-5.3,0.8-12.1,0.8-20.5s-0.3-15.2-0.8-20.6c-0.6-5.4-1.5-9.6-2.7-12.7c-1.3-3.1-3-5.2-5.1-6.3c-2.2-1.1-4.9-1.7-8.3-1.7
				c-3.2,0-5.9,0.6-8.1,1.7c-2.2,1.1-3.9,3.2-5.2,6.3c-1.3,3.1-2.3,7.3-2.8,12.7c-0.6,5.4-0.8,12.2-0.8,20.6s0.3,15.2,0.8,20.5
				c0.6,5.3,1.5,9.4,2.8,12.4c1.3,3,3.1,5.1,5.2,6.2C400.2,409.8,402.9,410.3,406.1,410.3z"/>
		</g>
		<g>
			<linearGradient id="SVGID_25_" gradientUnits="userSpaceOnUse" x1="443.2574" y1="419.6693" x2="368.927" y2="290.9252">
				<stop  offset="0" style="stop-color:#C6D0E0"/>
				<stop  offset="1" style="stop-color:#FFFFFF"/>
			</linearGradient>
			<path class="st25" d="M406.1,430c-8.5,0-16.2-1.1-23.1-3.2c-6.9-2.2-12.8-6.1-17.6-11.7c-4.8-5.6-8.5-13.3-11.1-23
				c-2.6-9.7-3.9-22-3.9-36.9c0-14.9,1.3-27.2,3.9-36.8c2.6-9.6,6.3-17.2,11.1-22.8c4.8-5.6,10.7-9.4,17.6-11.6
				c6.9-2.2,14.6-3.2,23.1-3.2c8.5,0,16.2,1.1,23.1,3.2c6.9,2.2,12.7,6,17.5,11.6c4.7,5.6,8.4,13.2,11,22.8
				c2.6,9.6,3.9,21.9,3.9,36.8c0,14.9-1.3,27.2-3.9,36.9c-2.6,9.7-6.2,17.4-11,23c-4.7,5.6-10.6,9.6-17.5,11.7
				C422.3,428.9,414.6,430,406.1,430z M406.1,396.1c3.3,0,6.1-0.6,8.3-1.7c2.2-1.1,3.9-3.2,5.1-6.2c1.3-3,2.2-7.1,2.7-12.4
				c0.6-5.3,0.8-12.1,0.8-20.5s-0.3-15.2-0.8-20.6c-0.6-5.4-1.5-9.6-2.7-12.7c-1.3-3.1-3-5.2-5.1-6.3c-2.2-1.1-4.9-1.7-8.3-1.7
				c-3.2,0-5.9,0.6-8.1,1.7c-2.2,1.1-3.9,3.2-5.2,6.3c-1.3,3.1-2.3,7.3-2.8,12.7c-0.6,5.4-0.8,12.2-0.8,20.6s0.3,15.2,0.8,20.5
				c0.6,5.3,1.5,9.4,2.8,12.4c1.3,3,3.1,5.1,5.2,6.2C400.2,395.5,402.9,396.1,406.1,396.1z"/>
		</g>
	</g>
	<g>
		
			<linearGradient id="SVGID_26_" gradientUnits="userSpaceOnUse" x1="676.8994" y1="-49.1641" x2="676.8994" y2="-64.0954" gradientTransform="matrix(0.9413 -0.3376 0.3376 0.9413 -50.4833 604.319)">
			<stop  offset="0" style="stop-color:#A7B1C1"/>
			<stop  offset="1" style="stop-color:#86949B"/>
		</linearGradient>
		<path class="st26" d="M540.9,332.5c0,0,6.9-10.1,11.8-11.4c4.9-1.4,15.1,1.8,15.1,1.8s-1.8-5.1-1-6.8c0,0,1.6-2.9,3.7-1.7
			c1.4,0.8,1.9,1.2,1.9,1.2s-1.7-0.8-2.6,0.9c-0.8,1.7,1.8,5.1,1.8,5.1s7.9-10.1,10.9-9.7s13,4,13,4s-6.7,1.3-10.6,2.7
			c-3.8,1.4-9.7,9.2-13.5,10.6c-2.6,0.9-5.9-2.5-15.1-1.8C552.1,327.6,547.3,330.2,540.9,332.5z"/>
		
			<linearGradient id="SVGID_27_" gradientUnits="userSpaceOnUse" x1="676.8994" y1="-51.1641" x2="676.8994" y2="-64.5117" gradientTransform="matrix(0.9413 -0.3376 0.3376 0.9413 -50.4833 604.319)">
			<stop  offset="0" style="stop-color:#B3BECE"/>
			<stop  offset="1" style="stop-color:#EFF2F6"/>
		</linearGradient>
		<path class="st27" d="M540.9,332.5c0,0,6.9-10.1,11.8-11.4c4.9-1.4,15.1,1.8,15.1,1.8s-1.8-5.1-1-6.8c0,0,1.2-2.9,3.5-2.5
			s2.1,1.9,2.1,1.9s-1.7-0.8-2.6,0.9c-0.8,1.7,1.8,5.1,1.8,5.1s7.9-10.1,10.9-9.7s13,4,13,4s-7.4-0.6-11.3,0.8s-9.7,9.2-13.5,10.6
			c-2.6,0.9-5.9-2.5-15.1-1.8C551.4,325.7,547.3,330.2,540.9,332.5z"/>
	</g>
	<g>
		
			<linearGradient id="SVGID_28_" gradientUnits="userSpaceOnUse" x1="2356.6047" y1="-156.7747" x2="2356.6047" y2="-171.9469" gradientTransform="matrix(-0.9227 0.435 0.6736 1.0703 2538.1963 -557.0489)">
			<stop  offset="0" style="stop-color:#A7B1C1"/>
			<stop  offset="1" style="stop-color:#86949B"/>
		</linearGradient>
		<path class="st28" d="M280,279.9c0,0-14.2-3.4-18.6-0.8s-8.1,13.4-8.1,13.4s-3.7-5.9-5.9-6.8c0,0-3.8-1.2-4.1,1.4
			c-0.2,1.8-0.1,2.5-0.1,2.5s0.3-2.1,2.5-1.2s3.7,5.9,3.7,5.9s-14.8-2.6-16.4,0.1c-1.6,2.7-4.6,13.7-4.6,13.7s5.6-4.2,9.4-6
			c3.8-1.8,15.2,0.5,19-1.3c2.6-1.2,1.4-6.8,8.1-13.4C268,284.4,273.6,283,280,279.9z"/>
		
			<linearGradient id="SVGID_29_" gradientUnits="userSpaceOnUse" x1="2356.6047" y1="-158.8069" x2="2356.6047" y2="-172.3699" gradientTransform="matrix(-0.9227 0.435 0.6736 1.0703 2538.1963 -557.0489)">
			<stop  offset="0" style="stop-color:#B3BECE"/>
			<stop  offset="1" style="stop-color:#EFF2F6"/>
		</linearGradient>
		<path class="st29" d="M280,279.9c0,0-14.2-3.4-18.6-0.8s-8.1,13.4-8.1,13.4s-3.7-5.9-5.9-6.8c0,0-3.6-1.6-4.7,0.6s0.5,3.3,0.5,3.3
			s0.3-2.1,2.5-1.2s3.7,5.9,3.7,5.9s-14.8-2.6-16.4,0.1c-1.6,2.7-4.6,13.7-4.6,13.7s4.3-6.3,8.1-8.1c3.8-1.8,15.2,0.5,19-1.3
			c2.6-1.2,1.4-6.8,8.1-13.4C266.6,282.3,273.6,283,280,279.9z"/>
	</g>
</g>
</svg>
