<?xml version="1.0" encoding="utf-8"?>
<!-- Generator: Adobe Illustrator 23.0.2, SVG Export Plug-In . SVG Version: 6.00 Build 0)  -->
<svg version="1.1" id="图层_1" xmlns="http://www.w3.org/2000/svg" xmlns:xlink="http://www.w3.org/1999/xlink" x="0px" y="0px"
	 viewBox="0 0 800 800" style="enable-background:new 0 0 800 800;" xml:space="preserve">
<style type="text/css">
	.st0{fill:url(#SVGID_1_);}
	.st1{fill:url(#SVGID_2_);}
	.st2{fill:url(#SVGID_3_);}
	.st3{fill:url(#SVGID_4_);}
	.st4{fill:url(#SVGID_5_);}
	.st5{fill:url(#SVGID_6_);}
	.st6{fill:url(#SVGID_7_);}
	.st7{fill:url(#SVGID_8_);}
	.st8{fill:url(#SVGID_9_);}
	.st9{fill:url(#SVGID_10_);}
	.st10{fill:url(#SVGID_11_);}
	.st11{fill:url(#SVGID_12_);}
	.st12{fill:url(#SVGID_13_);}
	.st13{fill:url(#SVGID_14_);}
	.st14{fill:none;stroke:url(#SVGID_15_);stroke-width:2;stroke-miterlimit:10;}
</style>
<g>
	<linearGradient id="SVGID_1_" gradientUnits="userSpaceOnUse" x1="400" y1="885" x2="400" y2="139">
		<stop  offset="0.4171" style="stop-color:#F8FAFC;stop-opacity:0"/>
		<stop  offset="1" style="stop-color:#ECEFF4"/>
	</linearGradient>
	<ellipse class="st0" cx="400" cy="512" rx="400" ry="373"/>
	<linearGradient id="SVGID_2_" gradientUnits="userSpaceOnUse" x1="400" y1="618.667" x2="400" y2="421.639">
		<stop  offset="0" style="stop-color:#DFE2E5;stop-opacity:0"/>
		<stop  offset="1" style="stop-color:#D7DCE2;stop-opacity:0.5"/>
	</linearGradient>
	<ellipse class="st1" cx="400" cy="520.2" rx="254" ry="98.5"/>
	<linearGradient id="SVGID_3_" gradientUnits="userSpaceOnUse" x1="635" y1="507.5" x2="635" y2="499.7816">
		<stop  offset="0" style="stop-color:#DFE2E5;stop-opacity:0"/>
		<stop  offset="1" style="stop-color:#D7DCE2"/>
	</linearGradient>
	<ellipse class="st2" cx="635" cy="503.6" rx="10" ry="3.9"/>
	<linearGradient id="SVGID_4_" gradientUnits="userSpaceOnUse" x1="194.5" y1="530.4586" x2="194.5" y2="518.8231">
		<stop  offset="0" style="stop-color:#DFE2E5;stop-opacity:0"/>
		<stop  offset="1" style="stop-color:#D7DCE2"/>
	</linearGradient>
	<ellipse class="st3" cx="194.5" cy="524.6" rx="15" ry="5.8"/>
	<linearGradient id="SVGID_5_" gradientUnits="userSpaceOnUse" x1="437" y1="664.5" x2="437" y2="496.5">
		<stop  offset="0" style="stop-color:#DFE2E5;stop-opacity:0"/>
		<stop  offset="1" style="stop-color:#D7DCE2;stop-opacity:0.7"/>
	</linearGradient>
	<polygon class="st4" points="638,663.5 236,664.5 249,539.5 343,499.5 447,543.5 554,496.5 	"/>
	<g>
		<linearGradient id="SVGID_6_" gradientUnits="userSpaceOnUse" x1="504.4663" y1="564.5639" x2="307.4771" y2="367.5747">
			<stop  offset="0" style="stop-color:#A7B1C1"/>
			<stop  offset="1" style="stop-color:#C6D0E0"/>
		</linearGradient>
		<polygon class="st5" points="456.8,424.7 353.5,381.3 250.3,424.7 250.3,529.8 240,542.1 247.2,556.4 343.2,512.7 446.5,558.4 
			560,509 560,381.3 549.7,360.6 544.7,387.7 		"/>
		<g>
			<linearGradient id="SVGID_7_" gradientUnits="userSpaceOnUse" x1="340.5093" y1="501.3336" x2="242.1732" y2="402.9975">
				<stop  offset="0" style="stop-color:#C6D0E0"/>
				<stop  offset="1" style="stop-color:#EFF2F6"/>
			</linearGradient>
			<polygon class="st6" points="240,405.2 343.2,361.7 343.2,498.6 240,543.2 			"/>
			<linearGradient id="SVGID_8_" gradientUnits="userSpaceOnUse" x1="426.6214" y1="523.337" x2="568.9644" y2="380.994">
				<stop  offset="0" style="stop-color:#C6D0E0"/>
				<stop  offset="1" style="stop-color:#EFF2F6"/>
			</linearGradient>
			<polygon class="st7" points="446.5,405.2 549.7,361.7 549.7,498.6 446.5,543.2 			"/>
			
				<linearGradient id="SVGID_9_" gradientUnits="userSpaceOnUse" x1="567.7742" y1="452.4372" x2="464.5484" y2="452.4372" gradientTransform="matrix(-1 0 0 1 911 0)">
				<stop  offset="0" style="stop-color:#C6D0E0"/>
				<stop  offset="1" style="stop-color:#EFF2F6"/>
			</linearGradient>
			<polygon class="st8" points="446.5,405.2 343.2,361.7 343.2,498.6 446.5,543.2 			"/>
		</g>
	</g>
	<radialGradient id="SVGID_10_" cx="635" cy="489" r="20.2384" gradientUnits="userSpaceOnUse">
		<stop  offset="0" style="stop-color:#EFF2F6"/>
		<stop  offset="1" style="stop-color:#C6D0E0"/>
	</radialGradient>
	<path class="st9" d="M621.5,489c0,7.5,6,13.5,13.5,13.5c7.5,0,13.5-6,13.5-13.5s-6-13.5-13.5-13.5
		C627.5,475.5,621.5,481.5,621.5,489z"/>
	<linearGradient id="SVGID_11_" gradientUnits="userSpaceOnUse" x1="446.2457" y1="456.5" x2="446.2457" y2="428.4441">
		<stop  offset="0" style="stop-color:#CAD6E0;stop-opacity:0.5"/>
		<stop  offset="1" style="stop-color:#B6C6D6;stop-opacity:0.7"/>
	</linearGradient>
	<path class="st10" d="M412.9,442.5c0,7.8,14.9,14,33.4,14c18.4,0,33.4-6.3,33.4-14c0-7.8-14.9-14-33.4-14
		C427.8,428.4,412.9,434.7,412.9,442.5z"/>
	<radialGradient id="SVGID_12_" cx="194.5" cy="503.5" r="28.4837" gradientUnits="userSpaceOnUse">
		<stop  offset="0" style="stop-color:#EFF2F6"/>
		<stop  offset="1" style="stop-color:#C6D0E0"/>
	</radialGradient>
	<path class="st11" d="M175.5,503.5c0,10.5,8.5,19,19,19s19-8.5,19-19s-8.5-19-19-19S175.5,493,175.5,503.5z"/>
	<linearGradient id="SVGID_13_" gradientUnits="userSpaceOnUse" x1="502.3672" y1="367.6134" x2="395.6868" y2="260.9329">
		<stop  offset="0" style="stop-color:#A7B1C1"/>
		<stop  offset="1" style="stop-color:#D7DDE2"/>
	</linearGradient>
	<path class="st12" d="M452.1,235.5c-41.5,0-75.1,33.8-75.1,75.5c0,20.8,8.4,39.7,22,53.4l45.8,46.1l-4.8,7.3h12.1l53.1-53.4
		c14.1-14.2,22-33.4,22-53.4C527.2,269.4,493.5,235.6,452.1,235.5L452.1,235.5L452.1,235.5z M454.3,344.6
		c-18.5,0-33.4-15.1-33.4-33.6v0c-0.1-18.5,14.9-33.5,33.4-33.6h0c18.5,0,33.4,15.1,33.4,33.6v0
		C487.8,329.6,472.8,344.6,454.3,344.6L454.3,344.6L454.3,344.6L454.3,344.6z"/>
	<linearGradient id="SVGID_14_" gradientUnits="userSpaceOnUse" x1="486.2108" y1="391.2132" x2="402.2258" y2="245.747">
		<stop  offset="0" style="stop-color:#C6D0E0"/>
		<stop  offset="1" style="stop-color:#EFF2F6"/>
	</linearGradient>
	<path class="st13" d="M439.9,235.5c-41.5,0-75.1,33.8-75.1,75.5c0,20.8,8.4,39.7,22,53.4l53.1,53.4l53.1-53.4
		c14.1-14.2,22-33.4,22-53.4C515,269.4,481.4,235.6,439.9,235.5L439.9,235.5L439.9,235.5z M442.2,344.6c-18.5,0-33.4-15.1-33.4-33.6
		v0c-0.1-18.5,14.9-33.5,33.4-33.6h0c18.5,0,33.4,15.1,33.4,33.6v0C475.6,329.6,460.7,344.6,442.2,344.6L442.2,344.6L442.2,344.6
		L442.2,344.6z"/>
	
		<radialGradient id="SVGID_15_" cx="407.5121" cy="390.3307" r="154.8902" gradientTransform="matrix(1 0 0 0.6937 0 122.5257)" gradientUnits="userSpaceOnUse">
		<stop  offset="0" style="stop-color:#EFF2F6"/>
		<stop  offset="1" style="stop-color:#D3DAE2"/>
	</radialGradient>
	<path class="st14" d="M280.1,388.6c-48.9-27.2-77.7-53.7-71.9-69.8c9.4-26.2,106.3-15.4,216.4,24.1c31.2,11.2,60.2,23.5,85.4,36
		c8.8,4.4,17.2,8.8,25.1,13.2c9,5,17.3,10,24.9,14.9c33.4,21.7,51.7,41.7,47,54.9c-3.7,10.3-20.8,14.9-47,14.3"/>
</g>
</svg>
