<?xml version="1.0" encoding="utf-8"?>
<!-- Generator: Adobe Illustrator 23.0.2, SVG Export Plug-In . SVG Version: 6.00 Build 0)  -->
<svg version="1.1" id="图层_1" xmlns="http://www.w3.org/2000/svg" xmlns:xlink="http://www.w3.org/1999/xlink" x="0px" y="0px"
	 viewBox="0 0 800 800" style="enable-background:new 0 0 800 800;" xml:space="preserve">
<style type="text/css">
	.st0{fill:url(#SVGID_1_);}
	.st1{fill:url(#SVGID_2_);}
	.st2{fill:url(#SVGID_3_);}
	.st3{fill:url(#SVGID_4_);}
	.st4{fill:url(#SVGID_5_);}
	.st5{fill:#B6C1D1;}
	.st6{fill:url(#SVGID_6_);}
	.st7{fill:url(#SVGID_7_);}
	.st8{fill:url(#SVGID_8_);}
	.st9{fill:url(#SVGID_9_);}
	.st10{fill:url(#SVGID_10_);}
	.st11{fill:url(#SVGID_11_);}
	.st12{fill:url(#SVGID_12_);}
	.st13{fill:url(#SVGID_13_);}
	.st14{fill:url(#SVGID_14_);}
	.st15{fill:url(#SVGID_15_);}
	.st16{fill:url(#SVGID_16_);}
	.st17{fill:url(#SVGID_17_);}
	.st18{fill:url(#SVGID_18_);}
	.st19{fill:url(#SVGID_19_);}
	.st20{fill:url(#SVGID_20_);}
	.st21{opacity:0.99;fill:url(#SVGID_21_);}
	.st22{opacity:0.99;fill:url(#SVGID_22_);}
	.st23{fill:url(#SVGID_23_);}
	.st24{fill:url(#SVGID_24_);}
	.st25{fill:url(#SVGID_25_);}
	.st26{fill:url(#SVGID_26_);}
	.st27{fill:url(#SVGID_27_);}
	.st28{fill:url(#SVGID_28_);}
</style>
<g>
	<linearGradient id="SVGID_1_" gradientUnits="userSpaceOnUse" x1="400" y1="885" x2="400" y2="139">
		<stop  offset="0.4171" style="stop-color:#F8FAFC;stop-opacity:0"/>
		<stop  offset="1" style="stop-color:#ECEFF4"/>
	</linearGradient>
	<ellipse class="st0" cx="400" cy="512" rx="400" ry="373"/>
	<linearGradient id="SVGID_2_" gradientUnits="userSpaceOnUse" x1="400" y1="618.3097" x2="400" y2="421.2816">
		<stop  offset="0" style="stop-color:#DFE2E5;stop-opacity:0"/>
		<stop  offset="1" style="stop-color:#D7DCE2;stop-opacity:0.5"/>
	</linearGradient>
	<ellipse class="st1" cx="400" cy="519.8" rx="254" ry="98.5"/>
	<linearGradient id="SVGID_3_" gradientUnits="userSpaceOnUse" x1="547.7368" y1="481.5" x2="547.7368" y2="458.7816">
		<stop  offset="0" style="stop-color:#DFE2E5;stop-opacity:0"/>
		<stop  offset="1" style="stop-color:#D7DCE2"/>
	</linearGradient>
	<ellipse class="st2" cx="547.7" cy="470.1" rx="29.3" ry="11.4"/>
	<linearGradient id="SVGID_4_" gradientUnits="userSpaceOnUse" x1="430.5872" y1="674" x2="430.5872" y2="438">
		<stop  offset="0" style="stop-color:#DFE2E5;stop-opacity:0"/>
		<stop  offset="1" style="stop-color:#D7DCE2;stop-opacity:0.5"/>
	</linearGradient>
	<polygon class="st3" points="623,674 238.2,674 247.6,510.8 398,438 552.8,516.7 	"/>
	<g>
		<g>
			<g>
				<linearGradient id="SVGID_5_" gradientUnits="userSpaceOnUse" x1="379.3532" y1="592.6468" x2="267.6177" y2="480.9113">
					<stop  offset="0" style="stop-color:#C6D0E0"/>
					<stop  offset="1" style="stop-color:#D7DDE2"/>
				</linearGradient>
				<polygon class="st4" points="400,572 247,517.3 247,501.6 400,556.2 				"/>
				<polygon class="st5" points="553,517.3 400,572 400,556.2 553,501.6 				"/>
				
					<linearGradient id="SVGID_6_" gradientUnits="userSpaceOnUse" x1="2869.8445" y1="-914.1924" x2="2909.4514" y2="-1062.0071" gradientTransform="matrix(0.7071 -0.7071 0.7071 0.7071 -944.5976 3243.5398)">
					<stop  offset="0" style="stop-color:#C6D0E0"/>
					<stop  offset="1" style="stop-color:#EFF2F6"/>
				</linearGradient>
				<polygon class="st6" points="553,501.6 400,556.2 247,501.6 400,454.2 				"/>
			</g>
			<g>
				<linearGradient id="SVGID_7_" gradientUnits="userSpaceOnUse" x1="379.3532" y1="575.0306" x2="267.6177" y2="463.2951">
					<stop  offset="0" style="stop-color:#C6D0E0"/>
					<stop  offset="1" style="stop-color:#D7DDE2"/>
				</linearGradient>
				<polygon class="st7" points="400,554.4 247,499.7 247,483.9 400,538.6 				"/>
				<polygon class="st5" points="553,499.7 400,554.4 400,538.6 553,483.9 				"/>
				
					<linearGradient id="SVGID_8_" gradientUnits="userSpaceOnUse" x1="2882.301" y1="-926.6489" x2="2921.9077" y2="-1074.4636" gradientTransform="matrix(0.7071 -0.7071 0.7071 0.7071 -944.5976 3243.5398)">
					<stop  offset="0" style="stop-color:#C6D0E0"/>
					<stop  offset="1" style="stop-color:#EFF2F6"/>
				</linearGradient>
				<polygon class="st8" points="553,483.9 400,538.6 247,483.9 400,436.6 				"/>
			</g>
			<g>
				<linearGradient id="SVGID_9_" gradientUnits="userSpaceOnUse" x1="356.068" y1="516.9495" x2="356.068" y2="345.2318">
					<stop  offset="0" style="stop-color:#C6D0E0"/>
					<stop  offset="1" style="stop-color:#EFF2F6"/>
				</linearGradient>
				<polygon class="st9" points="399.1,516.9 313,486.8 313,345.2 399.1,375.4 				"/>
				<linearGradient id="SVGID_10_" gradientUnits="userSpaceOnUse" x1="492.676" y1="480.2653" x2="393.4652" y2="381.0546">
					<stop  offset="0" style="stop-color:#A7B1C1"/>
					<stop  offset="1" style="stop-color:#C6D0E0"/>
				</linearGradient>
				<polygon class="st10" points="487,485.9 399.1,516.9 399.1,375.4 487,344.4 				"/>
				
					<linearGradient id="SVGID_11_" gradientUnits="userSpaceOnUse" x1="3000.4917" y1="-1037.728" x2="3000.4917" y2="-1160.1592" gradientTransform="matrix(0.7071 -0.7071 0.7071 0.7071 -944.5976 3243.5398)">
					<stop  offset="0" style="stop-color:#C6D0E0"/>
					<stop  offset="1" style="stop-color:#EFF2F6"/>
				</linearGradient>
				<polygon class="st11" points="487,344.4 399.1,375.4 313,345.2 399.1,317.7 				"/>
			</g>
			<g>
				<linearGradient id="SVGID_12_" gradientUnits="userSpaceOnUse" x1="389.1762" y1="360.606" x2="389.1762" y2="301.3369">
					<stop  offset="0" style="stop-color:#C6D0E0"/>
					<stop  offset="1" style="stop-color:#EFF2F6"/>
				</linearGradient>
				<polygon class="st12" points="399.8,360.6 378.6,353.2 378.6,301.3 399.8,308.8 				"/>
				<linearGradient id="SVGID_13_" gradientUnits="userSpaceOnUse" x1="410.6116" y1="360.606" x2="410.6116" y2="301.1246">
					<stop  offset="0" style="stop-color:#A7B1C1"/>
					<stop  offset="1" style="stop-color:#C6D0E0"/>
				</linearGradient>
				<polygon class="st13" points="421.4,353 399.8,360.6 399.8,308.8 421.4,301.1 				"/>
				
					<linearGradient id="SVGID_14_" gradientUnits="userSpaceOnUse" x1="3031.3008" y1="-1114.6704" x2="3031.3008" y2="-1144.8346" gradientTransform="matrix(0.7071 -0.7071 0.7071 0.7071 -944.5976 3243.5398)">
					<stop  offset="0" style="stop-color:#C6D0E0"/>
					<stop  offset="1" style="stop-color:#EFF2F6"/>
				</linearGradient>
				<polygon class="st14" points="421.4,301.1 399.8,308.8 378.6,301.3 399.8,294.5 				"/>
			</g>
			<g>
				<linearGradient id="SVGID_15_" gradientUnits="userSpaceOnUse" x1="356.068" y1="344.0909" x2="356.068" y2="295.6864">
					<stop  offset="0" style="stop-color:#C6D0E0"/>
					<stop  offset="1" style="stop-color:#EFF2F6"/>
				</linearGradient>
				<polygon class="st15" points="399.1,344.1 313,313.9 313,295.7 399.1,325.8 				"/>
				<polygon class="st5" points="487,313.1 399.1,344.1 399.1,325.8 487,294.8 				"/>
				<g>
					<linearGradient id="SVGID_16_" gradientUnits="userSpaceOnUse" x1="457.2839" y1="324.5437" x2="388.4394" y2="255.6992">
						<stop  offset="0" style="stop-color:#B6C2D3"/>
						<stop  offset="1" style="stop-color:#C6D2E0"/>
					</linearGradient>
					<polygon class="st16" points="487,294.8 399.1,325.8 399.1,245 					"/>
					
						<linearGradient id="SVGID_17_" gradientUnits="userSpaceOnUse" x1="3004.0647" y1="-1115.436" x2="3022.1836" y2="-1183.0565" gradientTransform="matrix(0.7071 -0.7071 0.7071 0.7071 -944.5976 3243.5398)">
						<stop  offset="0" style="stop-color:#C6D0E0"/>
						<stop  offset="1" style="stop-color:#EFF2F6"/>
					</linearGradient>
					<polygon class="st17" points="399.1,325.8 313,295.7 399.1,245 					"/>
				</g>
			</g>
		</g>
		<linearGradient id="SVGID_18_" gradientUnits="userSpaceOnUse" x1="452.4321" y1="440.3819" x2="437.8507" y2="419.5575">
			<stop  offset="0" style="stop-color:#C6D0E0"/>
			<stop  offset="1" style="stop-color:#EFF2F6"/>
		</linearGradient>
		<polygon class="st18" points="470.1,428 420.2,447.6 420.2,431.9 470.1,412.4 		"/>
		
			<linearGradient id="SVGID_19_" gradientUnits="userSpaceOnUse" x1="4568.3003" y1="442.7869" x2="4563.7803" y2="417.1525" gradientTransform="matrix(-1 0 0 1 4922 0)">
			<stop  offset="0" style="stop-color:#DFE6EF"/>
			<stop  offset="1" style="stop-color:#FFFFFF"/>
		</linearGradient>
		<polygon class="st19" points="331,428 380.9,447.6 380.9,431.9 331,412.4 		"/>
	</g>
	<linearGradient id="SVGID_20_" gradientUnits="userSpaceOnUse" x1="278.2334" y1="434.7582" x2="227.8184" y2="384.3432">
		<stop  offset="0" style="stop-color:#A7B1C1"/>
		<stop  offset="1" style="stop-color:#C6D0E0"/>
	</linearGradient>
	<path class="st20" d="M244.4,398.8l-7.7-1.1c-3.3-0.5-5.9-3.1-6.4-6.4l-1.1-7.7c-0.1-0.4-0.7-0.4-0.7,0l-1.1,7.7
		c-0.5,3.3-3.1,5.9-6.4,6.4l-7.7,1.1c-0.4,0.1-0.4,0.7,0,0.7l7.7,1.1c3.3,0.5,5.9,3.1,6.4,6.4l1.1,7.7c0.1,0.4,0.7,0.4,0.7,0
		l1.1-7.7c0.5-3.3,3.1-5.9,6.4-6.4l7.7-1.1C244.9,399.5,244.9,398.9,244.4,398.8z M235.6,383.3l5,0.7c2.2,0.3,3.9,2,4.2,4.2l0.7,5
		c0.1,0.3,0.5,0.3,0.5,0l0.7-5c0.3-2.2,2-3.9,4.2-4.2l5-0.7c0.3-0.1,0.3-0.5,0-0.5l-5-0.7c-2.2-0.3-3.9-2-4.2-4.2l-0.7-5
		c-0.1-0.3-0.5-0.3-0.5,0l-0.7,5.1c-0.3,2.2-2,3.9-4.2,4.2l-5,0.7C235.3,382.9,235.3,383.3,235.6,383.3z M286,426.3l-6-0.9
		c-2.6-0.4-4.6-2.4-5-5l-0.9-6c-0.1-0.4-0.5-0.4-0.6,0l-0.9,6c-0.4,2.6-2.4,4.6-5,5l-6,0.9c-0.4,0.1-0.4,0.5,0,0.6l6,0.9
		c2.6,0.4,4.6,2.4,5,5l0.9,6c0.1,0.4,0.5,0.4,0.6,0l0.9-6c0.4-2.6,2.4-4.6,5-5l6-0.9C286.4,426.8,286.4,426.4,286,426.3z"/>
	<g>
		
			<linearGradient id="SVGID_21_" gradientUnits="userSpaceOnUse" x1="4790.7051" y1="258.9482" x2="4805.9316" y2="243.7217" gradientTransform="matrix(-1 0 0 1 5300.6206 0)">
			<stop  offset="0" style="stop-color:#A7B1C1"/>
			<stop  offset="1" style="stop-color:#C6D0E0"/>
		</linearGradient>
		<path class="st21" d="M520,239.3l-5,0.7c-2.2,0.3-3.9,2-4.2,4.2l-0.7,5c-0.1,0.3-0.5,0.3-0.5,0l-0.7-5c-0.3-2.2-2-3.9-4.2-4.2
			l-5-0.7c-0.3-0.1-0.3-0.5,0-0.5l5-0.7c2.2-0.3,3.9-2,4.2-4.2l0.7-5c0.1-0.3,0.5-0.3,0.5,0l0.7,5.1c0.3,2.2,2,3.9,4.2,4.2l5,0.7
			C520.3,238.9,520.3,239.3,520,239.3z M482.6,261.3l6-0.9c2.6-0.4,4.6-2.4,5-5l0.9-6c0.1-0.4,0.5-0.4,0.6,0l0.9,6
			c0.4,2.6,2.4,4.6,5,5l6,0.9c0.4,0.1,0.4,0.5,0,0.6l-6,0.9c-2.6,0.4-4.6,2.4-5,5l-0.9,6c-0.1,0.4-0.5,0.4-0.6,0l-0.9-6
			c-0.4-2.6-2.4-4.6-5-5l-6-0.9C482.3,261.8,482.3,261.4,482.6,261.3z"/>
		
			<linearGradient id="SVGID_22_" gradientUnits="userSpaceOnUse" x1="4767.8115" y1="298.539" x2="4783.0532" y2="283.2976" gradientTransform="matrix(-1 0 0 1 5300.6206 0)">
			<stop  offset="0" style="stop-color:#A7B1C1"/>
			<stop  offset="1" style="stop-color:#C6D0E0"/>
		</linearGradient>
		<path class="st22" d="M539.9,291.3l-7.3,1c-3.2,0.5-5.6,2.9-6.1,6.1l-1,7.3c-0.1,0.5-0.7,0.5-0.8,0l-1-7.3
			c-0.5-3.2-2.9-5.6-6.1-6.1l-7.3-1c-0.5-0.1-0.5-0.7,0-0.8l7.3-1c3.2-0.5,5.6-2.9,6.1-6.1l1-7.3c0.1-0.5,0.7-0.5,0.8,0l1,7.3
			c0.5,3.2,2.9,5.6,6.1,6.1l7.3,1C540.4,290.6,540.4,291.2,539.9,291.3z"/>
	</g>
	<g>
		<g>
			<linearGradient id="SVGID_23_" gradientUnits="userSpaceOnUse" x1="549.4594" y1="458.8344" x2="549.4594" y2="387.6656">
				<stop  offset="0" style="stop-color:#A7B1C1"/>
				<stop  offset="1" style="stop-color:#C6D0E0"/>
			</linearGradient>
			<path class="st23" d="M581.1,406.1l-3.8,3.8c-4,4-10.4,4-14.4,0c0,0,0,0,0,0c-4-4-4-10.4,0-14.4c0,0,0,0,0,0l3.8-3.8
				c2.1-2.1,0.7-4.5-3-3.9c-3.8,0.6-7.4,2.3-10.3,5.2c-4.6,4.6-6.3,11.1-5.1,17.1l-31.4,31.4c-4,4-4,10.4,0,14.4c0,0,0,0,0,0
				c4,4,10.4,4,14.4,0l31.4-31.4c5.9,1.2,12.5-0.5,17.1-5.1c2.9-2.9,4.6-6.5,5.2-10.3C585.6,405.4,583.1,404,581.1,406.1z
				 M526.4,451c-1.3,1.3-3.5,1.3-4.8,0c-1.3-1.3-1.3-3.5,0-4.8c1.3-1.3,3.5-1.3,4.8,0C527.8,447.5,527.8,449.7,526.4,451z"/>
			<linearGradient id="SVGID_24_" gradientUnits="userSpaceOnUse" x1="537.2231" y1="415.984" x2="514.329" y2="393.0899">
				<stop  offset="0" style="stop-color:#A7B1C1"/>
				<stop  offset="1" style="stop-color:#C6D0E0"/>
			</linearGradient>
			<polygon class="st24" points="523.1,406.7 533,416.6 532.9,417.7 534.8,418.4 539.6,413.6 527.9,401.8 525.2,396.7 516.8,390.7 
				511.9,395.5 518,404 			"/>
			<linearGradient id="SVGID_25_" gradientUnits="userSpaceOnUse" x1="579.5599" y1="458.442" x2="556.3571" y2="435.2391">
				<stop  offset="0" style="stop-color:#A7B1C1"/>
				<stop  offset="1" style="stop-color:#C6D0E0"/>
			</linearGradient>
			<path class="st25" d="M562.5,431.7c-0.6-0.6-1.7-0.9-2.4-0.3l-7.3,7.5c-0.6,0.6-0.6,1.7,0,2.4l17.1,17.1c2.7,2.7,7,2.7,9.6,0
				c2.7-2.7,2.7-7,0-9.6L562.5,431.7z"/>
		</g>
		<g>
			<linearGradient id="SVGID_26_" gradientUnits="userSpaceOnUse" x1="547.4042" y1="457.9508" x2="547.4042" y2="387.5">
				<stop  offset="0" style="stop-color:#C6D0E0"/>
				<stop  offset="1" style="stop-color:#EFF2F6"/>
			</linearGradient>
			<path class="st26" d="M579.4,406.2l-3.8,3.7c-4,3.9-10.5,3.8-14.4-0.2c0,0,0,0,0,0c-3.9-4-3.8-10.5,0.2-14.4c0,0,0,0,0,0l3.8-3.7
				c2.1-2,0.8-4.5-3-3.9c-3.8,0.5-7.4,2.2-10.4,5c-4.7,4.5-6.5,11-5.4,17l-31.9,30.8c-4,3.9-4.2,10.3-0.3,14.4c0,0,0,0,0,0
				c3.9,4.1,10.3,4.2,14.4,0.3l31.9-30.8c5.9,1.3,12.5-0.3,17.2-4.8c3-2.9,4.7-6.5,5.4-10.2C583.9,405.6,581.5,404.1,579.4,406.2z
				 M524,450.1c-1.4,1.3-3.5,1.3-4.8-0.1c-1.3-1.4-1.3-3.5,0.1-4.8c1.4-1.3,3.5-1.3,4.8,0.1C525.4,446.7,525.4,448.8,524,450.1z"/>
			<linearGradient id="SVGID_27_" gradientUnits="userSpaceOnUse" x1="532.4081" y1="418.0106" x2="515.8716" y2="389.3686">
				<stop  offset="0" style="stop-color:#C6D0E0"/>
				<stop  offset="1" style="stop-color:#EFF2F6"/>
			</linearGradient>
			<polygon class="st27" points="521.4,405.8 532.9,417.7 537.8,413 526.3,401 523.7,395.9 515.4,389.7 510.4,394.4 516.3,403 			
				"/>
			<linearGradient id="SVGID_28_" gradientUnits="userSpaceOnUse" x1="573.1665" y1="461.0087" x2="556.577" y2="432.2748">
				<stop  offset="0" style="stop-color:#C6D0E0"/>
				<stop  offset="1" style="stop-color:#EFF2F6"/>
			</linearGradient>
			<path class="st28" d="M560.4,431.5c-0.6-0.6-1.7-0.6-2.4,0l-7.4,7.1c-0.6,0.6-0.6,1.7,0,2.4l16.8,17.4c2.6,2.7,7,2.8,9.6,0.2
				c2.7-2.6,2.8-7,0.2-9.6L560.4,431.5z"/>
		</g>
	</g>
</g>
</svg>
