<?xml version="1.0" encoding="utf-8"?>
<!-- Generator: Adobe Illustrator 23.0.2, SVG Export Plug-In . SVG Version: 6.00 Build 0)  -->
<svg version="1.1" id="图层_1" xmlns="http://www.w3.org/2000/svg" xmlns:xlink="http://www.w3.org/1999/xlink" x="0px" y="0px"
	 viewBox="0 0 800 800" style="enable-background:new 0 0 800 800;" xml:space="preserve">
<style type="text/css">
	.st0{fill:url(#SVGID_1_);}
	.st1{fill:url(#SVGID_2_);}
	.st2{fill:url(#SVGID_3_);}
	.st3{fill:url(#SVGID_4_);}
	.st4{fill:url(#SVGID_5_);}
	.st5{fill:url(#SVGID_6_);}
	.st6{fill:url(#SVGID_7_);}
	.st7{fill:url(#SVGID_8_);}
	.st8{fill:url(#SVGID_9_);}
	.st9{fill:url(#SVGID_10_);}
	.st10{fill:url(#SVGID_11_);}
	.st11{fill:url(#SVGID_12_);}
	.st12{fill:url(#SVGID_13_);}
	.st13{fill:url(#SVGID_14_);}
	.st14{fill:url(#SVGID_15_);}
	.st15{fill:url(#SVGID_16_);}
	.st16{fill:url(#SVGID_17_);}
	.st17{fill:url(#SVGID_18_);}
	.st18{fill:url(#SVGID_19_);}
	.st19{fill:url(#SVGID_20_);}
	.st20{fill:url(#SVGID_21_);}
	.st21{fill:url(#SVGID_22_);}
	.st22{fill:url(#SVGID_23_);}
	.st23{fill:url(#SVGID_24_);}
	.st24{fill:url(#SVGID_25_);}
	.st25{fill:url(#SVGID_26_);}
	.st26{fill:url(#SVGID_27_);}
	.st27{fill:url(#SVGID_28_);}
	.st28{fill:url(#SVGID_29_);}
	.st29{fill:url(#SVGID_30_);}
	.st30{fill:url(#SVGID_31_);}
	.st31{fill:url(#SVGID_32_);}
	.st32{fill:url(#SVGID_33_);}
	.st33{fill:#FFFFFF;}
	.st34{fill:#B4BECC;}
	.st35{fill:#D6DCE5;}
	.st36{fill:#92A3B7;}
	.st37{fill:#DCE2EA;}
	.st38{fill:#C3CCDB;}
	.st39{fill:#E4E8EF;}
</style>
<g>
	<linearGradient id="SVGID_1_" gradientUnits="userSpaceOnUse" x1="400" y1="885" x2="400" y2="139">
		<stop  offset="0.4171" style="stop-color:#F8FAFC;stop-opacity:0"/>
		<stop  offset="1" style="stop-color:#ECEFF4"/>
	</linearGradient>
	<ellipse class="st0" cx="400" cy="512" rx="400" ry="373"/>
	<linearGradient id="SVGID_2_" gradientUnits="userSpaceOnUse" x1="470.5" y1="660" x2="470.5" y2="399">
		<stop  offset="0" style="stop-color:#DFE2E5;stop-opacity:0"/>
		<stop  offset="1" style="stop-color:#D7DCE2"/>
	</linearGradient>
	<polygon class="st1" points="789,643 152,660 229,426.3 550,399 	"/>
	<g>
		<linearGradient id="SVGID_3_" gradientUnits="userSpaceOnUse" x1="664.1696" y1="612" x2="664.1696" y2="469">
			<stop  offset="0" style="stop-color:#DFE2E5;stop-opacity:0"/>
			<stop  offset="1" style="stop-color:#D7DCE2;stop-opacity:0.7"/>
		</linearGradient>
		<polygon class="st2" points="799.7,604 528.7,612 584,469 682,489 		"/>
		<g>
			<linearGradient id="SVGID_4_" gradientUnits="userSpaceOnUse" x1="596.0275" y1="487.5934" x2="596.0275" y2="353.4258">
				<stop  offset="0" style="stop-color:#B3BECE"/>
				<stop  offset="1" style="stop-color:#EFF2F6"/>
			</linearGradient>
			<rect x="585" y="353.4" class="st3" width="22.1" height="134.2"/>
			<linearGradient id="SVGID_5_" gradientUnits="userSpaceOnUse" x1="615.0192" y1="487.5934" x2="615.0192" y2="346.6868">
				<stop  offset="0" style="stop-color:#A7B1C1"/>
				<stop  offset="1" style="stop-color:#D7DDE2"/>
			</linearGradient>
			<polygon class="st4" points="623,479 607.1,487.6 607.1,353.4 623,346.7 			"/>
			<linearGradient id="SVGID_6_" gradientUnits="userSpaceOnUse" x1="603.9918" y1="353.4258" x2="603.9918" y2="346.6868">
				<stop  offset="0" style="stop-color:#C6D0E0"/>
				<stop  offset="1" style="stop-color:#EFF2F6"/>
			</linearGradient>
			<polygon class="st5" points="607.1,353.4 585,353.4 600.9,346.7 623,346.7 			"/>
		</g>
		<g>
			<linearGradient id="SVGID_7_" gradientUnits="userSpaceOnUse" x1="625.4341" y1="508" x2="625.4341" y2="291.739">
				<stop  offset="0" style="stop-color:#B3BECE"/>
				<stop  offset="1" style="stop-color:#EFF2F6"/>
			</linearGradient>
			<rect x="614.4" y="291.7" class="st6" width="22.1" height="216.3"/>
			<linearGradient id="SVGID_8_" gradientUnits="userSpaceOnUse" x1="644.4258" y1="508" x2="644.4258" y2="285">
				<stop  offset="0" style="stop-color:#A7B1C1"/>
				<stop  offset="1" style="stop-color:#D7DDE2"/>
			</linearGradient>
			<polygon class="st7" points="652.4,499.4 636.5,508 636.5,291.7 652.4,285 			"/>
			<linearGradient id="SVGID_9_" gradientUnits="userSpaceOnUse" x1="633.3984" y1="291.739" x2="633.3984" y2="285">
				<stop  offset="0" style="stop-color:#C6D0E0"/>
				<stop  offset="1" style="stop-color:#EFF2F6"/>
			</linearGradient>
			<polygon class="st8" points="636.5,291.7 614.4,291.7 630.3,285 652.4,285 			"/>
		</g>
		<g>
			<linearGradient id="SVGID_10_" gradientUnits="userSpaceOnUse" x1="654.8406" y1="505.5494" x2="654.8406" y2="409.3654">
				<stop  offset="0" style="stop-color:#B3BECE"/>
				<stop  offset="1" style="stop-color:#EFF2F6"/>
			</linearGradient>
			<rect x="643.8" y="409.4" class="st9" width="22.1" height="96.2"/>
			<linearGradient id="SVGID_11_" gradientUnits="userSpaceOnUse" x1="673.8324" y1="505.5494" x2="673.8324" y2="402.6264">
				<stop  offset="0" style="stop-color:#A7B1C1"/>
				<stop  offset="1" style="stop-color:#D7DDE2"/>
			</linearGradient>
			<polygon class="st10" points="681.8,497 665.9,505.5 665.9,409.4 681.8,402.6 			"/>
			<linearGradient id="SVGID_12_" gradientUnits="userSpaceOnUse" x1="662.8049" y1="409.3654" x2="662.8049" y2="402.6264">
				<stop  offset="0" style="stop-color:#C6D0E0"/>
				<stop  offset="1" style="stop-color:#EFF2F6"/>
			</linearGradient>
			<polygon class="st11" points="665.9,409.4 643.8,409.4 659.7,402.6 681.8,402.6 			"/>
		</g>
	</g>
	<linearGradient id="SVGID_13_" gradientUnits="userSpaceOnUse" x1="389.0575" y1="524.0883" x2="389.0575" y2="524.3875">
		<stop  offset="0" style="stop-color:#F0F3F7"/>
		<stop  offset="1" style="stop-color:#B2C2D3"/>
	</linearGradient>
	<path class="st12" d="M389.1,304.5c63.8,0,115.5,30.9,115.5,69.1s-51.7,69.1-115.5,69.1s-115.5-30.9-115.5-69.1
		S325.3,304.5,389.1,304.5z"/>
	<g>
		<linearGradient id="SVGID_14_" gradientUnits="userSpaceOnUse" x1="168.75" y1="606" x2="168.75" y2="454">
			<stop  offset="0" style="stop-color:#DFE2E5;stop-opacity:0"/>
			<stop  offset="1" style="stop-color:#D7DCE2;stop-opacity:0.7"/>
		</linearGradient>
		<polygon class="st13" points="282.5,598.5 55,606 108,473.2 216,454 		"/>
		<linearGradient id="SVGID_15_" gradientUnits="userSpaceOnUse" x1="175.3378" y1="495.9052" x2="175.3378" y2="448.8215">
			<stop  offset="0" style="stop-color:#A7B1C1"/>
			<stop  offset="1" style="stop-color:#D7DDE2"/>
		</linearGradient>
		<path class="st14" d="M216,472.4c0,13-18.2,23.5-40.7,23.5s-40.7-10.5-40.7-23.5c0-2.8,0-9.9,0-13.1c5.6-9.1,23-10.5,40.7-10.5
			c18,0,35.3,0.1,40.7,9.4C216,463.5,216,469.8,216,472.4z"/>
		<linearGradient id="SVGID_16_" gradientUnits="userSpaceOnUse" x1="175.3378" y1="482.3033" x2="175.3378" y2="435.2196">
			<stop  offset="0" style="stop-color:#C6D0E0"/>
			<stop  offset="1" style="stop-color:#EFF2F6"/>
		</linearGradient>
		<ellipse class="st15" cx="175.3" cy="458.8" rx="40.7" ry="23.5"/>
		<linearGradient id="SVGID_17_" gradientUnits="userSpaceOnUse" x1="175.3378" y1="480.2107" x2="175.3378" y2="433.127">
			<stop  offset="0" style="stop-color:#A7B1C1"/>
			<stop  offset="1" style="stop-color:#D7DDE2"/>
		</linearGradient>
		<path class="st16" d="M216,456.7c0,13-18.2,23.5-40.7,23.5s-40.7-10.5-40.7-23.5c0-2.8,0-9.9,0-13.1c5.6-9.1,23-10.5,40.7-10.5
			c18,0,35.3,0.1,40.7,9.4C216,447.8,216,454.1,216,456.7z"/>
		<linearGradient id="SVGID_18_" gradientUnits="userSpaceOnUse" x1="175.3378" y1="466.6087" x2="175.3378" y2="419.525">
			<stop  offset="0" style="stop-color:#C6D0E0"/>
			<stop  offset="1" style="stop-color:#EFF2F6"/>
		</linearGradient>
		<ellipse class="st17" cx="175.3" cy="443.1" rx="40.7" ry="23.5"/>
		<linearGradient id="SVGID_19_" gradientUnits="userSpaceOnUse" x1="175.3378" y1="464.5161" x2="175.3378" y2="417.4324">
			<stop  offset="0" style="stop-color:#A7B1C1"/>
			<stop  offset="1" style="stop-color:#D7DDE2"/>
		</linearGradient>
		<path class="st18" d="M216,441c0,13-18.2,23.5-40.7,23.5S134.7,454,134.7,441c0-2.8,0-9.9,0-13.1c5.6-9.1,23-10.5,40.7-10.5
			c18,0,35.3,0.1,40.7,9.4C216,432.1,216,438.4,216,441z"/>
		<linearGradient id="SVGID_20_" gradientUnits="userSpaceOnUse" x1="175.3378" y1="450.9142" x2="175.3378" y2="403.8304">
			<stop  offset="0" style="stop-color:#C6D0E0"/>
			<stop  offset="1" style="stop-color:#EFF2F6"/>
		</linearGradient>
		<ellipse class="st19" cx="175.3" cy="427.4" rx="40.7" ry="23.5"/>
		<linearGradient id="SVGID_21_" gradientUnits="userSpaceOnUse" x1="175.3378" y1="448.9342" x2="175.3378" y2="401.8505">
			<stop  offset="0" style="stop-color:#A7B1C1"/>
			<stop  offset="1" style="stop-color:#D7DDE2"/>
		</linearGradient>
		<path class="st20" d="M216,425.4c0,13-18.2,23.5-40.7,23.5s-40.7-10.5-40.7-23.5c0-2.8,0-9.9,0-13.1c5.6-9.1,23-10.5,40.7-10.5
			c18,0,35.3,0.1,40.7,9.4C216,416.5,216,422.8,216,425.4z"/>
		<linearGradient id="SVGID_22_" gradientUnits="userSpaceOnUse" x1="175.3378" y1="435.3323" x2="175.3378" y2="388.2486">
			<stop  offset="0" style="stop-color:#C6D0E0"/>
			<stop  offset="1" style="stop-color:#EFF2F6"/>
		</linearGradient>
		<ellipse class="st21" cx="175.3" cy="411.8" rx="40.7" ry="23.5"/>
		<linearGradient id="SVGID_23_" gradientUnits="userSpaceOnUse" x1="175.3378" y1="433.3523" x2="175.3378" y2="386.2686">
			<stop  offset="0" style="stop-color:#A7B1C1"/>
			<stop  offset="1" style="stop-color:#D7DDE2"/>
		</linearGradient>
		<path class="st22" d="M216,409.8c0,13-18.2,23.5-40.7,23.5s-40.7-10.5-40.7-23.5c0-2.8,0-9.9,0-13.1c5.6-9.1,23-10.5,40.7-10.5
			c18,0,35.3,0.1,40.7,9.4C216,400.9,216,407.2,216,409.8z"/>
		<linearGradient id="SVGID_24_" gradientUnits="userSpaceOnUse" x1="184.2761" y1="420.7663" x2="166.3995" y2="371.6507">
			<stop  offset="0" style="stop-color:#C6D0E0"/>
			<stop  offset="1" style="stop-color:#EFF2F6"/>
		</linearGradient>
		<ellipse class="st23" cx="175.3" cy="396.2" rx="40.7" ry="23.5"/>
		<linearGradient id="SVGID_25_" gradientUnits="userSpaceOnUse" x1="175.3378" y1="417.3523" x2="175.3378" y2="370.2686">
			<stop  offset="0" style="stop-color:#A7B1C1"/>
			<stop  offset="1" style="stop-color:#D7DDE2"/>
		</linearGradient>
		<path class="st24" d="M216,393.8c0,13-18.2,23.5-40.7,23.5s-40.7-10.5-40.7-23.5c0-2.8,0-9.9,0-13.1c5.6-9.1,23-10.5,40.7-10.5
			c18,0,35.3,0.1,40.7,9.4C216,384.9,216,391.2,216,393.8z"/>
		<linearGradient id="SVGID_26_" gradientUnits="userSpaceOnUse" x1="184.2761" y1="404.7663" x2="166.3995" y2="355.6507">
			<stop  offset="0" style="stop-color:#C6D0E0"/>
			<stop  offset="1" style="stop-color:#EFF2F6"/>
		</linearGradient>
		<ellipse class="st25" cx="175.3" cy="380.2" rx="40.7" ry="23.5"/>
		<linearGradient id="SVGID_27_" gradientUnits="userSpaceOnUse" x1="175.3378" y1="401.3523" x2="175.3378" y2="354.2686">
			<stop  offset="0" style="stop-color:#A7B1C1"/>
			<stop  offset="1" style="stop-color:#D7DDE2"/>
		</linearGradient>
		<path class="st26" d="M216,377.8c0,13-18.2,23.5-40.7,23.5s-40.7-10.5-40.7-23.5c0-2.8,0-9.9,0-13.1c5.6-9.1,23-10.5,40.7-10.5
			c18,0,35.3,0.1,40.7,9.4C216,368.9,216,375.2,216,377.8z"/>
		<linearGradient id="SVGID_28_" gradientUnits="userSpaceOnUse" x1="184.2761" y1="388.7663" x2="166.3995" y2="339.6507">
			<stop  offset="0" style="stop-color:#C6D0E0"/>
			<stop  offset="1" style="stop-color:#EFF2F6"/>
		</linearGradient>
		<ellipse class="st27" cx="175.3" cy="364.2" rx="40.7" ry="23.5"/>
		<g>
			<linearGradient id="SVGID_29_" gradientUnits="userSpaceOnUse" x1="141.1221" y1="498.9436" x2="141.1221" y2="424">
				<stop  offset="0" style="stop-color:#A7B1C1"/>
				<stop  offset="1" style="stop-color:#D7DDE2"/>
			</linearGradient>
			<path class="st28" d="M171,461.5c0,20.7-13.4,37.5-29.9,37.5c-3.1,0-5.4,0-9.8,0c-12.1-4.8-20.1-20.7-20.1-37.5
				c0-16.3,8.5-32.3,20.1-37.5c4.4,0,6.3,0,9.8,0C157.6,424,171,440.8,171,461.5z"/>
			<linearGradient id="SVGID_30_" gradientUnits="userSpaceOnUse" x1="131.4414" y1="498.9436" x2="131.4414" y2="424">
				<stop  offset="0" style="stop-color:#C6D0E0"/>
				<stop  offset="1" style="stop-color:#EFF2F6"/>
			</linearGradient>
			<ellipse class="st29" cx="131.4" cy="461.5" rx="29.9" ry="37.5"/>
		</g>
	</g>
	<g>
		<linearGradient id="SVGID_31_" gradientUnits="userSpaceOnUse" x1="588.6862" y1="604.795" x2="292.9456" y2="309.0544">
			<stop  offset="0" style="stop-color:#A7B1C1"/>
			<stop  offset="1" style="stop-color:#D7DDE2"/>
		</linearGradient>
		<path class="st30" d="M649,501l-115.5-32.8c-5.2-3.1-6.4-7.9-3-11.8c6.1-7.1,10.7-14.6,13.7-22.2c8.4-19.2,4.8-63.7,4.8-63.7
			l-9.5,10.3c-7.6-13.1-20.2-25.4-37.7-35.9c-31.1-18.6-71.8-27.9-112.6-27.9c-41.4,0-82.8,9.6-114.3,28.7
			c-17.9,10.9-30.6,23.8-38,37.5L230,372c0,0-1.9,20.7-1.1,38.8c-1,25.1,14.5,50.4,46.2,69.5c31.1,18.7,71.9,28,112.8,28
			c25.3,0,50.6-3.6,73.6-10.7c2.5-0.8,5.2-1.1,7.8-1.1c4.4,0,8.7,1,11.9,3l110.4,65.4c3.6,2.1,8.2,3.2,12.9,3.2
			c4.7,0,9.4-1.1,13-3.2l26.3-15.7c4.1-2.4,5.2-5.1,5.3-8.9C649.1,537.7,652.1,502.8,649,501z"/>
		<linearGradient id="SVGID_32_" gradientUnits="userSpaceOnUse" x1="585.6679" y1="571.8002" x2="296.5255" y2="282.6578">
			<stop  offset="0" style="stop-color:#C6D0E0"/>
			<stop  offset="1" style="stop-color:#EFF2F6"/>
		</linearGradient>
		<path class="st31" d="M390.1,280c-41.4,0-82.8,9.6-114.3,28.7c-61.4,37.3-61.2,97.6,0.3,134.6c31.1,18.7,71.9,28,112.8,28
			c25.3,0,50.6-3.6,73.6-10.7c2.5-0.8,5.2-1.1,7.8-1.1c4.4,0,8.7,1,11.9,3l110.4,65.4c3.6,2.1,8.2,3.2,12.9,3.2
			c4.7,0,9.4-1.1,13-3.2l26.3-15.7c7.1-4.3,7.2-11.2,0-15.5l-110.4-65.4c-5.2-3.1-6.4-7.9-3-11.8c31.1-36,21.6-81.3-28.7-111.4
			C471.7,289.3,430.9,280,390.1,280L390.1,280z"/>
		<linearGradient id="SVGID_33_" gradientUnits="userSpaceOnUse" x1="457.394" y1="311.7442" x2="327.1983" y2="441.94">
			<stop  offset="0" style="stop-color:#B3BECE"/>
			<stop  offset="1" style="stop-color:#EFF2F6"/>
		</linearGradient>
		<path class="st32" d="M392.3,311c62,0,112.3,29.5,112.3,65.8s-50.3,65.8-112.3,65.8S280,413.2,280,376.8S330.3,311,392.3,311z"/>
		<path class="st33" d="M305.1,360.5c-0.7,0-1.4-0.2-2-0.5c-1.6-0.9-2-2.8-0.9-4.2c8.4-10.2,17.6-16,18-16.2c1.6-1,3.8-0.7,4.9,0.6
			s0.8,3.2-0.7,4.2c-0.2,0.1-8.7,5.6-16.4,14.9C307.3,360.1,306.2,360.5,305.1,360.5z M298.1,370.8c-0.5,0-1.1-0.1-1.6-0.3
			c-1.7-0.7-2.4-2.6-1.5-4l1-1.7c0.9-1.5,3-2.1,4.7-1.3c1.7,0.7,2.4,2.6,1.5,4l-1,1.7C300.6,370.2,299.4,370.8,298.1,370.8z"/>
	</g>
	<g>
		<g>
			<path class="st34" d="M363.6,402.6l-11.1,11.1l4.2,2.1v6.3l-8.9,8.9l-18.8-40.7v-6.3l11.5-5.3l40.6,12.6v6.3l-9.1,9.1
				L363.6,402.6z M354.6,397.9l-12.3-6.3l-0.5,0.5l6.2,12.4L354.6,397.9z"/>
		</g>
		<g>
			<g>
				<path class="st35" d="M363.6,396.3l-11.1,11.1l4.2,8.4l-8.9,8.9l-18.8-40.7l11.5-11.5l40.6,18.9l-9.1,9.1L363.6,396.3z
					 M354.6,391.7l-12.3-6.3l-0.5,0.5l6.2,12.4L354.6,391.7z"/>
			</g>
		</g>
	</g>
	<g>
		<g>
			<g>
				<path class="st36" d="M442.8,314.2l18,4.5c3.8,1,6.9,2,9.3,3.1c2.4,1.1,4.2,2.3,5.5,3.6c1.3,1.3,2,2.7,2.3,4.3
					c0.3,1.5,0.2,3.2-0.3,5.1c-0.5,2.1-1.5,3.7-2.8,4.8c-1.4,1.1-3.4,1.6-6.2,1.6l-0.1,0.2c2.3,1.3,4.1,2.9,5.2,4.7
					c1.1,1.8,1.4,4.1,0.7,6.8c-0.5,1.8-1.2,3.4-2.1,4.8c-0.9,1.3-2.3,2.3-4,3c-1.7,0.7-3.9,0.9-6.5,0.9c-2.6-0.1-5.8-0.6-9.6-1.5
					l-19.6-4.9l7.5-38.7L442.8,314.2z M452.4,350.2c1.4,0.3,2.6,0.6,3.6,0.7c1,0.1,1.8,0.1,2.4,0c0.6-0.1,1.1-0.4,1.5-0.8
					c0.4-0.4,0.6-1,0.8-1.7c0.2-0.7,0.2-1.3,0.1-1.9c-0.1-0.5-0.4-1-0.9-1.5c-0.5-0.4-1.2-0.8-2.1-1.2c-0.9-0.4-2.1-0.7-3.5-1.1
					l-3.6-0.9l-1.9,7.4L452.4,350.2z M455.2,334.4c2.6,0.6,4.5,0.9,5.8,0.8s2-1,2.4-2.5c0.4-1.5,0-2.5-1-3.2c-1-0.7-2.9-1.3-5.5-2
					l-2.6-0.6l-1.7,6.9L455.2,334.4z"/>
			</g>
		</g>
		<g>
			<path class="st37" d="M440.2,316.2l15.2,3.8c3.2,0.8,5.8,1.7,7.8,2.7c2,1,3.5,2.1,4.5,3.4c1,1.2,1.6,2.6,1.8,4.1
				c0.2,1.5,0,3.2-0.4,5c-0.5,2.1-1.4,3.7-2.6,4.9c-1.2,1.1-3,1.7-5.4,1.8l-0.1,0.2c2,1.2,3.4,2.7,4.3,4.4c0.9,1.8,1,4,0.4,6.7
				c-0.5,1.8-1.1,3.4-2,4.8c-0.9,1.3-2,2.4-3.5,3.1c-1.5,0.7-3.4,1.1-5.6,1.1c-2.2,0-4.9-0.4-8.1-1.2L430,357L440.2,316.2z
				 M447.1,351.4c1.2,0.3,2.2,0.5,3,0.6c0.8,0.1,1.5,0.1,2.1-0.1c0.5-0.2,1-0.4,1.3-0.9c0.3-0.4,0.6-1,0.7-1.7
				c0.2-0.7,0.2-1.3,0.2-1.9c-0.1-0.5-0.3-1-0.7-1.4c-0.4-0.4-1-0.8-1.7-1.1c-0.8-0.3-1.7-0.7-2.9-1l-3.1-0.8l-1.9,7.4L447.1,351.4z
				 M450.1,335.7c2.2,0.5,3.8,0.7,4.9,0.6c1.1-0.2,1.8-1,2.2-2.6c0.4-1.5,0.1-2.5-0.8-3.1s-2.4-1.2-4.6-1.8l-2.2-0.5l-1.7,6.9
				L450.1,335.7z"/>
		</g>
	</g>
	<g>
		<g>
			<path class="st38" d="M376.4,266.3c-2.1-2.3-3.9-4.5-5.2-6.8c-1.3-2.2-2-4.5-2.1-6.9c-0.1-2.4,0.5-4.8,1.8-7.4
				c1.3-2.6,3.5-5.3,6.6-8.3c2.8-2.7,5.6-4.6,8.1-5.8c2.6-1.2,5.1-1.7,7.5-1.5c2.4,0.1,4.7,0.9,6.9,2.2c2.2,1.3,4.4,3.1,6.4,5.3
				c1.4,1.4,2.6,2.9,3.5,4.3c1,1.4,1.8,2.7,2.3,4l-7.2,6.8c-1.1-2.7-2.9-5.2-5.1-7.6c-1-1.1-2-1.9-3-2.3c-1-0.5-2-0.7-3.1-0.6
				c-1.1,0.1-2.2,0.5-3.5,1.3s-2.6,1.9-4.1,3.3c-1.6,1.5-2.8,2.9-3.6,4.1c-0.8,1.2-1.2,2.3-1.4,3.4c-0.1,1,0.1,2.1,0.6,3
				c0.5,1,1.2,2,2.2,3c1,1.1,2.2,2.2,3.4,3.2c1.2,1,2.6,1.9,4.1,2.6l-7.2,6.8c-1.2-0.6-2.5-1.4-4-2.5
				C379.1,268.9,377.7,267.7,376.4,266.3z"/>
		</g>
		<g>
			<path class="st39" d="M381.1,261.6c-2.1-2.3-3.9-4.5-5.2-6.8c-1.3-2.2-2-4.5-2.1-6.9c-0.1-2.4,0.5-4.8,1.8-7.4
				c1.3-2.6,3.5-5.3,6.6-8.3c2.8-2.7,5.6-4.6,8.1-5.8c2.6-1.2,5.1-1.7,7.5-1.5c2.4,0.1,4.7,0.9,6.9,2.2c2.2,1.3,4.4,3.1,6.4,5.3
				c1.4,1.4,2.6,2.9,3.5,4.3c1,1.4,1.8,2.7,2.3,4l-7.2,6.8c-1.1-2.7-2.9-5.2-5.1-7.6c-1-1.1-2-1.9-3-2.3s-2-0.7-3.1-0.6
				c-1.1,0.1-2.2,0.5-3.5,1.3c-1.2,0.8-2.6,1.9-4.1,3.3c-1.6,1.5-2.8,2.9-3.6,4.1c-0.8,1.2-1.2,2.3-1.4,3.4c-0.1,1,0.1,2.1,0.6,3
				c0.5,1,1.2,2,2.2,3c1,1.1,2.2,2.2,3.4,3.2c1.2,1,2.6,1.9,4.1,2.6l-7.2,6.8c-1.2-0.6-2.5-1.4-4-2.5
				C383.8,264.2,382.4,263,381.1,261.6z"/>
		</g>
	</g>
</g>
</svg>
