<?xml version="1.0" encoding="utf-8"?>
<!-- Generator: Adobe Illustrator 23.0.2, SVG Export Plug-In . SVG Version: 6.00 Build 0)  -->
<svg version="1.1" id="图层_1" xmlns="http://www.w3.org/2000/svg" xmlns:xlink="http://www.w3.org/1999/xlink" x="0px" y="0px"
	 viewBox="0 0 800 800" style="enable-background:new 0 0 800 800;" xml:space="preserve">
<style type="text/css">
	.st0{fill:url(#SVGID_1_);}
	.st1{fill:url(#SVGID_2_);}
	.st2{fill:url(#SVGID_3_);}
	.st3{opacity:0.3;fill:#C6D0E0;}
	.st4{fill:url(#SVGID_4_);}
	.st5{fill:url(#SVGID_5_);}
	.st6{fill:#C6D0E0;}
	.st7{fill:url(#SVGID_6_);}
	.st8{fill:url(#SVGID_7_);}
	.st9{fill:url(#SVGID_8_);}
	.st10{fill:url(#SVGID_9_);}
	.st11{fill:url(#SVGID_10_);}
	.st12{fill:url(#SVGID_11_);}
	.st13{fill:url(#SVGID_12_);}
	.st14{fill:url(#SVGID_13_);}
	.st15{fill:url(#SVGID_14_);stroke:#C6D0E0;stroke-width:16;stroke-miterlimit:10;}
	.st16{fill:url(#SVGID_15_);}
	.st17{fill:url(#SVGID_16_);}
	.st18{fill:url(#SVGID_17_);}
	.st19{fill:url(#SVGID_18_);}
	.st20{fill:url(#SVGID_19_);}
	.st21{fill:url(#SVGID_20_);}
	.st22{fill:none;stroke:url(#SVGID_21_);stroke-width:2;stroke-miterlimit:10;}
</style>
<g>
	<linearGradient id="SVGID_1_" gradientUnits="userSpaceOnUse" x1="400" y1="885" x2="400" y2="139">
		<stop  offset="0.4171" style="stop-color:#F8FAFC;stop-opacity:0"/>
		<stop  offset="1" style="stop-color:#ECEFF4"/>
	</linearGradient>
	<ellipse class="st0" cx="400" cy="512" rx="400" ry="373"/>
	<linearGradient id="SVGID_2_" gradientUnits="userSpaceOnUse" x1="400" y1="618.3097" x2="400" y2="421.2816">
		<stop  offset="0" style="stop-color:#DFE2E5;stop-opacity:0"/>
		<stop  offset="1" style="stop-color:#D7DCE2;stop-opacity:0.5"/>
	</linearGradient>
	<ellipse class="st1" cx="400" cy="519.8" rx="254" ry="98.5"/>
	<linearGradient id="SVGID_3_" gradientUnits="userSpaceOnUse" x1="413.7377" y1="678.268" x2="413.7377" y2="481.7348">
		<stop  offset="0" style="stop-color:#DFE2E5;stop-opacity:0"/>
		<stop  offset="1" style="stop-color:#D7DCE2;stop-opacity:0.5"/>
	</linearGradient>
	<polygon class="st2" points="536.3,678.3 291.2,678.3 310.6,482.8 488.8,481.7 	"/>
	<ellipse class="st3" cx="400" cy="558.5" rx="52.9" ry="20.5"/>
	<linearGradient id="SVGID_4_" gradientUnits="userSpaceOnUse" x1="249.5047" y1="315.1566" x2="276.3937" y2="315.1566">
		<stop  offset="0" style="stop-color:#C6D0E0"/>
		<stop  offset="1" style="stop-color:#EFF2F6"/>
	</linearGradient>
	<path class="st4" d="M271.3,306.7c2.9-0.2,5.2-2.7,5.1-5.6c-0.1-2.9-2.5-5.3-5.4-5.2c-9.9,0.4-15.2,7.4-14.8,18.4
		c0.2,6.2-1,9-3,9.7l-0.7,0.3c-1.5,0.8-2.6,2.2-2.9,3.9c-0.4,1.9,0.4,3.9,1.9,5.1s3.6,1.6,5.4,0.9c7.3-2.7,10.5-9.9,10.2-20.3
		C266.8,308.3,268,306.8,271.3,306.7z"/>
	<linearGradient id="SVGID_5_" gradientUnits="userSpaceOnUse" x1="567.5911" y1="420.0506" x2="589.6417" y2="420.0506">
		<stop  offset="0" style="stop-color:#C6D0E0"/>
		<stop  offset="1" style="stop-color:#EFF2F6"/>
	</linearGradient>
	<path class="st5" d="M569.4,436.7c2.2,2,5.6,1.8,7.6-0.4c9.1-10.1,13.5-17.8,12.5-24.3c-1.1-7.4-5.5-12.1-12.2-8.9
		c-2.7,1.3-3.9,4.5-2.6,7.2c0.8,1.6,2.3,2.8,4,3c0,0.1,0,0.2,0,0.3c0.3,2.2-2.8,7.7-9.8,15.5C567,431.3,567.2,434.7,569.4,436.7z"/>
	<path class="st6" d="M523.6,324.4c-0.7-0.7-1.7-1-2.6-0.9c-1,0.2-1.8,0.8-2.1,1.7l-5.9,14.8v0c-0.4,1-0.2,2.2,0.5,3
		c0.7,0.8,1.9,1.1,2.9,0.8l15.3-4.6c0.9-0.3,1.7-1,1.9-2c0.3-1,0-2-0.7-2.7L523.6,324.4z"/>
	<linearGradient id="SVGID_6_" gradientUnits="userSpaceOnUse" x1="523.7349" y1="493.6345" x2="536.2524" y2="493.6345">
		<stop  offset="0" style="stop-color:#C6D0E0"/>
		<stop  offset="1" style="stop-color:#EFF2F6"/>
	</linearGradient>
	<path class="st7" d="M534.4,500.2c0.6,0,1.2-0.3,1.6-0.8c0.4-0.5,0.4-1.2,0.2-1.8l-4-9.4l0,0c-0.3-0.6-0.9-1.1-1.6-1.1
		c-0.7,0-1.4,0.3-1.7,1l-4.8,9c-0.3,0.6-0.3,1.2,0,1.8c0.3,0.6,0.9,0.9,1.5,0.9L534.4,500.2z"/>
	
		<linearGradient id="SVGID_7_" gradientUnits="userSpaceOnUse" x1="1329.896" y1="167.8965" x2="1348.6603" y2="167.8965" gradientTransform="matrix(0.8855 -0.4646 0.4646 0.8855 -1032.4506 953.9479)">
		<stop  offset="0" style="stop-color:#C6D0E0"/>
		<stop  offset="1" style="stop-color:#EFF2F6"/>
	</linearGradient>
	<path class="st8" d="M241.8,485.9c0.9-0.4,1.4-1.2,1.5-2.2c0.1-0.9-0.3-1.9-1-2.5l-11.9-9.7l0,0c-0.8-0.7-2-0.8-2.9-0.4
		c-1,0.4-1.6,1.4-1.6,2.5l-0.1,15.4c0,0.9,0.5,1.8,1.3,2.3c0.8,0.5,1.8,0.6,2.7,0.2L241.8,485.9z"/>
	<g>
		<g>
			<g>
				
					<linearGradient id="SVGID_8_" gradientUnits="userSpaceOnUse" x1="828.2366" y1="1682.6796" x2="772.3132" y2="1626.7562" gradientTransform="matrix(1 0 0 1 -487.0471 -1209.0698)">
					<stop  offset="0" style="stop-color:#A7B1C1"/>
					<stop  offset="1" style="stop-color:#C6D0E0"/>
				</linearGradient>
				<path class="st9" d="M340.5,398.1c-41.4,1.8-74.2,26.6-74.2,57.1c0,22.1,17.3,41.2,42.6,50.7l8.2-8.5l-4.7-3.6L340.5,398.1z"/>
				
					<linearGradient id="SVGID_9_" gradientUnits="userSpaceOnUse" x1="986.3848" y1="1713.318" x2="986.3848" y2="1607.4492" gradientTransform="matrix(1 0 0 1 -487.0471 -1209.0698)">
					<stop  offset="0" style="stop-color:#A7B1C1"/>
					<stop  offset="1" style="stop-color:#C6D0E0"/>
				</linearGradient>
				<path class="st10" d="M464.5,398.4l27.6,94.2l-4.8,4.9l8.2,6.8c23.1-10,38.6-28.2,38.6-49.1
					C534.1,425.9,503.7,401.7,464.5,398.4z"/>
			</g>
			
				<linearGradient id="SVGID_10_" gradientUnits="userSpaceOnUse" x1="761.5801" y1="1652.5919" x2="835.7894" y2="1652.5919" gradientTransform="matrix(1 0 0 1 -487.0471 -1209.0698)">
				<stop  offset="0" style="stop-color:#C6D0E0"/>
				<stop  offset="1" style="stop-color:#EFF2F6"/>
			</linearGradient>
			<path class="st11" d="M348.7,389.6c-41.4,1.8-74.2,26.6-74.2,57.1c0,22.1,17.3,41.2,42.6,50.7L348.7,389.6z"/>
			
				<linearGradient id="SVGID_11_" gradientUnits="userSpaceOnUse" x1="1012.9933" y1="1653.5543" x2="943.386" y2="1653.5543" gradientTransform="matrix(1 0 0 1 -487.0471 -1209.0698)">
				<stop  offset="0" style="stop-color:#C6D0E0"/>
				<stop  offset="1" style="stop-color:#EFF2F6"/>
			</linearGradient>
			<path class="st12" d="M456.3,391.6l31.1,105.9c23.1-10,38.6-28.2,38.6-49.1C525.9,419,495.5,394.9,456.3,391.6z"/>
		</g>
		
			<linearGradient id="SVGID_12_" gradientUnits="userSpaceOnUse" x1="969.6565" y1="1686.9729" x2="804.9169" y2="1522.2333" gradientTransform="matrix(1 0 0 1 -487.0471 -1209.0698)">
			<stop  offset="0" style="stop-color:#A7B1C1"/>
			<stop  offset="1" style="stop-color:#C6D0E0"/>
		</linearGradient>
		<path class="st13" d="M348,505.9h104.5c33.4-23.7,56.1-69.5,56.1-122.1c0-77-108.3-139.4-108.3-139.4s-108.3,62.4-108.3,139.4
			C291.9,436.4,314.6,482.1,348,505.9z"/>
		
			<linearGradient id="SVGID_13_" gradientUnits="userSpaceOnUse" x1="948.6566" y1="1696.5604" x2="822.3721" y2="1477.8292" gradientTransform="matrix(1 0 0 1 -487.0471 -1209.0698)">
			<stop  offset="0" style="stop-color:#C6D0E0"/>
			<stop  offset="1" style="stop-color:#EFF2F6"/>
		</linearGradient>
		<path class="st14" d="M348,492.8h104.5c33.4-23.7,56.1-69.5,56.1-122.1c0-77-108.3-139.4-108.3-139.4s-108.3,62.4-108.3,139.4
			C291.9,423.2,314.6,469,348,492.8z"/>
		<linearGradient id="SVGID_14_" gradientUnits="userSpaceOnUse" x1="400.2396" y1="412.1548" x2="400.2396" y2="315.8659">
			<stop  offset="0" style="stop-color:#C6D0E0"/>
			<stop  offset="1" style="stop-color:#FFFFFF"/>
		</linearGradient>
		<circle class="st15" cx="400.2" cy="364" r="48.1"/>
	</g>
	<g>
		<g>
			
				<linearGradient id="SVGID_15_" gradientUnits="userSpaceOnUse" x1="826.624" y1="1801.6514" x2="826.624" y2="1756.8021" gradientTransform="matrix(1 0 0 1 -427.0471 -1235.6514)">
				<stop  offset="0" style="stop-color:#A7B1C1"/>
				<stop  offset="1" style="stop-color:#C6D0E0"/>
			</linearGradient>
			<path class="st16" d="M399.6,566L399.6,566c-4.2,0-7.6-3.4-7.6-7.6v-29.6c0-4.2,3.4-7.6,7.6-7.6h0c4.2,0,7.6,3.4,7.6,7.6v29.6
				C407.2,562.6,403.8,566,399.6,566z"/>
			
				<linearGradient id="SVGID_16_" gradientUnits="userSpaceOnUse" x1="826.624" y1="1753.4172" x2="826.624" y2="1798.2665" gradientTransform="matrix(1 0 0 1 -427.0471 -1235.6514)">
				<stop  offset="0" style="stop-color:#C6D0E0"/>
				<stop  offset="1" style="stop-color:#DFE4EA"/>
			</linearGradient>
			<path class="st17" d="M399.6,562.6L399.6,562.6c-4.2,0-7.6-3.4-7.6-7.6v-29.6c0-4.2,3.4-7.6,7.6-7.6h0c4.2,0,7.6,3.4,7.6,7.6V555
				C407.2,559.2,403.8,562.6,399.6,562.6z"/>
		</g>
		<g>
			
				<linearGradient id="SVGID_17_" gradientUnits="userSpaceOnUse" x1="794.8911" y1="1792.343" x2="794.8911" y2="1756.8021" gradientTransform="matrix(1 0 0 1 -427.0471 -1235.6514)">
				<stop  offset="0" style="stop-color:#A7B1C1"/>
				<stop  offset="1" style="stop-color:#C6D0E0"/>
			</linearGradient>
			<path class="st18" d="M367.8,556.7L367.8,556.7c-4.2,0-7.6-3.4-7.6-7.6v-20.3c0-4.2,3.4-7.6,7.6-7.6h0c4.2,0,7.6,3.4,7.6,7.6
				v20.3C375.5,553.3,372.1,556.7,367.8,556.7z"/>
			
				<linearGradient id="SVGID_18_" gradientUnits="userSpaceOnUse" x1="794.8911" y1="1753.4172" x2="794.8911" y2="1788.9581" gradientTransform="matrix(1 0 0 1 -427.0471 -1235.6514)">
				<stop  offset="0" style="stop-color:#C6D0E0"/>
				<stop  offset="1" style="stop-color:#DFE4EA"/>
			</linearGradient>
			<path class="st19" d="M367.8,553.3L367.8,553.3c-4.2,0-7.6-3.4-7.6-7.6v-20.3c0-4.2,3.4-7.6,7.6-7.6h0c4.2,0,7.6,3.4,7.6,7.6
				v20.3C375.5,549.9,372.1,553.3,367.8,553.3z"/>
		</g>
		<g>
			
				<linearGradient id="SVGID_19_" gradientUnits="userSpaceOnUse" x1="859.2032" y1="1783.8809" x2="859.2032" y2="1756.8021" gradientTransform="matrix(1 0 0 1 -427.0471 -1235.6514)">
				<stop  offset="0" style="stop-color:#A7B1C1"/>
				<stop  offset="1" style="stop-color:#C6D0E0"/>
			</linearGradient>
			<path class="st20" d="M432.2,548.2L432.2,548.2c-4.2,0-7.6-3.4-7.6-7.6v-11.8c0-4.2,3.4-7.6,7.6-7.6h0c4.2,0,7.6,3.4,7.6,7.6
				v11.8C439.8,544.8,436.4,548.2,432.2,548.2z"/>
			
				<linearGradient id="SVGID_20_" gradientUnits="userSpaceOnUse" x1="859.2032" y1="1753.4172" x2="859.2032" y2="1780.4961" gradientTransform="matrix(1 0 0 1 -427.0471 -1235.6514)">
				<stop  offset="0" style="stop-color:#C6D0E0"/>
				<stop  offset="1" style="stop-color:#DFE4EA"/>
			</linearGradient>
			<path class="st21" d="M432.2,544.8L432.2,544.8c-4.2,0-7.6-3.4-7.6-7.6v-11.8c0-4.2,3.4-7.6,7.6-7.6h0c4.2,0,7.6,3.4,7.6,7.6
				v11.8C439.8,541.4,436.4,544.8,432.2,544.8z"/>
		</g>
	</g>
	
		<radialGradient id="SVGID_21_" cx="-341.3528" cy="4271.4131" r="104.1559" gradientTransform="matrix(0.9366 0.3504 0.2431 -0.6497 -737.215 4402.0898)" gradientUnits="userSpaceOnUse">
		<stop  offset="0" style="stop-color:#EFF2F6"/>
		<stop  offset="1" style="stop-color:#D3DAE2"/>
	</radialGradient>
	<path class="st22" d="M287.7,373.7c-20.3,5.6-32.6,12.9-32.7,21c-0.3,18.7,63.1,34.6,141.5,35.7c22.3,0.3,43.3-0.6,62.1-2.5
		c6.6-0.7,12.9-1.5,18.8-2.4c6.8-1,13.2-2.2,19.1-3.5c26.1-5.8,42.3-14,42.4-23.4c0.1-7.3-9.6-14.2-26.2-20"/>
</g>
</svg>
