<?xml version="1.0" encoding="utf-8"?>
<!-- Generator: Adobe Illustrator 23.0.2, SVG Export Plug-In . SVG Version: 6.00 Build 0)  -->
<svg version="1.1" id="图层_1" xmlns="http://www.w3.org/2000/svg" xmlns:xlink="http://www.w3.org/1999/xlink" x="0px" y="0px"
	 viewBox="0 0 800 800" style="enable-background:new 0 0 800 800;" xml:space="preserve">
<style type="text/css">
	.st0{fill:url(#SVGID_1_);}
	.st1{fill:url(#SVGID_2_);}
	.st2{opacity:0.75;fill:url(#SVGID_3_);}
	.st3{fill:url(#SVGID_4_);}
	.st4{fill:url(#SVGID_5_);}
	.st5{fill:url(#SVGID_6_);}
	.st6{fill:url(#SVGID_7_);}
	.st7{fill:url(#SVGID_8_);}
	.st8{fill:url(#SVGID_9_);}
	.st9{fill:url(#SVGID_10_);}
	.st10{fill:url(#SVGID_11_);}
	.st11{fill:url(#SVGID_12_);}
	.st12{fill:url(#SVGID_13_);}
	.st13{fill:url(#SVGID_14_);}
	.st14{fill:url(#SVGID_15_);}
	.st15{fill:url(#SVGID_16_);}
	.st16{fill:url(#SVGID_17_);}
	.st17{fill:none;stroke:#B2BBC9;stroke-miterlimit:10;stroke-dasharray:12;}
	.st18{fill:url(#SVGID_18_);}
	.st19{fill:url(#SVGID_19_);}
	.st20{clip-path:url(#SVGID_21_);fill:url(#SVGID_22_);}
	.st21{clip-path:url(#SVGID_24_);fill:url(#SVGID_25_);}
	.st22{clip-path:url(#SVGID_27_);fill:url(#SVGID_28_);}
	.st23{clip-path:url(#SVGID_30_);fill:url(#SVGID_31_);}
	.st24{clip-path:url(#SVGID_33_);fill:url(#SVGID_34_);}
	.st25{clip-path:url(#SVGID_36_);fill:url(#SVGID_37_);}
	.st26{clip-path:url(#SVGID_39_);fill:url(#SVGID_40_);}
	.st27{fill:url(#SVGID_41_);}
</style>
<g>
	<linearGradient id="SVGID_1_" gradientUnits="userSpaceOnUse" x1="400" y1="885" x2="400" y2="139">
		<stop  offset="0.4171" style="stop-color:#F8FAFC;stop-opacity:0"/>
		<stop  offset="1" style="stop-color:#ECEFF4"/>
	</linearGradient>
	<ellipse class="st0" cx="400" cy="512" rx="400" ry="373"/>
	<g>
		<linearGradient id="SVGID_2_" gradientUnits="userSpaceOnUse" x1="400.2124" y1="690.3146" x2="400.2124" y2="241.8974">
			<stop  offset="0" style="stop-color:#DFE2E5;stop-opacity:0"/>
			<stop  offset="1" style="stop-color:#D7DCE2;stop-opacity:0.5"/>
		</linearGradient>
		<ellipse class="st1" cx="400.2" cy="466.1" rx="283.8" ry="224.2"/>
		<linearGradient id="SVGID_3_" gradientUnits="userSpaceOnUse" x1="399.998" y1="621.0338" x2="399.998" y2="330.4174">
			<stop  offset="0" style="stop-color:#DFE2E5;stop-opacity:0"/>
			<stop  offset="1" style="stop-color:#D7DCE2;stop-opacity:0.5"/>
		</linearGradient>
		<ellipse class="st2" cx="400" cy="475.7" rx="195.8" ry="145.3"/>
		<linearGradient id="SVGID_4_" gradientUnits="userSpaceOnUse" x1="398.6985" y1="570.7224" x2="398.6985" y2="416.8667">
			<stop  offset="0" style="stop-color:#DFE2E5;stop-opacity:0"/>
			<stop  offset="1" style="stop-color:#D7DCE2;stop-opacity:0.5"/>
		</linearGradient>
		<ellipse class="st3" cx="398.7" cy="493.8" rx="103.7" ry="76.9"/>
		<linearGradient id="SVGID_5_" gradientUnits="userSpaceOnUse" x1="399.7081" y1="558.5075" x2="399.7081" y2="500.2958">
			<stop  offset="0" style="stop-color:#DFE2E5;stop-opacity:0"/>
			<stop  offset="1" style="stop-color:#D7DCE2;stop-opacity:0.5"/>
		</linearGradient>
		<ellipse class="st4" cx="399.7" cy="529.4" rx="28.6" ry="29.1"/>
	</g>
	<linearGradient id="SVGID_6_" gradientUnits="userSpaceOnUse" x1="592.5833" y1="652" x2="592.5833" y2="548">
		<stop  offset="0.4065" style="stop-color:#DFE2E5;stop-opacity:0"/>
		<stop  offset="1" style="stop-color:#D7DCE2;stop-opacity:0.35"/>
	</linearGradient>
	<polygon class="st5" points="703,652 525.6,652 482.2,548 605.9,548 	"/>
	<linearGradient id="SVGID_7_" gradientUnits="userSpaceOnUse" x1="299" y1="594" x2="299" y2="498">
		<stop  offset="0.4065" style="stop-color:#DFE2E5;stop-opacity:0"/>
		<stop  offset="1" style="stop-color:#D7DCE2;stop-opacity:0.35"/>
	</linearGradient>
	<polygon class="st6" points="357,594 277,594 241,519 257,516 265,498 	"/>
	<g>
		
			<linearGradient id="SVGID_8_" gradientUnits="userSpaceOnUse" x1="1281.8607" y1="1882.7716" x2="1246.7621" y2="1882.7716" gradientTransform="matrix(0.7071 0.7071 -0.7071 0.7071 1039.106 -1744.6237)">
			<stop  offset="0" style="stop-color:#A7B1C1"/>
			<stop  offset="1" style="stop-color:#86949B"/>
		</linearGradient>
		<polygon class="st7" points="618,489.3 609.4,480.7 618,472.1 612.6,466.7 608.2,466.7 604,475.3 595.4,466.7 591,466.7 
			589.9,472.1 598.5,480.7 589.9,489.3 591,494.7 595.4,494.7 604,486.1 608.2,494.7 612.6,494.7 		"/>
		
			<linearGradient id="SVGID_9_" gradientUnits="userSpaceOnUse" x1="1278.6819" y1="1888.5665" x2="1246.874" y2="1880.0436" gradientTransform="matrix(0.7071 0.7071 -0.7071 0.7071 1039.106 -1744.6237)">
			<stop  offset="0" style="stop-color:#C6D0E0"/>
			<stop  offset="1" style="stop-color:#EFF2F6"/>
		</linearGradient>
		<polygon class="st8" points="613.7,489.3 605.1,480.7 613.7,472.1 608.2,466.7 599.6,475.3 591,466.7 585.6,472.1 594.2,480.7 
			585.6,489.3 591,494.7 599.6,486.1 608.2,494.7 		"/>
	</g>
	<g>
		<g>
			<linearGradient id="SVGID_10_" gradientUnits="userSpaceOnUse" x1="524.8156" y1="551.4627" x2="494.0467" y2="498.1694">
				<stop  offset="0" style="stop-color:#A7B1C1"/>
				<stop  offset="1" style="stop-color:#86949B"/>
			</linearGradient>
			<path class="st9" d="M477.9,507.5h12.8l4.7,27.9h0.4l4.9-24.4h13.8l4.3,24.4h0.4l5-27.9h12.7l-9.5,42.5h-15.2l-5-23.5h-0.4
				l-5.1,23.5h-15.2L477.9,507.5z"/>
			<linearGradient id="SVGID_11_" gradientUnits="userSpaceOnUse" x1="558.4932" y1="547.3265" x2="537.0464" y2="510.1796">
				<stop  offset="0" style="stop-color:#A7B1C1"/>
				<stop  offset="1" style="stop-color:#86949B"/>
			</linearGradient>
			<path class="st10" d="M541.7,507.5h12.2V550h-12.2V507.5z"/>
			<linearGradient id="SVGID_12_" gradientUnits="userSpaceOnUse" x1="584.5919" y1="543.9595" x2="563.1451" y2="506.8126">
				<stop  offset="0" style="stop-color:#A7B1C1"/>
				<stop  offset="1" style="stop-color:#86949B"/>
			</linearGradient>
			<path class="st11" d="M574.1,518v6.9h14.3v10.4h-14.3V550h-12.2v-42.5h27.7V518H574.1z"/>
			<linearGradient id="SVGID_13_" gradientUnits="userSpaceOnUse" x1="612.3748" y1="547.3265" x2="590.928" y2="510.1796">
				<stop  offset="0" style="stop-color:#A7B1C1"/>
				<stop  offset="1" style="stop-color:#86949B"/>
			</linearGradient>
			<path class="st12" d="M595.6,507.5h12.2V550h-12.2V507.5z"/>
		</g>
		<g>
			<linearGradient id="SVGID_14_" gradientUnits="userSpaceOnUse" x1="520.9406" y1="551.4627" x2="490.1716" y2="498.1694">
				<stop  offset="0" style="stop-color:#C6D0E0"/>
				<stop  offset="1" style="stop-color:#EFF2F6"/>
			</linearGradient>
			<path class="st13" d="M474,507.5h12.8l4.7,27.9h0.4l4.9-24.4h13.8l4.3,24.4h0.4l5-27.9H533l-9.5,42.5h-15.2l-5-23.5H503
				l-5.1,23.5h-15.2L474,507.5z"/>
			<linearGradient id="SVGID_15_" gradientUnits="userSpaceOnUse" x1="554.6182" y1="547.3265" x2="533.1714" y2="510.1796">
				<stop  offset="0" style="stop-color:#C6D0E0"/>
				<stop  offset="1" style="stop-color:#EFF2F6"/>
			</linearGradient>
			<path class="st14" d="M537.8,507.5H550V550h-12.2V507.5z"/>
			<linearGradient id="SVGID_16_" gradientUnits="userSpaceOnUse" x1="580.7169" y1="543.9595" x2="559.2701" y2="506.8126">
				<stop  offset="0" style="stop-color:#C6D0E0"/>
				<stop  offset="1" style="stop-color:#EFF2F6"/>
			</linearGradient>
			<path class="st15" d="M570.3,518v6.9h14.3v10.4h-14.3V550h-12.2v-42.5h27.7V518H570.3z"/>
			<linearGradient id="SVGID_17_" gradientUnits="userSpaceOnUse" x1="608.4997" y1="547.3265" x2="587.053" y2="510.1796">
				<stop  offset="0" style="stop-color:#C6D0E0"/>
				<stop  offset="1" style="stop-color:#EFF2F6"/>
			</linearGradient>
			<path class="st16" d="M591.7,507.5h12.2V550h-12.2V507.5z"/>
		</g>
	</g>
	<path class="st17" d="M202.8,332.7c0,0-78.6,54.8-62.9,125c7.7,34.5,15.7,50.3,61.5,71.4c35.5,16.3,93.3-27.5,116.6-15.5
		s17.3,34.2-3.2,40.1c-20.5,5.8-32.6-8.2-32.6-8.2c-10-11.9-10.1-12.2-10.1-12.2"/>
	<g>
		<linearGradient id="SVGID_18_" gradientUnits="userSpaceOnUse" x1="294.864" y1="517.5417" x2="227.1712" y2="449.8489">
			<stop  offset="0" style="stop-color:#A7B1C1"/>
			<stop  offset="1" style="stop-color:#86949B"/>
		</linearGradient>
		<path class="st18" d="M265,527c-11.2,3.8-16.9-5-16.9-5c13.1-1.8,20.8-15.7,20.8-15.7c4.1,3.6,0.5,14.6,0.5,14.6
			c-3.2,4.8,5.9,16.1,5.9,16.1C269,530.6,265,527,265,527L265,527z M253.1,489.2c0,0-0.2-1.3,0-2c0.1-0.3,0.6,0.3,0.8-0.2
			c0.8-1.6,2.2-4.1,4.7-7.2c0,0,26.7-29.9,38.5-14.5c0,0,4.7,14.6-20.1,24.3C277.1,489.7,255.3,495.6,253.1,489.2z M257.1,495.2
			c-4.4,9.8-18.5,14.8-18.5,14.8c-6.8-2.7-2.8-10.5-2.8-10.5c8.5-2.1,13-7.7,13-7.7c2.4-0.4,5.6,1.5,7.2,2.6
			c0.2,0.1,1.1-1.1,1.1-1.1V495.2z M226.6,479.1c0,0,9-5.3,14.7-5.8c-0.3-13.2-13.7-20.1-13.7-20.1c-2.2-5.4,2.9-4.1,2.9-4.1
			c10.8,7.2,11.8,20.1,11.8,20.1c6-12.3-1.5-22.2-1.5-22.2c-0.1-6.4,3.6-2.2,3.6-2.2c5,14,0,24.7-2.2,28.3c2.6-0.1,5.1,1.2,6.5,3.4
			c1.4,2.2,5.3,17.8-18.1,21c0,0-14.9-0.7-11.8-8C218.8,489.7,221.1,483.2,226.6,479.1z M267.3,503.2c-4.9,11.8-14.1,15.8-14.1,15.8
			c-12.6,7.7-15.4-8-15.4-8c13.4-3.2,21.9-14,21.9-14l6.6,5.4l1-1.1V503.2z"/>
		<linearGradient id="SVGID_19_" gradientUnits="userSpaceOnUse" x1="288.1435" y1="529.6537" x2="237.4233" y2="441.8039">
			<stop  offset="0" style="stop-color:#B3BECE"/>
			<stop  offset="1" style="stop-color:#EFF2F6"/>
		</linearGradient>
		<path class="st19" d="M265,525c-11.2,3.8-16.9-3.1-16.9-3.1c13.1-1.8,20.8-17.6,20.8-17.6c4.1,3.6,0.5,14.6,0.5,14.6
			c-3.2,4.8,5.9,18.1,5.9,18.1C269,530.6,265,525,265,525L265,525z M253.1,487.3c0,0,1-3.8,5.6-9.3c0,0,26.7-29.9,38.5-14.5
			c0,0,4.7,14.6-20.1,24.3C277.1,487.8,255.3,493.6,253.1,487.3z M257.1,493.2c-4.4,9.8-18.5,14.8-18.5,14.8
			c-6.8-2.7-2.8-10.5-2.8-10.5c8.5-2.1,13-7.7,13-7.7C252.2,489.3,257.1,493.2,257.1,493.2z M226.6,477.2c0,0,9-5.3,14.7-5.8
			c-0.3-13.2-13.7-20.1-13.7-20.1c-2.2-5.4,2.9-4.1,2.9-4.1c10.8,7.2,11.8,20.1,11.8,20.1c6-12.3-1.5-22.2-1.5-22.2
			c-0.1-6.4,3.6-2.2,3.6-2.2c5,14,0,24.7-2.2,28.3c2.6-0.1,5.1,1.2,6.5,3.4c1.4,2.2,5.3,17.8-18.1,21c0,0-14.9-0.7-11.8-8
			C218.8,487.7,221.1,481.3,226.6,477.2z M267.3,501.3c-4.9,11.8-14.1,15.8-14.1,15.8c-12.6,7.7-15.4-6.1-15.4-6.1
			c13.4-3.2,21.9-15.9,21.9-15.9L267.3,501.3z"/>
	</g>
	<g>
		<g>
			<defs>
				<rect id="SVGID_20_" x="200.9" y="270.2" width="398.1" height="95.5"/>
			</defs>
			<clipPath id="SVGID_21_">
				<use xlink:href="#SVGID_20_"  style="overflow:visible;"/>
			</clipPath>
			<linearGradient id="SVGID_22_" gradientUnits="userSpaceOnUse" x1="507.0873" y1="427.3205" x2="292.9105" y2="213.1437">
				<stop  offset="0" style="stop-color:#A7B1C1"/>
				<stop  offset="1" style="stop-color:#D7DDE2"/>
			</linearGradient>
			<path class="st20" d="M200.9,333.4v-28.3c0,0,17,16.7,19.6,15.1c50.8-31.5,112.7-50,179.5-50c65.5,0,126.3,17.8,176.5,48.2
				c3.4,2.1,22.5-13.3,22.5-13.3v28.3l-30.3,32.3C522.9,332.2,464.1,312,400,312s-122.9,20.1-168.8,53.6L200.9,333.4L200.9,333.4z"
				/>
		</g>
		<g>
			<defs>
				<rect id="SVGID_23_" x="200.9" y="241.9" width="398.1" height="95.5"/>
			</defs>
			<clipPath id="SVGID_24_">
				<use xlink:href="#SVGID_23_"  style="overflow:visible;"/>
			</clipPath>
			<linearGradient id="SVGID_25_" gradientUnits="userSpaceOnUse" x1="456.1561" y1="402.3752" x2="349.3436" y2="217.3705">
				<stop  offset="0" style="stop-color:#C6D0E0"/>
				<stop  offset="1" style="stop-color:#EFF2F6"/>
			</linearGradient>
			<path class="st21" d="M200.9,305.1l30.3,32.3c45.8-33.5,104.7-53.6,168.8-53.6s122.9,20.1,168.8,53.6l30.3-32.3
				C545,265.6,475.6,241.9,400,241.9S255,265.6,200.9,305.1"/>
		</g>
		<g>
			<defs>
				<polygon id="SVGID_26_" points="323.6,437.8 476.3,441.2 476.3,500.9 323.6,500.9 				"/>
			</defs>
			<clipPath id="SVGID_27_">
				<use xlink:href="#SVGID_26_"  style="overflow:visible;"/>
			</clipPath>
			<linearGradient id="SVGID_28_" gradientUnits="userSpaceOnUse" x1="445.5399" y1="501.4471" x2="352.7704" y2="408.6776">
				<stop  offset="0" style="stop-color:#A7B1C1"/>
				<stop  offset="1" style="stop-color:#D7DDE2"/>
			</linearGradient>
			<path class="st22" d="M400,444.4c-20.1,0-39,4.4-55.7,12.1c-2,0.9-20.7-18.7-20.7-18.7v30.9l30.3,32.3
				c12.5-9.2,28.6-14.7,46.1-14.7c17.5,0,33.6,5.5,46.1,14.7l30.3-32.3v-27.5c0,0-18.4,16.4-20.9,15.2
				C438.9,448.7,420,444.4,400,444.4"/>
		</g>
		<g>
			<defs>
				<rect id="SVGID_29_" x="323.6" y="416.9" width="152.7" height="56.6"/>
			</defs>
			<clipPath id="SVGID_30_">
				<use xlink:href="#SVGID_29_"  style="overflow:visible;"/>
			</clipPath>
			<linearGradient id="SVGID_31_" gradientUnits="userSpaceOnUse" x1="426.2099" y1="484.8839" x2="379.9164" y2="404.7013">
				<stop  offset="0" style="stop-color:#C6D0E0"/>
				<stop  offset="1" style="stop-color:#EFF2F6"/>
			</linearGradient>
			<path class="st23" d="M400,416.9c-29,0-55.6,5.8-76.3,20.9l30.3,35.6c12.5-9.2,28.6-14.7,46.1-14.7c17.5,0,33.6,5.5,46.1,14.7
				l30.3-32.3C455.6,426,429,416.9,400,416.9"/>
		</g>
		<g>
			<defs>
				<rect id="SVGID_32_" x="262.3" y="358.7" width="275.5" height="76"/>
			</defs>
			<clipPath id="SVGID_33_">
				<use xlink:href="#SVGID_32_"  style="overflow:visible;"/>
			</clipPath>
			<linearGradient id="SVGID_34_" gradientUnits="userSpaceOnUse" x1="476.4256" y1="465.7349" x2="323.5686" y2="312.8779">
				<stop  offset="0" style="stop-color:#A7B1C1"/>
				<stop  offset="1" style="stop-color:#D7DDE2"/>
			</linearGradient>
			<path class="st24" d="M262.3,374.2c0,0,21.2,14.6,22.3,14c33.4-18.7,73-29.5,115.4-29.5c42.8,0,82.7,11,116.2,29.9
				c2.2,1.3,21.5-14.5,21.5-14.5v28.3l-30.3,32.3c-29.2-21.3-66.6-34.2-107.4-34.2c-40.8,0-78.3,12.8-107.4,34.2l-30.3-32.3l0,0
				V374.2"/>
		</g>
		<g>
			<defs>
				<rect id="SVGID_35_" x="262.3" y="330.4" width="275.5" height="76"/>
			</defs>
			<clipPath id="SVGID_36_">
				<use xlink:href="#SVGID_35_"  style="overflow:visible;"/>
			</clipPath>
			<linearGradient id="SVGID_37_" gradientUnits="userSpaceOnUse" x1="440.8253" y1="444.8981" x2="364.943" y2="313.4662">
				<stop  offset="0" style="stop-color:#C6D0E0"/>
				<stop  offset="1" style="stop-color:#EFF2F6"/>
			</linearGradient>
			<path class="st25" d="M262.3,374.2l30.3,32.3c29.2-21.3,66.6-34.2,107.4-34.2c40.8,0,78.3,12.8,107.4,34.2l30.3-32.3
				c-37.4-27.3-85.4-43.8-137.7-43.8C347.7,330.4,299.7,346.9,262.3,374.2"/>
		</g>
		<g>
			<defs>
				<path id="SVGID_38_" d="M400,500.3c-6.7,0-12.7,2.2-17.3,5.8l17.3,18.4l17.3-18.4C412.7,502.5,406.6,500.3,400,500.3z"/>
			</defs>
			<clipPath id="SVGID_39_">
				<use xlink:href="#SVGID_38_"  style="overflow:visible;"/>
			</clipPath>
			
				<linearGradient id="SVGID_40_" gradientUnits="userSpaceOnUse" x1="540.4371" y1="1088.8986" x2="539.0065" y2="1091.3765" gradientTransform="matrix(13.3889 0 0 -13.3889 -6826.2593 15108.1172)">
				<stop  offset="0" style="stop-color:#C6D0E0"/>
				<stop  offset="1" style="stop-color:#EFF2F6"/>
			</linearGradient>
			<rect x="382.7" y="500.3" class="st26" width="34.6" height="24.3"/>
		</g>
		<linearGradient id="SVGID_41_" gradientUnits="userSpaceOnUse" x1="417.2986" y1="528.5297" x2="382.6973" y2="528.5297">
			<stop  offset="0" style="stop-color:#A7B1C1"/>
			<stop  offset="1" style="stop-color:#D7DDE2"/>
		</linearGradient>
		<polygon class="st27" points="382.7,506.1 400,524.6 417.3,506.1 417.3,533.5 400,550.9 382.7,533.5 		"/>
	</g>
</g>
</svg>
