<?xml version="1.0" encoding="utf-8"?>
<!-- Generator: Adobe Illustrator 15.0.0, SVG Export Plug-In . SVG Version: 6.00 Build 0)  -->
<!DOCTYPE svg PUBLIC "-//W3C//DTD SVG 1.1 Tiny//EN" "http://www.w3.org/Graphics/SVG/1.1/DTD/svg11-tiny.dtd">
<svg version="1.1" baseProfile="tiny" id="_x31_0-12"
	 xmlns="http://www.w3.org/2000/svg" xmlns:xlink="http://www.w3.org/1999/xlink" x="0px" y="0px" width="70.927px"
	 height="70.928px" viewBox="0 0 70.927 70.928" xml:space="preserve">
<g>
	<g>
		<g>
			<rect x="24.985" y="34.766" fill="#004A03" width="10.462" height="1.736"/>
			<path fill="#D6E6C2" d="M10.417,47.008c-5.479-0.002-9.92-4.447-9.917-9.926l0.001-1.48l0.002-1.51
				c0.001-5.48,4.445-9.921,9.925-9.918c0,0,8.587-0.322,18.741,7.705l-0.72,3.936l0.757,3.686
				C29.206,39.5,18.214,46.918,10.417,47.008z"/>
			<path fill="#C9D9B5" d="M28.141,35.538l1.065,3.962c0,0-10.992,7.418-18.789,7.508c-5.479-0.002-9.92-4.447-9.917-9.926
				l0.001-1.48L28.141,35.538z"/>
			<rect x="0.557" y="34.766" fill="#C2CFA8" width="27.842" height="1.736"/>
			<path fill="none" stroke="#C2CFA8" d="M29.169,31.879c0,0-0.341-0.268-0.511-0.398c-9.93-7.618-18.23-7.307-18.23-7.307
				c-5.479-0.003-9.924,4.438-9.925,9.918l-0.002,1.51L0.5,37.082c-0.003,5.479,4.438,9.924,9.917,9.926
				c6.865-0.078,16.208-5.839,18.343-7.215c0.29-0.187,0.446-0.293,0.446-0.293S27.179,36.025,29.169,31.879z"/>
		</g>
		<g>
			<rect x="35.48" y="34.766" fill="#004A03" width="10.462" height="1.736"/>
			<path fill="#D6E6C2" d="M60.51,47.008c5.479-0.002,9.92-4.447,9.917-9.926l-0.001-1.48l-0.002-1.51
				c-0.001-5.48-4.445-9.921-9.925-9.918c0,0-8.587-0.322-18.741,7.705l0.72,3.936L41.721,39.5
				C41.721,39.5,52.713,46.918,60.51,47.008z"/>
			<path fill="#C9D9B5" d="M42.786,35.538L41.721,39.5c0,0,10.992,7.418,18.789,7.508c5.479-0.002,9.92-4.447,9.917-9.926
				l-0.001-1.48L42.786,35.538z"/>
			<rect x="42.528" y="34.766" fill="#C2CFA8" width="27.842" height="1.736"/>
			<path fill="none" stroke="#C2CFA8" d="M41.758,31.879c0,0,0.341-0.268,0.511-0.398c9.93-7.618,18.23-7.307,18.23-7.307
				c5.479-0.003,9.924,4.438,9.925,9.918l0.002,1.51l0.001,1.48c0.003,5.479-4.438,9.924-9.917,9.926
				c-6.865-0.078-16.208-5.839-18.343-7.215c-0.29-0.187-0.446-0.293-0.446-0.293S43.748,36.025,41.758,31.879z"/>
		</g>
	</g>
	<g>
		<g>
			<rect x="34.55" y="24.984" fill="#004A03" width="1.736" height="10.463"/>
			<path fill="#D6E6C2" d="M24.045,10.416c0.001-5.479,4.446-9.92,9.925-9.916h1.48l1.51,0.002c5.48,0.002,9.921,4.445,9.918,9.926
				c0,0,0.322,8.586-7.705,18.74l-3.936-0.72l-3.686,0.757C31.552,29.205,24.134,18.213,24.045,10.416z"/>
			<path fill="#C9D9B5" d="M35.514,28.141l-3.962,1.064c0,0-7.418-10.992-7.507-18.789c0.001-5.479,4.446-9.92,9.925-9.916h1.48
				L35.514,28.141z"/>
			<rect x="34.55" y="0.557" fill="#C2CFA8" width="1.736" height="27.842"/>
			<path fill="none" stroke="#C2CFA8" d="M39.173,29.168c0,0,0.268-0.341,0.398-0.511c7.618-9.93,7.307-18.229,7.307-18.229
				c0.003-5.48-4.438-9.924-9.918-9.926L35.451,0.5h-1.48c-5.479-0.004-9.924,4.438-9.925,9.916
				c0.078,6.865,5.838,16.208,7.214,18.344c0.187,0.289,0.293,0.445,0.293,0.445S35.027,27.179,39.173,29.168z"/>
		</g>
		<g>
			<rect x="34.55" y="35.479" fill="#004A03" width="1.736" height="10.462"/>
			<path fill="#D6E6C2" d="M24.045,60.51c0.001,5.48,4.446,9.92,9.925,9.918l1.48-0.002l1.51-0.002c5.48,0,9.921-4.445,9.918-9.924
				c0,0,0.322-8.588-7.705-18.742l-3.936,0.721l-3.686-0.758C31.552,41.721,24.134,52.713,24.045,60.51z"/>
			<path fill="#C9D9B5" d="M35.514,42.785l-3.962-1.064c0,0-7.418,10.992-7.507,18.789c0.001,5.48,4.446,9.92,9.925,9.918
				l1.48-0.002L35.514,42.785z"/>
			<rect x="34.55" y="42.527" fill="#C2CFA8" width="1.736" height="27.844"/>
			<path fill="none" stroke="#C2CFA8" d="M39.173,41.758c0,0,0.268,0.342,0.398,0.512c7.618,9.93,7.307,18.23,7.307,18.23
				c0.003,5.479-4.438,9.924-9.918,9.924l-1.51,0.002l-1.48,0.002c-5.479,0.002-9.924-4.438-9.925-9.918
				c0.078-6.865,5.838-16.207,7.214-18.343c0.187-0.29,0.293-0.446,0.293-0.446S35.027,43.748,39.173,41.758z"/>
		</g>
	</g>
	<circle cx="35.451" cy="35.454" r="5.917"/>
	<radialGradient id="SVGID_1_" cx="35.4507" cy="35.4536" r="4.8054" gradientUnits="userSpaceOnUse">
		<stop  offset="0.522" style="stop-color:#A8BAB0"/>
		<stop  offset="0.6148" style="stop-color:#A2B4A9"/>
		<stop  offset="0.7464" style="stop-color:#90A397"/>
		<stop  offset="0.9003" style="stop-color:#738879"/>
		<stop  offset="1" style="stop-color:#5C7361"/>
	</radialGradient>
	<circle fill="url(#SVGID_1_)" cx="35.451" cy="35.454" r="4.806"/>
</g>
</svg>
