<?xml version="1.0" encoding="utf-8"?>
<!-- Generator: Adobe Illustrator 15.0.0, SVG Export Plug-In . SVG Version: 6.00 Build 0)  -->
<!DOCTYPE svg PUBLIC "-//W3C//DTD SVG 1.1 Tiny//EN" "http://www.w3.org/Graphics/SVG/1.1/DTD/svg11-tiny.dtd">
<svg version="1.1" baseProfile="tiny" id="_x30_4-06"
	 xmlns="http://www.w3.org/2000/svg" xmlns:xlink="http://www.w3.org/1999/xlink" x="0px" y="0px" width="75.566px"
	 height="75.332px" viewBox="0 0 75.566 75.332" xml:space="preserve">
<g>
	<path fill="#213340" d="M37.532,5.915C20.136,5.915,6.03,20.019,6.03,37.416c0,17.398,14.105,31.503,31.502,31.503
		c17.398,0,31.502-14.104,31.502-31.503C69.034,20.019,54.931,5.915,37.532,5.915z M37.782,66.018
		c-15.658,0-28.352-12.694-28.352-28.353c0-15.657,12.693-28.351,28.352-28.351s28.352,12.694,28.352,28.351
		C66.134,53.324,53.44,66.018,37.782,66.018z"/>
	<path fill="#213340" d="M31.624,36.866c-4.701-3.542-7.066-8.432-7.066-14.772c0-4.796,1.74-9.187,4.623-12.574l-4.096,0.803
		l-3.225,6.578l-0.58,8.125l2.967,7.867l6.189,5.417l1.971-0.482L31.624,36.866z"/>
	<path fill="#213340" d="M33.179,41.488c-5.83,0.819-10.961-0.965-15.443-5.448c-3.393-3.392-5.266-7.727-5.623-12.16l-2.328,3.463
		l2.373,6.931l5.334,6.156l7.66,3.465l8.209-0.547l1.051-1.735L33.179,41.488z"/>
	<path fill="#213340" d="M37.358,44.129c-3.543,4.701-8.434,7.068-14.773,7.068c-4.797,0-9.186-1.741-12.574-4.623l0.803,4.095
		l6.578,3.224l8.125,0.582l7.869-2.967l5.416-6.191l-0.482-1.97L37.358,44.129z"/>
	<path fill="#213340" d="M42.55,42.882c0.818,5.83-0.967,10.96-5.449,15.443c-3.391,3.392-7.727,5.265-12.16,5.623l3.463,2.328
		l6.932-2.372l6.156-5.334l3.467-7.662L44.409,42.7l-1.734-1.051L42.55,42.882z"/>
	<path fill="#213340" d="M44.882,38.317c4.701,3.543,7.068,8.433,7.068,14.772c0,4.797-1.74,9.187-4.623,12.574l4.096-0.802
		l3.223-6.579l0.582-8.125l-2.967-7.868l-6.191-5.417l-1.969,0.483L44.882,38.317z"/>
	<path fill="#213340" d="M43.45,33.222c5.83-0.818,10.961,0.966,15.443,5.449c3.393,3.391,5.266,7.726,5.623,12.159l2.328-3.462
		l-2.371-6.931l-5.334-6.157l-7.662-3.466l-8.209,0.548l-1.051,1.734L43.45,33.222z"/>
	<path fill="#213340" d="M38.849,30.645c3.543-4.701,8.434-7.068,14.771-7.067c4.797-0.001,9.188,1.74,12.574,4.622l-0.801-4.094
		l-6.58-3.224l-8.125-0.582l-7.867,2.966l-5.418,6.192l0.484,1.969L38.849,30.645z"/>
	<path fill="#213340" d="M33.89,32.145c-0.818-5.83,0.967-10.961,5.449-15.443c3.391-3.393,7.725-5.266,12.158-5.624L48.036,8.75
		l-6.932,2.373l-6.158,5.334l-3.465,7.661l0.547,8.209l1.734,1.051L33.89,32.145z"/>
	<radialGradient id="SVGID_1_" cx="37.7832" cy="37.666" r="34.1007" gradientUnits="userSpaceOnUse">
		<stop  offset="0" style="stop-color:#425D78"/>
		<stop  offset="0.0707" style="stop-color:#49637E"/>
		<stop  offset="0.1755" style="stop-color:#5D7590"/>
		<stop  offset="0.3009" style="stop-color:#7E93AD"/>
		<stop  offset="0.3791" style="stop-color:#96A8C2"/>
		<stop  offset="0.3877" style="stop-color:#92A4BE"/>
		<stop  offset="0.4515" style="stop-color:#778EA8"/>
		<stop  offset="0.5212" style="stop-color:#627C96"/>
		<stop  offset="0.599" style="stop-color:#53708A"/>
		<stop  offset="0.6913" style="stop-color:#4B6882"/>
		<stop  offset="0.8352" style="stop-color:#486680"/>
		<stop  offset="0.9396" style="stop-color:#304561"/>
	</radialGradient>
	<path fill="url(#SVGID_1_)" d="M74.458,16.801L63.04,8.415c0,0-4.951-4.195-9.9-4.363C48.353,3.89,37.778,3.795,37.778,3.795
		c-9.596,0-18.258,4-24.408,10.422l8.432-8.524c1.266-1.388,1.168-3.539-0.221-4.805s-3.539-1.166-4.805,0.22L8.39,12.527
		c0,0-4.195,4.95-4.363,9.9c-0.162,4.786-0.041,15.16-0.041,15.16c0,9.514,3.932,18.109,10.258,24.25l-8.551-8.333
		c-1.387-1.265-3.539-1.167-4.805,0.222c-1.266,1.387-1.166,3.538,0.221,4.805l11.418,8.386c0,0,4.951,4.195,9.9,4.363
		c4.787,0.163,15.352,0.1,15.352,0.1c9.504,0,18.09-3.922,24.229-10.236l-8.242,8.496c-1.266,1.388-1.168,3.539,0.221,4.805
		s3.539,1.166,4.805-0.22l8.387-11.419c0,0,4.195-4.95,4.363-9.9c0.13-3.815,0.071-11.282,0.043-14.154l0.004,0
		c0-0.135-0.01-0.483-0.01-0.518h-0.001C71.47,27.419,67.38,19.298,61.458,13.479l8.416,8.349c1.387,1.265,3.539,1.167,4.805-0.222
		C75.944,20.219,75.845,18.068,74.458,16.801z M48.81,9.907c4.824,1.929,9.008,5.127,12.201,9.317l-0.027,0.021
		c-2.293-0.769-4.746-1.186-7.299-1.186c-9.282,0-17.265,5.521-20.873,13.453c-0.78-5.755,1.031-11.795,5.457-16.22
		c2.965-2.966,6.66-4.763,10.506-5.391L48.81,9.907z M37.638,34.208c0.846,0.131,1.672,0.317,2.477,0.554
		c0.487,0.648,0.928,1.32,1.322,2.011c-0.139,0.878-0.334,1.737-0.586,2.572c-0.754,0.531-1.534,1.007-2.34,1.418
		c-0.743-0.127-1.472-0.298-2.183-0.509c-0.61-0.834-1.151-1.704-1.61-2.604c0.109-0.625,0.251-1.238,0.419-1.841
		C35.937,35.205,36.773,34.672,37.638,34.208z M26.489,10.077l0.082-0.08c3.461-1.405,7.246-2.178,11.213-2.178
		c1.479,0,2.93,0.104,4.346,0.307l0.029,0.017c-2.348,1.099-4.547,2.618-6.484,4.556c-6.701,6.7-8.38,16.511-5.056,24.78
		c-4.899-3.491-8.097-9.216-8.097-15.692C22.522,17.382,24.001,13.323,26.489,10.077z M20.413,13.392l0.016,0.031
		c-1.016,2.592-1.574,5.413-1.574,8.364c0,9.297,5.539,17.291,13.491,20.891c-5.75,0.774-11.782-1.038-16.202-5.458
		c-3.283-3.283-5.133-7.458-5.553-11.745l-0.029-0.066C12.737,20.583,16.157,16.442,20.413,13.392z M9.944,48.452
		c-1.297-3.346-2.008-6.983-2.008-10.788c0-1.876,0.172-3.711,0.504-5.491l0.031-0.049c1.119,2.8,2.811,5.423,5.078,7.688
		c6.632,6.633,16.315,8.349,24.53,5.158c-3.495,4.873-9.205,8.05-15.661,8.05c-4.645,0-8.904-1.644-12.23-4.38L9.944,48.452z
		 M26.956,65.446L26.86,65.45c-5.459-2.148-10.133-5.858-13.471-10.581l-0.008-0.03c2.773,1.19,5.828,1.851,9.037,1.85
		c9.547,0,17.717-5.84,21.169-14.136c1.208,6.094-0.537,12.658-5.261,17.381C35.14,63.123,31.112,64.959,26.956,65.446z
		 M50.015,64.866l-0.053,0.057c-3.719,1.664-7.84,2.589-12.178,2.589c-1.273,0-2.529-0.08-3.76-0.234l0.082-0.042
		c2.471-1.11,4.785-2.678,6.814-4.707c6.741-6.742,8.395-16.632,4.987-24.933c4.854,3.497,8.015,9.197,8.015,15.637
		C53.923,57.603,52.466,61.633,50.015,64.866z M65.741,48.132c-1.939,5.181-5.277,9.678-9.555,13.033l0.02-0.065
		c0.896-2.454,1.385-5.103,1.385-7.867c0-9.45-5.719-17.56-13.883-21.072c5.883-0.932,12.114,0.868,16.648,5.402
		c2.973,2.972,4.77,6.674,5.393,10.529L65.741,48.132z M63.056,24.156c0.479,0.267,0.943,0.554,1.396,0.86l0.066,0.073
		c1.811,3.948,2.899,8.443,3.097,13.348c-0.024,0.938-0.087,1.868-0.196,2.783l-0.041-0.037c-1.088-2.246-2.563-4.35-4.428-6.213
		c-6.793-6.793-16.782-8.416-25.121-4.903c3.475-5.034,9.276-8.339,15.855-8.339C57.087,21.728,60.282,22.609,63.056,24.156z"/>
	<circle fill="#213340" cx="38.196" cy="37.519" r="8.088"/>
	<radialGradient id="SVGID_2_" cx="38.1963" cy="37.5171" r="11.7935" gradientUnits="userSpaceOnUse">
		<stop  offset="0" style="stop-color:#96A8C2"/>
		<stop  offset="0.6593" style="stop-color:#425D78"/>
		<stop  offset="0.8239" style="stop-color:#6C839D"/>
		<stop  offset="1" style="stop-color:#96A8C2"/>
	</radialGradient>
	<circle fill="url(#SVGID_2_)" cx="38.196" cy="37.518" r="7.098"/>
</g>
</svg>
