<?xml version="1.0" encoding="utf-8"?>
<!-- Generator: Adobe Illustrator 23.0.2, SVG Export Plug-In . SVG Version: 6.00 Build 0)  -->
<svg version="1.1" id="图层_1" xmlns="http://www.w3.org/2000/svg" xmlns:xlink="http://www.w3.org/1999/xlink" x="0px" y="0px"
	 viewBox="0 0 800 800" style="enable-background:new 0 0 800 800;" xml:space="preserve">
<style type="text/css">
	.st0{fill:url(#SVGID_1_);}
	.st1{fill:url(#SVGID_2_);}
	.st2{fill:url(#SVGID_3_);}
	.st3{fill:url(#SVGID_4_);}
	.st4{opacity:0.98;fill:url(#SVGID_5_);}
	.st5{fill:url(#SVGID_6_);}
	.st6{fill:url(#SVGID_7_);}
	.st7{opacity:0.98;fill:url(#SVGID_8_);}
	.st8{fill:url(#SVGID_9_);}
	.st9{fill:url(#SVGID_10_);}
	.st10{fill:url(#SVGID_11_);}
	.st11{fill:url(#SVGID_12_);}
	.st12{fill:url(#SVGID_13_);}
	.st13{fill:url(#SVGID_14_);}
	.st14{fill:url(#SVGID_15_);}
	.st15{fill:url(#SVGID_16_);}
	.st16{fill:url(#SVGID_17_);}
	.st17{fill:url(#SVGID_18_);}
	.st18{fill:url(#SVGID_19_);}
	.st19{fill:#ADB8C9;}
	.st20{fill:url(#SVGID_20_);}
</style>
<g>
	<linearGradient id="SVGID_1_" gradientUnits="userSpaceOnUse" x1="400" y1="885" x2="400" y2="139">
		<stop  offset="0.4171" style="stop-color:#F8FAFC;stop-opacity:0"/>
		<stop  offset="1" style="stop-color:#ECEFF4"/>
	</linearGradient>
	<ellipse class="st0" cx="400" cy="512" rx="400" ry="373"/>
	<linearGradient id="SVGID_2_" gradientUnits="userSpaceOnUse" x1="400" y1="583" x2="400" y2="444">
		<stop  offset="0" style="stop-color:#DFE2E5;stop-opacity:0"/>
		<stop  offset="1" style="stop-color:#D7DCE2;stop-opacity:0.5"/>
	</linearGradient>
	<ellipse class="st1" cx="400" cy="513.5" rx="193.9" ry="69.5"/>
	<g>
		<linearGradient id="SVGID_3_" gradientUnits="userSpaceOnUse" x1="400" y1="562" x2="400" y2="472.9501">
			<stop  offset="0" style="stop-color:#A7B1C1"/>
			<stop  offset="1" style="stop-color:#D7DDE2"/>
		</linearGradient>
		<path class="st2" d="M574,511.9c0,27.7-77.9,50.1-174,50.1s-174-22.4-174-50.1c0-6,0-10,0-16.7c24.1-19.3,98.6-22.3,174-22.3
			c76.8,0,150.9,0.2,174,20C574,504.1,574,506.3,574,511.9z"/>
		<linearGradient id="SVGID_4_" gradientUnits="userSpaceOnUse" x1="400" y1="544.212" x2="400" y2="444">
			<stop  offset="0" style="stop-color:#C6D0E0"/>
			<stop  offset="1" style="stop-color:#FFFFFF"/>
		</linearGradient>
		<ellipse class="st3" cx="400" cy="494.1" rx="174" ry="50.1"/>
	</g>
	<g>
		<g>
			<linearGradient id="SVGID_5_" gradientUnits="userSpaceOnUse" x1="383.2398" y1="533" x2="383.2398" y2="487.8147">
				<stop  offset="0" style="stop-color:#CED8E0;stop-opacity:0"/>
				<stop  offset="1" style="stop-color:#B4C0CC"/>
			</linearGradient>
			<polygon class="st4" points="486.8,533 290,528 279.7,487.8 443.2,487.8 			"/>
			<g>
				<linearGradient id="SVGID_6_" gradientUnits="userSpaceOnUse" x1="444.024" y1="482.5321" x2="274.7429" y2="313.2509">
					<stop  offset="0" style="stop-color:#A7B1C1"/>
					<stop  offset="1" style="stop-color:#D7DDE2"/>
				</linearGradient>
				<path class="st5" d="M421.2,340.3h-7.7v-32.8c0-31.9-23.9-57.3-54-57.3s-54.1,25.5-54.1,57.4v32.8h-7.7
					c-13.1,0-23.2,10.6-23.2,24.6v106.4c0,13.9,10,24.6,23.2,24.6h123.5c13.1,0,23.2-10.6,23.2-24.6V364.8
					C444.3,351,434.3,340.3,421.2,340.3L421.2,340.3z M367.1,419.7v18.8c0,4.9-3.1,8.2-7.7,8.2s-7.7-3.3-7.7-8.2v-18.8
					c-4.6-2.4-7.7-8.2-7.7-13.9c0-9,6.9-16.4,15.5-16.4c8.6,0,15.5,7.3,15.5,16.4C374.8,411.5,371.7,417.2,367.1,419.7L367.1,419.7z
					 M398,340.3h-77.2v-32.8c0-23,17-40.9,38.6-40.9s38.6,18,38.6,40.9C398,307.6,398,340.3,398,340.3L398,340.3z"/>
				<linearGradient id="SVGID_7_" gradientUnits="userSpaceOnUse" x1="418.6454" y1="504.0394" x2="295.8979" y2="291.4345">
					<stop  offset="0" style="stop-color:#C6D0E0"/>
					<stop  offset="1" style="stop-color:#EFF2F6"/>
				</linearGradient>
				<path class="st6" d="M426.7,345.3h-7.5v-31.7c0-30.9-23.1-55.4-52.3-55.4c-29.1,0-52.4,24.6-52.4,55.5v31.7h-7.5
					c-12.7,0-22.4,10.2-22.4,23.8v103c0,13.4,9.7,23.8,22.4,23.8h119.5c12.7,0,22.4-10.2,22.4-23.8V369.1
					C449,355.7,439.4,345.3,426.7,345.3L426.7,345.3z M374.3,422.2v18.2c0,4.8-3,7.9-7.5,7.9c-4.5,0-7.5-3.2-7.5-7.9v-18.2
					c-4.5-2.3-7.5-7.9-7.5-13.4c0-8.7,6.7-15.9,15-15.9c8.3,0,15,7.1,15,15.9C381.8,414.3,378.8,419.7,374.3,422.2L374.3,422.2z
					 M404.2,345.3h-74.7v-31.7c0-22.2,16.5-39.5,37.3-39.5c20.8,0,37.3,17.4,37.3,39.5C404.2,313.7,404.2,345.3,404.2,345.3
					L404.2,345.3z"/>
			</g>
		</g>
		<g>
			<linearGradient id="SVGID_8_" gradientUnits="userSpaceOnUse" x1="479.136" y1="513.5934" x2="479.136" y2="484.6883">
				<stop  offset="0" style="stop-color:#CED8E0;stop-opacity:0"/>
				<stop  offset="1" style="stop-color:#B4C0CC"/>
			</linearGradient>
			<ellipse class="st7" cx="479.1" cy="499.1" rx="37.3" ry="14.5"/>
			<g>
				
					<linearGradient id="SVGID_9_" gradientUnits="userSpaceOnUse" x1="551.6262" y1="349.8625" x2="598.1831" y2="194.8436" gradientTransform="matrix(0.9992 -3.995616e-02 3.995616e-02 0.9992 -106.3506 159.7788)">
					<stop  offset="0" style="stop-color:#A7B1C1"/>
					<stop  offset="1" style="stop-color:#D7DDE2"/>
				</linearGradient>
				<path class="st8" d="M467.4,323.1c-6.3,0.3-9.4,3.5-9.1,9.9l0.2,5.6l-3.9,0.2c-0.1,0-0.2,0-0.3,0c-5.2,0.3-9.2,4.8-8.9,10
					c0.3,5.2,4.8,9.2,10,8.9l3.9-0.2l0.3,7.9l-13.4,0.5c-5.1,0.3-9.1,4.6-9,9.7c0.1,5.2,4.5,9.4,9.7,9.3l13.4-0.5l0.4,11.1
					c-8.8,2.1-17,6.8-23.6,13.9c-17.8,19.3-16.6,49.4,2.7,67.2c19.3,17.8,49.4,16.6,67.2-2.7c17.8-19.3,16.6-49.4-2.7-67.2
					c-7.1-6.6-15.7-10.5-24.6-12l-2.5-62.6C477.1,325.8,473.8,322.8,467.4,323.1z M486.1,454.6c-7.1,7.7-19.2,8.2-26.9,1.1
					c-7.7-7.1-8.2-19.2-1.1-26.9c7.1-7.7,19.2-8.2,26.9-1.1C492.8,434.8,493.3,446.8,486.1,454.6z"/>
				
					<linearGradient id="SVGID_10_" gradientUnits="userSpaceOnUse" x1="603.8228" y1="342.9785" x2="527.7808" y2="211.27" gradientTransform="matrix(0.9992 -3.995616e-02 3.995616e-02 0.9992 -106.3506 159.7788)">
					<stop  offset="0" style="stop-color:#C6D0E0"/>
					<stop  offset="1" style="stop-color:#EFF2F6"/>
				</linearGradient>
				<path class="st9" d="M473.4,324.1c-6.3,0.3-9.4,3.5-9.1,9.9l0.2,5.6l-3.9,0.2c-0.1,0-0.2,0-0.3,0c-5.2,0.3-9.2,4.8-8.9,10
					c0.3,5.2,4.8,9.2,10,8.9l3.9-0.2l0.3,7.9l-13.4,0.5c-5.1,0.3-9.1,4.6-9,9.7c0.1,5.2,4.5,9.4,9.7,9.3l13.4-0.5l0.4,11.1
					c-8.8,2.1-17,6.8-23.6,13.9c-17.8,19.3-16.6,49.4,2.7,67.2c19.3,17.8,49.4,16.6,67.2-2.7c17.8-19.3,16.6-49.4-2.7-67.2
					c-7.1-6.6-15.7-10.5-24.6-12l-2.5-62.6C483,326.9,479.7,323.9,473.4,324.1z M492.1,455.6c-7.1,7.7-19.2,8.2-26.9,1.1
					c-7.7-7.1-8.2-19.2-1.1-26.9c7.1-7.7,19.2-8.2,26.9-1.1C498.7,435.9,499.2,447.9,492.1,455.6z"/>
			</g>
		</g>
	</g>
	<linearGradient id="SVGID_11_" gradientUnits="userSpaceOnUse" x1="456" y1="286" x2="456" y2="203">
		<stop  offset="0" style="stop-color:#F8FAFC;stop-opacity:0"/>
		<stop  offset="0.5" style="stop-color:#D9E1ED"/>
		<stop  offset="1" style="stop-color:#F8FAFC;stop-opacity:0"/>
	</linearGradient>
	<rect x="448" y="203" class="st10" width="16" height="83"/>
	<linearGradient id="SVGID_12_" gradientUnits="userSpaceOnUse" x1="553.9995" y1="397" x2="553.9995" y2="283">
		<stop  offset="0" style="stop-color:#F8FAFC;stop-opacity:0"/>
		<stop  offset="0.5" style="stop-color:#D9E1ED"/>
		<stop  offset="1" style="stop-color:#F8FAFC;stop-opacity:0"/>
	</linearGradient>
	<rect x="544" y="283" class="st11" width="20" height="114"/>
	<linearGradient id="SVGID_13_" gradientUnits="userSpaceOnUse" x1="212" y1="521" x2="212" y2="417">
		<stop  offset="0" style="stop-color:#F8FAFC;stop-opacity:0"/>
		<stop  offset="0.5" style="stop-color:#D9E1ED"/>
		<stop  offset="1" style="stop-color:#F8FAFC;stop-opacity:0"/>
	</linearGradient>
	<rect x="200" y="417" class="st12" width="24" height="104"/>
	<linearGradient id="SVGID_14_" gradientUnits="userSpaceOnUse" x1="356" y1="376" x2="356" y2="256">
		<stop  offset="0" style="stop-color:#F8FAFC;stop-opacity:0"/>
		<stop  offset="0.5" style="stop-color:#D9E1ED"/>
		<stop  offset="1" style="stop-color:#F8FAFC;stop-opacity:0"/>
	</linearGradient>
	<rect x="344" y="256" class="st13" width="24" height="120"/>
	<g>
		<linearGradient id="SVGID_15_" gradientUnits="userSpaceOnUse" x1="547.9287" y1="339.5474" x2="561.0703" y2="339.5474">
			<stop  offset="0" style="stop-color:#B6C2D3"/>
			<stop  offset="1" style="stop-color:#C6D2E0"/>
		</linearGradient>
		<path class="st14" d="M559.5,332.8c1.1,1.7,1.6,3.9,1.6,6.7s-0.5,5.1-1.6,6.7c-1.2,1.8-2.8,2.7-5,2.7c-2.1,0-3.8-0.9-5-2.7
			c-1.1-1.7-1.6-3.9-1.6-6.7c0-2.9,0.5-5.1,1.6-6.7c1.2-1.8,2.8-2.7,5-2.7C556.6,330.1,558.3,331,559.5,332.8z M551.3,334.9
			c-0.4,1.1-0.7,2.6-0.7,4.6c0,2,0.2,3.5,0.7,4.6c0.6,1.6,1.7,2.5,3.2,2.5c1.5,0,2.5-0.8,3.2-2.5c0.4-1.2,0.7-2.7,0.7-4.6
			c0-2-0.2-3.5-0.7-4.6c-0.6-1.6-1.7-2.5-3.2-2.5C553,332.4,552,333.3,551.3,334.9z"/>
	</g>
	<g>
		<linearGradient id="SVGID_16_" gradientUnits="userSpaceOnUse" x1="351.0879" y1="316.6592" x2="359.7295" y2="316.6592">
			<stop  offset="0" style="stop-color:#B6C2D3"/>
			<stop  offset="1" style="stop-color:#C6D2E0"/>
		</linearGradient>
		<path class="st15" d="M359.7,305.4V328h-3.5v-18.5c-1.4,1.3-3.1,2.3-5.2,2.8v-3.4c1-0.3,2.1-0.7,3.2-1.3c1.1-0.7,2.1-1.5,2.8-2.2
			H359.7z"/>
	</g>
	<g>
		<linearGradient id="SVGID_17_" gradientUnits="userSpaceOnUse" x1="204.1885" y1="468.6592" x2="220.5215" y2="468.6592">
			<stop  offset="0" style="stop-color:#B6C2D3"/>
			<stop  offset="1" style="stop-color:#C6D2E0"/>
		</linearGradient>
		<path class="st16" d="M218.5,460.3c1.3,2.1,2,4.9,2,8.4s-0.7,6.3-2,8.4c-1.5,2.2-3.5,3.4-6.2,3.4c-2.6,0-4.7-1.1-6.2-3.4
			c-1.3-2.1-2-4.9-2-8.4c0-3.5,0.7-6.3,2-8.4c1.5-2.2,3.5-3.4,6.2-3.4C215,456.9,217.1,458,218.5,460.3z M208.4,462.9
			c-0.5,1.4-0.8,3.3-0.8,5.8c0,2.5,0.3,4.4,0.8,5.8c0.8,2,2.1,3.1,3.9,3.1c1.9,0,3.2-1,3.9-3.1c0.5-1.5,0.8-3.4,0.8-5.8
			c0-2.4-0.3-4.3-0.8-5.8c-0.8-2-2.1-3.1-3.9-3.1C210.5,459.8,209.2,460.9,208.4,462.9z"/>
	</g>
	<linearGradient id="SVGID_18_" gradientUnits="userSpaceOnUse" x1="408" y1="526" x2="408" y2="430">
		<stop  offset="0" style="stop-color:#F8FAFC;stop-opacity:0"/>
		<stop  offset="0.5" style="stop-color:#D9E1ED"/>
		<stop  offset="1" style="stop-color:#F8FAFC;stop-opacity:0"/>
	</linearGradient>
	<rect x="396" y="430" class="st17" width="24" height="96"/>
	<linearGradient id="SVGID_19_" gradientUnits="userSpaceOnUse" x1="595" y1="577" x2="595" y2="455">
		<stop  offset="0" style="stop-color:#F8FAFC;stop-opacity:0"/>
		<stop  offset="0.5" style="stop-color:#D9E1ED"/>
		<stop  offset="1" style="stop-color:#F8FAFC;stop-opacity:0"/>
	</linearGradient>
	<rect x="583" y="455" class="st18" width="24" height="122"/>
	<g>
		<g>
			<path class="st19" d="M411.7,466.4V489h-3.5v-18.5c-1.4,1.3-3.1,2.3-5.2,2.8v-3.4c1-0.3,2.1-0.7,3.2-1.3c1.1-0.7,2.1-1.5,2.8-2.2
				H411.7z"/>
		</g>
	</g>
	<g>
		<linearGradient id="SVGID_20_" gradientUnits="userSpaceOnUse" x1="587.1885" y1="517.6592" x2="603.5215" y2="517.6592">
			<stop  offset="0" style="stop-color:#B6C2D3"/>
			<stop  offset="1" style="stop-color:#C6D2E0"/>
		</linearGradient>
		<path class="st20" d="M601.5,509.3c1.3,2.1,2,4.9,2,8.4s-0.7,6.3-2,8.4c-1.5,2.2-3.5,3.4-6.2,3.4c-2.6,0-4.7-1.1-6.2-3.4
			c-1.3-2.1-2-4.9-2-8.4c0-3.5,0.7-6.3,2-8.4c1.5-2.2,3.5-3.4,6.2-3.4C598,505.9,600.1,507,601.5,509.3z M591.4,511.9
			c-0.5,1.4-0.8,3.3-0.8,5.8c0,2.5,0.3,4.4,0.8,5.8c0.8,2,2.1,3.1,3.9,3.1c1.9,0,3.2-1,3.9-3.1c0.5-1.5,0.8-3.4,0.8-5.8
			c0-2.4-0.3-4.3-0.8-5.8c-0.8-2-2.1-3.1-3.9-3.1C593.5,508.8,592.2,509.9,591.4,511.9z"/>
	</g>
</g>
</svg>
