<?xml version="1.0" standalone="no"?><!DOCTYPE svg PUBLIC "-//W3C//DTD SVG 1.1//EN" "http://www.w3.org/Graphics/SVG/1.1/DTD/svg11.dtd"><svg class="icon" width="200px" height="200.00px" viewBox="0 0 1024 1024" version="1.1" xmlns="http://www.w3.org/2000/svg"><path fill="#333333" d="M509.841892 85.333333l1.695656 0.022022 1.227699 0.066064 1.046022 0.093592 1.205677 0.148645 1.844301 0.313806 1.662624 0.379871 1.668129 0.467957 1.558022 0.528516 1.227698 0.478968 1.249721 0.550538 1.134107 0.550537 1.431398 0.770753 1.035011 0.627613 1.304774 0.858839 1.337807 0.974451 0.770752 0.605592 1.789248 1.580043 0.677161 0.660645 99.096774 99.096774a33.032258 33.032258 0 0 1-45.71114 47.676559l-1.007484-0.963441L545.032258 199.762581V477.866667h280.372301l-40.448-38.196301a33.032258 33.032258 0 0 1 44.32929-48.964818l1.035011 0.935914L930.408602 486.212817l1.035011 1.112086 0.946925 1.112086 0.847828 1.090065 0.96344 1.354322 0.858839 1.359828 0.79828 1.398366 0.59458 1.161634 0.715699 1.574538 0.715699 1.866323 0.209205 0.605591 0.363354 1.156129 0.352344 1.32129 0.28628 1.288258 0.275269 1.541506 0.209204 1.585548 0.137635 1.635097 0.044043 1.365333-0.016517 1.695656-0.066064 1.227699-0.093591 1.051527-0.148646 1.200172-0.313806 1.849806-0.379871 1.662624-0.467957 1.668129-0.528516 1.552516-0.478968 1.227699-0.550538 1.249721-0.550537 1.134107-0.770753 1.431398-0.622107 1.035011-0.864344 1.304774-0.974452 1.337806-0.605592 0.770753-1.580043 1.789247-0.660645 0.677162-99.096774 99.096774a33.032258 33.032258 0 0 1-47.676559-45.705635l0.968946-1.007483 41.053592-41.059097H545.032258v280.300731l41.053591-41.053591a33.032258 33.032258 0 0 1 47.682065 45.711139l-0.963441 1.007484-99.773935 99.75742-0.567054 0.517505-1.414882 1.211183-1.359828 1.035011-1.39286 0.95243-1.508473 0.924903-1.035011 0.567054-1.084559 0.550537-1.266237 0.572559-1.624086 0.649635-1.585548 0.539527-1.277247 0.36886-1.624086 0.385376-1.491957 0.28628-1.673635 0.236731-1.67914 0.148645-1.745204 0.066065-1.282753-0.011011-1.271741-0.060559-1.304775-0.110108-1.591053-0.209204-1.035011-0.181677-0.974452-0.198194-0.968946-0.22572-1.16714-0.319312-1.365333-0.42942-1.67914-0.616602-1.414882-0.605591-1.541505-0.754237-1.183656-0.644129-1.414882-0.858838-1.425892-0.974452-1.541505-1.178151-1.128603-0.957935-1.101075-1.018495-0.974452-0.996473-93.591397-99.096774a33.032258 33.032258 0 0 1 47.048946-46.355269l0.979957 0.990968L478.967742 824.297978V543.931183H200.869161l41.053592 41.059097a33.032258 33.032258 0 0 1-45.705635 47.676559l-1.007484-0.963441-99.757419-99.773936-0.523011-0.567053-1.205677-1.414882-1.040516-1.359828-0.95243-1.39286-0.924904-1.508473-0.567053-1.029506-0.550538-1.084559-0.572559-1.271742-0.649635-1.624086-0.539526-1.580043-0.368861-1.282753-0.385376-1.624086-0.28628-1.491957-0.236731-1.673634-0.148645-1.67914-0.060559-1.745204 0.011011-1.282753 0.055053-1.271742 0.110108-1.304774 0.21471-1.591054 0.176172-1.029505 0.198193-0.979957 0.225721-0.968946 0.319312-1.16714 0.429419-1.365333 0.616602-1.67914 0.605591-1.414882 0.754237-1.541505 0.644129-1.178151 0.858839-1.414882 0.974451-1.431397 1.178151-1.541506 0.957935-1.123097 1.024-1.101075 0.990968-0.979957 99.096774-93.591398A33.032258 33.032258 0 0 1 242.236559 438.690409l-0.990968 0.979957-40.442494 38.196301H478.967742V199.696516l-38.196301 40.448a33.032258 33.032258 0 0 1-48.964817-44.32929l0.935914-1.035011L487.313892 94.692473l1.106581-1.035011 1.117592-0.946924 1.084559-0.847828 1.359828-0.963441 1.359828-0.858839 1.398365-0.798279 1.156129-0.594581 1.580043-0.715699 1.860817-0.715699 0.605592-0.209204 1.161634-0.35785 1.321291-0.357849 1.288258-0.28628 1.541505-0.275269 1.585548-0.209204 1.635097-0.132129 1.365333-0.055054z"  /></svg>