<?xml version="1.0" standalone="no"?><!DOCTYPE svg PUBLIC "-//W3C//DTD SVG 1.1//EN" "http://www.w3.org/Graphics/SVG/1.1/DTD/svg11.dtd"><svg class="icon" width="200px" height="200.00px" viewBox="0 0 1024 1024" version="1.1" xmlns="http://www.w3.org/2000/svg"><path d="M618.942 267.132h-213.89c-20.62 0.03-37.35-16.66-37.38-37.27a37.387 37.387 0 0 1 8.64-23.94l106.76-128.4c13.15-15.88 36.68-18.08 52.56-4.93 1.79 1.49 3.44 3.13 4.93 4.93l106.76 128.4c13.19 15.84 11.05 39.38-4.8 52.57a37.378 37.378 0 0 1-23.58 8.64z m0 489.74h-213.89c-20.62-0.03-37.35 16.66-37.38 37.27a37.387 37.387 0 0 0 8.64 23.94l106.76 128.4c13.15 15.88 36.68 18.08 52.56 4.93 1.79-1.49 3.44-3.13 4.93-4.93l106.76-128.4c13.19-15.84 11.05-39.38-4.8-52.57a37.32 37.32 0 0 0-23.58-8.64z m-413.21-380.74l-128.41 106.76c-15.87 13.15-18.08 36.68-4.93 52.56 1.48 1.79 3.13 3.44 4.93 4.93l128.41 106.76c15.84 13.2 39.38 11.04 52.57-4.79 5.6-6.73 8.66-15.2 8.65-23.95v-213.88c-0.54-20.6-17.69-36.87-38.3-36.33-8.23 0.22-16.16 3.15-22.55 8.34l-0.37-0.4z m306.45 98.54c-20.61 0-37.33 16.71-37.33 37.33s16.71 37.33 37.33 37.33c20.62 0 37.33-16.71 37.33-37.33s-16.71-37.33-37.33-37.33z" fill="#821064" /><path d="M818.272 376.502l128.41 106.76c15.87 13.15 18.08 36.68 4.93 52.56-1.48 1.8-3.13 3.44-4.93 4.93l-128.41 106.76c-15.84 13.2-39.38 11.04-52.57-4.79-5.6-6.73-8.66-15.2-8.65-23.95v-213.89c0.17-20.61 17.02-37.19 37.64-37.02 8.62 0.08 16.95 3.13 23.58 8.64z m-306.09 98.17v74.65c20.62 0 37.33-16.71 37.33-37.33s-16.71-37.32-37.33-37.32z m106.76 282.2h-106.76v203.06c11.1 0.02 21.64-4.91 28.74-13.44l106.76-128.4c13.19-15.84 11.04-39.38-4.8-52.57a37.266 37.266 0 0 0-23.94-8.65z m28.74-550.95l-106.76-128.4a37.317 37.317 0 0 0-28.74-13.44v203.06h106.76c20.62 0.03 37.35-16.66 37.38-37.27 0.02-8.76-3.04-17.23-8.64-23.95z" fill="#BC1992" /></svg>