<?xml version="1.0" standalone="no"?><!DOCTYPE svg PUBLIC "-//W3C//DTD SVG 1.1//EN" "http://www.w3.org/Graphics/SVG/1.1/DTD/svg11.dtd"><svg class="icon" width="200px" height="200.00px" viewBox="0 0 1024 1024" version="1.1" xmlns="http://www.w3.org/2000/svg"><path fill="#333333" d="M268.501333 652.501333a42.666667 42.666667 0 0 0 0 60.330667l213.333334 213.333333a42.666667 42.666667 0 0 0 60.330666 0l213.333334-213.333333a42.666667 42.666667 0 0 0-60.330667-60.330667L512 835.669333l-183.168-183.168a42.666667 42.666667 0 0 0-60.330667 0z m0-281.002666a42.666667 42.666667 0 0 1 0-60.330667l213.333334-213.333333a42.666667 42.666667 0 0 1 60.330666 0l213.333334 213.333333a42.666667 42.666667 0 0 1-60.330667 60.330667L512 188.330667 328.832 371.498667a42.666667 42.666667 0 0 1-60.330667 0zM512 426.666667a85.333333 85.333333 0 1 0 0 170.666666 85.333333 85.333333 0 0 0 0-170.666666z"  /></svg>