<?xml version="1.0" standalone="no"?><!DOCTYPE svg PUBLIC "-//W3C//DTD SVG 1.1//EN" "http://www.w3.org/Graphics/SVG/1.1/DTD/svg11.dtd"><svg class="icon" width="200px" height="200.00px" viewBox="0 0 1024 1024" version="1.1" xmlns="http://www.w3.org/2000/svg"><path fill="#333333" d="M619.13 267.13H405.24c-20.62 0.03-37.35-16.66-37.38-37.27a37.387 37.387 0 0 1 8.64-23.94l106.76-128.4c13.15-15.88 36.68-18.08 52.56-4.93 1.79 1.49 3.44 3.13 4.93 4.93l106.76 128.4c13.19 15.84 11.05 39.38-4.8 52.57a37.378 37.378 0 0 1-23.58 8.64z m0 489.74H405.24c-20.62-0.03-37.35 16.66-37.38 37.27a37.387 37.387 0 0 0 8.64 23.94l106.76 128.4c13.15 15.88 36.68 18.08 52.56 4.93 1.79-1.49 3.44-3.13 4.93-4.93l106.76-128.4c13.19-15.84 11.05-39.38-4.8-52.57a37.378 37.378 0 0 0-23.58-8.64zM205.92 376.13L77.51 482.89c-15.87 13.15-18.08 36.68-4.93 52.56 1.48 1.8 3.13 3.44 4.93 4.93l128.41 106.76c15.84 13.2 39.38 11.05 52.57-4.79 5.6-6.73 8.66-15.2 8.65-23.95V404.51c-0.54-20.6-17.69-36.87-38.3-36.33-8.23 0.22-16.16 3.15-22.55 8.34l-0.37-0.39z m550.95 28.75v213.89c-0.03 20.61 16.65 37.35 37.27 37.39 8.75 0.01 17.23-3.04 23.95-8.65L946.5 540.75c15.87-13.15 18.08-36.68 4.93-52.56-1.48-1.8-3.13-3.44-4.93-4.93L818.08 376.5c-16.01-12.99-39.52-10.53-52.5 5.47a37.392 37.392 0 0 0-8.34 23.27l-0.37-0.36z m-244.5 69.79c-20.62 0-37.33 16.71-37.33 37.33s16.71 37.33 37.33 37.33c20.61 0 37.33-16.71 37.33-37.33s-16.71-37.33-37.33-37.33z"  /></svg>