<?xml version="1.0" standalone="no"?><!DOCTYPE svg PUBLIC "-//W3C//DTD SVG 1.1//EN" "http://www.w3.org/Graphics/SVG/1.1/DTD/svg11.dtd"><svg class="icon" width="200px" height="200.00px" viewBox="0 0 1024 1024" version="1.1" xmlns="http://www.w3.org/2000/svg"><path fill="#333333" d="M682.666667 554.666667l297.130666 173.312-126.848 36.266666 90.666667 157.056-73.898667 42.666667-90.666666-157.013333-94.848 91.733333L682.666667 554.666667z m-85.333334-298.666667h85.333334v85.333333h213.333333a42.666667 42.666667 0 0 1 42.666667 42.666667v170.666667h-85.333334v-128H426.666667v426.666666h170.666666v85.333334H384a42.666667 42.666667 0 0 1-42.666667-42.666667v-213.333333H256v-85.333334h85.333333V384a42.666667 42.666667 0 0 1 42.666667-42.666667h213.333333V256zM170.666667 597.333333v85.333334H85.333333v-85.333334h85.333334z m0-170.666666v85.333333H85.333333v-85.333333h85.333334z m0-170.666667v85.333333H85.333333V256h85.333334z m0-170.666667v85.333334H85.333333V85.333333h85.333334z m170.666666 0v85.333334H256V85.333333h85.333333z m170.666667 0v85.333334h-85.333333V85.333333h85.333333z m170.666667 0v85.333334h-85.333334V85.333333h85.333334z" /></svg>