<?xml version="1.0" encoding="utf-8"?>
<!-- Generator: Adobe Illustrator 23.0.2, SVG Export Plug-In . SVG Version: 6.00 Build 0)  -->
<svg version="1.1" id="图层_1" xmlns="http://www.w3.org/2000/svg" xmlns:xlink="http://www.w3.org/1999/xlink" x="0px" y="0px"
	 viewBox="0 0 800 800" style="enable-background:new 0 0 800 800;" xml:space="preserve">
<style type="text/css">
	.st0{fill:url(#SVGID_1_);}
	.st1{fill:url(#SVGID_2_);}
	.st2{fill:none;stroke:url(#SVGID_3_);stroke-width:2;stroke-miterlimit:10;}
	.st3{fill:url(#SVGID_4_);}
	.st4{fill:url(#SVGID_5_);}
	.st5{fill:url(#SVGID_6_);}
	.st6{fill:#FFFFFF;}
	.st7{fill:url(#SVGID_7_);}
	.st8{fill:url(#SVGID_8_);}
	.st9{fill:url(#SVGID_9_);}
	.st10{fill:url(#SVGID_10_);}
	.st11{fill:url(#SVGID_11_);}
	.st12{fill:url(#SVGID_12_);}
	.st13{fill:url(#SVGID_13_);}
	.st14{fill:none;stroke:url(#SVGID_14_);stroke-width:2;stroke-miterlimit:10;}
	.st15{fill:url(#SVGID_15_);}
	.st16{fill:url(#SVGID_16_);}
	.st17{fill:url(#SVGID_17_);}
	.st18{fill:url(#SVGID_18_);}
	.st19{fill:url(#SVGID_19_);}
</style>
<g>
	<linearGradient id="SVGID_1_" gradientUnits="userSpaceOnUse" x1="400" y1="885" x2="400" y2="139">
		<stop  offset="0.4171" style="stop-color:#F8FAFC;stop-opacity:0"/>
		<stop  offset="1" style="stop-color:#ECEFF4"/>
	</linearGradient>
	<ellipse class="st0" cx="400" cy="512" rx="400" ry="373"/>
	<linearGradient id="SVGID_2_" gradientUnits="userSpaceOnUse" x1="400" y1="618.6671" x2="400" y2="421.639">
		<stop  offset="0" style="stop-color:#DFE2E5;stop-opacity:0"/>
		<stop  offset="1" style="stop-color:#D7DCE2;stop-opacity:0.5"/>
	</linearGradient>
	<ellipse class="st1" cx="400" cy="520.2" rx="254" ry="98.5"/>
	<g>
		<linearGradient id="SVGID_3_" gradientUnits="userSpaceOnUse" x1="472.1974" y1="370.3037" x2="472.1974" y2="491.8904">
			<stop  offset="0" style="stop-color:#A7B1C1"/>
			<stop  offset="1" style="stop-color:#E5E9F0"/>
		</linearGradient>
		<path class="st2" d="M468.1,370.8c0,0,13.3,25.1-3.1,56.7c-13,25-2,52,20.5,63.5"/>
		<linearGradient id="SVGID_4_" gradientUnits="userSpaceOnUse" x1="468.5048" y1="374.5" x2="468.5048" y2="364.8367">
			<stop  offset="0" style="stop-color:#A7B1C1"/>
			<stop  offset="1" style="stop-color:#D7DDE2"/>
		</linearGradient>
		<path class="st3" d="M466.8,365c0,0,0.5,1.4-0.8,2.8c-0.8,0.9-3.1,1.5-4.2,2.6c-1.6,1.6,0.5,3.1,2.1,3.7c1.6,0.5,9.4,1,11.5-1
			s-7.3-3.7-6-8.1L466.8,365z"/>
		<g>
			<linearGradient id="SVGID_5_" gradientUnits="userSpaceOnUse" x1="468.106" y1="367.2227" x2="468.106" y2="297.5164">
				<stop  offset="0" style="stop-color:#C6D0E0"/>
				<stop  offset="1" style="stop-color:#EFF2F6"/>
			</linearGradient>
			<ellipse class="st4" cx="468.1" cy="332.4" rx="31.4" ry="34.9"/>
			<linearGradient id="SVGID_6_" gradientUnits="userSpaceOnUse" x1="483.8187" y1="367.2227" x2="483.8187" y2="297.5164">
				<stop  offset="0" style="stop-color:#B8C2D3;stop-opacity:0.5"/>
				<stop  offset="1" style="stop-color:#D7DCE2;stop-opacity:0.3"/>
			</linearGradient>
			<path class="st5" d="M499.5,332.4c0,19.2-14.1,34.9-31.4,34.9c13.1-5.7,22-14.1,24.1-30.9c2.4-19.1-7.9-36.2-24.1-38.8
				C485.5,297.5,499.5,313.1,499.5,332.4z"/>
			<path class="st6" d="M452.6,314.5c-0.4,0-0.7-0.1-1.1-0.3c-0.8-0.5-1-1.5-0.5-2.2c4.4-5.3,9.2-8.4,9.4-8.5c0.8-0.5,2-0.4,2.6,0.3
				c0.6,0.7,0.4,1.7-0.4,2.2c-0.1,0.1-4.6,2.9-8.6,7.8C453.7,314.3,453.1,314.5,452.6,314.5z M448.9,319.9c-0.3,0-0.6-0.1-0.8-0.2
				c-0.9-0.4-1.3-1.3-0.8-2.1l0.5-0.9c0.5-0.8,1.6-1.1,2.5-0.7c0.9,0.4,1.3,1.3,0.8,2.1l-0.5,0.9
				C450.2,319.5,449.6,319.9,448.9,319.9z"/>
		</g>
	</g>
	<linearGradient id="SVGID_7_" gradientUnits="userSpaceOnUse" x1="268.5" y1="620.5" x2="268.5" y2="486.5">
		<stop  offset="0" style="stop-color:#DFE2E5;stop-opacity:0"/>
		<stop  offset="1" style="stop-color:#D7DCE2;stop-opacity:0.5"/>
	</linearGradient>
	<polygon class="st7" points="358,619.5 179,620.5 200,495.1 251,508.5 303,486.5 	"/>
	<linearGradient id="SVGID_8_" gradientUnits="userSpaceOnUse" x1="407" y1="629.5" x2="407" y2="491.5">
		<stop  offset="0" style="stop-color:#DFE2E5;stop-opacity:0"/>
		<stop  offset="1" style="stop-color:#D7DCE2;stop-opacity:0.5"/>
	</linearGradient>
	<polygon class="st8" points="499,624.5 315,629.5 335,492.5 381,511.5 440,491.5 	"/>
	<linearGradient id="SVGID_9_" gradientUnits="userSpaceOnUse" x1="564" y1="625.5" x2="564" y2="481.5">
		<stop  offset="0" style="stop-color:#DFE2E5;stop-opacity:0"/>
		<stop  offset="1" style="stop-color:#D7DCE2;stop-opacity:0.5"/>
	</linearGradient>
	<polygon class="st9" points="657,625.5 471,625.5 482,491.5 538.6,510.5 598,481.5 	"/>
	<g>
		<g>
			
				<linearGradient id="SVGID_10_" gradientUnits="userSpaceOnUse" x1="171.7829" y1="1031.6804" x2="68.8492" y2="928.7468" gradientTransform="matrix(0.9868 0.1621 -0.1621 0.9868 299.4217 -532.7371)">
				<stop  offset="0" style="stop-color:#A7B1C1"/>
				<stop  offset="1" style="stop-color:#D7DDE2"/>
			</linearGradient>
			<path class="st10" d="M239.6,530.4c-6.3-1-11.7-2.1-16.3-3.3c-4.6-1.2-9.3-2.6-14.1-4.3l-8.6-31.5l15.3-4.5
				c2.3,0.9,4.4,1.7,6.4,2.5c2,0.7,3.9,1.4,5.9,2.1c2,0.7,4.1,1.2,6.3,1.7c2.2,0.5,4.8,1,7.8,1.5c3.5,0.6,6.9,0.9,10.1,1.1
				c3.2,0.1,6.1-0.2,8.6-0.9c2.5-0.7,4.7-2,6.4-3.7c1.7-1.7,2.8-4.2,3.3-7.3c1-6-0.4-10.3-4.1-12.9c-3.8-2.6-9.6-4.5-17.4-5.8
				c-4.7-0.8-9.9-1.3-15.5-1.6c-5.6-0.3-10.8-0.5-15.5-0.4l8-74.8l15.3-4.5l75.5,12.4l-5.1,31l-15.3,4.5l-30.1-12l-6.8,20.3
				c2.4-0.1,4.7-0.1,6.8,0c2.1,0.1,4.4,0.4,7,0.9c14.8,2.4,25.2,7.8,31.2,16c6,8.2,7.8,19.4,5.5,33.6c-2.5,15.3-9.8,25.8-21.7,31.5
				C276.5,527.6,259.1,533.7,239.6,530.4z"/>
		</g>
		<g>
			
				<linearGradient id="SVGID_11_" gradientUnits="userSpaceOnUse" x1="158.8519" y1="1037.1782" x2="59.6349" y2="937.9611" gradientTransform="matrix(0.9868 0.1621 -0.1621 0.9868 299.4217 -532.7371)">
				<stop  offset="0" style="stop-color:#C6D0E0"/>
				<stop  offset="1" style="stop-color:#EFF2F6"/>
			</linearGradient>
			<path class="st11" d="M225.9,530.1c-6.3-1-11.7-2.1-16.3-3.3c-4.6-1.2-9.3-2.6-14.1-4.3l5.1-31.2c2.3,0.9,4.4,1.7,6.4,2.5
				c2,0.7,3.9,1.4,5.9,2.1c2,0.7,4.1,1.2,6.3,1.7c2.2,0.5,4.8,1,7.8,1.5c3.5,0.6,6.9,0.9,10.1,1.1c3.2,0.1,6.1-0.2,8.6-0.9
				c2.5-0.7,4.7-2,6.4-3.7c1.7-1.7,2.8-4.2,3.3-7.3c1-6-0.4-10.3-4.1-12.9c-3.8-2.6-9.6-4.5-17.4-5.8c-4.7-0.8-9.9-1.3-15.5-1.6
				c-5.6-0.3-10.8-0.5-15.5-0.4l23.3-79.3l75.5,12.4l-5.1,31l-45.4-7.5l-6.8,20.3c2.4-0.1,4.7-0.1,6.8,0c2.1,0.1,4.4,0.4,7,0.9
				c14.8,2.4,25.2,7.8,31.2,16c6,8.2,7.8,19.4,5.5,33.6c-2.5,15.3-9.8,25.8-21.7,31.5C261.2,532.1,245.4,533.4,225.9,530.1z"/>
		</g>
	</g>
	<g>
		<g>
			
				<linearGradient id="SVGID_12_" gradientUnits="userSpaceOnUse" x1="320.691" y1="943.6569" x2="237.8611" y2="800.1912" gradientTransform="matrix(0.9914 0.1306 -0.1306 0.9914 234.8848 -448.8124)">
				<stop  offset="0" style="stop-color:#A7B1C1"/>
				<stop  offset="1" style="stop-color:#D7DDE2"/>
			</linearGradient>
			<path class="st12" d="M387.1,534.6c-9.4-1.2-17.7-3.6-25.1-6.9c-7.3-3.4-13.2-8.6-17.7-15.5c-4.5-6.9-7.5-15.9-8.9-27
				c-1.4-11.1-1.1-24.9,1.1-41.3c2.2-16.5,5.4-29.9,9.6-40.1c4.2-10.3,9.4-18.1,15.6-23.6c6.1-5.5,13.2-8.9,21.1-10.3
				c7.9-1.4,16.6-1.5,26-0.2c9.4,1.2,17.8,3.6,25.1,6.9c7.3,3.4,13.2,8.5,17.6,15.4c4.4,6.9,7.4,15.8,8.8,26.8
				c1.4,11,1.1,24.7-1.1,41.2c-2.2,16.5-5.4,29.9-9.6,40.2c-4.3,10.3-9.4,18.3-15.5,23.8c-6.1,5.5-13.1,9-21,10.4
				C405.2,535.8,396.5,535.8,387.1,534.6z M392,497.2c3.7,0.5,6.8,0.3,9.4-0.6c2.5-0.9,4.7-2.9,6.6-6.1c1.8-3.1,3.4-7.6,4.8-13.4
				c1.4-5.8,2.7-13.3,3.9-22.5c1.2-9.2,1.9-16.9,2.1-22.9c0.2-6-0.2-10.8-1.2-14.4c-0.9-3.6-2.5-6.1-4.7-7.7
				c-2.2-1.5-5.2-2.6-8.9-3.1c-3.5-0.5-6.6-0.2-9.1,0.7c-2.6,0.9-4.8,3-6.7,6.2c-1.9,3.2-3.6,7.7-5,13.6c-1.4,5.9-2.7,13.4-3.9,22.6
				c-1.2,9.2-1.9,16.8-2.1,22.8c-0.2,5.9,0.3,10.7,1.3,14.2c1,3.5,2.7,6,4.9,7.6C385.6,495.7,388.5,496.7,392,497.2z"/>
		</g>
		<g>
			
				<linearGradient id="SVGID_13_" gradientUnits="userSpaceOnUse" x1="305.0901" y1="942.2645" x2="222.2602" y2="798.7988" gradientTransform="matrix(0.9914 0.1306 -0.1306 0.9914 234.8848 -448.8124)">
				<stop  offset="0" style="stop-color:#C6D0E0"/>
				<stop  offset="1" style="stop-color:#EFF2F6"/>
			</linearGradient>
			<path class="st13" d="M371.8,531.2c-9.4-1.2-17.7-3.6-25.1-6.9c-7.3-3.4-13.2-8.6-17.7-15.5c-4.5-6.9-7.5-15.9-8.9-27
				c-1.4-11.1-1.1-24.9,1.1-41.3c2.2-16.5,5.4-29.9,9.6-40.1c4.2-10.3,9.4-18.1,15.6-23.6c6.1-5.5,13.2-8.9,21.1-10.3
				c7.9-1.4,16.6-1.5,26-0.2c9.4,1.2,17.8,3.6,25.1,6.9c7.3,3.4,13.2,8.5,17.6,15.4c4.4,6.9,7.4,15.8,8.8,26.8
				c1.4,11,1.1,24.7-1.1,41.2c-2.2,16.5-5.4,29.9-9.6,40.2c-4.3,10.3-9.4,18.3-15.5,23.8c-6.1,5.5-13.1,9-21,10.4
				C389.9,532.3,381.2,532.4,371.8,531.2z M376.7,493.7c3.7,0.5,6.8,0.3,9.4-0.6c2.5-0.9,4.7-2.9,6.6-6.1c1.8-3.1,3.4-7.6,4.8-13.4
				c1.4-5.8,2.7-13.3,3.9-22.5c1.2-9.2,1.9-16.9,2.1-22.9c0.2-6-0.2-10.8-1.2-14.4c-0.9-3.6-2.5-6.1-4.7-7.7
				c-2.2-1.5-5.2-2.6-8.9-3.1c-3.5-0.5-6.6-0.2-9.1,0.7c-2.6,0.9-4.8,3-6.7,6.2c-1.9,3.2-3.6,7.7-5,13.6c-1.4,5.9-2.7,13.4-3.9,22.6
				c-1.2,9.2-1.9,16.8-2.1,22.8c-0.2,5.9,0.3,10.7,1.3,14.2c1,3.5,2.7,6,4.9,7.6C370.3,492.3,373.2,493.3,376.7,493.7z"/>
		</g>
	</g>
	<g>
		
			<linearGradient id="SVGID_14_" gradientUnits="userSpaceOnUse" x1="6956.0894" y1="328.0704" x2="6956.0894" y2="486.5" gradientTransform="matrix(-1 0 0 1 7310.0586 0)">
			<stop  offset="0" style="stop-color:#A7B1C1"/>
			<stop  offset="1" style="stop-color:#F0F2F7"/>
		</linearGradient>
		<path class="st14" d="M344,328.8c7.9,8.4,18.3,23.5,10.3,39.8c-6.3,12.9-38,17.4-36.3,51.9c2,42,72,28,72,66"/>
		
			<linearGradient id="SVGID_15_" gradientUnits="userSpaceOnUse" x1="705.9178" y1="330.5" x2="705.9178" y2="318.1955" gradientTransform="matrix(1 0 0 1 -361.6498 0)">
			<stop  offset="0" style="stop-color:#A7B1C1"/>
			<stop  offset="1" style="stop-color:#D7DDE2"/>
		</linearGradient>
		<path class="st15" d="M342.1,318.3c0,0,0.7,1.7-1,3.6c-1,1.1-4,2-5.3,3.3c-2,2,0.7,4,2.7,4.7s12,1.3,14.7-1.3
			c2.7-2.7-9.3-4.7-7.6-10.4L342.1,318.3z"/>
		<g>
			<linearGradient id="SVGID_16_" gradientUnits="userSpaceOnUse" x1="343.7601" y1="321.2337" x2="343.7601" y2="232.4755">
				<stop  offset="0" style="stop-color:#C6D0E0"/>
				<stop  offset="1" style="stop-color:#EFF2F6"/>
			</linearGradient>
			<ellipse class="st16" cx="343.8" cy="276.9" rx="40" ry="44.4"/>
			<linearGradient id="SVGID_17_" gradientUnits="userSpaceOnUse" x1="363.7674" y1="321.2337" x2="363.7674" y2="232.4755">
				<stop  offset="0" style="stop-color:#B8C2D3;stop-opacity:0.5"/>
				<stop  offset="1" style="stop-color:#D7DCE2;stop-opacity:0.3"/>
			</linearGradient>
			<path class="st17" d="M383.8,276.9c0,24.5-17.9,44.4-40,44.4c16.7-7.3,28-18,30.7-39.3c3-24.4-10-46.1-30.7-49.4
				C365.9,232.5,383.8,252.3,383.8,276.9z"/>
			<path class="st6" d="M324,254.1c-0.5,0-0.9-0.1-1.3-0.4c-1.1-0.6-1.3-1.9-0.6-2.8c5.6-6.8,11.7-10.7,12-10.8
				c1-0.7,2.5-0.5,3.3,0.4c0.8,0.9,0.5,2.1-0.5,2.8c-0.1,0.1-5.8,3.7-10.9,9.9C325.4,253.8,324.7,254.1,324,254.1z M319.3,260.9
				c-0.4,0-0.7-0.1-1.1-0.2c-1.2-0.5-1.6-1.7-1-2.7l0.7-1.1c0.6-1,2-1.4,3.2-0.9c1.2,0.5,1.6,1.7,1,2.7l-0.7,1.1
				C321,260.5,320.2,260.9,319.3,260.9z"/>
		</g>
	</g>
	<g>
		<g>
			
				<linearGradient id="SVGID_18_" gradientUnits="userSpaceOnUse" x1="802.712" y1="31.9955" x2="728.3815" y2="-96.7486" gradientTransform="matrix(0.9869 -0.1612 0.1612 0.9869 -204.3904 613.8329)">
				<stop  offset="0" style="stop-color:#A7B1C1"/>
				<stop  offset="1" style="stop-color:#D7DDE2"/>
			</linearGradient>
			<path class="st18" d="M558,532.1c-8.4,1.4-16.2,1.5-23.3,0.5c-7.2-1-13.6-3.9-19.2-8.7c-5.7-4.8-10.5-11.8-14.6-20.9
				c-4.1-9.1-7.4-21.1-9.8-35.8c-2.4-14.7-3.1-27-2.1-37c1-9.9,3.4-18,7.3-24.3c3.8-6.3,9-11,15.5-14.3c6.5-3.2,13.9-5.6,22.3-6.9
				c8.4-1.4,16.2-1.5,23.3-0.5c7.2,1,13.5,3.9,19.1,8.6c5.6,4.7,10.4,11.6,14.5,20.7c4.1,9.1,7.3,21,9.8,35.7
				c2.4,14.7,3.1,27.1,2.1,37.1c-1,10-3.4,18.1-7.1,24.5c-3.8,6.3-8.9,11.1-15.3,14.4C573.8,528.5,566.4,530.8,558,532.1z
				 M552.5,498.7c3.3-0.5,5.9-1.5,7.9-3c2-1.4,3.3-3.8,4.1-6.9c0.8-3.2,1-7.4,0.7-12.7c-0.3-5.3-1.1-12.1-2.5-20.4
				c-1.3-8.3-2.7-15-4.1-20.2c-1.4-5.2-3-9.2-4.7-12c-1.7-2.8-3.8-4.6-6.1-5.4c-2.3-0.8-5.1-0.9-8.4-0.3c-3.2,0.5-5.7,1.5-7.7,2.9
				c-2,1.5-3.3,3.8-4.1,7c-0.8,3.2-1.1,7.6-0.7,12.9c0.3,5.4,1.1,12.2,2.5,20.5c1.3,8.3,2.7,15,4.1,20.1c1.4,5.1,3,9.1,4.8,11.8
				c1.8,2.7,3.8,4.5,6.2,5.2C546.6,499.1,549.4,499.2,552.5,498.7z"/>
		</g>
		<g>
			
				<linearGradient id="SVGID_19_" gradientUnits="userSpaceOnUse" x1="783.712" y1="29.746" x2="709.3815" y2="-98.9981" gradientTransform="matrix(0.9869 -0.1612 0.1612 0.9869 -204.3904 613.8329)">
				<stop  offset="0" style="stop-color:#C6D0E0"/>
				<stop  offset="1" style="stop-color:#EFF2F6"/>
			</linearGradient>
			<path class="st19" d="M538.9,533c-8.4,1.4-16.2,1.5-23.3,0.5c-7.2-1-13.6-3.9-19.2-8.7s-10.5-11.8-14.6-20.9
				c-4.1-9.1-7.4-21.1-9.8-35.8c-2.4-14.7-3.1-27-2.1-37c1-9.9,3.4-18,7.3-24.3c3.8-6.3,9-11,15.5-14.3c6.5-3.2,13.9-5.6,22.3-6.9
				c8.4-1.4,16.2-1.5,23.3-0.5c7.2,1,13.5,3.9,19.1,8.6c5.6,4.7,10.4,11.6,14.5,20.7c4.1,9.1,7.3,21,9.8,35.7
				c2.4,14.7,3.1,27.1,2.1,37.1c-1,10-3.4,18.1-7.1,24.5c-3.8,6.3-8.9,11.1-15.3,14.4C554.7,529.3,547.3,531.6,538.9,533z
				 M533.4,499.5c3.3-0.5,5.9-1.5,7.9-3c2-1.4,3.3-3.8,4.1-6.9c0.8-3.2,1-7.4,0.7-12.7c-0.3-5.3-1.1-12.1-2.5-20.4s-2.7-15-4.1-20.2
				c-1.4-5.2-3-9.2-4.7-12c-1.7-2.8-3.8-4.6-6.1-5.4c-2.3-0.8-5.1-0.9-8.4-0.3c-3.2,0.5-5.7,1.5-7.7,2.9c-2,1.5-3.3,3.8-4.1,7
				c-0.8,3.2-1.1,7.6-0.7,12.9c0.3,5.4,1.1,12.2,2.5,20.5c1.3,8.3,2.7,15,4.1,20.1c1.4,5.1,3,9.1,4.8,11.8c1.8,2.7,3.8,4.5,6.2,5.2
				C527.5,499.9,530.2,500.1,533.4,499.5z"/>
		</g>
	</g>
</g>
</svg>
