<?xml version="1.0" encoding="utf-8"?>
<!-- Generator: Adobe Illustrator 23.0.2, SVG Export Plug-In . SVG Version: 6.00 Build 0)  -->
<svg version="1.1" id="图层_1" xmlns="http://www.w3.org/2000/svg" xmlns:xlink="http://www.w3.org/1999/xlink" x="0px" y="0px"
	 viewBox="0 0 800 800" style="enable-background:new 0 0 800 800;" xml:space="preserve">
<style type="text/css">
	.st0{fill:url(#SVGID_1_);}
	.st1{fill:url(#SVGID_2_);}
	.st2{fill:url(#SVGID_3_);}
	.st3{fill:url(#SVGID_4_);}
	.st4{fill:url(#SVGID_5_);}
	.st5{fill:url(#SVGID_6_);}
	.st6{fill:url(#SVGID_7_);}
	.st7{fill:url(#SVGID_8_);}
	.st8{fill:url(#SVGID_9_);}
	.st9{fill:url(#SVGID_10_);}
	.st10{fill:url(#SVGID_11_);}
	.st11{opacity:0.98;fill:url(#SVGID_12_);}
	.st12{fill:url(#SVGID_13_);}
	.st13{fill:url(#SVGID_14_);}
	.st14{fill:url(#SVGID_15_);}
	.st15{fill:url(#SVGID_16_);}
	.st16{fill:url(#SVGID_17_);}
	.st17{fill:url(#SVGID_18_);}
	.st18{fill:url(#SVGID_19_);}
	.st19{fill:url(#SVGID_20_);}
	.st20{opacity:0.98;fill:url(#SVGID_21_);}
	.st21{fill:url(#SVGID_22_);}
	.st22{fill:url(#SVGID_23_);}
	.st23{fill:url(#SVGID_24_);}
	.st24{fill:url(#SVGID_25_);}
	.st25{opacity:0.98;fill:url(#SVGID_26_);}
	.st26{fill:url(#SVGID_27_);}
</style>
<g>
	<linearGradient id="SVGID_1_" gradientUnits="userSpaceOnUse" x1="400" y1="885" x2="400" y2="139">
		<stop  offset="0.4171" style="stop-color:#F8FAFC;stop-opacity:0"/>
		<stop  offset="1" style="stop-color:#ECEFF4"/>
	</linearGradient>
	<ellipse class="st0" cx="400" cy="512" rx="400" ry="373"/>
	<g>
		
			<linearGradient id="SVGID_2_" gradientUnits="userSpaceOnUse" x1="1952.8337" y1="4049.9785" x2="1904.4652" y2="4037.0181" gradientTransform="matrix(0.7071 0.7071 -0.7071 0.7071 2018.8514 -3880.8284)">
			<stop  offset="0" style="stop-color:#C6D0E0"/>
			<stop  offset="1" style="stop-color:#FFFFFF"/>
		</linearGradient>
		<path class="st1" d="M560.8,339.6l-25.5-25.5c-3.5-3.5-9.1-3.5-12.6,0L498.9,338l-5.5-5.5c-0.9-0.9-2.2-0.9-3.1,0l-2.4,2.4
			c-3.5,3.5-3.5,9.1,0,12.6l23.5,23.5c3.2,3,8.1,3,11.5,0.3c0.1-0.1,0.3-0.2,0.4-0.3l4.3-4.3l23.8-23.8c1.7-1.7,4.6-1.7,6.3,0
			c0.9,0.9,2.2,0.9,3.1,0C561.7,341.9,561.7,340.5,560.8,339.6z M491,344.3c-1.7-1.7-1.7-4.6,0-6.3l0.8-0.8l20.1,20.1l-0.8,0.8
			c-1.1,1.1-1.9,2.6-2.2,4L491,344.3z"/>
		
			<linearGradient id="SVGID_3_" gradientUnits="userSpaceOnUse" x1="1955.5779" y1="4043.8264" x2="1898.3618" y2="4043.8264" gradientTransform="matrix(0.7071 0.7071 -0.7071 0.7071 2018.8514 -3880.8284)">
			<stop  offset="0" style="stop-color:#B3BECE"/>
			<stop  offset="1" style="stop-color:#EFF2F6"/>
		</linearGradient>
		<path class="st2" d="M560.8,339.6l-25.5-25.5c-3.5-3.5-9.1-3.5-12.6,0L498.9,338l-5.5-5.5c-0.9-0.9-2.2-0.9-3.1,0l-2.4,2.4
			c-3.5,3.5-3.5,9.1,0,12.6l23.5,23.5c3.2,3,8.1,3,11.5,0.3c0.1-0.1,0.3-0.2,0.4-0.3l4.3-4.3l23.8-23.8c1.7-1.7,4.6-1.7,6.3,0
			c0.9,0.9,2.2,0.9,3.1,0C561.7,341.9,561.7,340.5,560.8,339.6z M520.5,367.4c-1.7,1.7-4.5,1.8-6.2,0.1c-1.7-1.7-1.6-4.5,0.1-6.2
			l2.4-2.4c0.9-0.9,0.9-2.2,0-3.1l-14.6-14.6l23.8-23.8c1.7-1.7,4.6-1.7,6.3,0l20,20c-1.5,0.3-2.9,1.1-4,2.2l-23.8,23.8L520.5,367.4
			z"/>
		<g>
			
				<linearGradient id="SVGID_4_" gradientUnits="userSpaceOnUse" x1="1931.9008" y1="4037.1802" x2="1922.14" y2="4027.4194" gradientTransform="matrix(0.7071 0.7071 -0.7071 0.7071 2018.8514 -3880.8284)">
				<stop  offset="0" style="stop-color:#B3BECE"/>
				<stop  offset="1" style="stop-color:#EFF2F6"/>
			</linearGradient>
			<path class="st3" d="M536.7,338l-11.4-11.4c0,0-0.1-0.1-0.1-0.1c-0.5-0.4-1.2-0.4-1.6,0c-0.4,0.5-0.3,1.2,0.2,1.6l11.4,11.4
				c0,0,0.1,0.1,0.1,0.1c0.5,0.4,1.2,0.4,1.6,0C537.2,339.1,537.2,338.4,536.7,338z"/>
			
				<linearGradient id="SVGID_5_" gradientUnits="userSpaceOnUse" x1="1928.3406" y1="4049.3162" x2="1920.772" y2="4041.7476" gradientTransform="matrix(0.7071 0.7071 -0.7071 0.7071 2018.8514 -3880.8284)">
				<stop  offset="0" style="stop-color:#B3BECE"/>
				<stop  offset="1" style="stop-color:#EFF2F6"/>
			</linearGradient>
			<path class="st4" d="M524.2,344.2l-8.6-8.6c0,0-0.1-0.1-0.1-0.1c-0.4-0.3-1-0.2-1.4,0.2c-0.4,0.4-0.4,1.1,0,1.4l8.6,8.6
				c0,0,0.1,0.1,0.1,0.1c0.4,0.3,1,0.2,1.4-0.2S524.6,344.5,524.2,344.2z"/>
			
				<linearGradient id="SVGID_6_" gradientUnits="userSpaceOnUse" x1="1932.3802" y1="4044.0137" x2="1922.6196" y2="4034.2532" gradientTransform="matrix(0.7071 0.7071 -0.7071 0.7071 2018.8514 -3880.8284)">
				<stop  offset="0" style="stop-color:#B3BECE"/>
				<stop  offset="1" style="stop-color:#EFF2F6"/>
			</linearGradient>
			<path class="st5" d="M532.2,343.2l-11.4-11.4c0,0-0.1-0.1-0.1-0.1c-0.5-0.4-1.2-0.4-1.6,0c-0.4,0.5-0.3,1.2,0.2,1.6l11.4,11.4
				c0,0,0.1,0.1,0.1,0.1c0.5,0.4,1.2,0.4,1.6,0C532.7,344.3,532.7,343.6,532.2,343.2z"/>
		</g>
	</g>
	<g>
		<g>
			
				<linearGradient id="SVGID_7_" gradientUnits="userSpaceOnUse" x1="9198.8613" y1="-2782.2383" x2="9242.9434" y2="-2770.4265" gradientTransform="matrix(-0.7071 -0.7071 0.7071 -0.7071 8717.2197 4922.0093)">
				<stop  offset="0" style="stop-color:#C6D0E0"/>
				<stop  offset="1" style="stop-color:#FFFFFF"/>
			</linearGradient>
			<path class="st6" d="M205.5,363.3l18.9-18.9c2.6-2.6,6.7-2.6,9.3,0l17.6,17.6l4.1-4.1c0.7-0.7,1.7-0.7,2.3,0l1.7,1.7
				c2.6,2.6,2.6,6.7,0,9.3l-17.4,17.4c-2.4,2.2-6,2.3-8.5,0.2c-0.1-0.1-0.2-0.1-0.3-0.2l-3.2-3.2l-17.6-17.6c-1.2-1.2-3.4-1.2-4.7,0
				c-0.7,0.7-1.7,0.7-2.3,0C204.8,365,204.8,364,205.5,363.3z M257.1,366.7c1.2-1.2,1.2-3.4,0-4.7l-0.6-0.6l-14.9,14.9l0.6,0.6
				c0.8,0.8,1.4,1.9,1.7,3L257.1,366.7z"/>
			
				<linearGradient id="SVGID_8_" gradientUnits="userSpaceOnUse" x1="9199.9648" y1="-2775.7083" x2="9242.2002" y2="-2775.7083" gradientTransform="matrix(-0.7071 -0.7071 0.7071 -0.7071 8717.2197 4922.0093)">
				<stop  offset="0" style="stop-color:#B3BECE"/>
				<stop  offset="1" style="stop-color:#EFF2F6"/>
			</linearGradient>
			<path class="st7" d="M205.5,363.3l18.9-18.9c2.6-2.6,6.7-2.6,9.3,0l17.6,17.6l4.1-4.1c0.7-0.7,1.7-0.7,2.3,0l1.7,1.7
				c2.6,2.6,2.6,6.7,0,9.3l-17.4,17.4c-2.4,2.2-6,2.3-8.5,0.2c-0.1-0.1-0.2-0.1-0.3-0.2l-3.2-3.2l-17.6-17.6c-1.2-1.2-3.4-1.2-4.7,0
				c-0.7,0.7-1.7,0.7-2.3,0C204.8,365,204.8,364,205.5,363.3z M235.3,383.9c1.2,1.2,3.3,1.3,4.6,0.1s1.2-3.3-0.1-4.6l-1.7-1.7
				c-0.7-0.7-0.7-1.7,0-2.3l10.8-10.8l-17.6-17.6c-1.2-1.2-3.4-1.2-4.7,0l-14.8,14.8c1.1,0.2,2.2,0.8,3,1.7l17.6,17.6L235.3,383.9z"
				/>
		</g>
		<g>
			<linearGradient id="SVGID_9_" gradientUnits="userSpaceOnUse" x1="233.2566" y1="358.4346" x2="219.8364" y2="358.4346">
				<stop  offset="0" style="stop-color:#B3BECE"/>
				<stop  offset="1" style="stop-color:#EFF2F6"/>
			</linearGradient>
			<path class="st8" d="M233.1,353.6c-0.3-0.3-0.8-0.4-1.2,0c0,0-0.1,0.1-0.1,0.1l-8.5,8.5c-0.4,0.3-0.4,0.8-0.1,1.2
				c0.3,0.3,0.8,0.4,1.2,0c0,0,0.1-0.1,0.1-0.1l8.5-8.5C233.3,354.5,233.4,353.9,233.1,353.6z"/>
			<linearGradient id="SVGID_10_" gradientUnits="userSpaceOnUse" x1="240.3247" y1="364.0708" x2="228.2222" y2="364.0708">
				<stop  offset="0" style="stop-color:#B3BECE"/>
				<stop  offset="1" style="stop-color:#EFF2F6"/>
			</linearGradient>
			<path class="st9" d="M240.1,360.4c-0.3-0.3-0.8-0.4-1-0.2c0,0,0,0-0.1,0.1l-6.4,6.4c-0.3,0.2-0.3,0.7,0,1c0.3,0.3,0.8,0.4,1,0.2
				c0,0,0,0,0.1-0.1l6.4-6.4C240.4,361.2,240.4,360.7,240.1,360.4z"/>
			<linearGradient id="SVGID_11_" gradientUnits="userSpaceOnUse" x1="236.5822" y1="362.2624" x2="223.9162" y2="362.2624">
				<stop  offset="0" style="stop-color:#B3BECE"/>
				<stop  offset="1" style="stop-color:#EFF2F6"/>
			</linearGradient>
			<path class="st10" d="M236.4,357.4c-0.3-0.3-0.8-0.4-1.2,0c0,0-0.1,0.1-0.1,0.1l-8.5,8.5c-0.4,0.3-0.4,0.8-0.1,1.2
				c0.3,0.3,0.8,0.4,1.2,0c0,0,0.1-0.1,0.1-0.1l8.5-8.5C236.6,358.3,236.7,357.8,236.4,357.4z"/>
		</g>
	</g>
	<g>
		
			<linearGradient id="SVGID_12_" gradientUnits="userSpaceOnUse" x1="1380.545" y1="3256.8069" x2="1345.5374" y2="3221.7993" gradientTransform="matrix(0.8132 0.5819 -0.5819 0.8132 1259.6445 -3182.3831)">
			<stop  offset="0" style="stop-color:#A7B1C1"/>
			<stop  offset="1" style="stop-color:#C6D0E0"/>
		</linearGradient>
		<path class="st11" d="M506.6,263.6c0.4-0.3,0.6-0.7,0.6-1.2c0-0.5,0.1-1.6-0.3-1.8c-7-4.2-9.7-8.9-11.8-13.6c-1.3-3.1-2.6-6-5-8.2
			c-2.7-2.5-6.3-3.7-11.4-3.8c-2,0-4.2,0.1-6.6,0.3c-1.3-6.2-0.4-11.5-0.4-11.5l-0.3-1.8l-5.3,1.7c-0.2,6.8,1.3,12.6,3,16.8
			c1,2.7,2.3,5.2,3.8,7.3c0.2,0.3,0.3,0.4,0.3,0.4c7.6,10.4,20,14,20,14c-13.4-0.3-24.7-10.3-28.6-22.9c-1.3,3.8-1.9,7.3-1.9,10.5
			c0.1,3.6,1,6.8,2.8,9.6c3.8,5.8,11.5,9.3,20.9,9.5C494.1,269.1,501.7,267.1,506.6,263.6L506.6,263.6z"/>
		
			<linearGradient id="SVGID_13_" gradientUnits="userSpaceOnUse" x1="1379.1783" y1="3255.5403" x2="1344.7476" y2="3221.1094" gradientTransform="matrix(0.8132 0.5819 -0.5819 0.8132 1259.6445 -3182.3831)">
			<stop  offset="0" style="stop-color:#C6D0E0"/>
			<stop  offset="1" style="stop-color:#EFF2F6"/>
		</linearGradient>
		<path class="st12" d="M506.3,261.7c0.4-0.3,0.6-0.7,0.6-1.2c0-0.5-0.3-0.9-0.7-1.1c-7-4.2-9.4-9.6-11.4-14.3c-1.3-3.1-2.6-6-5-8.2
			c-2.7-2.5-6.3-3.7-11.4-3.8c-2,0-4.2,0.1-6.6,0.3c-1.3-6.2-0.4-11.5-0.4-11.5l-5.6-0.1c-0.2,6.8,1.3,12.6,3,16.8
			c1,2.7,2.3,5.2,3.8,7.3c0.2,0.3,0.3,0.4,0.3,0.4c7.6,10.4,20,14,20,14c-13.4-0.3-24.7-10.3-28.6-22.9c-1.3,3.8-1.9,7.3-1.9,10.5
			c0.1,3.6,1,6.8,2.8,9.6c3.8,5.8,11.5,9.3,20.9,9.5C493.8,267.3,501.4,265.3,506.3,261.7L506.3,261.7z"/>
	</g>
	<linearGradient id="SVGID_14_" gradientUnits="userSpaceOnUse" x1="428.6166" y1="662" x2="428.6166" y2="537.5536">
		<stop  offset="0" style="stop-color:#DFE2E5;stop-opacity:0"/>
		<stop  offset="1" style="stop-color:#D7DCE2;stop-opacity:0.5"/>
	</linearGradient>
	<polygon class="st13" points="650,662 207.2,662 222,537.6 578.1,538.4 	"/>
	<g>
		<linearGradient id="SVGID_15_" gradientUnits="userSpaceOnUse" x1="514.3075" y1="596.3901" x2="285.6587" y2="367.7412">
			<stop  offset="0" style="stop-color:#B3BECE"/>
			<stop  offset="1" style="stop-color:#EFF2F6"/>
		</linearGradient>
		<path class="st14" d="M578.1,482.7l-24-74.1c-1.2-3.2-4.2-5.4-7.7-5.3h-293c-3.4-0.1-6.5,2.1-7.7,5.3l-24,74.1
			c-0.2,0.7-0.3,1.4-0.3,2.1v44.4c0.2,4.3,3.7,7.6,8,7.4h341c2.1,0,4.1-0.8,5.6-2.2c1.5-1.3,2.3-3.2,2.4-5.2v-44.4
			C578.4,484.2,578.3,483.4,578.1,482.7L578.1,482.7z M259.4,418.2h281.1l19.2,59.3h-37.2c-4.3-0.2-7.8,3.2-8,7.4v7.4h-229v-7.4
			c-0.2-4.3-3.7-7.6-8-7.4h-37.2L259.4,418.2z"/>
		<linearGradient id="SVGID_16_" gradientUnits="userSpaceOnUse" x1="439.0616" y1="354.1448" x2="361.1819" y2="489.0362">
			<stop  offset="0" style="stop-color:#B3BECE"/>
			<stop  offset="1" style="stop-color:#D0D9E2"/>
		</linearGradient>
		<path class="st15" d="M536.3,411.4H261.7c-3.1-0.1-5.9,2.1-7,5.3L252,426h294l-2.8-9.3C542.2,413.4,539.4,411.3,536.3,411.4z"/>
		
			<linearGradient id="SVGID_17_" gradientUnits="userSpaceOnUse" x1="10768.708" y1="478.2918" x2="10730.9082" y2="440.4918" gradientTransform="matrix(-1 0 0 1 11299.4893 0)">
			<stop  offset="0" style="stop-color:#C6D0E0"/>
			<stop  offset="1" style="stop-color:#D7DDE2"/>
		</linearGradient>
		<path class="st16" d="M555.5,503H568v-10.1c-0.1-0.7-0.2-1.4-0.3-2.1l-24-74.1c-1.2-3.2-4.2-5.4-7.7-5.3h-0.2l0.2,14.8L555.5,503z
			"/>
		<linearGradient id="SVGID_18_" gradientUnits="userSpaceOnUse" x1="267.7082" y1="478.2918" x2="229.9081" y2="440.4918">
			<stop  offset="0" style="stop-color:#A7B1C1"/>
			<stop  offset="1" style="stop-color:#C6D0E0"/>
		</linearGradient>
		<path class="st17" d="M243,503l19.4-76.8l0.3-14.8h-0.2c-3.4-0.1-6.5,2.1-7.7,5.3l-24,74.1c-0.2,0.7-0.3,1.4-0.3,2.1V503H243z"/>
		<linearGradient id="SVGID_19_" gradientUnits="userSpaceOnUse" x1="502.4406" y1="608.2571" x2="297.5078" y2="403.3243">
			<stop  offset="0" style="stop-color:#B3BECE"/>
			<stop  offset="1" style="stop-color:#EFF2F6"/>
		</linearGradient>
		<path class="st18" d="M578.1,482.7l-1.8-5.5l-16.6,0.2h-37.2c-4.3-0.2-7.8,3.2-8,7.4v7.4h-229v-7.4c-0.1-3.6-2.7-6.7-6-7.4h-56.1
			l-1.5,5.3c-0.2,0.7-0.3,1.4-0.3,2.1v44.4c0.2,4.3,3.7,7.6,8,7.4h341c2.1,0,4.1-0.8,5.6-2.2c1.5-1.3,2.3-3.2,2.4-5.2v-44.4
			C578.4,484.2,578.3,483.4,578.1,482.7L578.1,482.7z"/>
		<linearGradient id="SVGID_20_" gradientUnits="userSpaceOnUse" x1="503.0177" y1="411.8217" x2="297.0741" y2="617.7653">
			<stop  offset="0" style="stop-color:#A7B1C1"/>
			<stop  offset="1" style="stop-color:#C6D0E0"/>
		</linearGradient>
		<path class="st19" d="M578.5,487.3l-18.8,0.2h-37.2c-4.3-0.2-7.8,3.2-8,7.4v7.4h-229v-7.4c-0.1-3.6-2.7-6.7-6-7.4h-57.9
			c0,0,0.1,6.7,0,7.4v44.4c0.2,4.3,3.7,7.6,8,7.4h341c2.1,0,4.1-0.8,5.6-2.2c1.5-1.3,2.3-3.2,2.4-5.2v-44.4
			C578.4,494.2,578.5,487.3,578.5,487.3z"/>
	</g>
	<g>
		<linearGradient id="SVGID_21_" gradientUnits="userSpaceOnUse" x1="429.9668" y1="471.6397" x2="302.9655" y2="251.6671">
			<stop  offset="0" style="stop-color:#A7B1C1"/>
			<stop  offset="1" style="stop-color:#C6D0E0"/>
		</linearGradient>
		<path class="st20" d="M446.2,458.3l-8.2,8.2c-2.8,2.8-6.8,4.2-10.8,3.8l-124.8-14.6c-6.2-0.7-26-5.7-26.6-11.9V279.7
			c-0.4-3.9,1-7.7,3.8-10.5l8.3-8.3c2.5-2.5,5.8-3.8,9.3-3.8h139.6c7.3,0,13.1,5.9,13.1,13.1V449C450,452.5,448.6,455.8,446.2,458.3
			z"/>
		<linearGradient id="SVGID_22_" gradientUnits="userSpaceOnUse" x1="419.4362" y1="478.083" x2="294.3655" y2="261.4543">
			<stop  offset="0" style="stop-color:#C6D0E0"/>
			<stop  offset="1" style="stop-color:#EFF2F6"/>
		</linearGradient>
		<path class="st21" d="M429.4,471h-145c-4.8,0-8.6-3.9-8.6-8.6V277.2c0-4.8,3.9-8.6,8.6-8.6h145c4.8,0,8.6,3.9,8.6,8.6v185.2
			C438,467.1,434.2,471,429.4,471z"/>
	</g>
	<g>
		<linearGradient id="SVGID_23_" gradientUnits="userSpaceOnUse" x1="367.3464" y1="360.9035" x2="340.5457" y2="314.4835">
			<stop  offset="0" style="stop-color:#A7B1C1"/>
			<stop  offset="1" style="stop-color:#C6D0E0"/>
		</linearGradient>
		<path class="st22" d="M395.1,331.7h-82.3c-0.3,0-0.6,0-0.9,0c-3.3,0.2-5.8,3.1-5.5,6.4c0.2,3.3,3.1,5.8,6.4,5.5h82.3
			c0.3,0,0.6,0,0.9,0c3.3-0.2,5.8-3.1,5.5-6.4C401.3,334,398.4,331.5,395.1,331.7z"/>
		<linearGradient id="SVGID_24_" gradientUnits="userSpaceOnUse" x1="367.3464" y1="418.2141" x2="340.5457" y2="371.794">
			<stop  offset="0" style="stop-color:#A7B1C1"/>
			<stop  offset="1" style="stop-color:#C6D0E0"/>
		</linearGradient>
		<path class="st23" d="M395.1,389h-82.3c-0.3,0-0.6,0-0.9,0c-3.3,0.2-5.8,3.1-5.5,6.4c0.2,3.3,3.1,5.8,6.4,5.5h82.3
			c0.3,0,0.6,0,0.9,0c3.3-0.2,5.8-3.1,5.5-6.4C401.3,391.3,398.4,388.8,395.1,389z"/>
		<linearGradient id="SVGID_25_" gradientUnits="userSpaceOnUse" x1="379.4543" y1="389.1552" x2="352.6536" y2="342.7351">
			<stop  offset="0" style="stop-color:#A7B1C1"/>
			<stop  offset="1" style="stop-color:#C6D0E0"/>
		</linearGradient>
		<path class="st24" d="M407.2,360h-82.3c-0.3,0-0.6,0-0.9,0c-3.3,0.2-5.8,3.1-5.5,6.4c0.2,3.3,3.1,5.8,6.4,5.5h82.3
			c0.3,0,0.6,0,0.9,0c3.3-0.2,5.8-3.1,5.5-6.4C413.4,362.2,410.5,359.7,407.2,360z"/>
	</g>
	<g>
		<linearGradient id="SVGID_26_" gradientUnits="userSpaceOnUse" x1="515.7137" y1="416.5" x2="387.2303" y2="416.5">
			<stop  offset="0" style="stop-color:#A7B1C1"/>
			<stop  offset="0.2833" style="stop-color:#B6C0D0"/>
			<stop  offset="0.6397" style="stop-color:#C2CCDC"/>
			<stop  offset="1" style="stop-color:#C6D0E0"/>
		</linearGradient>
		<path class="st25" d="M512.9,443.7l-43.3-75.5c-8-13.6-28.1-13.6-36.1,0l-43.3,75.5c-8,13.6,1.6,31.3,17.7,31.3h87.5
			C510.5,474.2,521,457.3,512.9,443.7z"/>
		<linearGradient id="SVGID_27_" gradientUnits="userSpaceOnUse" x1="484.0493" y1="490.7144" x2="419.8573" y2="379.5306">
			<stop  offset="0" style="stop-color:#C6D0E0"/>
			<stop  offset="1" style="stop-color:#EFF2F6"/>
		</linearGradient>
		<path class="st26" d="M524.3,443.7L481,368.2c-8-13.6-28.1-13.6-36.1,0l-43.3,75.5c-8,13.6,1.6,31.3,17.7,31.3h87.5
			C521.9,474.2,532.3,457.3,524.3,443.7z M462.5,461.4c-4,0-7.2-3.2-7.2-7.2c0-4,3.2-7.2,7.2-7.2c4,0,7.2,3.2,7.2,7.2
			C469.7,458.1,466.5,461.4,462.5,461.4z M470.5,396.3l-2.4,35.3c0,3.2-2.4,5.6-5.6,4.8c-2.4,0-4.8-2.4-4.8-4.8l-2.4-35.3
			c0-4,3.2-8,7.2-8s8,3.2,8,7.2V396.3L470.5,396.3z"/>
	</g>
</g>
</svg>
