<?xml version="1.0" standalone="no"?><!DOCTYPE svg PUBLIC "-//W3C//DTD SVG 1.1//EN" "http://www.w3.org/Graphics/SVG/1.1/DTD/svg11.dtd"><svg class="icon" width="200px" height="200.00px" viewBox="0 0 1024 1024" version="1.1" xmlns="http://www.w3.org/2000/svg"><path fill="#333333" d="M268.8 277.333333c8.533333 8.533333 21.333333 8.533333 29.866667 0s8.533333-21.333333 0-29.866666l-64-64c-8.533333-8.533333-21.333333-8.533333-29.866667 0l-64 64c-8.533333 8.533333-8.533333 21.333333 0 29.866666 4.266667 4.266667 10.666667 6.4 14.933333 6.4s10.666667-2.133333 14.933334-6.4l27.733333-27.733333v253.866667h42.666667V249.6l27.733333 27.733333zM187.733333 552.533333l-27.733333 27.733334V326.4h-42.666667v253.866667l-27.733333-27.733334c-8.533333-8.533333-21.333333-8.533333-29.866667 0s-8.533333 21.333333 0 29.866667l64 64c4.266667 4.266667 10.666667 6.4 14.933334 6.4s10.666667-2.133333 14.933333-6.4l64-64c8.533333-8.533333 8.533333-21.333333 0-29.866667s-21.333333-8.533333-29.866667 0zM780.8 565.333333c-8.533333-40.533333-29.866667-64-61.866667-66.133333-10.666667 0-21.333333 0-32 4.266667-8.533333-29.866667-34.133333-51.2-66.133333-51.2-14.933333 0-29.866667 4.266667-40.533333 12.8-12.8-17.066667-34.133333-29.866667-55.466667-29.866667-8.533333 0-19.2 2.133333-27.733333 6.4v-194.133333c0-38.4-32-70.4-70.4-70.4-38.4 0-70.4 32-70.4 70.4v313.6c-21.333333 2.133333-38.4 8.533333-53.333334 19.2-21.333333 17.066667-38.4 66.133333-55.466666 132.266666v2.133334c-10.666667 76.8 38.4 142.933333 74.666666 194.133333 17.066667 23.466667 36.266667 49.066667 36.266667 61.866667h42.666667c0-25.6-19.2-53.333333-44.8-87.466667-34.133333-44.8-74.666667-102.4-66.133334-160 17.066667-64 32-100.266667 40.533334-108.8 6.4-6.4 17.066667-8.533333 27.733333-10.666667v108.8h42.666667V247.466667c0-14.933333 12.8-27.733333 27.733333-27.733334s27.733333 12.8 27.733333 27.733334v356.266666h42.666667v-98.133333c0-14.933333 12.8-27.733333 27.733333-27.733333s27.733333 12.8 27.733334 27.733333v98.133333h42.666666v-81.066666c0-14.933333 12.8-27.733333 27.733334-27.733334s27.733333 12.8 27.733333 27.733334V618.666667h42.666667v-68.266667c6.4-4.266667 14.933333-6.4 25.6-6.4 6.4 0 17.066667 2.133333 23.466666 32 29.866667 145.066667-8.533333 270.933333-29.866666 339.2-8.533333 27.733333-12.8 44.8-12.8 57.6h42.666666c0-6.4 6.4-25.6 10.666667-44.8 17.066667-74.666667 57.6-209.066667 25.6-362.666667z" /></svg>