<?xml version="1.0" encoding="utf-8"?>
<!-- Generator: Adobe Illustrator 15.0.0, SVG Export Plug-In . SVG Version: 6.00 Build 0)  -->
<!DOCTYPE svg PUBLIC "-//W3C//DTD SVG 1.1 Tiny//EN" "http://www.w3.org/Graphics/SVG/1.1/DTD/svg11-tiny.dtd">
<svg version="1.1" baseProfile="tiny" id="_x32_2-28"
	 xmlns="http://www.w3.org/2000/svg" xmlns:xlink="http://www.w3.org/1999/xlink" x="0px" y="0px" width="142.347px"
	 height="88.329px" viewBox="0 0 142.347 88.329" xml:space="preserve">
<g>
	<rect x="4.922" y="57.908" fill="#52382E" width="19.688" height="26.811"/>
	<rect x="11.198" y="58.644" fill="#452B21" width="13.413" height="1.608"/>
	<polygon fill="#452B21" points="11.624,71.517 18.422,71.517 18.422,57.96 12.348,64.449 11.624,68.814 	"/>
	<polygon fill="#7B6751" points="4.923,70.685 17.594,70.685 17.594,50.264 12.881,50.264 4.923,56.861 	"/>
	<rect x="19.887" y="57.908" fill="#B08A70" width="2.304" height="26.811"/>
	<rect x="19.873" y="58.398" fill="#452B21" width="2.318" height="1.865"/>
	<polygon fill="#452B21" points="4.966,77.628 11.765,77.628 11.765,70.687 5.69,70.687 4.966,74.926 	"/>
	<polygon fill="#735442" points="8.549,70.676 11.573,70.691 11.606,58.911 4.938,58.911 4.841,62.237 	"/>
	<linearGradient id="SVGID_1_" gradientUnits="userSpaceOnUse" x1="21.9404" y1="48.7168" x2="21.9404" y2="58.3834">
		<stop  offset="0.011" style="stop-color:#572E29"/>
		<stop  offset="0.489" style="stop-color:#B08A70"/>
		<stop  offset="0.9835" style="stop-color:#52382E"/>
	</linearGradient>
	<rect x="12.986" y="47.959" fill="url(#SVGID_1_)" width="17.908" height="11.52"/>
	<g>
		<rect x="45.464" y="4.988" width="1.709" height="9.339"/>
		<path d="M48.384,3.119c0,1.723-0.82,3.12-2.075,3.12c-1.256,0-2.011-1.397-2.011-3.12S45.053,0,46.309,0
			C47.564,0,48.384,1.396,48.384,3.119z"/>
		<path fill="#E6E6E6" d="M47.674,3.119c0,1.285-0.535,2.327-1.354,2.327c-0.82,0-1.313-1.042-1.313-2.327s0.494-2.328,1.313-2.328
			C47.139,0.791,47.674,1.834,47.674,3.119z"/>
		<rect x="45.964" y="4.988" fill="#E6E6E6" width="0.75" height="9.339"/>
	</g>
	<linearGradient id="SVGID_2_" gradientUnits="userSpaceOnUse" x1="86.4077" y1="15.7168" x2="86.4077" y2="67.0507">
		<stop  offset="0" style="stop-color:#646464"/>
		<stop  offset="0.5" style="stop-color:#D7D7D7"/>
		<stop  offset="1" style="stop-color:#646464"/>
	</linearGradient>
	<rect x="30.666" y="13.412" fill="url(#SVGID_2_)" width="111.484" height="63.057"/>
	<rect x="31.605" y="13.412" fill="#3D3F40" width="3.519" height="63.057"/>
	<polygon fill="#615452" points="142.15,37.419 34.692,42.348 34.692,41.666 142.15,36.736 	"/>
	<polygon fill="#615452" points="142.15,53.852 30.628,48.531 30.628,47.85 142.15,53.17 	"/>
	<linearGradient id="SVGID_3_" gradientUnits="userSpaceOnUse" x1="30.5664" y1="6.6152" x2="30.5664" y2="75.0318">
		<stop  offset="0.0056" style="stop-color:#231E2C"/>
		<stop  offset="0.0839" style="stop-color:#2B2734"/>
		<stop  offset="0.2115" style="stop-color:#413F49"/>
		<stop  offset="0.3715" style="stop-color:#65676B"/>
		<stop  offset="0.5056" style="stop-color:#888D8D"/>
		<stop  offset="0.6309" style="stop-color:#656A6D"/>
		<stop  offset="0.7923" style="stop-color:#3F424A"/>
		<stop  offset="0.9211" style="stop-color:#272A34"/>
		<stop  offset="1" style="stop-color:#1E212C"/>
	</linearGradient>
	<rect x="27.305" y="4.32" fill="url(#SVGID_3_)" width="6.522" height="73.137"/>
	<linearGradient id="SVGID_4_" gradientUnits="userSpaceOnUse" x1="41.3823" y1="71.04" x2="48.1349" y2="80.9033">
		<stop  offset="0" style="stop-color:#D9CFC2"/>
		<stop  offset="0.4663" style="stop-color:#A79387"/>
		<stop  offset="0.7022" style="stop-color:#87726A"/>
		<stop  offset="0.8989" style="stop-color:#6D5651"/>
	</linearGradient>
	<rect x="41.537" y="70.934" fill="url(#SVGID_4_)" width="9.29" height="14.232"/>
	<linearGradient id="SVGID_5_" gradientUnits="userSpaceOnUse" x1="125.5659" y1="72.7344" x2="130.5622" y2="80.0367">
		<stop  offset="0" style="stop-color:#D9CFC2"/>
		<stop  offset="0.4663" style="stop-color:#A79387"/>
		<stop  offset="0.7022" style="stop-color:#87726A"/>
		<stop  offset="0.8989" style="stop-color:#6D5651"/>
	</linearGradient>
	<rect x="124.558" y="70.934" fill="url(#SVGID_5_)" width="9.29" height="14.232"/>
	<linearGradient id="SVGID_6_" gradientUnits="userSpaceOnUse" x1="54.3608" y1="26.3594" x2="56.585" y2="26.3594">
		<stop  offset="0" style="stop-color:#463232"/>
		<stop  offset="0.2879" style="stop-color:#816D6D"/>
		<stop  offset="0.522" style="stop-color:#B4A0A0"/>
		<stop  offset="1" style="stop-color:#463232"/>
	</linearGradient>
	<rect x="54.361" y="3.924" fill="url(#SVGID_6_)" width="2.224" height="44.871"/>
	<linearGradient id="SVGID_7_" gradientUnits="userSpaceOnUse" x1="72.7681" y1="83.499" x2="72.7681" y2="88.0938">
		<stop  offset="0.0056" style="stop-color:#231E2C"/>
		<stop  offset="0.0224" style="stop-color:#2A2633"/>
		<stop  offset="0.0916" style="stop-color:#42404A"/>
		<stop  offset="0.168" style="stop-color:#54545C"/>
		<stop  offset="0.2544" style="stop-color:#616269"/>
		<stop  offset="0.3591" style="stop-color:#696A71"/>
		<stop  offset="0.5333" style="stop-color:#6B6D73"/>
		<stop  offset="0.6887" style="stop-color:#686B71"/>
		<stop  offset="0.7821" style="stop-color:#606269"/>
		<stop  offset="0.8591" style="stop-color:#52545C"/>
		<stop  offset="0.9272" style="stop-color:#3E4049"/>
		<stop  offset="0.9889" style="stop-color:#242631"/>
		<stop  offset="1" style="stop-color:#1E212C"/>
	</linearGradient>
	<rect x="3.189" y="82.794" fill="url(#SVGID_7_)" width="139.157" height="5.535"/>
	<linearGradient id="SVGID_8_" gradientUnits="userSpaceOnUse" x1="57.6758" y1="21.5176" x2="53.0869" y2="21.5176">
		<stop  offset="0" style="stop-color:#8F7A5C"/>
		<stop  offset="0.5165" style="stop-color:#D9C7A8"/>
		<stop  offset="1" style="stop-color:#8F7A5C"/>
	</linearGradient>
	<rect x="52.606" y="9.064" fill="url(#SVGID_8_)" width="5.93" height="24.906"/>
	<path d="M47.973,35.218V68.68c-0.068,5.246-3.041,11.078-7.382,13.734s-14.447,4.988-25.201,4.211S3.275,80.988,2.498,78.592
		s0.972-5.118,0.972-5.118l0.583,0.389c0,0-3.109,3.628,1.037,8.357s17.88,5.247,30.254,1.813S47.379,68.68,47.379,68.68V35.218
		c0,0-2.19-14.279-1.283-21.47l0.519,0.064C46.614,13.813,46.226,24.566,47.973,35.218z"/>
	<g>
		<rect x="42.459" y="42.283" fill="#969696" width="8.859" height="8.859"/>
		<g>
			<polygon fill="#FFFFFF" points="51.818,42.682 42.844,42.682 42.869,50.881 42.069,50.881 42.069,41.856 51.818,41.856 			"/>
			<polygon points="42.069,50.88 51.043,50.881 51.018,42.682 51.818,42.682 51.818,51.705 42.069,51.705 			"/>
		</g>
	</g>
	<polygon fill="#B08A70" points="0,76.863 10.892,76.863 10.892,59.479 4.817,59.479 0,63.04 	"/>
</g>
</svg>
