<?xml version="1.0" encoding="utf-8"?>
<!-- Generator: Adobe Illustrator 19.0.0, SVG Export Plug-In . SVG Version: 6.00 Build 0)  -->
<svg version="1.1" id="indicatorLight1_0" xmlns="http://www.w3.org/2000/svg" xmlns:xlink="http://www.w3.org/1999/xlink" x="0px" y="0px"   width="64px" height="64px"
	 viewBox="0 0 200 200" style="enable-background:new 0 0 200 200;" xml:space="preserve">
<style type="text/css">
</style>
<g id="XMLID_20_">
	
		<linearGradient id="XMLID_3_" gradientUnits="userSpaceOnUse" x1="100.2" y1="199.2817" x2="100.2" y2="-13.4299" gradientTransform="matrix(1 0 0 -1 0 200)">
		<stop  offset="0" style="stop-color:#FFFFFF"/>
		<stop  offset="0.1851" style="stop-color:#F8F8F9"/>
		<stop  offset="0.4603" style="stop-color:#E4E6E8"/>
		<stop  offset="0.7903" style="stop-color:#C3C8CD"/>
		<stop  offset="1" style="stop-color:#AAB1B9"/>
	</linearGradient>
	
		<linearGradient id="XMLID_4_" gradientUnits="userSpaceOnUse" x1="1.45" y1="99.9" x2="198.95" y2="99.9" gradientTransform="matrix(1 0 0 -1 0 200)">
		<stop  offset="0" style="stop-color:#FFFFFF"/>
		<stop  offset="8.335738e-002" style="stop-color:#F8F8F9"/>
		<stop  offset="0.2074" style="stop-color:#E4E6E8"/>
		<stop  offset="0.356" style="stop-color:#C3C8CD"/>
		<stop  offset="0.4504" style="stop-color:#AAB1B9"/>
		<stop  offset="0.9109" style="stop-color:#FBFBFB"/>
		<stop  offset="0.9338" style="stop-color:#F1F2F3"/>
		<stop  offset="0.9727" style="stop-color:#D6D9DD"/>
		<stop  offset="1" style="stop-color:#BFC4CA"/>
	</linearGradient>
	<path id="XMLID_241_" style="fill:url(#XMLID_3_);stroke:url(#XMLID_4_);stroke-width:0.5;stroke-miterlimit:10;" d="M100.2,1.6c-54.4,0-98.5,44.1-98.5,98.5s44.1,98.5,98.5,98.5s98.5-44.1,98.5-98.5
		S154.6,1.6,100.2,1.6z M100.2,189.9c-49.6,0-89.8-40.2-89.8-89.8s40.2-89.8,89.8-89.8S190,50.5,190,100.1S149.8,189.9,100.2,189.9z
		"/>
	
		<linearGradient id="XMLID_5_" gradientUnits="userSpaceOnUse" x1="100.2" y1="199.2816" x2="100.2" y2="-13.4298" gradientTransform="matrix(1 0 0 -1 0 200)">
		<stop  offset="0" style="stop-color:#FFFFFF"/>
		<stop  offset="0.1851" style="stop-color:#F8F8F9"/>
		<stop  offset="0.4603" style="stop-color:#E4E6E8"/>
		<stop  offset="0.7903" style="stop-color:#C3C8CD"/>
		<stop  offset="1" style="stop-color:#AAB1B9"/>
	</linearGradient>
	<circle id="XMLID_240_" style="fill:url(#XMLID_5_)" cx="100.2" cy="100.1" r="89.8"/>
	
		<linearGradient id="XMLID_6_" gradientUnits="userSpaceOnUse" x1="100.2" y1="190.5111" x2="100.2" y2="-3.427" gradientTransform="matrix(1 0 0 -1 0 200)">
		<stop  offset="0" style="stop-color:#AAB1B9"/>
		<stop  offset="0.2097" style="stop-color:#C3C8CD"/>
		<stop  offset="0.5397" style="stop-color:#E4E6E8"/>
		<stop  offset="0.8149" style="stop-color:#F8F8F9"/>
		<stop  offset="1" style="stop-color:#FFFFFF"/>
	</linearGradient>
	<circle id="XMLID_21_" style="fill:url(#XMLID_6_);" cx="100.2" cy="100.1" r="89.8"/>
</g>
<circle id="XMLID_1_" class="canChangeFill" style="fill:#F24C4C;" cx="100.2" cy="100.1" r="86.5"/>
<linearGradient id="XMLID_7_" gradientUnits="userSpaceOnUse" x1="150.3594" y1="49.6593" x2="49.9594" y2="150.0594" gradientTransform="matrix(1 0 0 -1 0 200)">
	<stop  offset="0" style="stop-color:#000000;stop-opacity:0"/>
	<stop  offset="0.928" style="stop-color:#000000;stop-opacity:0.1856"/>
	<stop  offset="1" style="stop-color:#000000;stop-opacity:0.2"/>
</linearGradient>
<path id="XMLID_18_" style="fill:url(#XMLID_7_);" d="M171.1,97.8c1.3,41.1-32.2,74.6-73.3,73.3c-37.2-1.2-67.5-31.5-68.6-68.6
	c-1.3-41.1,32.2-74.6,73.3-73.3C139.7,30.3,169.9,60.6,171.1,97.8z"/>
<linearGradient id="XMLID_8_" gradientUnits="userSpaceOnUse" x1="25.2793" y1="143.1472" x2="175.1135" y2="56.6404" gradientTransform="matrix(1 0 0 -1 0 200)">
	<stop  offset="0" style="stop-color:#000000;stop-opacity:0"/>
	<stop  offset="0.928" style="stop-color:#000000;stop-opacity:0.464"/>
	<stop  offset="1" style="stop-color:#000000;stop-opacity:0.5"/>
</linearGradient>
<path id="XMLID_239_" style="fill:url(#XMLID_8_);" d="M100.2,13.6c-47.7,0-86.5,38.7-86.5,86.5c0,47.7,38.7,86.5,86.5,86.5
	c47.7,0,86.5-38.7,86.5-86.5C186.6,52.3,147.9,13.6,100.2,13.6z M97.8,171c-37.2-1.2-67.5-31.5-68.6-68.6
	c-1.3-41.1,32.2-74.6,73.3-73.3c37.2,1.2,67.5,31.5,68.6,68.6C172.4,138.8,138.9,172.4,97.8,171z"/>
</svg>
