<?xml version="1.0" encoding="utf-8"?>
<!-- Generator: Adobe Illustrator 21.0.0, SVG Export Plug-In . SVG Version: 6.00 Build 0)  -->
<svg version="1.1" id="图层_1" xmlns="http://www.w3.org/2000/svg" xmlns:xlink="http://www.w3.org/1999/xlink" x="0px" y="0px"
	 viewBox="0 0 438 512" style="enable-background:new 0 0 438 512;" width="438px" height="512px" xml:space="preserve">
<style type="text/css">
	.st0{fill:#E50A11;}
	.st1{fill:#464244;}
	.st2{fill:#6E6B6C;}
	.st3{fill:#D80A17;}
	.st4{fill:#1B1717;}
	.st5{fill:#E9503F;}
	.st6{fill:#EC7D77;}
	.st7{fill:#BA0307;}
	.st8{fill:url(#SVGID_1_);}
	.st9{fill:url(#SVGID_2_);}
	.st10{fill:url(#SVGID_3_);}
	.st11{fill:url(#SVGID_4_);}
	.st12{fill:url(#SVGID_5_);}
</style>
<g>
	<path class="st0" d="M437.8,461.1L380.1,49.4c-1.5-10.9-9.1-19.9-19.5-23.2C301.5,7.7,219,9,219,9S136.5,7.7,77.5,26.2
		c-10.4,3.3-18,12.3-19.5,23.2L0.2,461.1c-1.5,10.5,4.6,20.5,14.6,24c27.9,9.9,92,26.9,204.2,26.9s176.3-16.9,204.2-26.9
		C433.1,481.6,439.2,471.6,437.8,461.1z"/>
	<path class="st1" d="M14.7,357.9L0.2,461.1c-1.5,10.5,4.6,20.5,14.6,24c27.9,9.9,92,26.9,204.2,26.9s176.3-16.9,204.2-26.9
		c9.9-3.5,16-13.5,14.6-24L423,355.6C290.5,379.4,154.2,379.4,14.7,357.9z"/>
	<path class="st2" d="M29.3,489.8c17.7,5.2,43.2,11.2,77.8,15.6l4.3-136.1c-21.9-1.8-44-4.2-66.1-7.1L29.3,489.8z"/>
	<g>
		<g>
			<path class="st3" d="M395,348.5L357.3,63c-1-7.7-7.6-13.5-15.4-13.5h-9.1l17.6,305C365.4,352.8,380.2,350.8,395,348.5z"/>
		</g>
	</g>
	<path class="st4" d="M359,501.2c23.6-4.1,41.6-8.8,54.5-12.9L396.6,360c-15.1,2.3-30.2,4.4-45.4,6.1L359,501.2z"/>
	<path class="st5" d="M71.9,41.6H364C364,41.6,207.2,2.8,71.9,41.6z"/>
	<path class="st4" d="M13.4,367c22.5,4,109.9,18.3,205.6,18.3S402.1,371,424.6,367l-1.6-11.4c-132.5,23.7-268.8,23.8-408.3,2.3
		L13.4,367z"/>
	<path class="st4" d="M423.2,485.1c9.9-3.5,16-13.5,14.6-24l-0.7-5c-30.9,14.1-98,35.9-218.1,36.3C98.9,492.1,31.8,470.3,0.9,456.2
		l-0.7,5c-1.5,10.5,4.6,20.5,14.6,24c27.9,9.9,92,26.9,204.2,26.9S395.3,495.1,423.2,485.1z"/>
	<path class="st6" d="M111.7,357.3l9.7-307.8h-19.5c-10,0-18.4,7.4-19.6,17.4L46.8,350.1C64.2,352.7,85.8,355.2,111.7,357.3z"/>
	<ellipse class="st7" cx="219" cy="220.9" rx="94.9" ry="95.1"/>
	<ellipse class="st5" cx="219" cy="220.9" rx="85.4" ry="85.6"/>
	
		<radialGradient id="SVGID_1_" cx="218.0173" cy="220.9417" r="67.7998" gradientTransform="matrix(0.9983 0 0 1 1.364 0)" gradientUnits="userSpaceOnUse">
		<stop  offset="0" style="stop-color:#FFFFFF"/>
		<stop  offset="1" style="stop-color:#FFFFFF;stop-opacity:0"/>
	</radialGradient>
	<ellipse class="st8" cx="219" cy="220.9" rx="67.7" ry="67.8"/>
	<g>
		
			<radialGradient id="SVGID_2_" cx="263.3024" cy="153.142" r="150.9621" gradientTransform="matrix(0.9983 0 0 4.997500e-02 1.364 145.4887)" gradientUnits="userSpaceOnUse">
			<stop  offset="0" style="stop-color:#FFFFFF"/>
			<stop  offset="1" style="stop-color:#FFFFFF;stop-opacity:0"/>
		</radialGradient>
		<ellipse class="st9" cx="264.2" cy="153.1" rx="152.9" ry="8.7"/>
		
			<radialGradient id="SVGID_3_" cx="1583.3125" cy="-1340.03" r="150.962" gradientTransform="matrix(0 1 -4.988758e-02 0 197.355 -1430.1705)" gradientUnits="userSpaceOnUse">
			<stop  offset="0" style="stop-color:#FFFFFF"/>
			<stop  offset="1" style="stop-color:#FFFFFF;stop-opacity:0"/>
		</radialGradient>
		<ellipse class="st10" cx="264.2" cy="153.1" rx="8.7" ry="153.1"/>
	</g>
	<g>
		
			<radialGradient id="SVGID_4_" cx="245.2267" cy="170.6875" r="111.1618" gradientTransform="matrix(0.9983 0 0 4.997500e-02 1.364 162.1574)" gradientUnits="userSpaceOnUse">
			<stop  offset="0" style="stop-color:#FFFFFF"/>
			<stop  offset="1" style="stop-color:#FFFFFF;stop-opacity:0"/>
		</radialGradient>
		<ellipse class="st11" cx="246.2" cy="170.7" rx="112.6" ry="6.4"/>
		
			<radialGradient id="SVGID_5_" cx="1600.858" cy="-1321.9543" r="111.1618" gradientTransform="matrix(0 1 -4.988758e-02 0 180.2127 -1430.1705)" gradientUnits="userSpaceOnUse">
			<stop  offset="0" style="stop-color:#FFFFFF"/>
			<stop  offset="1" style="stop-color:#FFFFFF;stop-opacity:0"/>
		</radialGradient>
		<ellipse class="st12" cx="246.2" cy="170.7" rx="6.4" ry="112.8"/>
	</g>
</g>
</svg>
