<svg height="154" xmlns:xlink="http://www.w3.org/1999/xlink" viewBox="0 0 152 154" width="152" xmlns="http://www.w3.org/2000/svg">
    <defs>
        <linearGradient id="lg1" y1="0%" x1="100%" x2="0%" y2="0%">
            <stop stop-color="#292525" offset="0"/>
            <stop stop-color="#868584" offset="0.02"/>
            <stop stop-color="#383433" offset="0.02"/>
            <stop stop-color="#373332" offset="0.64"/>
            <stop stop-color="#363130" offset="0.95"/>
            <stop stop-color="#252221" offset="1"/>
        </linearGradient>
        <linearGradient gradientUnits="userSpaceOnUse" id="lg2" y1="20" x1="-3" x2="29" y2="8">
            <stop stop-color="#000000" offset="0"/>
            <stop stop-color="#454545" offset="0.15"/>
            <stop stop-color="#b3b3b3" offset="0.25"/>
            <stop stop-color="#000000" offset="0.44"/>
            <stop stop-color="#000000" offset="0.6"/>
            <stop stop-color="#000000" offset="0.8"/>
            <stop stop-color="#000000" offset="0.97"/>
            <stop stop-color="#000000" offset="1"/>
        </linearGradient>
        <linearGradient gradientUnits="userSpaceOnUse" id="lg3" y1="8" x1="32" x2="-3" y2="21">
            <stop stop-color="#676768" offset="0"/>
            <stop stop-color="#939394" offset="0.15"/>
            <stop stop-color="#c9c9ca" offset="0.25"/>
            <stop stop-color="#767677" offset="0.44"/>
            <stop stop-color="#696969" offset="0.6"/>
            <stop stop-color="#575758" offset="0.8"/>
            <stop stop-color="#4f4f50" offset="0.97"/>
            <stop stop-color="#6b6b6c" offset="1"/>
        </linearGradient>
        <linearGradient gradientUnits="userSpaceOnUse" id="lg4" y1="12" x1="10" x2="-4" y2="17">
            <stop stop-color="#b6b6b6" offset="0"/>
            <stop stop-color="#efefef" offset="0.15"/>
            <stop stop-color="#f6f6f6" offset="0.25"/>
            <stop stop-color="#d0d0d0" offset="0.44"/>
            <stop stop-color="#b9b9b9" offset="0.6"/>
            <stop stop-color="#9c9c9c" offset="0.8"/>
            <stop stop-color="#8f8f8f" offset="0.97"/>
            <stop stop-color="#bebebe" offset="1"/>
        </linearGradient>
        <linearGradient gradientUnits="userSpaceOnUse" id="lg5" y1="4" x1="16" x2="-2" y2="11">
            <stop stop-color="#b6b6b6" offset="0"/>
            <stop stop-color="#efefef" offset="0.15"/>
            <stop stop-color="#f6f6f6" offset="0.25"/>
            <stop stop-color="#d0d0d0" offset="0.44"/>
            <stop stop-color="#b9b9b9" offset="0.6"/>
            <stop stop-color="#9c9c9c" offset="0.8"/>
            <stop stop-color="#8f8f8f" offset="0.97"/>
            <stop stop-color="#bebebe" offset="1"/>
        </linearGradient>
        <linearGradient gradientUnits="userSpaceOnUse" id="lg6" y1="2" x1="8" x2="-1" y2="5">
            <stop stop-color="#c3a156" offset="0"/>
            <stop stop-color="#fed681" offset="0.15"/>
            <stop stop-color="#fee8c2" offset="0.25"/>
            <stop stop-color="#deb863" offset="0.44"/>
            <stop stop-color="#c6a457" offset="0.6"/>
            <stop stop-color="#a78a48" offset="0.8"/>
            <stop stop-color="#997e42" offset="0.97"/>
            <stop stop-color="#cba859" offset="1"/>
        </linearGradient>
        <linearGradient gradientUnits="userSpaceOnUse" id="lg7" y1="2" x1="9" x2="-1" y2="6">
            <stop stop-color="#c3a156" offset="0"/>
            <stop stop-color="#fed681" offset="0.15"/>
            <stop stop-color="#fee8c2" offset="0.25"/>
            <stop stop-color="#deb863" offset="0.44"/>
            <stop stop-color="#c6a457" offset="0.6"/>
            <stop stop-color="#a78a48" offset="0.8"/>
            <stop stop-color="#997e42" offset="0.97"/>
            <stop stop-color="#cba859" offset="1"/>
        </linearGradient>
        <linearGradient id="lg8" y1="0%" x1="0%" x2="100%" y2="0%">
            <stop stop-color="#939394" offset="0"/>
            <stop stop-color="#b4b4b4" offset="0.14"/>
            <stop stop-color="#767677" offset="0.44"/>
            <stop stop-color="#696969" offset="0.6"/>
            <stop stop-color="#575758" offset="0.8"/>
            <stop stop-color="#4f4f50" offset="0.97"/>
            <stop stop-color="#6b6b6c" offset="1"/>
        </linearGradient>
        <linearGradient gradientUnits="userSpaceOnUse" id="lg9" y1="-1" x1="1" x2="21" y2="23">
            <stop stop-color="#b6b6b6" offset="0"/>
            <stop stop-color="#efefef" offset="0.15"/>
            <stop stop-color="#f6f6f6" offset="0.25"/>
            <stop stop-color="#d0d0d0" offset="0.44"/>
            <stop stop-color="#b9b9b9" offset="0.6"/>
            <stop stop-color="#9c9c9c" offset="0.8"/>
            <stop stop-color="#8f8f8f" offset="0.97"/>
            <stop stop-color="#bebebe" offset="1"/>
        </linearGradient>
        <linearGradient gradientUnits="userSpaceOnUse" id="lg10" y1="1" x1="-1" x2="16" y2="14">
            <stop stop-color="#b6b6b6" offset="0"/>
            <stop stop-color="#efefef" offset="0.15"/>
            <stop stop-color="#f6f6f6" offset="0.25"/>
            <stop stop-color="#d0d0d0" offset="0.44"/>
            <stop stop-color="#b9b9b9" offset="0.6"/>
            <stop stop-color="#9c9c9c" offset="0.8"/>
            <stop stop-color="#8f8f8f" offset="0.97"/>
            <stop stop-color="#bebebe" offset="1"/>
        </linearGradient>
        <linearGradient gradientUnits="userSpaceOnUse" id="lg11" y1="1" x1="-1" x2="8" y2="6">
            <stop stop-color="#c3a156" offset="0"/>
            <stop stop-color="#fed681" offset="0.15"/>
            <stop stop-color="#fee8c2" offset="0.25"/>
            <stop stop-color="#deb863" offset="0.44"/>
            <stop stop-color="#c6a457" offset="0.6"/>
            <stop stop-color="#a78a48" offset="0.8"/>
            <stop stop-color="#997e42" offset="0.97"/>
            <stop stop-color="#cba859" offset="1"/>
        </linearGradient>
    </defs>
    <g transform="translate(1,1)">
        <path id="shape1" d="M2.4,0L147.5,0C148.9,0,150,1.1,150,2.4L150,149.5C150,150.9,148.9,152,147.5,152L2.4,152C1.1,152,0,150.9,0,149.5L0,2.4C0,1.1,1.1,0,2.4,0z" fill="url(#lg1)"/>
        <path id="shape2" d="M2.4,0L129.1,0C130.4,0,131.5,1.1,131.5,2.4L131.5,131C131.5,132.3,130.4,133.4,129.1,133.4L2.4,133.4C1.1,133.4,0,132.3,0,131L0,2.4C0,1.1,1.1,0,2.4,0z" fill="#888889" transform="translate(9.27,9.3)"/>
        <path id="shape3" d="M2.3,0L123.3,0C124.6,0,125.6,1,125.6,2.3L125.6,125.2C125.6,126.4,124.6,127.5,123.3,127.5L2.3,127.5C1,127.5,0,126.4,0,125.2L0,2.3C0,1,1,0,2.3,0z" fill="#eeeeee" transform="translate(12.19,12.51)"/>
        <path id="shape4" d="M0,0L23.5,28L26.3,25.3L0,0z" fill="url(#lg2)" transform="translate(81.9,79.33)"/>
        <path stroke="#000000" id="shape5" d="M0,0L6.8,0" fill="none" transform="translate(71.58,113.41)"/>
        <path stroke="#000000" id="shape6" d="M0,0L6,2.8" fill="none" transform="translate(74.19,94.35)"/>
        <path stroke="#000000" id="shape7" d="M0,0L3.1,5.2" fill="none" transform="translate(95.06,72.81)"/>
        <path stroke="#000000" id="shape8" d="M0,0L0,6.2" fill="none" transform="translate(115.61,69.39)"/>
        <path id="shape9" d="M0,14.3C0,6.4,6.4,0,14.3,0C22.2,0,28.7,6.4,28.7,14.3C28.7,22.2,22.2,28.7,14.3,28.7C6.4,28.7,0,22.2,0,14.3z" fill="url(#lg3)" transform="translate(101.28,100.09)"/>
        <path id="shape10" d="M2.4,0C4.6,0,5.7,1.1,5.7,2.4L5.7,26.1C5.7,27.4,4.6,28.5,3.3,28.5C1.1,28.5,-0,27.4,-0,26.1L-0,2.4C-0,1.1,1.1,0,2.4,0z" fill="url(#lg4)" transform="matrix(0.71,0.71,-0.71,0.71,123.7,102.3)"/>
        <path id="shape11" d="M5.7,.8L5.7,6.5C5.7,7.8,4.6,8.9,3.3,8.9C1.1,8.9,-0,7.8,-0,6.5L-0,0L5.7,.8z" fill="#dcdcdd" transform="matrix(-0.71,0.71,0.71,0.71,121.4,116.2)"/>
        <path id="shape12" d="M0,7.5C0,3.3,3.3,0,7.5,0C11.6,0,14.9,3.3,14.9,7.5C14.9,11.6,11.6,14.9,7.5,14.9C3.3,14.9,0,11.6,0,7.5z" fill="url(#lg5)" transform="translate(108.15,106.97)"/>
        <path id="shape13" d="M0,3.7C0,1.6,1.6,0,3.7,0C5.7,0,7.3,1.6,7.3,3.7C7.3,5.7,5.7,7.3,3.7,7.3C1.6,7.3,0,5.7,0,3.7z" fill="url(#lg6)" transform="translate(111.94,110.76)"/>
        <path id="shape14" d="M.5,0C.8,0,1,.2,1,.5L1,6.1C1,6.4,.8,6.6,.5,6.6C.2,6.6,-0,6.4,-0,6.1L-0,.5C-0,.2,.2,0,.5,0z" fill="#9d7d37" transform="translate(115.08,111.11)"/>
        <g transform="translate(125.67,75.07)">
            <path id="shape15" d="M0,4.3C0,1.9,1.9,0,4.3,0C6.6,0,8.5,1.9,8.5,4.3C8.5,6.6,6.6,8.5,4.3,8.5C1.9,8.5,0,6.6,0,4.3z" fill="url(#lg7)" transform="matrix(0.71,-0.71,0.71,0.71,-1.8,4.3)"/>
            <g transform="matrix(0.71,-0.71,0.71,0.71,0.4,4.3)">
                <path id="shape16" d="M.4,0C.7,0,.9,.2,.9,.4L.9,5.1C.9,5.3,.7,5.5,.4,5.5C.2,5.5,-0,5.3,-0,5.1L-0,.4C-0,.2,.2,0,.4,0z" fill="#9d7d37" transform="translate(2.31,-0.02)"/>
                <path id="shape17" d="M.4,0C.7,0,.9,.2,.9,.4L.9,5.1C.9,5.3,.7,5.5,.4,5.5C.2,5.5,-0,5.3,-0,5.1L-0,.4C-0,.2,.2,0,.4,0z" fill="#9d7d37" transform="matrix(0,-1,1,0,-0,3.2)"/>
            </g>
        </g>
        <g transform="translate(81.66,129.26)">
            <path id="shape18" d="M0,4.3C0,1.9,1.9,0,4.3,0C6.6,0,8.5,1.9,8.5,4.3C8.5,6.6,6.6,8.5,4.3,8.5C1.9,8.5,0,6.6,0,4.3z" fill="url(#lg7)" transform="matrix(0.71,-0.71,0.71,0.71,-1.8,4.3)"/>
            <g transform="matrix(0.71,-0.71,0.71,0.71,0.4,4.3)">
                <path id="shape19" d="M.4,0C.7,0,.9,.2,.9,.4L.9,5.1C.9,5.3,.7,5.5,.4,5.5C.2,5.5,-0,5.3,-0,5.1L-0,.4C-0,.2,.2,0,.4,0z" fill="#9d7d37" transform="translate(2.31,-0.02)"/>
                <path id="shape20" d="M.4,0C.7,0,.9,.2,.9,.4L.9,5.1C.9,5.3,.7,5.5,.4,5.5C.2,5.5,-0,5.3,-0,5.1L-0,.4C-0,.2,.2,0,.4,0z" fill="#9d7d37" transform="matrix(0,-1,1,0,-0,3.2)"/>
            </g>
        </g>
        <path id="shape21" d="M0,0L23.5,28L26.3,25.3L0,0z" fill="url(#lg2)" transform="matrix(-1,0,0,-1,66.5,72.7)"/>
        <path stroke="#000000" id="shape22" d="M0,0L6.8,0" fill="none" transform="matrix(-1,0,0,-1,76.8,38.7)"/>
        <path stroke="#000000" id="shape23" d="M0,0L6,2.8" fill="none" transform="matrix(-1,0,0,-1,74.2,57.7)"/>
        <path stroke="#000000" id="shape24" d="M0,0L3.1,5.2" fill="none" transform="matrix(-1,0,0,-1,53.3,79.3)"/>
        <path stroke="#000000" id="shape25" d="M0,0L0,6.2" fill="none" transform="matrix(-1,0,0,-1,32.7,82.7)"/>
        <path id="shape26" d="M0,14.3C0,6.4,6.4,0,14.3,0C22.2,0,28.7,6.4,28.7,14.3C28.7,22.2,22.2,28.7,14.3,28.7C6.4,28.7,0,22.2,0,14.3z" fill="url(#lg8)" transform="matrix(-1,0,0,-1,47.1,52)"/>
        <path id="shape27" d="M20.9,.7C22.5,2.3,22.5,3.8,21.5,4.8L4.8,21.5C3.8,22.5,2.3,22.5,1.4,21.5C-0.2,19.9,-0.2,18.4,.7,17.5L17.5,.7C18.4,-0.2,19.9,-0.2,20.9,.7z" fill="url(#lg9)" transform="matrix(-1,0,0,-1,43.9,48.8)"/>
        <path id="shape28" d="M9,4.1L5,8.1C4.1,9.1,2.5,9.1,1.6,8.1C-0,6.5,0,5,.9,4.1L5.5,-0.5L9,4.1z" fill="#dcdcdd" transform="matrix(1,0,0,-1,21.4,35.4)"/>
        <path id="shape29" d="M0,7.5C0,3.3,3.3,0,7.5,0C11.6,0,14.9,3.3,14.9,7.5C14.9,11.6,11.6,14.9,7.5,14.9C3.3,14.9,0,11.6,0,7.5z" fill="url(#lg10)" transform="matrix(-1,0,0,-1,40.2,45.1)"/>
        <path id="shape30" d="M-0,3.7C-0,1.6,1.6,0,3.7,0C5.7,0,7.3,1.6,7.3,3.7C7.3,5.7,5.7,7.3,3.7,7.3C1.6,7.3,-0,5.7,-0,3.7z" fill="url(#lg11)" transform="matrix(-1,0,0,-1,36.4,41.3)"/>
        <path id="shape31" d="M.5,0C.8,0,1,.2,1,.5L1,6.1C1,6.4,.8,6.6,.5,6.6C.2,6.6,-0,6.4,-0,6.1L-0,.5C-0,.2,.2,0,.5,0z" fill="#9d7d37" transform="matrix(-1,0,0,-1,33.3,41)"/>
        <g transform="matrix(0,1,-1,0,22.7,68.5)">
            <path id="shape32" d="M0,4.3C0,1.9,1.9,0,4.3,0C6.6,0,8.5,1.9,8.5,4.3C8.5,6.6,6.6,8.5,4.3,8.5C1.9,8.5,0,6.6,0,4.3z" fill="url(#lg7)" transform="matrix(0.71,-0.71,0.71,0.71,-1.8,4.3)"/>
            <g transform="matrix(0.71,-0.71,0.71,0.71,0.4,4.3)">
                <path id="shape33" d="M.4,0C.7,0,.9,.2,.9,.4L.9,5.1C.9,5.3,.7,5.5,.4,5.5C.2,5.5,-0,5.3,-0,5.1L-0,.4C-0,.2,.2,0,.4,0z" fill="#9d7d37" transform="translate(2.31,-0.02)"/>
                <path id="shape34" d="M.4,0C.7,0,.9,.2,.9,.4L.9,5.1C.9,5.3,.7,5.5,.4,5.5C.2,5.5,-0,5.3,-0,5.1L-0,.4C-0,.2,.2,0,.4,0z" fill="#9d7d37" transform="matrix(0,-1,1,0,-0,3.2)"/>
            </g>
        </g>
        <g transform="matrix(0,1,-1,0,66.7,14.3)">
            <path id="shape35" d="M0,4.3C0,1.9,1.9,0,4.3,0C6.6,0,8.5,1.9,8.5,4.3C8.5,6.6,6.6,8.5,4.3,8.5C1.9,8.5,0,6.6,0,4.3z" fill="url(#lg7)" transform="matrix(0.71,-0.71,0.71,0.71,-1.8,4.3)"/>
            <g transform="matrix(0.71,-0.71,0.71,0.71,0.4,4.3)">
                <path id="shape36" d="M.4,0C.7,0,.9,.2,.9,.4L.9,5.1C.9,5.3,.7,5.5,.4,5.5C.2,5.5,-0,5.3,-0,5.1L-0,.4C-0,.2,.2,0,.4,0z" fill="#9d7d37" transform="translate(2.31,-0.02)"/>
                <path id="shape37" d="M.4,0C.7,0,.9,.2,.9,.4L.9,5.1C.9,5.3,.7,5.5,.4,5.5C.2,5.5,-0,5.3,-0,5.1L-0,.4C-0,.2,.2,0,.4,0z" fill="#9d7d37" transform="matrix(0,-1,1,0,-0,3.2)"/>
            </g>
        </g>
        <path id="shape38" d="M-0,16.4L6.4,0L8.8,0L15.7,16.4L13.2,16.4L11.2,11.4L4.2,11.4L2.3,16.4L-0,16.4zM4.8,9.6L10.5,9.6L8.8,5.1C8.3,3.7,7.9,2.6,7.6,1.7C7.4,2.8,7.1,3.8,6.7,4.8L4.8,9.6z" fill="#595757" transform="translate(108.34,24.75)"/>
    </g>
</svg>
