<?xml version="1.0" encoding="utf-8"?>
<!-- Generator: Adobe Illustrator 21.0.0, SVG Export Plug-In . SVG Version: 6.00 Build 0)  -->
<svg version="1.1" id="图层_1" xmlns="http://www.w3.org/2000/svg" xmlns:xlink="http://www.w3.org/1999/xlink" x="0px" y="0px"
	 viewBox="0 0 438 512" style="enable-background:new 0 0 438 512;" width="438px" height="512px" xml:space="preserve">
<style type="text/css">
	.st0{fill:#236823;}
	.st1{fill:#464244;}
	.st2{fill:#6E6B6C;}
	.st3{fill:#1C3F0E;}
	.st4{fill:#1B1717;}
	.st5{fill:#428C2A;}
	.st6{fill:#3F723F;}
	.st7{fill:#3B7240;}
	.st8{fill:url(#SVGID_1_);}
</style>
<g>
	<path class="st0" d="M437.8,460.2L380.1,41.1c-1.5-11-9.1-20.3-19.5-23.6C301.5-1.3,219,0,219,0S136.5-1.3,77.5,17.5
		c-10.4,3.3-18,12.6-19.5,23.6L0.2,460.2c-1.5,10.6,4.6,20.8,14.6,24.4c27.9,10.1,92,27.3,204.2,27.3s176.3-17.2,204.2-27.3
		C433.1,481.1,439.2,470.9,437.8,460.2z"/>
	<path class="st1" d="M14.7,355.2l-14.5,105c-1.5,10.6,4.6,20.8,14.6,24.4c27.9,10.1,92,27.3,204.2,27.3s176.3-17.2,204.2-27.3
		c9.9-3.6,16-13.8,14.6-24.4L423,352.8C290.5,377,154.2,377,14.7,355.2z"/>
	<path class="st2" d="M29.3,489.4c17.7,5.3,43.2,11.4,77.8,15.9l4.3-138.5c-21.9-1.8-44-4.2-66.1-7.2L29.3,489.4z"/>
	<g>
		<g>
			<path class="st3" d="M395,345.6L357.3,55c-1-7.9-7.6-13.8-15.4-13.8h-9.1l17.6,310.4C365.4,350,380.2,347.9,395,345.6z"/>
		</g>
	</g>
	<path class="st4" d="M359,501c23.6-4.2,41.6-8.9,54.5-13.1l-16.9-130.6c-15.1,2.4-30.2,4.4-45.4,6.2L359,501z"/>
	<path class="st5" d="M71.9,33.2H364C364,33.2,207.2-6.2,71.9,33.2z"/>
	<path class="st4" d="M13.4,364.5c22.5,4.1,109.9,18.6,205.6,18.6s183.1-14.6,205.6-18.6l-1.6-11.6C290.5,377,154.2,377,14.7,355.2
		L13.4,364.5z"/>
	<path class="st4" d="M423.2,484.7c9.9-3.6,16-13.8,14.6-24.4l-0.7-5.1c-30.9,14.4-98,36.5-218.1,37c-120.1-0.4-187.2-22.6-218.1-37
		l-0.7,5.1c-1.5,10.6,4.6,20.8,14.6,24.4c27.9,10.1,92,27.3,204.2,27.3S395.3,494.8,423.2,484.7z"/>
	<path class="st6" d="M111.7,354.6l9.7-313.3h-19.5c-10,0-18.4,7.6-19.6,17.7L46.8,347.3C64.2,349.8,85.8,352.4,111.7,354.6z"/>
	<ellipse class="st3" cx="219" cy="215.8" rx="94.9" ry="96.8"/>
	<ellipse class="st7" cx="219" cy="215.8" rx="85.4" ry="87.1"/>
	
		<radialGradient id="SVGID_1_" cx="217.2433" cy="240.8953" r="27.7287" gradientTransform="matrix(2.5109 0 0 2.56 -328.425 -400.92)" gradientUnits="userSpaceOnUse">
		<stop  offset="0" style="stop-color:#236823;stop-opacity:0.99"/>
		<stop  offset="0.1179" style="stop-color:#286B28;stop-opacity:0.8733"/>
		<stop  offset="0.2523" style="stop-color:#357535;stop-opacity:0.7403"/>
		<stop  offset="0.3948" style="stop-color:#4C844C;stop-opacity:0.5992"/>
		<stop  offset="0.543" style="stop-color:#6C9A6C;stop-opacity:0.4525"/>
		<stop  offset="0.6956" style="stop-color:#96B796;stop-opacity:0.3014"/>
		<stop  offset="0.8494" style="stop-color:#C7D9C7;stop-opacity:0.1491"/>
		<stop  offset="1" style="stop-color:#FFFFFF;stop-opacity:0"/>
	</radialGradient>
	<ellipse class="st8" cx="217.1" cy="215.8" rx="69.6" ry="71"/>
</g>
</svg>
