<svg id="图层_1" data-name="图层 1" xmlns="http://www.w3.org/2000/svg" viewBox="0 0 160 72"><defs><style>.cls-1,.cls-2,.cls-3{fill:#0af;}.cls-1{opacity:0.5;}.cls-2{opacity:0.4;}</style></defs><title>画板 5 副本 3</title><rect class="cls-1" x="81.33" y="20" width="24"/><rect class="cls-1" x="54" y="20" width="24.67"/><path class="cls-2" d="M132,20V32H108V20h-2.67V32h-24V20H78.67V32H54V20H25V64H135V20ZM105.33,35V47h-24V35ZM54,35H78.67V47H54Zm0,26V50H78.67V61Zm27.33,0V50h24V61ZM132,61H108V50h24Zm0-14H108V35h24Z"/><rect class="cls-1" x="108" y="20" width="24"/><rect class="cls-3" x="25" y="8" width="110" height="12"/></svg>