<?xml version="1.0" encoding="utf-8"?>
<!-- Generator: Adobe Illustrator 15.0.0, SVG Export Plug-In . SVG Version: 6.00 Build 0)  -->
<!DOCTYPE svg PUBLIC "-//W3C//DTD SVG 1.1 Tiny//EN" "http://www.w3.org/Graphics/SVG/1.1/DTD/svg11-tiny.dtd">
<svg version="1.1" baseProfile="tiny" id="_x31_5-21"
	 xmlns="http://www.w3.org/2000/svg" xmlns:xlink="http://www.w3.org/1999/xlink" x="0px" y="0px" width="77.397px" height="91.1px"
	 viewBox="0 0 77.397 91.1" xml:space="preserve">
<g>
	<linearGradient id="SVGID_1_" gradientUnits="userSpaceOnUse" x1="21.5522" y1="17.5806" x2="56.2192" y2="17.5806">
		<stop  offset="0" style="stop-color:#6B454A"/>
		<stop  offset="0.3516" style="stop-color:#B18886"/>
		<stop  offset="0.6813" style="stop-color:#AF8483"/>
		<stop  offset="1" style="stop-color:#6E454A"/>
	</linearGradient>
	<rect x="19.365" fill="url(#SVGID_1_)" width="38.93" height="35.162"/>
	<linearGradient id="SVGID_2_" gradientUnits="userSpaceOnUse" x1="14.8857" y1="60.9497" x2="60.8857" y2="60.9497">
		<stop  offset="0" style="stop-color:#5E383D"/>
		<stop  offset="0.5" style="stop-color:#B18886"/>
		<stop  offset="1" style="stop-color:#5E383D"/>
	</linearGradient>
	<polygon fill="url(#SVGID_2_)" points="77.388,45.197 77.388,91.1 0,91.1 0,45.208 19.365,30.799 58.236,30.799 	"/>
	<g>
		<rect x="19.365" y="30.518" fill="#5E383D" width="38.93" height="0.601"/>
		<rect x="0.005" y="45.226" fill="#5E383D" width="77.392" height="0.643"/>
		<rect x="39.067" y="30.783" fill="#5E383D" width="0.701" height="10.402"/>
	</g>
	<linearGradient id="SVGID_3_" gradientUnits="userSpaceOnUse" x1="38.6909" y1="46.9351" x2="38.8579" y2="88.435">
		<stop  offset="0.0056" style="stop-color:#231E2C"/>
		<stop  offset="0.095" style="stop-color:#34303D"/>
		<stop  offset="0.2752" style="stop-color:#606068"/>
		<stop  offset="0.5056" style="stop-color:#A0A6A6"/>
		<stop  offset="0.7283" style="stop-color:#5F6369"/>
		<stop  offset="0.91" style="stop-color:#30333D"/>
		<stop  offset="1" style="stop-color:#1E212C"/>
	</linearGradient>
	<polygon fill="url(#SVGID_3_)" points="75.604,89.712 2.038,89.861 1.951,47.281 75.518,47.13 	"/>
	<radialGradient id="SVGID_4_" cx="38.7749" cy="47.9331" r="27.3403" gradientUnits="userSpaceOnUse">
		<stop  offset="0" style="stop-color:#EBD6D9"/>
		<stop  offset="1" style="stop-color:#877878"/>
	</radialGradient>
	<polygon fill="url(#SVGID_4_)" points="74.432,88.552 3.199,88.697 3.118,48.448 74.35,48.302 	"/>
	<path fill="#FFFF00" d="M40.166,88.034c-0.783-0.538-1.061,0.708-1.769,1.062s-26.411,0.117-26.411,0.117s1.179-0.589-1.297-1.297
		c-2.476-0.707-4.952-0.707-5.895-5.069s-2.123-6.131-2.123-8.489S2.319,69.64,2.79,68.343c0,0,0.707,3.891,2.358,4.363
		c0,0,0.826-2.123,1.179-4.127c0.354-2.005-0.708-4.599,0.825-5.66c0,0-0.472,3.537,0.708,7.782s1.415,6.721,3.184,6.721
		s4.598,6.366,5.895,6.366s-2.712-4.715-2.948-6.838s1.179-3.773,1.179-5.188c0-1.415-0.59-1.533-1.179-2.24
		c0,0,1.769,1.769,2.83,1.65s2.83-3.184,3.537-6.484c0,0,2.358,2.83,2.476,4.951c0.118,2.123,0.708,2.83,2.004,3.655
		s-1.179,4.009-1.179,4.952s2.24,1.061,3.537-0.236s-0.353-7.663-0.943-8.842c-0.59-1.18-1.887-7.075,0.354-9.669
		c0,0,3.891,3.302,4.952,3.302c0,0,1.415-3.655,3.773-4.834c0,0-0.236,1.533,0.118,2.947s-0.354,4.717-1.297,6.484
		c-0.943,1.77-0.589,6.367-0.118,6.485s0.707-3.065,2.358-4.835c0,0-1.179,4.244,0.236,6.014s4.009-1.062,2.476-4.48
		s-1.297-8.606,0.472-11.201c1.769-2.594,1.769-4.362,1.769-6.838c0,0,1.886,2.476,2.004,4.951c0.118,2.477,1.18,6.014,2.358,7.311
		s2.593,5.188,1.179,6.957c-1.415,1.768-2.476,2.829-2.24,4.008c0,0,1.062-0.235,2.358-0.235s4.716-0.825,4.245-4.245
		c-0.472-3.418-0.944-6.366,3.655-8.371c0,0,0,0.943,1.062,1.77c1.061,0.824,2.357,4.834,1.415,6.602
		c-0.943,1.77-1.533,8.961-2.948,9.434c0,0,1.415-0.59,2.712-2.948s0.471-2.358,2.004-2.948c0,0,0.119,4.127,1.533,4.127
		c0,0,0.354-3.891-0.118-7.191c0,0,2.005,0.471,1.887,1.768c0,0,0.235-3.301-1.297-4.951s0.708-6.603,5.542-6.957
		c0,0-0.471,0.707,0,2.123c0.471,1.414-0.59,1.886-0.59,3.301s1.297,2.004,1.297,3.184s-1.65,2.358-1.886,3.655
		s-1.179,5.423,1.297,4.362s4.834-7.074,3.773-10.729s-2.476-5.188-1.65-7.664c0,0,1.651,4.599,3.537,4.835
		c1.886,0.235,2.24-6.014,2.24-7.782c0,0,0.354,22.402,0.236,23.699s-1.179,4.362-3.773,6.485c-2.594,2.121-4.48-0.001-8.136,0.117
		s-6.839,2.004-10.612,2.004S42.052,89.331,40.166,88.034z"/>
	<radialGradient id="SVGID_5_" cx="11.5396" cy="55.9272" r="20.2424" gradientUnits="userSpaceOnUse">
		<stop  offset="0" style="stop-color:#FFE800"/>
		<stop  offset="0.0889" style="stop-color:#FFD000"/>
		<stop  offset="0.4249" style="stop-color:#FF7800"/>
		<stop  offset="0.699" style="stop-color:#FF3700"/>
		<stop  offset="0.8973" style="stop-color:#FF0F00"/>
		<stop  offset="1" style="stop-color:#FF0000"/>
	</radialGradient>
	<path fill="url(#SVGID_5_)" d="M11.633,50.894c0,0-2.477,3.891-2.123,6.484s4.009,8.725,3.066,10.729c0,0,0.354-1.651,2.004-2.948
		s0.471-6.014-0.59-7.899S11.279,52.898,11.633,50.894z"/>
	<linearGradient id="SVGID_6_" gradientUnits="userSpaceOnUse" x1="23.2764" y1="52.4243" x2="24.1763" y2="64.7197">
		<stop  offset="0" style="stop-color:#FFE800"/>
		<stop  offset="0.0889" style="stop-color:#FFD000"/>
		<stop  offset="0.4249" style="stop-color:#FF7800"/>
		<stop  offset="0.699" style="stop-color:#FF3700"/>
		<stop  offset="0.8973" style="stop-color:#FF0F00"/>
		<stop  offset="1" style="stop-color:#FF0000"/>
	</linearGradient>
	<path fill="url(#SVGID_6_)" d="M23.777,49.361c0,0-0.707,2.711-1.533,3.891s-1.769,5.306,1.65,7.311c0,0-0.471-2.357,0.354-3.655
		S26.607,51.955,23.777,49.361z"/>
	<linearGradient id="SVGID_7_" gradientUnits="userSpaceOnUse" x1="62.1934" y1="52.269" x2="57.5449" y2="64.415">
		<stop  offset="0" style="stop-color:#FFE800"/>
		<stop  offset="0.0889" style="stop-color:#FFD000"/>
		<stop  offset="0.4249" style="stop-color:#FF7800"/>
		<stop  offset="0.699" style="stop-color:#FF3700"/>
		<stop  offset="0.8973" style="stop-color:#FF0F00"/>
		<stop  offset="1" style="stop-color:#FF0000"/>
	</linearGradient>
	<path fill="url(#SVGID_7_)" d="M61.036,49.714c0,0-0.707,2.712-1.533,3.891c-0.826,1.18-1.769,5.307,1.65,7.311
		c0,0-0.471-2.357,0.354-3.654C62.333,55.963,63.866,52.308,61.036,49.714z"/>
	<linearGradient id="SVGID_8_" gradientUnits="userSpaceOnUse" x1="45.6875" y1="56.7886" x2="50.8872" y2="56.7886">
		<stop  offset="0" style="stop-color:#FFE800"/>
		<stop  offset="0.0889" style="stop-color:#FFD000"/>
		<stop  offset="0.4249" style="stop-color:#FF7800"/>
		<stop  offset="0.699" style="stop-color:#FF3700"/>
		<stop  offset="0.8973" style="stop-color:#FF0F00"/>
		<stop  offset="1" style="stop-color:#FF0000"/>
	</linearGradient>
	<path fill="url(#SVGID_8_)" d="M47.358,49.596c0,0-1.886,2.005-1.65,4.835c0.235,2.829,2.829,7.074,2.476,9.55
		c0,0,0.472-1.062,1.297-1.179c0.825-0.118,2.358-2.005,0.589-4.834C48.302,55.138,47.123,53.487,47.358,49.596z"/>
	<path fill="#FF7F00" d="M42.17,59.029c0,0,0.59,3.301-0.825,4.48s-2.477,3.773-1.415,6.604c1.062,2.829,0.471,8.017-2.24,8.135
		s-2.83-2.477-2.004-4.717c0,0-0.943,0.943-1.415,1.77c-0.472,0.825-2.123-2.004-1.651-4.952s2.123-6.839,1.179-8.726
		c0,0-1.65,3.302-3.301,3.066c-1.651-0.236-3.066-1.533-3.538-2.948c0,0-1.062,3.065,0.236,6.485
		c1.297,3.419,3.891,10.729,0.472,11.79s-4.598,1.533-5.423,0.825c-0.826-0.707,0.825-6.603-1.415-12.145c0,0-0.59,5.07-4.363,3.537
		c0,0,1.887,1.062,1.179,2.24c-0.708,1.18-2.948,4.48,0.708,8.726s0.589,2.005-2.358,1.179c-2.947-0.825-2.123-3.419-4.009-4.362
		s-4.952-3.419-4.952-7.899c0,0-0.708,1.65-0.943,3.184s-0.472,3.419-1.887,0.471c-1.415-2.947-0.708,2.596,0.943,5.07
		c1.651,2.477-0.589,9.197,14.856,8.018l14.62-0.235l3.301-3.184l5.306,1.532l3.065,1.533l8.018,0.118c0,0,5.659-1.886,7.546-1.769
		s1.062,0.117,1.887,0.117s6.602,3.066,10.14-3.301l1.297-4.952l-0.354-9.314l-1.297-1.769c0,0-0.118,3.065-0.825,2.594
		s-0.59-4.009-2.594-5.541c0,0,2.476,5.659-1.061,10.493s-4.599,4.835-6.131,4.48c0,0,2.712-6.485,1.062-11.083
		c0,0-0.118,9.785-2.948,11.201c-2.83,1.414-2.004-1.533-2.004-1.533s-0.944,0.943,0.354,2.712s0.59,2.712-0.943,1.062
		s-3.419-1.062-4.952-0.354c0,0-0.236-2.594,0.943-5.07s1.415-9.314-1.297-11.084c0,0-1.061,2.005-1.061,5.777
		c0,3.773-2.947,10.377-5.07,10.377s-4.363-0.354-2.358-5.896c2.004-5.541,0.826-6.838-0.354-9.432S43.939,59.972,42.17,59.029z"/>
	<path fill="#FF0000" d="M42.524,71.88c0,0-1.533,7.9-5.07,8.371c-3.537,0.473-6.249-4.362-6.131-7.664c0,0-0.118,3.773,0.472,4.835
		s0.825,4.127-2.712,4.952s-4.363,0.117-4.363,0.117s2.005,2.241-3.183,0.119c0,0-0.708,1.414,0.589,2.357
		c0,0-2.476,1.297-5.306-0.117c-2.83-1.416-3.184-2.83-4.48-2.359c-1.297,0.473-3.066,3.42-3.655,0.59s-1.297-4.48-2.948-5.188
		c0,0,1.179,1.65,1.179,3.301c0,1.651,0.472,5.777,5.424,6.367s6.838,0.59,8.371,1.533l16.861-0.472c0,0,0.236-0.708,1.533-1.062
		s1.533,0,2.24,0.707c0.708,0.708,6.603,0.708,6.603,0.708l7.192-0.235c0,0,3.419-2.477,5.777-2.594
		c2.358-0.119,8.371,0.589,10.494-2.24c0,0-0.825-0.001-1.886-0.59c0,0,5.542-3.302,5.306-8.136c0,0-0.471,1.296-1.65,1.886
		c0,0,0.353-4.361-1.297-5.658c0,0,4.009,12.38-11.555,13.205c0,0,0.472,0,0.943-0.59c0,0-3.065-1.18-4.009-0.236
		c0,0-0.235-1.65-1.533-2.357c0,0,1.532,5.07-2.83,4.717c0,0-0.235-2.24-2.594-2.24c0,0,3.301-4.363,1.297-7.782
		c0,0-0.354,3.065-1.415,3.772c-1.061,0.708-3.419,3.656-3.891,4.717s-3.183,1.769-3.301-2.24S45.119,73.767,42.524,71.88z"/>
	<linearGradient id="SVGID_9_" gradientUnits="userSpaceOnUse" x1="1.9976" y1="89.1108" x2="75.5674" y2="89.1108">
		<stop  offset="0.0056" style="stop-color:#231E2C"/>
		<stop  offset="0.2098" style="stop-color:#525159"/>
		<stop  offset="0.406" style="stop-color:#797C7F"/>
		<stop  offset="0.5056" style="stop-color:#888D8D"/>
		<stop  offset="0.6157" style="stop-color:#757A7C"/>
		<stop  offset="0.8378" style="stop-color:#454950"/>
		<stop  offset="1" style="stop-color:#1E212C"/>
	</linearGradient>
	<polygon fill="url(#SVGID_9_)" points="75.567,89.607 2,89.757 1.998,88.615 75.565,88.464 	"/>
</g>
</svg>
