<?xml version="1.0" encoding="utf-8"?>
<!-- Generator: Adobe Illustrator 15.0.0, SVG Export Plug-In . SVG Version: 6.00 Build 0)  -->
<!DOCTYPE svg PUBLIC "-//W3C//DTD SVG 1.1 Tiny//EN" "http://www.w3.org/Graphics/SVG/1.1/DTD/svg11-tiny.dtd">
<svg version="1.1" baseProfile="tiny" id="_x31_5-21"
	 xmlns="http://www.w3.org/2000/svg" xmlns:xlink="http://www.w3.org/1999/xlink" x="0px" y="0px" width="91.159px"
	 height="91.281px" viewBox="0 0 91.159 91.281" xml:space="preserve">
<g>
	<linearGradient id="SVGID_1_" gradientUnits="userSpaceOnUse" x1="31.1045" y1="32.1147" x2="56.1045" y2="57.1148">
		<stop  offset="0" style="stop-color:#1C2B1A"/>
		<stop  offset="0.1394" style="stop-color:#3D4F3E"/>
		<stop  offset="0.3029" style="stop-color:#5E7362"/>
		<stop  offset="0.4364" style="stop-color:#738978"/>
		<stop  offset="0.522" style="stop-color:#7A9180"/>
		<stop  offset="0.6004" style="stop-color:#748A79"/>
		<stop  offset="0.7115" style="stop-color:#637867"/>
		<stop  offset="0.8421" style="stop-color:#475948"/>
		<stop  offset="0.9865" style="stop-color:#202F1E"/>
		<stop  offset="1" style="stop-color:#1C2B1A"/>
	</linearGradient>
	<polygon fill="url(#SVGID_1_)" points="29.168,35.125 29.234,33.685 30.468,28.771 34.295,28.265 40.101,34.371 35,42.968 
		32.49,40.542 	"/>
	<linearGradient id="SVGID_2_" gradientUnits="userSpaceOnUse" x1="89.9502" y1="54.9165" x2="62.7002" y2="55.6665">
		<stop  offset="0" style="stop-color:#1C2B1A"/>
		<stop  offset="0.1394" style="stop-color:#3D4F3E"/>
		<stop  offset="0.3029" style="stop-color:#5E7362"/>
		<stop  offset="0.4364" style="stop-color:#738978"/>
		<stop  offset="0.522" style="stop-color:#7A9180"/>
		<stop  offset="0.6004" style="stop-color:#748A79"/>
		<stop  offset="0.7115" style="stop-color:#637867"/>
		<stop  offset="0.8421" style="stop-color:#475948"/>
		<stop  offset="0.9865" style="stop-color:#202F1E"/>
		<stop  offset="1" style="stop-color:#1C2B1A"/>
	</linearGradient>
	<path fill="url(#SVGID_2_)" d="M91.159,71.16c0,3.131-2.538,5.669-5.669,5.669H65.447c-3.131,0-5.669-2.538-5.669-5.669V39.472
		c0-3.131,2.538-5.67,5.669-5.67H85.49c3.131,0,5.669,2.539,5.669,5.67V71.16z"/>
	<linearGradient id="SVGID_3_" gradientUnits="userSpaceOnUse" x1="60.0371" y1="35.0405" x2="59.7871" y2="49.7906">
		<stop  offset="0" style="stop-color:#1C2B1A"/>
		<stop  offset="0.1394" style="stop-color:#3D4F3E"/>
		<stop  offset="0.3029" style="stop-color:#5E7362"/>
		<stop  offset="0.4364" style="stop-color:#738978"/>
		<stop  offset="0.522" style="stop-color:#7A9180"/>
		<stop  offset="0.6004" style="stop-color:#748A79"/>
		<stop  offset="0.7115" style="stop-color:#637867"/>
		<stop  offset="0.8421" style="stop-color:#475948"/>
		<stop  offset="0.9865" style="stop-color:#202F1E"/>
		<stop  offset="1" style="stop-color:#1C2B1A"/>
	</linearGradient>
	<polygon fill="url(#SVGID_3_)" points="86.94,36.064 86.074,33.826 39.5,33.826 33,41.841 82.607,41.841 	"/>
	<linearGradient id="SVGID_4_" gradientUnits="userSpaceOnUse" x1="87.2158" y1="36.8423" x2="76.2161" y2="56.0918">
		<stop  offset="0" style="stop-color:#1C2B1A"/>
		<stop  offset="0.1394" style="stop-color:#3D4F3E"/>
		<stop  offset="0.3029" style="stop-color:#5E7362"/>
		<stop  offset="0.4364" style="stop-color:#738978"/>
		<stop  offset="0.522" style="stop-color:#7A9180"/>
		<stop  offset="0.6004" style="stop-color:#748A79"/>
		<stop  offset="0.7115" style="stop-color:#637867"/>
		<stop  offset="0.8421" style="stop-color:#475948"/>
		<stop  offset="0.9865" style="stop-color:#202F1E"/>
		<stop  offset="1" style="stop-color:#1C2B1A"/>
	</linearGradient>
	<path fill="url(#SVGID_4_)" d="M90.989,39.493c0-3.132-2.538-5.669-5.669-5.669l-5.313,6.375c3.131,0,5.669,2.537,5.669,5.669
		L90.989,39.493z"/>
	<linearGradient id="SVGID_5_" gradientUnits="userSpaceOnUse" x1="6.4229" y1="19.7471" x2="37.167" y2="19.7471">
		<stop  offset="0" style="stop-color:#1C2B1A"/>
		<stop  offset="0.1394" style="stop-color:#3D4F3E"/>
		<stop  offset="0.3029" style="stop-color:#5E7362"/>
		<stop  offset="0.4364" style="stop-color:#738978"/>
		<stop  offset="0.522" style="stop-color:#7A9180"/>
		<stop  offset="0.6004" style="stop-color:#748A79"/>
		<stop  offset="0.7115" style="stop-color:#637867"/>
		<stop  offset="0.8421" style="stop-color:#475948"/>
		<stop  offset="0.9865" style="stop-color:#202F1E"/>
		<stop  offset="1" style="stop-color:#1C2B1A"/>
	</linearGradient>
	<path fill="url(#SVGID_5_)" d="M34.154,28.484c0.202-0.259,0.396-0.525,0.58-0.799c1.536-2.274,2.433-5.016,2.433-7.967
		c0-7.87-6.603-14.238-14.466-13.896c-3.389,0.147-4.813,1.225-6.408,1.841l-9.87,8.613l22.812,17.409L34.154,28.484z"/>
	<linearGradient id="SVGID_6_" gradientUnits="userSpaceOnUse" x1="49.6934" y1="35.3159" x2="76.6939" y2="68.3166">
		<stop  offset="0.2198" style="stop-color:#A6B8B0"/>
		<stop  offset="0.378" style="stop-color:#A0B2A9"/>
		<stop  offset="0.6021" style="stop-color:#8FA197"/>
		<stop  offset="0.8644" style="stop-color:#748679"/>
		<stop  offset="1" style="stop-color:#637566"/>
	</linearGradient>
	<path fill="url(#SVGID_6_)" d="M85.847,76.828v-30.98c0-3.131-2.538-5.67-5.669-5.67H60.135c-3.131,0-5.669,2.539-5.669,5.67v30.98
		H85.847z"/>
	<polygon fill="#001E00" points="54.754,11.125 51.463,14.586 50.005,13.988 50.005,3.778 51.463,2.88 52.719,0.719 54.754,0 	"/>
	<linearGradient id="SVGID_7_" gradientUnits="userSpaceOnUse" x1="39.9063" y1="1.8325" x2="54.7539" y2="1.8325">
		<stop  offset="0" style="stop-color:#C8C8AA"/>
		<stop  offset="0.522" style="stop-color:#E6E6F0"/>
		<stop  offset="1" style="stop-color:#C8C8AA"/>
	</linearGradient>
	<polygon fill="url(#SVGID_7_)" points="51.463,2.879 50.715,3.666 40.654,3.666 39.906,2.879 43.197,0 54.754,0 	"/>
	<linearGradient id="SVGID_8_" gradientUnits="userSpaceOnUse" x1="52.4092" y1="3.8706" x2="76.291" y2="3.8706">
		<stop  offset="0" style="stop-color:#C8C8AA"/>
		<stop  offset="0.522" style="stop-color:#E6E6F0"/>
		<stop  offset="1" style="stop-color:#C8C8AA"/>
	</linearGradient>
	<polygon fill="url(#SVGID_8_)" points="76.291,3.89 74.948,4.873 53.405,4.975 52.409,3.844 54.078,2.767 76.291,2.767 	"/>
	<linearGradient id="SVGID_9_" gradientUnits="userSpaceOnUse" x1="7.3359" y1="-1.7954" x2="37.3359" y2="65.7046">
		<stop  offset="0" style="stop-color:#A8BAB0"/>
		<stop  offset="0.1942" style="stop-color:#A2B4A9"/>
		<stop  offset="0.4694" style="stop-color:#90A397"/>
		<stop  offset="0.7913" style="stop-color:#738879"/>
		<stop  offset="1" style="stop-color:#5C7361"/>
	</linearGradient>
	<path fill="url(#SVGID_9_)" d="M29.234,33.685c1.536-2.273,2.433-5.016,2.433-7.967c0-7.87-5.946-14.298-14.25-14.25
		C9.148,11.517,3.182,17.472,3.182,25.341c0,2.953,0.885,6.073,2.423,8.348L0,39.802l0.027,6.045v39.765
		c0,3.131,2.538,5.669,5.669,5.669h63.302c3.131,0,5.669-2.538,5.669-5.669V45.847c0-3.131-2.538-5.669-5.669-5.669h-34.72
		L29.234,33.685z"/>
	<linearGradient id="SVGID_10_" gradientUnits="userSpaceOnUse" x1="62.5381" y1="62.7144" x2="77.25" y2="62.7144">
		<stop  offset="0" style="stop-color:#C8C8AA"/>
		<stop  offset="0.522" style="stop-color:#E6E6F0"/>
		<stop  offset="1" style="stop-color:#C8C8AA"/>
	</linearGradient>
	<polygon fill="url(#SVGID_10_)" points="77,61.734 75.109,63.783 74.266,64.834 63.219,64.834 62.538,63.858 66.245,60.593 
		77.25,60.593 	"/>
	<polygon fill="#001E00" points="77.197,72.564 75.109,75.763 72.711,74.564 72.711,65.101 75.109,63.858 77.197,60.66 	"/>
	<linearGradient id="SVGID_11_" gradientUnits="userSpaceOnUse" x1="41.7852" y1="3.8447" x2="51.0326" y2="15.4383">
		<stop  offset="0" style="stop-color:#4A5E59"/>
		<stop  offset="0.409" style="stop-color:#2B4938"/>
		<stop  offset="0.7689" style="stop-color:#173B22"/>
		<stop  offset="1" style="stop-color:#0F361A"/>
	</linearGradient>
	<rect x="39.906" y="2.88" fill="url(#SVGID_11_)" width="11.557" height="11.707"/>
	<g>
		<rect x="5.305" y="60.469" width="25.553" height="19.534"/>
		<radialGradient id="SVGID_12_" cx="18.7754" cy="57.0903" r="14.6039" gradientUnits="userSpaceOnUse">
			<stop  offset="0" style="stop-color:#D9B59C"/>
			<stop  offset="0.1185" style="stop-color:#D2B098"/>
			<stop  offset="0.2863" style="stop-color:#C0A18C"/>
			<stop  offset="0.4837" style="stop-color:#A18979"/>
			<stop  offset="0.7036" style="stop-color:#77685E"/>
			<stop  offset="0.9393" style="stop-color:#413E3C"/>
			<stop  offset="1" style="stop-color:#323232"/>
		</radialGradient>
		<rect x="6.364" y="61.571" fill="url(#SVGID_12_)" width="23.349" height="17.374"/>
		<g>
			<path fill="#FF0000" d="M28.611,77.758L6.449,77.673l-0.043-1.992c0,0,3.306-1.863,2.543-5.975c0,0,1.483,0.467,2.161,1.314
				s1.907,1.566,1.907,0.296s-0.89-1.44-0.975-3.729c-0.085-2.287,1.651-2.797,1.694-4.703c0,0,1.907,1.271,2.246,3.009
				s0.466,2.967,0.975,2.839c0.509-0.127,0.084-1.907,0.593-2.924c0,0,0.467,1.229,1.78,0.975s-1.188-3.517,1.017-4.322
				c0,0-0.17,0.764,0.424,1.145s0.678,2.373,0.636,3.263s0.34,1.864,1.229,1.991s1.017-2.372,2.966-2.5c0,0-0.933,2.586,0.042,3.688
				c0,0,0.636-0.424,1.483-0.34c0,0-1.483,1.187-0.509,2.627c0.975,1.441,2.33,0.934,3.136,2.416l0.043,2.967L28.611,77.758z"/>
			<path fill="#FF8500" d="M13.992,64.58c0,0-1.313,2.33-0.933,3.475s1.567,4.068,0.466,4.661s-2.203-0.382-3.475-1.398
				c0,0-0.127,1.356-0.975,2.288c-0.848,0.933-1.44,2.33-1.44,3.051s0.084,0.976,0.508,1.061l17.247,0.042
				c0,0,1.864-1.272,3.051-1.356s0.679-1.355-0.381-2.033c-1.06-0.679-4.45-3.391-3.603-6.145c0,0-0.679,3.094-1.949,2.67
				s-2.246-2.585-1.949-5.297c0,0-0.296,2.5-1.017,2.711c-0.721,0.213-1.484-0.338-1.78-1.186c0,0-0.508,1.609-0.084,2.627
				c0.424,1.017-1.313,0.424-1.737-1.229C15.518,66.868,15.476,65.088,13.992,64.58z"/>
			<path fill="#FFFF00" d="M14.543,67.884c0,0-0.424,1.357,0.254,3.603s0.128,3.347-0.89,2.754s-2.118-0.593-3.136-1.229
				c0,0-1.907,2.288-1.695,3.94l15.467,0.127c0,0,1.398-1.948,2.712-1.863c0,0-0.296-0.976-1.694-0.891c0,0-2.289-1.44-1.441-3.645
				c0,0-0.806,0.297-1.737,1.568s-1.652-0.551-1.652-1.907c0,0-0.974,0.382-1.652,1.864c-0.679,1.483-2.543,2.077-2.204,0.594
				s0.254-1.737-0.339-2.373s-2.075-1.271-1.991-2.712"/>
		</g>
		<polygon fill="#969696" points="30.136,61.996 6.745,61.995 6.788,78.563 6.11,78.563 6.11,61.275 30.136,61.275 		"/>
		<polygon fill="#FFFFFF" points="6.068,78.563 29.459,78.564 29.416,61.996 30.094,61.996 30.094,79.284 6.068,79.284 		"/>
	</g>
	<linearGradient id="SVGID_13_" gradientUnits="userSpaceOnUse" x1="62.9629" y1="57.7495" x2="70.1401" y2="72.519">
		<stop  offset="0.5165" style="stop-color:#4A5E59"/>
		<stop  offset="0.7142" style="stop-color:#2B4938"/>
		<stop  offset="0.8883" style="stop-color:#173B22"/>
		<stop  offset="1" style="stop-color:#0F361A"/>
	</linearGradient>
	<rect x="62.538" y="63.858" fill="url(#SVGID_13_)" width="12.571" height="11.905"/>
	<polygon fill="#001E00" points="67.076,9.953 67.076,61.237 75.018,62.358 76.309,60.599 76.309,2.737 	"/>
	<linearGradient id="SVGID_14_" gradientUnits="userSpaceOnUse" x1="57.335" y1="10.4976" x2="83.5596" y2="55.9077">
		<stop  offset="0.0055" style="stop-color:#4A5E59"/>
		<stop  offset="0.4122" style="stop-color:#2B4938"/>
		<stop  offset="0.7702" style="stop-color:#173B22"/>
		<stop  offset="1" style="stop-color:#0F361A"/>
	</linearGradient>
	<polygon fill="url(#SVGID_14_)" points="75,62.343 65.768,62.343 65.768,11.06 52.427,11.161 52.427,3.844 75,3.844 	"/>
</g>
</svg>
