<?xml version="1.0" encoding="utf-8"?>
<!-- Generator: Adobe Illustrator 15.0.0, SVG Export Plug-In . SVG Version: 6.00 Build 0)  -->
<!DOCTYPE svg PUBLIC "-//W3C//DTD SVG 1.1 Tiny//EN" "http://www.w3.org/Graphics/SVG/1.1/DTD/svg11-tiny.dtd">
<svg version="1.1" baseProfile="tiny" id="_x31_5-21"
	 xmlns="http://www.w3.org/2000/svg" xmlns:xlink="http://www.w3.org/1999/xlink" x="0px" y="0px" width="116.399px"
	 height="90.034px" viewBox="0 0 116.399 90.034" xml:space="preserve">
<g>
	<rect x="12.362" y="69.907" width="19.399" height="7.037"/>
	<rect x="4.471" y="55.44" width="10.39" height="19.754"/>
	<linearGradient id="SVGID_1_" gradientUnits="userSpaceOnUse" x1="5.917" y1="65.2852" x2="14.0703" y2="65.2852">
		<stop  offset="0" style="stop-color:#4A4A63"/>
		<stop  offset="0.0502" style="stop-color:#54546A"/>
		<stop  offset="0.252" style="stop-color:#787882"/>
		<stop  offset="0.4164" style="stop-color:#8E8E91"/>
		<stop  offset="0.522" style="stop-color:#969696"/>
		<stop  offset="0.6172" style="stop-color:#8F8F92"/>
		<stop  offset="0.7522" style="stop-color:#7D7D85"/>
		<stop  offset="0.91" style="stop-color:#5F5F71"/>
		<stop  offset="1" style="stop-color:#4A4A63"/>
	</linearGradient>
	<rect x="5.917" y="56.146" fill="url(#SVGID_1_)" width="8.153" height="18.279"/>
	<rect x="6.706" y="74.972" fill="#000078" width="21.832" height="8.219"/>
	<rect x="26.27" y="72.436" fill="#000332" width="4.497" height="15.709"/>
	<rect x="23.882" y="16.451" fill="#00034E" width="6.885" height="35.286"/>
	<linearGradient id="SVGID_2_" gradientUnits="userSpaceOnUse" x1="57.4629" y1="4.0991" x2="73.5674" y2="47.1797">
		<stop  offset="0" style="stop-color:#D2D2D2"/>
		<stop  offset="0.5165" style="stop-color:#A5A4A4"/>
		<stop  offset="1" style="stop-color:#7A7978"/>
	</linearGradient>
	<rect x="29.389" y="2.227" fill="url(#SVGID_2_)" width="87.011" height="86.301"/>
	<g>
		<rect x="57.452" y="2.227" fill="#505050" width="1.109" height="86.301"/>
		<rect x="86.713" y="2.227" fill="#505050" width="1.109" height="86.301"/>
	</g>
	<rect x="26.118" y="17.04" fill="#E3FFFF" width="2.149" height="32.987"/>
	<linearGradient id="SVGID_3_" gradientUnits="userSpaceOnUse" x1="51.2129" y1="50.0889" x2="51.793" y2="50.0889">
		<stop  offset="0.0056" style="stop-color:#35373B"/>
		<stop  offset="0.4888" style="stop-color:#747477"/>
		<stop  offset="1" style="stop-color:#38373B"/>
	</linearGradient>
	<rect x="50.746" y="27.19" fill="url(#SVGID_3_)" width="1.48" height="45.798"/>
	<linearGradient id="SVGID_4_" gradientUnits="userSpaceOnUse" x1="50.9512" y1="19.3076" x2="52.2324" y2="19.3076">
		<stop  offset="0.0056" style="stop-color:#35373B"/>
		<stop  offset="0.4888" style="stop-color:#747477"/>
		<stop  offset="1" style="stop-color:#38373B"/>
	</linearGradient>
	<rect x="50.951" y="16.104" fill="url(#SVGID_4_)" width="1.281" height="6.406"/>
	<linearGradient id="SVGID_5_" gradientUnits="userSpaceOnUse" x1="45.9512" y1="7.8906" x2="47.6074" y2="7.8906">
		<stop  offset="0" style="stop-color:#24384F"/>
		<stop  offset="0.5055" style="stop-color:#96A1A6"/>
		<stop  offset="1" style="stop-color:#24384F"/>
	</linearGradient>
	<rect x="45.951" y="4.688" fill="url(#SVGID_5_)" width="1.656" height="6.406"/>
	<linearGradient id="SVGID_6_" gradientUnits="userSpaceOnUse" x1="40.7998" y1="4.8638" x2="40.7998" y2="6.4302">
		<stop  offset="0" style="stop-color:#24384F"/>
		<stop  offset="0.5055" style="stop-color:#96A1A6"/>
		<stop  offset="1" style="stop-color:#24384F"/>
	</linearGradient>
	<rect x="34.701" y="4.667" fill="url(#SVGID_6_)" width="12.197" height="1.656"/>
	<linearGradient id="SVGID_7_" gradientUnits="userSpaceOnUse" x1="48.7813" y1="18.9609" x2="47.916" y2="19.4902">
		<stop  offset="0" style="stop-color:#24384F"/>
		<stop  offset="0.5055" style="stop-color:#96A1A6"/>
		<stop  offset="1" style="stop-color:#24384F"/>
	</linearGradient>
	<polygon fill="url(#SVGID_7_)" points="50.93,21.807 49.824,22.455 46.186,16.387 47.291,15.739 	"/>
	<linearGradient id="SVGID_8_" gradientUnits="userSpaceOnUse" x1="54.1768" y1="18.9048" x2="55.3311" y2="19.5781">
		<stop  offset="0" style="stop-color:#24384F"/>
		<stop  offset="0.5055" style="stop-color:#96A1A6"/>
		<stop  offset="1" style="stop-color:#24384F"/>
	</linearGradient>
	<polygon fill="url(#SVGID_8_)" points="52.134,21.807 53.239,22.455 56.878,16.387 55.772,15.739 	"/>
	<g>
		<rect x="49.545" y="21.946" fill="#A8BDDE" width="3.828" height="6.735"/>
		<polygon fill="#FFFFFF" points="53.092,22.368 50.085,22.375 50.076,29.134 49.342,29.134 49.342,21.618 53.092,21.618 		"/>
		<polygon points="50.076,28.384 53.083,28.376 53.092,21.618 53.826,21.618 53.826,29.134 50.076,29.134 		"/>
	</g>
	<g>
		<rect x="32.844" y="43.388" width="1.011" height="2.992"/>
		<rect x="32.844" y="50.12" width="1.011" height="2.991"/>
	</g>
	<rect x="34.236" y="48.657" fill="none" stroke="#CC0000" stroke-width="0.25" width="0.85" height="5.304"/>
	<g>
		<rect x="31.348" y="44.204" width="6.766" height="1.359"/>
		<rect x="31.348" y="50.936" width="6.766" height="1.36"/>
	</g>
	<g>
		<circle fill="#000032" cx="39.24" cy="15.122" r="1.54"/>
		<circle fill="#000032" cx="61.828" cy="59.271" r="1.54"/>
		<circle fill="#000032" cx="113.334" cy="84.424" r="1.54"/>
		<circle fill="#000032" cx="113.334" cy="27.442" r="1.54"/>
		<rect x="60.459" y="49.175" fill="#000032" width="1.197" height="2.737"/>
	</g>
	<radialGradient id="SVGID_9_" cx="20.7471" cy="66.7178" r="6.0171" gradientUnits="userSpaceOnUse">
		<stop  offset="0" style="stop-color:#6F6765"/>
		<stop  offset="0.098" style="stop-color:#827A77"/>
		<stop  offset="0.2966" style="stop-color:#B3ACA7"/>
		<stop  offset="0.3539" style="stop-color:#C2BCB6"/>
		<stop  offset="0.5871" style="stop-color:#AFA8A2"/>
		<stop  offset="0.7191" style="stop-color:#A29B95"/>
		<stop  offset="1" style="stop-color:#6F6765"/>
	</radialGradient>
	<circle fill="url(#SVGID_9_)" cx="20.747" cy="66.718" r="6.017"/>
	<rect y="86.807" fill="#282828" width="116.399" height="3.228"/>
	<linearGradient id="SVGID_10_" gradientUnits="userSpaceOnUse" x1="29.2334" y1="71.6777" x2="29.2334" y2="72.7538">
		<stop  offset="0.0056" style="stop-color:#35373B"/>
		<stop  offset="0.4888" style="stop-color:#747477"/>
		<stop  offset="1" style="stop-color:#38373B"/>
	</linearGradient>
	<rect x="6.335" y="71.492" fill="url(#SVGID_10_)" width="45.798" height="1.481"/>
	<linearGradient id="SVGID_11_" gradientUnits="userSpaceOnUse" x1="33.7637" y1="27.2822" x2="35.5449" y2="27.2822">
		<stop  offset="0" style="stop-color:#24384F"/>
		<stop  offset="0.5055" style="stop-color:#96A1A6"/>
		<stop  offset="1" style="stop-color:#24384F"/>
	</linearGradient>
	<rect x="33.764" fill="url(#SVGID_11_)" width="1.781" height="54.563"/>
	<g>
		<rect x="50.246" y="9.958" fill="#A8BDDE" width="2.326" height="6.734"/>
		<polygon fill="#FFFFFF" points="52.291,10.38 50.786,10.388 50.777,17.146 50.043,17.146 50.043,9.63 52.291,9.63 		"/>
		<polygon points="50.777,16.396 52.282,16.389 52.291,9.63 53.025,9.63 53.025,17.146 50.777,17.146 		"/>
	</g>
	<g>
		<rect x="55.554" y="9.958" fill="#A8BDDE" width="2.326" height="6.734"/>
		<polygon fill="#FFFFFF" points="57.599,10.38 56.094,10.388 56.085,17.146 55.351,17.146 55.351,9.63 57.599,9.63 		"/>
		<polygon points="56.085,16.396 57.59,16.389 57.599,9.63 58.333,9.63 58.333,17.146 56.085,17.146 		"/>
	</g>
	<g>
		<rect x="45.793" y="9.958" fill="#A8BDDE" width="2.326" height="6.734"/>
		<polygon fill="#FFFFFF" points="47.838,10.38 46.333,10.388 46.324,17.146 45.59,17.146 45.59,9.63 47.838,9.63 		"/>
		<polygon points="46.324,16.396 47.829,16.389 47.838,9.63 48.572,9.63 48.572,17.146 46.324,17.146 		"/>
	</g>
</g>
</svg>
