<?xml version="1.0" encoding="utf-8"?>
<!-- Generator: Adobe Illustrator 15.0.0, SVG Export Plug-In . SVG Version: 6.00 Build 0)  -->
<!DOCTYPE svg PUBLIC "-//W3C//DTD SVG 1.1 Tiny//EN" "http://www.w3.org/Graphics/SVG/1.1/DTD/svg11-tiny.dtd">
<svg version="1.1" baseProfile="tiny" xmlns="http://www.w3.org/2000/svg" xmlns:xlink="http://www.w3.org/1999/xlink" x="0px"
	 y="0px" width="75.537px" height="90.767px" viewBox="0 0 75.537 90.767" xml:space="preserve">
<g id="_x30_1-07">
</g>
<g id="_x30_8-14">
</g>
<g id="_x31_5-21">
	<g>
		<rect x="4.569" y="70.511" width="68.531" height="17.666"/>
		<rect x="66.095" y="82.847" width="8.072" height="4.568"/>
		<linearGradient id="SVGID_1_" gradientUnits="userSpaceOnUse" x1="67.1514" y1="26.2622" x2="48.9432" y2="58.2298">
			<stop  offset="0" style="stop-color:#96A0A8"/>
			<stop  offset="0.2104" style="stop-color:#9099A2"/>
			<stop  offset="0.5084" style="stop-color:#7E8792"/>
			<stop  offset="0.8572" style="stop-color:#626978"/>
			<stop  offset="1" style="stop-color:#545A6B"/>
		</linearGradient>
		<rect x="30.459" y="20.407" fill="url(#SVGID_1_)" width="43.708" height="63.811"/>
		<rect x="8" y="20.407" fill="#3B4554" width="24.806" height="63.811"/>
		<linearGradient id="SVGID_2_" gradientUnits="userSpaceOnUse" x1="9.1367" y1="16.2202" x2="22.7011" y2="70.9233">
			<stop  offset="0" style="stop-color:#CDD2E3"/>
			<stop  offset="0.511" style="stop-color:#9BA2AF"/>
			<stop  offset="1" style="stop-color:#6D777F"/>
		</linearGradient>
		<rect fill="url(#SVGID_2_)" width="31.981" height="87.72"/>
		<g>
			<rect x="4.406" y="11.358" fill="#545A6B" width="0.767" height="63.926"/>
			<rect x="15.648" y="11.358" fill="#545A6B" width="0.767" height="63.926"/>
			<rect x="26.94" y="11.358" fill="#545A6B" width="0.767" height="63.926"/>
			<rect y="11.083" fill="#545A6B" width="31.981" height="0.722"/>
			<rect y="75.003" fill="#545A6B" width="31.981" height="0.722"/>
		</g>
		<linearGradient id="SVGID_3_" gradientUnits="userSpaceOnUse" x1="40.3066" y1="44.9116" x2="56.7627" y2="76.4883">
			<stop  offset="0" style="stop-color:#CDD2E3"/>
			<stop  offset="0.5055" style="stop-color:#9BA2AF"/>
			<stop  offset="1" style="stop-color:#6D777F"/>
		</linearGradient>
		<rect x="34.57" y="45.839" fill="url(#SVGID_3_)" width="34.266" height="41.881"/>
		<rect x="41.157" y="47.106" fill="#666666" width="20.265" height="1.515"/>
		<g>
			<rect x="38.304" y="29.451" fill="#2E3D52" width="0.738" height="15.361"/>
			<rect x="42.086" y="29.451" fill="#2E3D52" width="0.738" height="15.361"/>
			<rect x="45.823" y="29.497" fill="#2E3D52" width="0.738" height="15.362"/>
			<rect x="49.605" y="29.451" fill="#2E3D52" width="0.738" height="15.362"/>
		</g>
		<rect x="34.752" y="22.668" fill="#2E3D52" width="18.729" height="6.782"/>
		<g>
			<polygon fill="#FFFFFF" points="53.937,23.038 35.353,23.044 35.306,29.044 34.494,29.044 34.494,22.255 53.937,22.255 			"/>
			<polygon points="34.494,29.043 53.078,29.037 53.125,23.036 53.937,23.036 53.937,29.826 34.494,29.826 			"/>
		</g>
		<g>
			<circle fill="#4C4C4C" cx="59.394" cy="24.998" r="3.339"/>
			<circle fill="#FFFFFF" cx="59.394" cy="24.998" r="2.346"/>
		</g>
		<g>
			<circle fill="#4C4C4C" cx="67.277" cy="24.998" r="3.339"/>
			<circle fill="#FFFFFF" cx="67.277" cy="24.998" r="2.346"/>
		</g>
		<g>
			<rect x="62.873" y="32.303" fill="#E5E5E5" width="6.78" height="10.323"/>
			<rect x="62.873" y="29.09" fill="#373A6A" width="6.78" height="3.804"/>
		</g>
		<rect x="19.332" y="17.121" fill="#000050" width="4.57" height="6.719"/>
		<rect x="18.341" y="24.665" fill="#FF0A00" width="6.607" height="3.635"/>
		<rect x="19.387" y="29.181" fill="#FFFAFF" width="4.46" height="1.432"/>
		<path fill="#545A6B" d="M14.607,45.024c0,0.823-0.499,1.339-1.112,1.339c-0.614,0-1.113-0.516-1.113-1.339
			s0.499-1.302,1.113-1.302C14.108,43.722,14.607,44.201,14.607,45.024z"/>
		<linearGradient id="SVGID_4_" gradientUnits="userSpaceOnUse" x1="45.5986" y1="56.0747" x2="60.0986" y2="88.5747">
			<stop  offset="0" style="stop-color:#CDD2E3"/>
			<stop  offset="0.478" style="stop-color:#9BA2AF"/>
			<stop  offset="1" style="stop-color:#6D777F"/>
		</linearGradient>
		<rect x="36.233" y="51.966" fill="url(#SVGID_4_)" width="30.105" height="33.713"/>
		<g>
			<polygon fill="#FFFFFF" points="66.654,52.371 36.714,52.377 36.667,85.301 35.855,85.301 35.855,51.588 66.654,51.588 			"/>
			<polygon points="35.855,85.3 65.796,85.293 65.843,52.37 66.654,52.37 66.654,86.083 35.855,86.083 			"/>
		</g>
		<g>
			<linearGradient id="SVGID_5_" gradientUnits="userSpaceOnUse" x1="4.8662" y1="1.3047" x2="6.3662" y2="10.5547">
				<stop  offset="0" style="stop-color:#96A0A8"/>
				<stop  offset="0.2104" style="stop-color:#9099A2"/>
				<stop  offset="0.5084" style="stop-color:#7E8792"/>
				<stop  offset="0.8572" style="stop-color:#626978"/>
				<stop  offset="1" style="stop-color:#545A6B"/>
			</linearGradient>
			<rect x="2.151" y="2.09" fill="url(#SVGID_5_)" width="6.774" height="6.718"/>
			<linearGradient id="SVGID_6_" gradientUnits="userSpaceOnUse" x1="24.6123" y1="-1.897" x2="26.1123" y2="7.3531">
				<stop  offset="0" style="stop-color:#96A0A8"/>
				<stop  offset="0.2104" style="stop-color:#9099A2"/>
				<stop  offset="0.5084" style="stop-color:#7E8792"/>
				<stop  offset="0.8572" style="stop-color:#626978"/>
				<stop  offset="1" style="stop-color:#545A6B"/>
			</linearGradient>
			<rect x="22.417" y="2.09" fill="url(#SVGID_6_)" width="6.774" height="6.718"/>
			<linearGradient id="SVGID_7_" gradientUnits="userSpaceOnUse" x1="14.7129" y1="-0.292" x2="16.2129" y2="8.958">
				<stop  offset="0" style="stop-color:#96A0A8"/>
				<stop  offset="0.2104" style="stop-color:#9099A2"/>
				<stop  offset="0.5084" style="stop-color:#7E8792"/>
				<stop  offset="0.8572" style="stop-color:#626978"/>
				<stop  offset="1" style="stop-color:#545A6B"/>
			</linearGradient>
			<rect x="11.128" y="2.09" fill="url(#SVGID_7_)" width="9.032" height="6.718"/>
			<linearGradient id="SVGID_8_" gradientUnits="userSpaceOnUse" x1="3.2578" y1="76.7065" x2="6.3431" y2="82.1065">
				<stop  offset="0.0056" style="stop-color:#868089"/>
				<stop  offset="0.1312" style="stop-color:#827B82"/>
				<stop  offset="0.3179" style="stop-color:#766F6D"/>
				<stop  offset="0.3371" style="stop-color:#756D6B"/>
				<stop  offset="0.4246" style="stop-color:#716A68"/>
				<stop  offset="0.6742" style="stop-color:#6C6564"/>
				<stop  offset="0.7842" style="stop-color:#635C5B"/>
				<stop  offset="1" style="stop-color:#544E4E"/>
			</linearGradient>
			<rect x="2.151" y="77.339" fill="url(#SVGID_8_)" width="6.774" height="6.719"/>
			<linearGradient id="SVGID_9_" gradientUnits="userSpaceOnUse" x1="22.123" y1="74.9731" x2="25.1732" y2="79.7178">
				<stop  offset="0.0056" style="stop-color:#868089"/>
				<stop  offset="0.1312" style="stop-color:#827B82"/>
				<stop  offset="0.3179" style="stop-color:#766F6D"/>
				<stop  offset="0.3371" style="stop-color:#756D6B"/>
				<stop  offset="0.4246" style="stop-color:#716A68"/>
				<stop  offset="0.6742" style="stop-color:#6C6564"/>
				<stop  offset="0.7842" style="stop-color:#635C5B"/>
				<stop  offset="1" style="stop-color:#544E4E"/>
			</linearGradient>
			<rect x="22.417" y="77.339" fill="url(#SVGID_9_)" width="6.774" height="6.719"/>
			<linearGradient id="SVGID_10_" gradientUnits="userSpaceOnUse" x1="12.8877" y1="75.186" x2="15.7119" y2="80.8345">
				<stop  offset="0.0056" style="stop-color:#868089"/>
				<stop  offset="0.1312" style="stop-color:#827B82"/>
				<stop  offset="0.3179" style="stop-color:#766F6D"/>
				<stop  offset="0.3371" style="stop-color:#756D6B"/>
				<stop  offset="0.4246" style="stop-color:#716A68"/>
				<stop  offset="0.6742" style="stop-color:#6C6564"/>
				<stop  offset="0.7842" style="stop-color:#635C5B"/>
				<stop  offset="1" style="stop-color:#544E4E"/>
			</linearGradient>
			<rect x="11.128" y="77.339" fill="url(#SVGID_10_)" width="9.032" height="6.719"/>
		</g>
		<rect y="86.198" fill="#00004D" width="75.537" height="4.569"/>
	</g>
</g>
<g id="_x32_2-28">
</g>
<g id="_x32_9-35">
</g>
<g id="_x33_6">
</g>
</svg>
