<?xml version="1.0" encoding="utf-8"?>
<!-- Generator: Adobe Illustrator 15.0.0, SVG Export Plug-In . SVG Version: 6.00 Build 0)  -->
<!DOCTYPE svg PUBLIC "-//W3C//DTD SVG 1.1 Tiny//EN" "http://www.w3.org/Graphics/SVG/1.1/DTD/svg11-tiny.dtd">
<svg version="1.1" baseProfile="tiny" id="_x31_5-21"
	 xmlns="http://www.w3.org/2000/svg" xmlns:xlink="http://www.w3.org/1999/xlink" x="0px" y="0px" width="99.353px" height="91.1px"
	 viewBox="0 0 99.353 91.1" xml:space="preserve">
<g>
	<linearGradient id="SVGID_1_" gradientUnits="userSpaceOnUse" x1="31.3491" y1="17.5811" x2="67.4779" y2="17.5811">
		<stop  offset="0" style="stop-color:#BDA882"/>
		<stop  offset="0.5" style="stop-color:#E6D6C2"/>
		<stop  offset="1" style="stop-color:#BDA982"/>
	</linearGradient>
	<rect x="30.403" fill="url(#SVGID_1_)" width="38.931" height="35.162"/>
	<linearGradient id="SVGID_2_" gradientUnits="userSpaceOnUse" x1="22.3569" y1="60.8438" x2="77.5354" y2="61.1719">
		<stop  offset="0" style="stop-color:#8F7A5C"/>
		<stop  offset="0.1058" style="stop-color:#988365"/>
		<stop  offset="0.2782" style="stop-color:#AF9B7D"/>
		<stop  offset="0.4948" style="stop-color:#D5C3A4"/>
		<stop  offset="0.5165" style="stop-color:#D9C7A8"/>
		<stop  offset="0.5367" style="stop-color:#D5C3A4"/>
		<stop  offset="0.7395" style="stop-color:#AF9B7D"/>
		<stop  offset="0.901" style="stop-color:#988365"/>
		<stop  offset="1" style="stop-color:#8F7A5C"/>
	</linearGradient>
	<polygon fill="url(#SVGID_2_)" points="88.427,45.197 88.427,91.1 11.039,91.1 11.039,45.208 30.405,30.799 69.275,30.799 	"/>
	<g>
		<rect x="30.403" y="30.518" fill="#8F7A5C" width="38.931" height="0.602"/>
		<rect x="11.044" y="45.226" fill="#8F7A5C" width="77.391" height="0.643"/>
		<rect x="50.105" y="30.783" fill="#8F7A5C" width="0.701" height="10.402"/>
	</g>
	<linearGradient id="SVGID_3_" gradientUnits="userSpaceOnUse" x1="12.9902" y1="68.4961" x2="86.6421" y2="68.4961">
		<stop  offset="0.0056" style="stop-color:#231E2C"/>
		<stop  offset="0.2318" style="stop-color:#5D5D64"/>
		<stop  offset="0.4097" style="stop-color:#85888A"/>
		<stop  offset="0.5" style="stop-color:#949999"/>
		<stop  offset="0.6016" style="stop-color:#818688"/>
		<stop  offset="0.8066" style="stop-color:#51555B"/>
		<stop  offset="1" style="stop-color:#1E212C"/>
	</linearGradient>
	<polygon fill="url(#SVGID_3_)" points="86.642,89.712 13.076,89.861 12.99,47.131 86.556,47.131 	"/>
	<radialGradient id="SVGID_4_" cx="48.1284" cy="52.5605" r="22.134" gradientUnits="userSpaceOnUse">
		<stop  offset="0" style="stop-color:#E3E0D9"/>
		<stop  offset="0.2497" style="stop-color:#E0D9D2"/>
		<stop  offset="0.6035" style="stop-color:#D8C7C0"/>
		<stop  offset="1" style="stop-color:#CCABA3"/>
	</radialGradient>
	<polygon fill="url(#SVGID_4_)" points="85.47,88.552 14.238,88.697 14.156,48.303 85.388,48.303 	"/>
	<path fill="#FFFF00" d="M51.205,88.033c-0.783-0.538-1.061,0.709-1.77,1.063c-0.707,0.354-26.41,0.117-26.41,0.117
		s1.179-0.59-1.297-1.297c-2.477-0.707-4.952-0.707-5.896-5.07c-0.943-4.362-2.122-6.131-2.122-8.488
		c0-2.359-0.354-4.717,0.117-6.014c0,0,0.707,3.891,2.358,4.362c0,0,0.825-2.122,1.179-4.127s-0.707-4.599,0.826-5.659
		c0,0-0.473,3.537,0.707,7.781c1.18,4.245,1.415,6.721,3.184,6.721s4.598,6.367,5.895,6.367s-2.711-4.716-2.947-6.838
		c-0.236-2.123,1.18-3.773,1.18-5.188s-0.59-1.532-1.18-2.24c0,0,1.77,1.769,2.83,1.651c1.061-0.119,2.83-3.184,3.537-6.485
		c0,0,2.357,2.83,2.477,4.952c0.117,2.122,0.707,2.829,2.004,3.654c1.297,0.826-1.18,4.01-1.18,4.953s2.24,1.061,3.537-0.236
		s-0.354-7.664-0.943-8.843s-1.887-7.075,0.354-9.669c0,0,3.893,3.302,4.953,3.302c0,0,1.414-3.655,3.773-4.834
		c0,0-0.236,1.533,0.117,2.948c0.354,1.414-0.354,4.716-1.297,6.484s-0.59,6.367-0.117,6.484c0.471,0.118,0.705-3.065,2.357-4.834
		c0,0-1.18,4.244,0.236,6.014c1.413,1.769,4.007-1.063,2.476-4.48c-1.533-3.42-1.297-8.607,0.471-11.201
		c1.77-2.594,1.77-4.363,1.77-6.839c0,0,1.885,2.476,2.004,4.952c0.117,2.477,1.18,6.013,2.357,7.311
		c1.18,1.297,2.594,5.188,1.18,6.956s-2.477,2.829-2.24,4.009c0,0,1.061-0.236,2.357-0.236s4.717-0.825,4.246-4.244
		c-0.473-3.419-0.945-6.367,3.654-8.371c0,0,0,0.943,1.061,1.769c1.063,0.825,2.357,4.834,1.416,6.603
		c-0.943,1.769-1.533,8.961-2.949,9.433c0,0,1.416-0.59,2.713-2.948c1.297-2.357,0.471-2.357,2.004-2.947
		c0,0,0.119,4.127,1.533,4.127c0,0,0.354-3.891-0.117-7.192c0,0,2.004,0.472,1.887,1.769c0,0,0.234-3.302-1.299-4.952
		c-1.531-1.65,0.709-6.603,5.543-6.956c0,0-0.471,0.707,0,2.122s-0.59,1.886-0.59,3.302c0,1.414,1.297,2.004,1.297,3.184
		c0,1.179-1.65,2.357-1.887,3.654s-1.18,5.424,1.297,4.363c2.477-1.062,4.834-7.075,3.773-10.73
		c-1.061-3.654-2.477-5.188-1.65-7.664c0,0,1.65,4.6,3.537,4.835s2.24-6.013,2.24-7.782c0,0,0.354,22.402,0.236,23.699
		c-0.119,1.297-1.18,4.363-3.773,6.485s-4.48-0.001-8.137,0.118c-3.654,0.117-6.838,2.004-10.611,2.004S53.091,89.33,51.205,88.033z
		"/>
	<path fill="#FF7F00" d="M53.208,59.029c0,0,0.59,3.301-0.824,4.48c-1.416,1.179-2.477,3.773-1.416,6.603
		c1.063,2.829,0.471,8.017-2.24,8.136c-2.71,0.117-2.829-2.477-2.003-4.717c0,0-0.943,0.943-1.416,1.769
		c-0.471,0.825-2.121-2.004-1.65-4.952c0.473-2.947,2.123-6.838,1.18-8.725c0,0-1.65,3.301-3.301,3.065
		c-1.652-0.235-3.066-1.532-3.539-2.948c0,0-1.061,3.066,0.236,6.485s3.891,10.729,0.473,11.79c-3.42,1.063-4.598,1.533-5.424,0.826
		s0.824-6.604-1.416-12.145c0,0-0.59,5.07-4.361,3.537c0,0,1.887,1.061,1.178,2.24c-0.707,1.18-2.947,4.48,0.709,8.725
		c3.654,4.245,0.588,2.006-2.359,1.18c-2.948-0.826-2.123-3.42-4.008-4.363c-1.887-0.943-4.952-3.418-4.952-7.898
		c0,0-0.708,1.649-0.943,3.183s-0.472,3.419-1.887,0.472s-0.708,2.595,0.943,5.07s-0.589,9.197,14.857,8.018l14.619-0.236
		l3.302-3.184l5.307,1.533l3.064,1.533l8.018,0.117c0,0,5.66-1.886,7.547-1.768c1.887,0.117,1.061,0.117,1.887,0.117
		c0.824,0,6.602,3.066,10.139-3.301l1.297-4.953l-0.354-9.314l-1.297-1.768c0,0-0.117,3.064-0.824,2.594
		c-0.709-0.473-0.59-4.01-2.596-5.542c0,0,2.477,5.659-1.061,10.493s-4.598,4.835-6.131,4.48c0,0,2.713-6.484,1.061-11.083
		c0,0-0.117,9.786-2.947,11.201s-2.004-1.532-2.004-1.532s-0.943,0.943,0.354,2.711c1.297,1.77,0.59,2.712-0.943,1.062
		s-3.42-1.062-4.951-0.354c0,0-0.236-2.594,0.941-5.069c1.18-2.477,1.416-9.315-1.297-11.084c0,0-1.061,2.004-1.061,5.777
		s-2.947,10.376-5.07,10.376c-2.121,0-4.361-0.354-2.357-5.896s0.826-6.839-0.354-9.433S54.978,59.973,53.208,59.029z"/>
	<path fill="#FF0000" d="M53.562,71.881c0,0-1.533,7.899-5.07,8.371c-3.536,0.472-6.247-4.363-6.13-7.664
		c0,0-0.117,3.773,0.473,4.834c0.588,1.062,0.824,4.127-2.713,4.953c-3.537,0.824-4.363,0.117-4.363,0.117s2.006,2.24-3.182,0.118
		c0,0-0.709,1.415,0.588,2.358c0,0-2.475,1.297-5.305-0.118s-3.184-2.83-4.481-2.358s-3.066,3.42-3.655,0.59
		s-1.298-4.48-2.948-5.188c0,0,1.18,1.65,1.18,3.301s0.472,5.777,5.424,6.367c4.952,0.59,6.838,0.59,8.372,1.533l16.86-0.473
		c0,0,0.236-0.707,1.533-1.061s1.531,0,2.24,0.707c0.707,0.707,6.602,0.707,6.602,0.707l7.193-0.235c0,0,3.418-2.476,5.777-2.594
		c2.357-0.118,8.371,0.589,10.492-2.24c0,0-0.824-0.001-1.885-0.59c0,0,5.541-3.302,5.305-8.136c0,0-0.471,1.297-1.65,1.887
		c0,0,0.354-4.362-1.297-5.659c0,0,4.008,12.38-11.555,13.206c0,0,0.471-0.001,0.943-0.59c0,0-3.066-1.18-4.01-0.236
		c0,0-0.234-1.65-1.531-2.357c0,0,1.531,5.07-2.83,4.716c0,0-0.236-2.24-2.594-2.24c0,0,3.301-4.362,1.297-7.782
		c0,0-0.355,3.066-1.416,3.773s-3.418,3.655-3.891,4.717c-0.471,1.061-3.184,1.768-3.301-2.24
		C53.916,78.365,56.158,73.768,53.562,71.881z"/>
	<linearGradient id="SVGID_5_" gradientUnits="userSpaceOnUse" x1="13.0361" y1="89.1113" x2="86.605" y2="89.1113">
		<stop  offset="0.0056" style="stop-color:#231E2C"/>
		<stop  offset="0.2098" style="stop-color:#525159"/>
		<stop  offset="0.406" style="stop-color:#797C7F"/>
		<stop  offset="0.5056" style="stop-color:#888D8D"/>
		<stop  offset="0.6157" style="stop-color:#757A7C"/>
		<stop  offset="0.8378" style="stop-color:#454950"/>
		<stop  offset="1" style="stop-color:#1E212C"/>
	</linearGradient>
	<polygon fill="url(#SVGID_5_)" points="86.605,89.607 13.039,89.757 13.036,88.614 86.603,88.465 	"/>
	<linearGradient id="SVGID_6_" gradientUnits="userSpaceOnUse" x1="49.6763" y1="66.0605" x2="49.6763" y2="73.5659">
		<stop  offset="0" style="stop-color:#828282"/>
		<stop  offset="0.0845" style="stop-color:#8B8B8B"/>
		<stop  offset="0.2222" style="stop-color:#A3A3A3"/>
		<stop  offset="0.3951" style="stop-color:#CBCBCB"/>
		<stop  offset="0.5" style="stop-color:#E6E6E6"/>
		<stop  offset="0.6049" style="stop-color:#CBCBCB"/>
		<stop  offset="0.7778" style="stop-color:#A3A3A3"/>
		<stop  offset="0.9155" style="stop-color:#8B8B8B"/>
		<stop  offset="1" style="stop-color:#828282"/>
	</linearGradient>
	<rect y="65.709" fill="url(#SVGID_6_)" width="99.353" height="8.654"/>
	<radialGradient id="SVGID_7_" cx="23.0781" cy="59.4258" r="20.2439" gradientUnits="userSpaceOnUse">
		<stop  offset="0" style="stop-color:#FFE800"/>
		<stop  offset="0.0889" style="stop-color:#FFD000"/>
		<stop  offset="0.4249" style="stop-color:#FF7800"/>
		<stop  offset="0.699" style="stop-color:#FF3700"/>
		<stop  offset="0.8973" style="stop-color:#FF0F00"/>
		<stop  offset="1" style="stop-color:#FF0000"/>
	</radialGradient>
	<path fill="url(#SVGID_7_)" d="M23.172,54.394c0,0-2.477,3.892-2.123,6.485s4.01,8.725,3.066,10.729c0,0,0.354-1.65,2.004-2.947
		c1.65-1.297,0.471-6.014-0.59-7.9C24.469,58.874,22.818,56.398,23.172,54.394z"/>
	<linearGradient id="SVGID_8_" gradientUnits="userSpaceOnUse" x1="34.3149" y1="52.4238" x2="35.2148" y2="64.7192">
		<stop  offset="0" style="stop-color:#FFE800"/>
		<stop  offset="0.0889" style="stop-color:#FFD000"/>
		<stop  offset="0.4249" style="stop-color:#FF7800"/>
		<stop  offset="0.699" style="stop-color:#FF3700"/>
		<stop  offset="0.8973" style="stop-color:#FF0F00"/>
		<stop  offset="1" style="stop-color:#FF0000"/>
	</linearGradient>
	<path fill="url(#SVGID_8_)" d="M34.817,49.36c0,0-0.707,2.712-1.533,3.892c-0.826,1.179-1.77,5.305,1.65,7.31
		c0,0-0.471-2.357,0.354-3.655C36.114,55.609,37.647,51.954,34.817,49.36z"/>
	<linearGradient id="SVGID_9_" gradientUnits="userSpaceOnUse" x1="72.7319" y1="54.0195" x2="68.0839" y2="66.1644">
		<stop  offset="0" style="stop-color:#FFE800"/>
		<stop  offset="0.0889" style="stop-color:#FFD000"/>
		<stop  offset="0.4249" style="stop-color:#FF7800"/>
		<stop  offset="0.699" style="stop-color:#FF3700"/>
		<stop  offset="0.8973" style="stop-color:#FF0F00"/>
		<stop  offset="1" style="stop-color:#FF0000"/>
	</linearGradient>
	<path fill="url(#SVGID_9_)" d="M71.574,51.465c0,0-0.707,2.711-1.531,3.891c-0.826,1.18-1.77,5.306,1.65,7.311
		c0,0-0.473-2.357,0.354-3.655C72.871,57.713,74.404,54.059,71.574,51.465z"/>
	<linearGradient id="SVGID_10_" gradientUnits="userSpaceOnUse" x1="59.2251" y1="61.5381" x2="64.4253" y2="61.5381">
		<stop  offset="0" style="stop-color:#FFE800"/>
		<stop  offset="0.0889" style="stop-color:#FFD000"/>
		<stop  offset="0.4249" style="stop-color:#FF7800"/>
		<stop  offset="0.699" style="stop-color:#FF3700"/>
		<stop  offset="0.8973" style="stop-color:#FF0F00"/>
		<stop  offset="1" style="stop-color:#FF0000"/>
	</linearGradient>
	<path fill="url(#SVGID_10_)" d="M60.896,54.346c0,0-1.885,2.006-1.65,4.835c0.236,2.829,2.83,7.074,2.477,9.55
		c0,0,0.473-1.061,1.297-1.179c0.826-0.118,2.357-2.005,0.59-4.834C61.839,59.889,60.662,58.236,60.896,54.346z"/>
</g>
</svg>
