<?xml version="1.0" encoding="utf-8"?>
<!-- Generator: Adobe Illustrator 15.0.0, SVG Export Plug-In . SVG Version: 6.00 Build 0)  -->
<!DOCTYPE svg PUBLIC "-//W3C//DTD SVG 1.1 Tiny//EN" "http://www.w3.org/Graphics/SVG/1.1/DTD/svg11-tiny.dtd">
<svg version="1.1" baseProfile="tiny" id="_x30_1-03"
	 xmlns="http://www.w3.org/2000/svg" xmlns:xlink="http://www.w3.org/1999/xlink" x="0px" y="0px" width="77.884px"
	 height="77.928px" viewBox="0 0 77.884 77.928" xml:space="preserve">
<g>
	<g>
		<g>
			<linearGradient id="SVGID_1_" gradientUnits="userSpaceOnUse" x1="56.605" y1="38.5269" x2="49.9398" y2="17.9018">
				<stop  offset="0" style="stop-color:#CDD2E3"/>
				<stop  offset="0.5055" style="stop-color:#9BA2AF"/>
				<stop  offset="1" style="stop-color:#6D777F"/>
			</linearGradient>
			<path fill="url(#SVGID_1_)" d="M39.504,33.476c0,0,3.071-10.1,9.907-15.568c6.369-5.095,11.179-5.52,16.277,2.831
				c5.096,8.351,5.52,24.484,0.99,26.041c-4.744,1.631-5.946-1.981-7.928-3.68c-1.98-1.698-8.492-7.076-14.576-5.803
				C44.175,37.297,42.618,32.768,39.504,33.476z"/>
			<path fill="#6D777F" d="M39.506,33.477c0,0,3.069-10.1,9.905-15.567c6.369-5.096,12.922-6.652,18.438,7.834
				c0,0-3.738-8.411-11.496-7.103c-6.711,1.132-14.02,12.896-14.979,15.867L39.506,33.477z"/>
		</g>
		<g>
			<linearGradient id="SVGID_2_" gradientUnits="userSpaceOnUse" x1="41.4956" y1="56.4395" x2="57.593" y2="50.5289">
				<stop  offset="0" style="stop-color:#CDD2E3"/>
				<stop  offset="0.5055" style="stop-color:#9BA2AF"/>
				<stop  offset="1" style="stop-color:#6D777F"/>
			</linearGradient>
			<path fill="url(#SVGID_2_)" d="M44.364,39.741c0,0,10.1,3.072,15.568,9.907c5.096,6.369,5.52,11.181-2.832,16.276
				c-8.349,5.095-24.483,5.52-26.04,0.99c-1.631-4.743,1.982-5.944,3.68-7.926c1.699-1.981,7.076-8.492,5.803-14.577
				C40.543,44.412,45.071,42.855,44.364,39.741z"/>
			<path fill="#6D777F" d="M44.362,39.742c0,0,10.1,3.071,15.568,9.906c5.096,6.369,6.653,12.923-7.833,18.437
				c0,0,8.41-3.738,7.101-11.495c-1.131-6.71-12.896-14.019-15.867-14.98L44.362,39.742z"/>
		</g>
		<g>
			<linearGradient id="SVGID_3_" gradientUnits="userSpaceOnUse" x1="22.2031" y1="41.9253" x2="28.6172" y2="62.6758">
				<stop  offset="0" style="stop-color:#CDD2E3"/>
				<stop  offset="0.5055" style="stop-color:#9BA2AF"/>
				<stop  offset="1" style="stop-color:#6D777F"/>
			</linearGradient>
			<path fill="url(#SVGID_3_)" d="M38.381,44.387c0,0-3.072,10.101-9.908,15.568c-6.369,5.095-11.18,5.521-16.275-2.83
				s-5.52-24.484-0.99-26.042c4.742-1.631,5.943,1.982,7.926,3.68c1.98,1.698,8.492,7.076,14.576,5.803
				C33.709,40.566,35.266,45.095,38.381,44.387z"/>
			<path fill="#6D777F" d="M38.379,44.386c0,0-3.07,10.101-9.906,15.568c-6.369,5.095-12.922,6.651-18.436-7.834
				c0,0,3.738,8.411,11.494,7.103c6.711-1.133,14.02-12.897,14.98-15.868L38.379,44.386z"/>
		</g>
		<g>
			<linearGradient id="SVGID_4_" gradientUnits="userSpaceOnUse" x1="32.5498" y1="20.353" x2="19.219" y2="31.9231">
				<stop  offset="0" style="stop-color:#CDD2E3"/>
				<stop  offset="0.5055" style="stop-color:#9BA2AF"/>
				<stop  offset="1" style="stop-color:#6D777F"/>
			</linearGradient>
			<path fill="url(#SVGID_4_)" d="M33.734,38.185c0,0-10.1-3.072-15.568-9.907c-5.096-6.369-5.52-11.181,2.83-16.276
				c8.352-5.095,24.483-5.52,26.04-0.99c1.631,4.743-1.98,5.944-3.68,7.926c-1.696,1.981-7.075,8.492-5.802,14.577
				C37.555,33.514,33.025,35.071,33.734,38.185z"/>
			<path fill="#6D777F" d="M33.734,38.184c0,0-10.1-3.071-15.566-9.907c-5.096-6.368-6.652-12.922,7.834-18.436
				c0,0-8.412,3.738-7.104,11.495c1.133,6.71,12.896,14.019,15.867,14.98L33.734,38.184z"/>
		</g>
		<circle fill="#576678" cx="39.039" cy="38.889" r="9.8"/>
		<circle fill="#CDD2E3" cx="39.04" cy="38.89" r="9.235"/>
		<circle fill="#17263B" cx="39.04" cy="38.888" r="7.186"/>
		<radialGradient id="SVGID_5_" cx="39.0396" cy="38.8887" r="5.9736" gradientUnits="userSpaceOnUse">
			<stop  offset="0" style="stop-color:#96A1A6"/>
			<stop  offset="1" style="stop-color:#24384F"/>
		</radialGradient>
		<circle fill="url(#SVGID_5_)" cx="39.04" cy="38.888" r="5.973"/>
	</g>
	<g>
		<linearGradient id="SVGID_6_" gradientUnits="userSpaceOnUse" x1="16.8384" y1="60.3906" x2="11.0881" y2="66.3909">
			<stop  offset="0.0056" style="stop-color:#231E2C"/>
			<stop  offset="0.5056" style="stop-color:#888D8D"/>
			<stop  offset="0.5934" style="stop-color:#767A7A"/>
			<stop  offset="0.7709" style="stop-color:#46494A"/>
			<stop  offset="0.8034" style="stop-color:#3D3F40"/>
			<stop  offset="0.9041" style="stop-color:#2B2D34"/>
			<stop  offset="1" style="stop-color:#1E212C"/>
		</linearGradient>
		<path fill="url(#SVGID_6_)" d="M6.23,54.792c0,0-0.568-1.221-1.055-2.302c0,0,3.061-0.274,5.803-1.358
			c0,0,0.771,0.115,1.939,0.115c0,0,4.846,9.693,12.924,12.834c0,0,0.447,1.615,0.404,1.75c-0.543,1.643-1.682,4.554-1.561,6.438
			c0,0-1.693-0.503-2.883-1.368c0,0,0.404-3.366,1.615-5.43c0,0-10.02-6.425-11.803-11.937C11.615,53.536,7.744,54.9,6.23,54.792z"
			/>
		<linearGradient id="SVGID_7_" gradientUnits="userSpaceOnUse" x1="16.0112" y1="16.186" x2="15.8442" y2="33.1864">
			<stop  offset="0.0056" style="stop-color:#231E2C"/>
			<stop  offset="0.5056" style="stop-color:#888D8D"/>
			<stop  offset="0.5934" style="stop-color:#767A7A"/>
			<stop  offset="0.7709" style="stop-color:#46494A"/>
			<stop  offset="0.8034" style="stop-color:#3D3F40"/>
			<stop  offset="0.9041" style="stop-color:#2B2D34"/>
			<stop  offset="1" style="stop-color:#1E212C"/>
		</linearGradient>
		<path fill="url(#SVGID_7_)" d="M22.904,6.302c0,0,1.221-0.568,2.301-1.055c0,0,0.275,3.06,1.357,5.803
			c0,0-0.113,0.771-0.113,1.938c0,0-9.693,4.846-12.836,12.924c0,0-1.615,0.449-1.75,0.404c-1.643-0.542-4.553-1.68-6.438-1.56
			c0,0,0.502-1.694,1.367-2.883c0,0,3.365,0.404,5.43,1.616c0,0,6.426-10.019,11.938-11.802C24.16,11.688,22.795,7.815,22.904,6.302
			z"/>
		<linearGradient id="SVGID_8_" gradientUnits="userSpaceOnUse" x1="59.4316" y1="18.5161" x2="74.9331" y2="4.7648">
			<stop  offset="0.0056" style="stop-color:#231E2C"/>
			<stop  offset="0.5056" style="stop-color:#888D8D"/>
			<stop  offset="0.5934" style="stop-color:#767A7A"/>
			<stop  offset="0.7709" style="stop-color:#46494A"/>
			<stop  offset="0.8034" style="stop-color:#3D3F40"/>
			<stop  offset="0.9041" style="stop-color:#2B2D34"/>
			<stop  offset="1" style="stop-color:#1E212C"/>
		</linearGradient>
		<path fill="url(#SVGID_8_)" d="M71.64,22.992c0,0,0.568,1.221,1.055,2.302c0,0-3.061,0.274-5.803,1.358
			c0,0-0.771-0.115-1.939-0.115c0,0-4.848-9.693-12.924-12.834c0,0-0.449-1.615-0.404-1.75c0.541-1.643,1.68-4.554,1.559-6.438
			c0,0,1.695,0.503,2.883,1.368c0,0-0.402,3.366-1.615,5.43c0,0,10.021,6.425,11.805,11.937
			C66.255,24.249,70.126,22.884,71.64,22.992z"/>
		<linearGradient id="SVGID_9_" gradientUnits="userSpaceOnUse" x1="58.6084" y1="64.7593" x2="71.2751" y2="44.0927">
			<stop  offset="0.0056" style="stop-color:#231E2C"/>
			<stop  offset="0.5056" style="stop-color:#888D8D"/>
			<stop  offset="0.5934" style="stop-color:#767A7A"/>
			<stop  offset="0.7709" style="stop-color:#46494A"/>
			<stop  offset="0.8034" style="stop-color:#3D3F40"/>
			<stop  offset="0.9041" style="stop-color:#2B2D34"/>
			<stop  offset="1" style="stop-color:#1E212C"/>
		</linearGradient>
		<path fill="url(#SVGID_9_)" d="M54.979,71.542c0,0-1.221,0.568-2.303,1.055c0,0-0.273-3.06-1.357-5.803
			c0,0,0.115-0.771,0.115-1.938c0,0,9.693-4.846,12.834-12.924c0,0,1.615-0.449,1.75-0.404c1.643,0.542,4.553,1.68,6.438,1.56
			c0,0-0.502,1.694-1.367,2.883c0,0-3.365-0.404-5.43-1.616c0,0-6.424,10.019-11.936,11.802
			C53.724,66.156,55.087,70.028,54.979,71.542z"/>
		<linearGradient id="SVGID_10_" gradientUnits="userSpaceOnUse" x1="48.958" y1="1.3003" x2="28.4578" y2="78.5509">
			<stop  offset="0.0056" style="stop-color:#231E2C"/>
			<stop  offset="0.0981" style="stop-color:#332F36"/>
			<stop  offset="0.2135" style="stop-color:#423F40"/>
			<stop  offset="0.5056" style="stop-color:#888D8D"/>
			<stop  offset="0.5934" style="stop-color:#767A7A"/>
			<stop  offset="0.7709" style="stop-color:#46494A"/>
			<stop  offset="0.8034" style="stop-color:#3D3F40"/>
			<stop  offset="0.9041" style="stop-color:#2B2D34"/>
			<stop  offset="1" style="stop-color:#1E212C"/>
		</linearGradient>
		<path fill="url(#SVGID_10_)" d="M38.51,77.868c23.327-0.303,39.375-17.789,39.375-38.926C77.884,17.435,60.448,0,38.941,0
			C17.436,0,0,17.435,0,38.942c0,21.092,16.23,37.997,38.666,38.986l-0.025-2.766C18.234,74.558,2.688,58.426,2.688,38.942
			c0-20.023,16.232-36.255,36.254-36.255c20.022,0,36.257,16.232,36.257,36.255c0,19.593-15.366,35.992-36.689,36.233V77.868z"/>
	</g>
</g>
</svg>
