<?xml version="1.0" encoding="utf-8"?>
<!-- Generator: Adobe Illustrator 15.0.0, SVG Export Plug-In . SVG Version: 6.00 Build 0)  -->
<!DOCTYPE svg PUBLIC "-//W3C//DTD SVG 1.1 Tiny//EN" "http://www.w3.org/Graphics/SVG/1.1/DTD/svg11-tiny.dtd">
<svg version="1.1" baseProfile="tiny" id="_x30_1-03"
	 xmlns="http://www.w3.org/2000/svg" xmlns:xlink="http://www.w3.org/1999/xlink" x="0px" y="0px" width="69.57px"
	 height="69.964px" viewBox="0 0 69.57 69.964" xml:space="preserve">
<g>
	<g>
		<linearGradient id="SVGID_1_" gradientUnits="userSpaceOnUse" x1="49.8818" y1="38.9907" x2="62.0891" y2="9.8082">
			<stop  offset="0" style="stop-color:#D2D2D2"/>
			<stop  offset="0.4013" style="stop-color:#A5A4A5"/>
			<stop  offset="0.7192" style="stop-color:#888788"/>
			<stop  offset="0.9" style="stop-color:#7D7C7D"/>
		</linearGradient>
		<path fill="url(#SVGID_1_)" d="M35.396,28.88c0,0,3.413-11.222,11.008-17.298c7.077-5.661,12.423-6.133,18.084,3.145
			s6.133,27.205,1.101,28.935c-5.271,1.812-6.604-2.202-8.806-4.089s-9.436-7.862-16.197-6.447
			C40.585,33.126,38.856,28.094,35.396,28.88z"/>
		<path fill="#7D7C7D" d="M35.396,28.882c0,0,3.413-11.223,11.008-17.298c7.077-5.661,14.358-7.391,20.485,8.705
			c0,0-4.154-9.346-12.772-7.892c-7.456,1.258-15.576,14.33-16.645,17.63L35.396,28.882z"/>
	</g>
	<g>
		<linearGradient id="SVGID_2_" gradientUnits="userSpaceOnUse" x1="30.686" y1="50.3281" x2="59.8685" y2="62.5354">
			<stop  offset="0" style="stop-color:#D2D2D2"/>
			<stop  offset="0.4013" style="stop-color:#A5A4A5"/>
			<stop  offset="0.7192" style="stop-color:#888788"/>
			<stop  offset="0.9" style="stop-color:#7D7C7D"/>
		</linearGradient>
		<path fill="url(#SVGID_2_)" d="M40.796,35.841c0,0,11.222,3.413,17.298,11.008c5.661,7.077,6.133,12.423-3.145,18.084
			s-27.205,6.133-28.935,1.101c-1.812-5.271,2.202-6.604,4.089-8.806s7.862-9.436,6.447-16.197
			C36.55,41.031,41.582,39.301,40.796,35.841z"/>
		<path fill="#7D7C7D" d="M40.794,35.842c0,0,11.223,3.413,17.298,11.008c5.661,7.077,7.391,14.358-8.705,20.485
			c0,0,9.346-4.154,7.892-12.772c-1.258-7.456-14.33-15.576-17.63-16.645L40.794,35.842z"/>
	</g>
	<g>
		<linearGradient id="SVGID_3_" gradientUnits="userSpaceOnUse" x1="19.665" y1="30.9663" x2="7.3398" y2="60.0027">
			<stop  offset="0" style="stop-color:#D2D2D2"/>
			<stop  offset="0.4013" style="stop-color:#A5A4A5"/>
			<stop  offset="0.7192" style="stop-color:#888788"/>
			<stop  offset="0.9" style="stop-color:#7D7C7D"/>
		</linearGradient>
		<path fill="url(#SVGID_3_)" d="M34.146,41.004c0,0-3.413,11.222-11.008,17.298c-7.077,5.661-12.423,6.133-18.084-3.145
			s-6.133-27.205-1.101-28.935c5.271-1.812,6.604,2.202,8.806,4.089s9.436,7.862,16.197,6.447
			C28.957,36.758,30.687,41.791,34.146,41.004z"/>
		<path fill="#7D7C7D" d="M34.146,41.003c0,0-3.413,11.223-11.008,17.298c-7.077,5.661-14.358,7.391-20.485-8.705
			c0,0,4.154,9.346,12.772,7.892c7.456-1.258,15.576-14.33,16.645-17.63L34.146,41.003z"/>
	</g>
	<g>
		<linearGradient id="SVGID_4_" gradientUnits="userSpaceOnUse" x1="39.0225" y1="19.6309" x2="9.9861" y2="7.3057">
			<stop  offset="0" style="stop-color:#D2D2D2"/>
			<stop  offset="0.4013" style="stop-color:#A5A4A5"/>
			<stop  offset="0.7192" style="stop-color:#888788"/>
			<stop  offset="0.9" style="stop-color:#7D7C7D"/>
		</linearGradient>
		<path fill="url(#SVGID_4_)" d="M28.984,34.112c0,0-11.222-3.413-17.298-11.008C6.025,16.028,5.553,10.681,14.831,5.02
			s27.205-6.133,28.935-1.101c1.812,5.271-2.202,6.604-4.089,8.806s-7.862,9.436-6.447,16.197
			C33.23,28.923,28.198,30.652,28.984,34.112z"/>
		<path fill="#7D7C7D" d="M28.985,34.112c0,0-11.223-3.413-17.298-11.008C6.026,16.027,4.297,8.746,20.392,2.619
			c0,0-9.346,4.154-7.892,12.772c1.258,7.456,14.33,15.576,17.63,16.645L28.985,34.112z"/>
	</g>
	<g>
		<path fill="none" stroke="#7D7D7D" d="M35.396,28.88c0,0,3.413-11.222,11.008-17.298c7.077-5.661,12.423-6.133,18.084,3.145
			s6.133,27.205,1.101,28.935c-5.271,1.812-6.604-2.202-8.806-4.089s-9.436-7.862-16.197-6.447
			C40.585,33.126,38.856,28.094,35.396,28.88z"/>
		<path fill="none" stroke="#7D7D7D" d="M40.689,35.79c0,0,11.222,3.413,17.298,11.008c5.661,7.077,6.133,12.423-3.145,18.084
			s-27.205,6.133-28.935,1.101c-1.812-5.271,2.202-6.604,4.089-8.806s7.862-9.436,6.447-16.197
			C36.443,40.979,41.476,39.25,40.689,35.79z"/>
		<path fill="none" stroke="#7D7D7D" d="M34.174,40.886c0,0-3.413,11.222-11.008,17.298c-7.077,5.661-12.423,6.133-18.084-3.145
			s-6.133-27.205-1.101-28.935c5.271-1.812,6.604,2.202,8.806,4.089s9.436,7.862,16.197,6.447
			C28.985,36.64,30.714,41.672,34.174,40.886z"/>
		<path fill="none" stroke="#7D7D7D" d="M29.078,34.174c0,0-11.222-3.413-17.298-11.008C6.119,16.09,5.646,10.743,14.925,5.082
			S42.13-1.051,43.86,3.981c1.812,5.271-2.202,6.604-4.089,8.806s-7.862,9.436-6.447,16.197
			C33.324,28.985,28.292,30.714,29.078,34.174z"/>
	</g>
	<radialGradient id="SVGID_5_" cx="34.8804" cy="34.896" r="10.8701" gradientUnits="userSpaceOnUse">
		<stop  offset="0" style="stop-color:#D2D2D2"/>
		<stop  offset="0.1895" style="stop-color:#CDCDCD"/>
		<stop  offset="0.4272" style="stop-color:#BDBDBD"/>
		<stop  offset="0.6906" style="stop-color:#A4A4A4"/>
		<stop  offset="0.9708" style="stop-color:#818081"/>
		<stop  offset="1" style="stop-color:#7D7C7D"/>
	</radialGradient>
	<circle fill="url(#SVGID_5_)" stroke="#787878" cx="34.88" cy="34.896" r="10.261"/>
	<circle fill="#463232" cx="34.88" cy="34.894" r="7.985"/>
	<radialGradient id="SVGID_6_" cx="34.8794" cy="34.895" r="5.5659" gradientUnits="userSpaceOnUse">
		<stop  offset="0" style="stop-color:#C8AAAA"/>
		<stop  offset="0.1833" style="stop-color:#C3A5A5"/>
		<stop  offset="0.391" style="stop-color:#B69898"/>
		<stop  offset="0.6106" style="stop-color:#9F8181"/>
		<stop  offset="0.8369" style="stop-color:#7F6161"/>
		<stop  offset="1" style="stop-color:#644646"/>
	</radialGradient>
	<circle fill="url(#SVGID_6_)" cx="34.88" cy="34.894" r="6.638"/>
</g>
</svg>
